  0
SECTION
  2
HEADER
  9
$ACADVER
  1
AC1018
  9
$ACADMAINTVER
 70
    77
  9
$DWGCODEPAGE
  3
ANSI_1252
  9
$INSBASE
 10
0.0
 20
0.0
 30
0.0
  9
$EXTMIN
 10
-0.0128164049386896
 20
-0.0090630292066862
 30
-0.0015258207003583
  9
$EXTMAX
 10
80.03173886336355
 20
80.0009312250197
 30
0.0000000349246037
  9
$LIMMIN
 10
0.0
 20
0.0
  9
$LIMMAX
 10
420.0
 20
297.0
  9
$ORTHOMODE
 70
     0
  9
$REGENMODE
 70
     1
  9
$FILLMODE
 70
     1
  9
$QTEXTMODE
 70
     0
  9
$MIRRTEXT
 70
     0
  9
$LTSCALE
 40
1.0
  9
$ATTMODE
 70
     0
  9
$TEXTSIZE
 40
1.0
  9
$TRACEWID
 40
15.68
  9
$TEXTSTYLE
  7
Standard
  9
$CLAYER
  8
0
  9
$CELTYPE
  6
ByLayer
  9
$CECOLOR
 62
   256
  9
$CELTSCALE
 40
1.0
  9
$DISPSILH
 70
     0
  9
$DIMSCALE
 40
2.5
  9
$DIMASZ
 40
2.5
  9
$DIMEXO
 40
0.625
  9
$DIMDLI
 40
3.75
  9
$DIMRND
 40
0.0
  9
$DIMDLE
 40
0.0
  9
$DIMEXE
 40
1.25
  9
$DIMTP
 40
0.0
  9
$DIMTM
 40
0.0
  9
$DIMTXT
 40
2.5
  9
$DIMCEN
 40
2.5
  9
$DIMTSZ
 40
0.0
  9
$DIMTOL
 70
     0
  9
$DIMLIM
 70
     0
  9
$DIMTIH
 70
     0
  9
$DIMTOH
 70
     0
  9
$DIMSE1
 70
     0
  9
$DIMSE2
 70
     0
  9
$DIMTAD
 70
     1
  9
$DIMZIN
 70
     8
  9
$DIMBLK
  1

  9
$DIMASO
 70
     1
  9
$DIMSHO
 70
     1
  9
$DIMPOST
  1

  9
$DIMAPOST
  1

  9
$DIMALT
 70
     0
  9
$DIMALTD
 70
     3
  9
$DIMALTF
 40
0.03937
  9
$DIMLFAC
 40
1.0
  9
$DIMTOFL
 70
     1
  9
$DIMTVP
 40
0.0
  9
$DIMTIX
 70
     0
  9
$DIMSOXD
 70
     0
  9
$DIMSAH
 70
     0
  9
$DIMBLK1
  1

  9
$DIMBLK2
  1

  9
$DIMSTYLE
  2
Standard
  9
$DIMCLRD
 70
     0
  9
$DIMCLRE
 70
     0
  9
$DIMCLRT
 70
     0
  9
$DIMTFAC
 40
1.0
  9
$DIMGAP
 40
0.625
  9
$DIMJUST
 70
     0
  9
$DIMSD1
 70
     0
  9
$DIMSD2
 70
     0
  9
$DIMTOLJ
 70
     0
  9
$DIMTZIN
 70
     8
  9
$DIMALTZ
 70
     0
  9
$DIMALTTZ
 70
     0
  9
$DIMUPT
 70
     0
  9
$DIMDEC
 70
     2
  9
$DIMTDEC
 70
     2
  9
$DIMALTU
 70
     2
  9
$DIMALTTD
 70
     3
  9
$DIMTXSTY
  7
Standard
  9
$DIMAUNIT
 70
     0
  9
$DIMADEC
 70
     0
  9
$DIMALTRND
 40
0.0
  9
$DIMAZIN
 70
     0
  9
$DIMDSEP
 70
    44
  9
$DIMATFIT
 70
     3
  9
$DIMFRAC
 70
     0
  9
$DIMLDRBLK
  1

  9
$DIMLUNIT
 70
     2
  9
$DIMLWD
 70
    -2
  9
$DIMLWE
 70
    -2
  9
$DIMTMOVE
 70
     0
  9
$LUNITS
 70
     2
  9
$LUPREC
 70
     4
  9
$SKETCHINC
 40
1.0
  9
$FILLETRAD
 40
0.0
  9
$AUNITS
 70
     0
  9
$AUPREC
 70
     2
  9
$MENU
  1
.
  9
$ELEVATION
 40
0.0
  9
$PELEVATION
 40
0.0
  9
$THICKNESS
 40
0.0
  9
$LIMCHECK
 70
     0
  9
$CHAMFERA
 40
0.0
  9
$CHAMFERB
 40
0.0
  9
$CHAMFERC
 40
0.0
  9
$CHAMFERD
 40
0.0
  9
$SKPOLY
 70
     0
  9
$TDCREATE
 40
2459836.441667476
  9
$TDUCREATE
 40
2459836.358334144
  9
$TDUPDATE
 40
2459836.445887535
  9
$TDUUPDATE
 40
2459836.362554201
  9
$TDINDWG
 40
0.0013256366
  9
$TDUSRTIMER
 40
0.0013256366
  9
$USRTIMER
 70
     1
  9
$ANGBASE
 50
0.0
  9
$ANGDIR
 70
     0
  9
$PDMODE
 70
    34
  9
$PDSIZE
 40
0.0
  9
$PLINEWID
 40
0.0
  9
$SPLFRAME
 70
     0
  9
$SPLINETYPE
 70
     6
  9
$SPLINESEGS
 70
     8
  9
$HANDSEED
  5
20018
  9
$SURFTAB1
 70
     6
  9
$SURFTAB2
 70
     6
  9
$SURFTYPE
 70
     6
  9
$SURFU
 70
     6
  9
$SURFV
 70
     6
  9
$UCSBASE
  2

  9
$UCSNAME
  2

  9
$UCSORG
 10
0.0
 20
0.0
 30
0.0
  9
$UCSXDIR
 10
1.0
 20
0.0
 30
0.0
  9
$UCSYDIR
 10
0.0
 20
1.0
 30
0.0
  9
$UCSORTHOREF
  2

  9
$UCSORTHOVIEW
 70
     0
  9
$UCSORGTOP
 10
0.0
 20
0.0
 30
0.0
  9
$UCSORGBOTTOM
 10
0.0
 20
0.0
 30
0.0
  9
$UCSORGLEFT
 10
0.0
 20
0.0
 30
0.0
  9
$UCSORGRIGHT
 10
0.0
 20
0.0
 30
0.0
  9
$UCSORGFRONT
 10
0.0
 20
0.0
 30
0.0
  9
$UCSORGBACK
 10
0.0
 20
0.0
 30
0.0
  9
$PUCSBASE
  2

  9
$PUCSNAME
  2

  9
$PUCSORG
 10
0.0
 20
0.0
 30
0.0
  9
$PUCSXDIR
 10
1.0
 20
0.0
 30
0.0
  9
$PUCSYDIR
 10
0.0
 20
1.0
 30
0.0
  9
$PUCSORTHOREF
  2

  9
$PUCSORTHOVIEW
 70
     0
  9
$PUCSORGTOP
 10
0.0
 20
0.0
 30
0.0
  9
$PUCSORGBOTTOM
 10
0.0
 20
0.0
 30
0.0
  9
$PUCSORGLEFT
 10
0.0
 20
0.0
 30
0.0
  9
$PUCSORGRIGHT
 10
0.0
 20
0.0
 30
0.0
  9
$PUCSORGFRONT
 10
0.0
 20
0.0
 30
0.0
  9
$PUCSORGBACK
 10
0.0
 20
0.0
 30
0.0
  9
$USERI1
 70
     0
  9
$USERI2
 70
     0
  9
$USERI3
 70
     0
  9
$USERI4
 70
     0
  9
$USERI5
 70
     0
  9
$USERR1
 40
0.0
  9
$USERR2
 40
0.0
  9
$USERR3
 40
0.0
  9
$USERR4
 40
0.0
  9
$USERR5
 40
0.0
  9
$WORLDVIEW
 70
     1
  9
$SHADEDGE
 70
     3
  9
$SHADEDIF
 70
    70
  9
$TILEMODE
 70
     1
  9
$MAXACTVP
 70
    64
  9
$PINSBASE
 10
0.0
 20
0.0
 30
0.0
  9
$PLIMCHECK
 70
     0
  9
$PEXTMIN
 10
0.0
 20
0.0
 30
0.0
  9
$PEXTMAX
 10
50.0
 20
50.0
 30
50.0
  9
$PLIMMIN
 10
0.0
 20
0.0
  9
$PLIMMAX
 10
210.0
 20
297.0
  9
$UNITMODE
 70
     0
  9
$VISRETAIN
 70
     1
  9
$PLINEGEN
 70
     0
  9
$PSLTSCALE
 70
     1
  9
$TREEDEPTH
 70
  3020
  9
$CMLSTYLE
  2
Standard
  9
$CMLJUST
 70
     0
  9
$CMLSCALE
 40
20.0
  9
$PROXYGRAPHICS
 70
     1
  9
$MEASUREMENT
 70
     1
  9
$CELWEIGHT
370
    -1
  9
$ENDCAPS
280
     0
  9
$JOINSTYLE
280
     0
  9
$LWDISPLAY
290
     0
  9
$INSUNITS
 70
     4
  9
$HYPERLINKBASE
  1

  9
$STYLESHEET
  1

  9
$XEDIT
290
     1
  9
$CEPSNTYPE
380
     0
  9
$PSTYLEMODE
290
     1
  9
$FINGERPRINTGUID
  2
{60783C60-E56A-4760-A04D-9E0F814E0095}
  9
$VERSIONGUID
  2
{EB885ED5-C4EC-4B91-ADB1-0D1A4F765DE6}
  9
$EXTNAMES
290
     1
  9
$PSVPSCALE
 40
1.0
  9
$OLESTARTUP
290
     0
  9
$SORTENTS
280
   127
  9
$INDEXCTL
280
     0
  9
$HIDETEXT
280
     1
  9
$XCLIPFRAME
290
     0
  9
$HALOGAP
280
     0
  9
$OBSCOLOR
 70
   257
  9
$OBSLTYPE
280
     0
  9
$INTERSECTIONDISPLAY
280
     0
  9
$INTERSECTIONCOLOR
 70
   257
  9
$DIMASSOC
280
     1
  9
$PROJECTNAME
  1

  0
ENDSEC
  0
SECTION
  2
CLASSES
  0
CLASS
  1
ACDBDICTIONARYWDFLT
  2
AcDbDictionaryWithDefault
  3
ObjectDBX Classes
 90
        0
 91
        1
280
     0
281
     0
  0
CLASS
  1
TABLESTYLE
  2
AcDbTableStyle
  3
ObjectDBX Classes
 90
     2047
 91
        1
280
     0
281
     0
  0
CLASS
  1
DICTIONARYVAR
  2
AcDbDictionaryVar
  3
ObjectDBX Classes
 90
        0
 91
        1
280
     0
281
     0
  0
ENDSEC
  0
SECTION
  2
TABLES
  0
TABLE
  2
VPORT
  5
8
330
0
100
AcDbSymbolTable
 70
     2
  0
VPORT
  5
20017
330
8
100
AcDbSymbolTableRecord
100
AcDbViewportTableRecord
  2
*Active
 70
     0
 10
0.0
 20
0.0
 11
1.0
 21
1.0
 12
40.00946122921242
 22
39.99593409790652
 13
0.0
 23
0.0
 14
10.0
 24
10.0
 15
10.0
 25
10.0
 16
0.0
 26
0.0
 36
1.0
 17
0.0
 27
0.0
 37
0.0
 40
80.51907163018118
 41
1.977707006369426
 42
50.0
 43
0.0
 44
0.0
 50
0.0
 51
0.0
 71
     0
 72
   100
 73
     1
 74
     3
 75
     0
 76
     0
 77
     0
 78
     0
281
     0
 65
     1
110
0.0
120
0.0
130
0.0
111
1.0
121
0.0
131
0.0
112
0.0
122
1.0
132
0.0
 79
     0
146
0.0
  0
ENDTAB
  0
TABLE
  2
LTYPE
  5
5
330
0
100
AcDbSymbolTable
 70
    25
  0
LTYPE
  5
14
330
5
100
AcDbSymbolTableRecord
100
AcDbLinetypeTableRecord
  2
ByBlock
 70
     0
  3

 72
    65
 73
     0
 40
0.0
  0
LTYPE
  5
15
330
5
100
AcDbSymbolTableRecord
100
AcDbLinetypeTableRecord
  2
ByLayer
 70
     0
  3

 72
    65
 73
     0
 40
0.0
  0
LTYPE
  5
16
330
5
100
AcDbSymbolTableRecord
100
AcDbLinetypeTableRecord
  2
Continuous
 70
     0
  3
Solid line
 72
    65
 73
     0
 40
0.0
  0
ENDTAB
  0
TABLE
  2
LAYER
  5
2
330
0
100
AcDbSymbolTable
 70
     7
  0
LAYER
  5
10
330
2
100
AcDbSymbolTableRecord
100
AcDbLayerTableRecord
  2
0
 70
     0
 62
     7
  6
Continuous
370
    -3
390
F
  0
ENDTAB
  0
TABLE
  2
STYLE
  5
3
330
0
100
AcDbSymbolTable
 70
     1
  0
STYLE
  5
50
330
3
100
AcDbSymbolTableRecord
100
AcDbTextStyleTableRecord
  2
Standard
 70
     0
 40
0.0
 41
1.0
 50
0.0
 71
     0
 42
1.0
  3
txt
  4

  0
ENDTAB
  0
TABLE
  2
VIEW
  5
6
330
0
100
AcDbSymbolTable
 70
     0
  0
ENDTAB
  0
TABLE
  2
UCS
  5
7
330
0
100
AcDbSymbolTable
 70
     0
  0
ENDTAB
  0
TABLE
  2
APPID
  5
9
330
0
100
AcDbSymbolTable
 70
     2
  0
APPID
  5
12
330
9
100
AcDbSymbolTableRecord
100
AcDbRegAppTableRecord
  2
ACAD
 70
     0
  0
APPID
  5
51
330
9
100
AcDbSymbolTableRecord
100
AcDbRegAppTableRecord
  2
LibreCad
 70
     0
  0
ENDTAB
  0
TABLE
  2
DIMSTYLE
  5
A
330
0
100
AcDbSymbolTable
 70
     1
100
AcDbDimStyleTable
 71
     0
  0
DIMSTYLE
105
52
330
A
100
AcDbSymbolTableRecord
100
AcDbDimStyleTableRecord
  2
Standard
 70
     0
 40
2.5
 41
2.5
 42
0.625
 44
1.25
 73
     0
 78
     8
140
2.5
147
0.625
271
     2
278
    44
340
50
  0
ENDTAB
  0
TABLE
  2
BLOCK_RECORD
  5
1
330
0
100
AcDbSymbolTable
 70
     0
  0
BLOCK_RECORD
  5
1F
330
1
100
AcDbSymbolTableRecord
100
AcDbBlockTableRecord
  2
*Model_Space
340
2000C
  0
BLOCK_RECORD
  5
1E
330
1
100
AcDbSymbolTableRecord
100
AcDbBlockTableRecord
  2
*Paper_Space
340
2000D
  0
ENDTAB
  0
ENDSEC
  0
SECTION
  2
BLOCKS
  0
BLOCK
  5
20
330
1F
100
AcDbEntity
  8
0
100
AcDbBlockBegin
  2
*Model_Space
 70
     0
 10
0.0
 20
0.0
 30
0.0
  3
*Model_Space
  1

  0
ENDBLK
  5
21
330
1F
100
AcDbEntity
  8
0
100
AcDbBlockEnd
  0
BLOCK
  5
1C
330
1E
100
AcDbEntity
 67
     1
  8
0
100
AcDbBlockBegin
  2
*Paper_Space
 70
     0
 10
0.0
 20
0.0
 30
0.0
  3
*Paper_Space
  1

  0
ENDBLK
  5
1D
330
1E
100
AcDbEntity
 67
     1
  8
0
100
AcDbBlockEnd
  0
ENDSEC
  0
SECTION
  2
ENTITIES
  0
LINE
  5
53
330
1F
100
AcDbEntity
  8
0
100
AcDbLine
 10
80.0
 20
10.0
 30
0.0
 11
80.0
 21
10.0
 31
0.0
  0
LINE
  5
54
330
1F
100
AcDbEntity
  8
0
100
AcDbLine
 10
80.0
 20
70.0
 30
0.0
 11
80.0
 21
70.0
 31
0.0
  0
LINE
  5
55
330
1F
100
AcDbEntity
  8
0
100
AcDbLine
 10
80.0
 20
10.0
 30
0.0
 11
80.0
 21
70.0
 31
0.0
  0
LINE
  5
56
330
1F
100
AcDbEntity
  8
0
100
AcDbLine
 10
80.0
 20
10.0
 30
0.0
 11
80.0
 21
70.0
 31
0.0
  0
LINE
  5
57
330
1F
100
AcDbEntity
  8
0
100
AcDbLine
 10
80.0
 20
10.0
 30
0.0
 11
80.0
 21
10.0
 31
0.0
  0
LINE
  5
58
330
1F
100
AcDbEntity
  8
0
100
AcDbLine
 10
70.0
 20
0.0
 30
0.0
 11
70.0
 21
0.0
 31
0.0
  0
ARC
  5
59
330
1F
100
AcDbEntity
  8
0
100
AcDbCircle
 10
70.0
 20
10.0
 30
0.0
 40
10.0
100
AcDbArc
 50
-90.0
 51
0.0
  0
ARC
  5
5A
330
1F
100
AcDbEntity
  8
0
100
AcDbCircle
 10
70.0
 20
10.0
 30
0.0
 40
10.0
100
AcDbArc
 50
-90.0
 51
0.0
  0
LINE
  5
5B
330
1F
100
AcDbEntity
  8
0
100
AcDbLine
 10
70.0
 20
80.0
 30
0.0
 11
70.0
 21
80.0
 31
0.0
  0
LINE
  5
5C
330
1F
100
AcDbEntity
  8
0
100
AcDbLine
 10
80.0
 20
70.0
 30
0.0
 11
80.0
 21
70.0
 31
0.0
  0
ARC
  5
5D
330
1F
100
AcDbEntity
  8
0
100
AcDbCircle
 10
70.0
 20
70.0
 30
0.0
 40
10.0
100
AcDbArc
 50
0.0
 51
90.0
  0
ARC
  5
5E
330
1F
100
AcDbEntity
  8
0
100
AcDbCircle
 10
70.0
 20
70.0
 30
0.0
 40
10.0
100
AcDbArc
 50
0.0
 51
90.0
  0
LINE
  5
5F
330
1F
100
AcDbEntity
  8
0
100
AcDbLine
 10
80.0
 20
10.0
 30
0.0
 11
80.0
 21
70.0
 31
0.0
  0
ARC
  5
60
330
1F
100
AcDbEntity
  8
0
100
AcDbCircle
 10
70.0
 20
10.0
 30
0.0
 40
10.0
100
AcDbArc
 50
-90.0
 51
0.0
  0
ARC
  5
61
330
1F
100
AcDbEntity
  8
0
100
AcDbCircle
 10
70.0
 20
70.0
 30
0.0
 40
10.0
100
AcDbArc
 50
0.0
 51
90.0
  0
LINE
  5
62
330
1F
100
AcDbEntity
  8
0
100
AcDbLine
 10
10.0
 20
0.0
 30
0.0
 11
70.0
 21
0.0
 31
0.0
  0
LINE
  5
63
330
1F
100
AcDbEntity
  8
0
100
AcDbLine
 10
70.0
 20
80.0
 30
0.0
 11
10.0
 21
80.0
 31
0.0
  0
ARC
  5
64
330
1F
100
AcDbEntity
  8
0
100
AcDbCircle
 10
10.0
 20
10.0
 30
0.0
 40
10.0
100
AcDbArc
 50
-180.0
 51
-90.0
  0
ARC
  5
65
330
1F
100
AcDbEntity
  8
0
100
AcDbCircle
 10
10.0
 20
70.0
 30
0.0
 40
10.0
100
AcDbArc
 50
90.0
 51
180.0
  0
LINE
  5
66
330
1F
100
AcDbEntity
  8
0
100
AcDbLine
 10
0.0
 20
70.0
 30
0.0
 11
0.0
 21
10.0
 31
0.0
  0
CIRCLE
  5
67
330
1F
100
AcDbEntity
  8
0
100
AcDbCircle
 10
10.0
 20
10.0
 30
0.0
 40
2.25
  0
CIRCLE
  5
68
330
1F
100
AcDbEntity
  8
0
100
AcDbCircle
 10
19.2154
 20
28.0
 30
0.0
 40
3.0
  0
CIRCLE
  5
69
330
1F
100
AcDbEntity
  8
0
100
AcDbCircle
 10
70.0
 20
10.0
 30
0.0
 40
2.25
  0
CIRCLE
  5
6A
330
1F
100
AcDbEntity
  8
0
100
AcDbCircle
 10
40.0
 20
26.0
 30
0.0
 40
3.0
  0
CIRCLE
  5
6B
330
1F
100
AcDbEntity
  8
0
100
AcDbCircle
 10
60.78459999999999
 20
28.0
 30
0.0
 40
3.0
  0
CIRCLE
  5
6C
330
1F
100
AcDbEntity
  8
0
100
AcDbCircle
 10
16.0
 20
40.0
 30
0.0
 40
1.6
  0
CIRCLE
  5
6D
330
1F
100
AcDbEntity
  8
0
100
AcDbCircle
 10
26.1418
 20
45.74029999999999
 30
0.0
 40
1.0
  0
CIRCLE
  5
6E
330
1F
100
AcDbEntity
  8
0
100
AcDbCircle
 10
29.3934
 20
50.6066
 30
0.0
 40
1.0
  0
CIRCLE
  5
6F
330
1F
100
AcDbEntity
  8
0
100
AcDbCircle
 10
34.2597
 20
53.85819999999998
 30
0.0
 40
1.0
  0
CIRCLE
  5
70
330
1F
100
AcDbEntity
  8
0
100
AcDbCircle
 10
37.0736
 20
54.7118
 30
0.0
 40
1.0
  0
CIRCLE
  5
71
330
1F
100
AcDbEntity
  8
0
100
AcDbCircle
 10
10.0
 20
70.0
 30
0.0
 40
2.25
  0
CIRCLE
  5
72
330
1F
100
AcDbEntity
  8
0
100
AcDbCircle
 10
40.0
 20
64.0
 30
0.0
 40
3.0
  0
CIRCLE
  5
73
330
1F
100
AcDbEntity
  8
0
100
AcDbCircle
 10
40.0
 20
40.0
 30
0.0
 40
3.0
  0
CIRCLE
  5
74
330
1F
100
AcDbEntity
  8
0
100
AcDbCircle
 10
53.85819999999998
 20
45.74029999999999
 30
0.0
 40
1.0
  0
CIRCLE
  5
75
330
1F
100
AcDbEntity
  8
0
100
AcDbCircle
 10
40.0
 20
55.0
 30
0.0
 40
1.0
  0
CIRCLE
  5
76
330
1F
100
AcDbEntity
  8
0
100
AcDbCircle
 10
42.9264
 20
54.7118
 30
0.0
 40
1.0
  0
CIRCLE
  5
77
330
1F
100
AcDbEntity
  8
0
100
AcDbCircle
 10
45.74029999999999
 20
53.85819999999998
 30
0.0
 40
1.0
  0
CIRCLE
  5
78
330
1F
100
AcDbEntity
  8
0
100
AcDbCircle
 10
50.6066
 20
50.6066
 30
0.0
 40
1.0
  0
CIRCLE
  5
79
330
1F
100
AcDbEntity
  8
0
100
AcDbCircle
 10
64.0
 20
40.0
 30
0.0
 40
1.6
  0
CIRCLE
  5
7A
330
1F
100
AcDbEntity
  8
0
100
AcDbCircle
 10
70.0
 20
70.0
 30
0.0
 40
2.25
  0
LINE
  5
7B
330
1F
100
AcDbEntity
  8
0
100
AcDbLine
 10
80.0
 20
10.0
 30
0.0
 11
80.0
 21
70.0
 31
0.0
  0
ARC
  5
7C
330
1F
100
AcDbEntity
  8
0
100
AcDbCircle
 10
70.0
 20
10.0
 30
0.0
 40
10.0
100
AcDbArc
 50
-90.0
 51
0.0
  0
ARC
  5
7D
330
1F
100
AcDbEntity
  8
0
100
AcDbCircle
 10
70.0
 20
70.0
 30
0.0
 40
10.0
100
AcDbArc
 50
0.0
 51
90.0
  0
LINE
  5
7E
330
1F
100
AcDbEntity
  8
0
100
AcDbLine
 10
10.0
 20
0.0
 30
0.0
 11
70.0
 21
0.0
 31
0.0
  0
LINE
  5
7F
330
1F
100
AcDbEntity
  8
0
100
AcDbLine
 10
70.0
 20
80.0
 30
0.0
 11
10.0
 21
80.0
 31
0.0
  0
ARC
  5
80
330
1F
100
AcDbEntity
  8
0
100
AcDbCircle
 10
10.0
 20
10.0
 30
0.0
 40
10.0
100
AcDbArc
 50
-180.0
 51
-90.0
  0
ARC
  5
81
330
1F
100
AcDbEntity
  8
0
100
AcDbCircle
 10
10.0
 20
70.0
 30
0.0
 40
10.0
100
AcDbArc
 50
90.0
 51
180.0
  0
LINE
  5
82
330
1F
100
AcDbEntity
  8
0
100
AcDbLine
 10
0.0
 20
70.0
 30
0.0
 11
0.0
 21
10.0
 31
0.0
  0
CIRCLE
  5
83
330
1F
100
AcDbEntity
  8
0
100
AcDbCircle
 10
10.0
 20
10.0
 30
0.0
 40
2.25
  0
CIRCLE
  5
84
330
1F
100
AcDbEntity
  8
0
100
AcDbCircle
 10
19.2154
 20
28.0
 30
0.0
 40
3.0
  0
CIRCLE
  5
85
330
1F
100
AcDbEntity
  8
0
100
AcDbCircle
 10
70.0
 20
10.0
 30
0.0
 40
2.25
  0
CIRCLE
  5
86
330
1F
100
AcDbEntity
  8
0
100
AcDbCircle
 10
40.0
 20
26.0
 30
0.0
 40
3.0
  0
CIRCLE
  5
87
330
1F
100
AcDbEntity
  8
0
100
AcDbCircle
 10
60.78459999999999
 20
28.0
 30
0.0
 40
3.0
  0
CIRCLE
  5
88
330
1F
100
AcDbEntity
  8
0
100
AcDbCircle
 10
16.0
 20
40.0
 30
0.0
 40
1.6
  0
CIRCLE
  5
89
330
1F
100
AcDbEntity
  8
0
100
AcDbCircle
 10
26.1418
 20
45.74029999999999
 30
0.0
 40
1.0
  0
CIRCLE
  5
8A
330
1F
100
AcDbEntity
  8
0
100
AcDbCircle
 10
29.3934
 20
50.6066
 30
0.0
 40
1.0
  0
CIRCLE
  5
8B
330
1F
100
AcDbEntity
  8
0
100
AcDbCircle
 10
34.2597
 20
53.85819999999998
 30
0.0
 40
1.0
  0
CIRCLE
  5
8C
330
1F
100
AcDbEntity
  8
0
100
AcDbCircle
 10
37.0736
 20
54.7118
 30
0.0
 40
1.0
  0
CIRCLE
  5
8D
330
1F
100
AcDbEntity
  8
0
100
AcDbCircle
 10
10.0
 20
70.0
 30
0.0
 40
2.25
  0
CIRCLE
  5
8E
330
1F
100
AcDbEntity
  8
0
100
AcDbCircle
 10
40.0
 20
64.0
 30
0.0
 40
3.0
  0
CIRCLE
  5
8F
330
1F
100
AcDbEntity
  8
0
100
AcDbCircle
 10
40.0
 20
40.0
 30
0.0
 40
3.0
  0
CIRCLE
  5
90
330
1F
100
AcDbEntity
  8
0
100
AcDbCircle
 10
53.85819999999998
 20
45.74029999999999
 30
0.0
 40
1.0
  0
CIRCLE
  5
91
330
1F
100
AcDbEntity
  8
0
100
AcDbCircle
 10
40.0
 20
55.0
 30
0.0
 40
1.0
  0
CIRCLE
  5
92
330
1F
100
AcDbEntity
  8
0
100
AcDbCircle
 10
42.9264
 20
54.7118
 30
0.0
 40
1.0
  0
CIRCLE
  5
93
330
1F
100
AcDbEntity
  8
0
100
AcDbCircle
 10
45.74029999999999
 20
53.85819999999998
 30
0.0
 40
1.0
  0
CIRCLE
  5
94
330
1F
100
AcDbEntity
  8
0
100
AcDbCircle
 10
50.6066
 20
50.6066
 30
0.0
 40
1.0
  0
CIRCLE
  5
95
330
1F
100
AcDbEntity
  8
0
100
AcDbCircle
 10
64.0
 20
40.0
 30
0.0
 40
1.6
  0
CIRCLE
  5
96
330
1F
100
AcDbEntity
  8
0
100
AcDbCircle
 10
70.0
 20
70.0
 30
0.0
 40
2.25
  0
LINE
  5
97
330
1F
100
AcDbEntity
  8
0
100
AcDbLine
 10
10.0
 20
0.0
 30
0.0
 11
10.0
 21
0.0
 31
0.0
  0
LINE
  5
98
330
1F
100
AcDbEntity
  8
0
100
AcDbLine
 10
70.0
 20
0.0
 30
0.0
 11
70.0
 21
0.0
 31
0.0
  0
LINE
  5
99
330
1F
100
AcDbEntity
  8
0
100
AcDbLine
 10
10.0
 20
0.0
 30
0.0
 11
70.0
 21
0.0
 31
0.0
  0
LINE
  5
9A
330
1F
100
AcDbEntity
  8
0
100
AcDbLine
 10
10.0
 20
0.0
 30
0.0
 11
70.0
 21
0.0
 31
0.0
  0
LINE
  5
9B
330
1F
100
AcDbEntity
  8
0
100
AcDbLine
 10
70.0
 20
80.0
 30
0.0
 11
70.0
 21
80.0
 31
0.0
  0
LINE
  5
9C
330
1F
100
AcDbEntity
  8
0
100
AcDbLine
 10
10.0
 20
80.0
 30
0.0
 11
10.0
 21
80.0
 31
0.0
  0
LINE
  5
9D
330
1F
100
AcDbEntity
  8
0
100
AcDbLine
 10
70.0
 20
80.0
 30
0.0
 11
10.0
 21
80.0
 31
0.0
  0
LINE
  5
9E
330
1F
100
AcDbEntity
  8
0
100
AcDbLine
 10
70.0
 20
80.0
 30
0.0
 11
10.0
 21
80.0
 31
0.0
  0
LINE
  5
9F
330
1F
100
AcDbEntity
  8
0
100
AcDbLine
 10
10.0
 20
0.0
 30
0.0
 11
10.0
 21
0.0
 31
0.0
  0
LINE
  5
A0
330
1F
100
AcDbEntity
  8
0
100
AcDbLine
 10
0.0
 20
10.0
 30
0.0
 11
0.0
 21
10.0
 31
0.0
  0
ARC
  5
A1
330
1F
100
AcDbEntity
  8
0
100
AcDbCircle
 10
10.0
 20
10.0
 30
0.0
 40
10.0
100
AcDbArc
 50
-180.0
 51
-90.0
  0
ARC
  5
A2
330
1F
100
AcDbEntity
  8
0
100
AcDbCircle
 10
10.0
 20
10.0
 30
0.0
 40
10.0
100
AcDbArc
 50
-180.0
 51
-90.0
  0
LINE
  5
A3
330
1F
100
AcDbEntity
  8
0
100
AcDbLine
 10
0.0
 20
70.0
 30
0.0
 11
0.0
 21
70.0
 31
0.0
  0
LINE
  5
A4
330
1F
100
AcDbEntity
  8
0
100
AcDbLine
 10
10.0
 20
80.0
 30
0.0
 11
10.0
 21
80.0
 31
0.0
  0
ARC
  5
A5
330
1F
100
AcDbEntity
  8
0
100
AcDbCircle
 10
10.0
 20
70.0
 30
0.0
 40
10.0
100
AcDbArc
 50
90.0
 51
180.0
  0
ARC
  5
A6
330
1F
100
AcDbEntity
  8
0
100
AcDbCircle
 10
10.0
 20
70.0
 30
0.0
 40
10.0
100
AcDbArc
 50
90.0
 51
180.0
  0
LINE
  5
A7
330
1F
100
AcDbEntity
  8
0
100
AcDbLine
 10
0.0
 20
70.0
 30
0.0
 11
0.0
 21
70.0
 31
0.0
  0
LINE
  5
A8
330
1F
100
AcDbEntity
  8
0
100
AcDbLine
 10
0.0
 20
10.0
 30
0.0
 11
0.0
 21
10.0
 31
0.0
  0
LINE
  5
A9
330
1F
100
AcDbEntity
  8
0
100
AcDbLine
 10
0.0
 20
70.0
 30
0.0
 11
0.0
 21
10.0
 31
0.0
  0
LINE
  5
AA
330
1F
100
AcDbEntity
  8
0
100
AcDbLine
 10
0.0
 20
70.0
 30
0.0
 11
0.0
 21
10.0
 31
0.0
  0
LINE
  5
AB
330
1F
100
AcDbEntity
  8
0
100
AcDbLine
 10
7.75
 20
10.0
 30
0.0
 11
7.75
 21
10.0
 31
0.0
  0
LINE
  5
AC
330
1F
100
AcDbEntity
  8
0
100
AcDbLine
 10
7.75
 20
10.0
 30
0.0
 11
7.75
 21
10.0
 31
0.0
  0
CIRCLE
  5
AD
330
1F
100
AcDbEntity
  8
0
100
AcDbCircle
 10
10.0
 20
10.0
 30
0.0
 40
2.25
  0
CIRCLE
  5
AE
330
1F
100
AcDbEntity
  8
0
100
AcDbCircle
 10
10.0
 20
10.0
 30
0.0
 40
2.25
  0
LINE
  5
AF
330
1F
100
AcDbEntity
  8
0
100
AcDbLine
 10
16.2154
 20
28.0
 30
0.0
 11
16.2154
 21
28.0
 31
0.0
  0
LINE
  5
B0
330
1F
100
AcDbEntity
  8
0
100
AcDbLine
 10
16.2154
 20
28.0
 30
0.0
 11
16.2154
 21
28.0
 31
0.0
  0
CIRCLE
  5
B1
330
1F
100
AcDbEntity
  8
0
100
AcDbCircle
 10
19.2154
 20
28.0
 30
0.0
 40
3.0
  0
CIRCLE
  5
B2
330
1F
100
AcDbEntity
  8
0
100
AcDbCircle
 10
19.2154
 20
28.0
 30
0.0
 40
3.0
  0
LINE
  5
B3
330
1F
100
AcDbEntity
  8
0
100
AcDbLine
 10
67.75
 20
10.0
 30
0.0
 11
67.75
 21
10.0
 31
0.0
  0
LINE
  5
B4
330
1F
100
AcDbEntity
  8
0
100
AcDbLine
 10
67.75
 20
10.0
 30
0.0
 11
67.75
 21
10.0
 31
0.0
  0
CIRCLE
  5
B5
330
1F
100
AcDbEntity
  8
0
100
AcDbCircle
 10
70.0
 20
10.0
 30
0.0
 40
2.25
  0
CIRCLE
  5
B6
330
1F
100
AcDbEntity
  8
0
100
AcDbCircle
 10
70.0
 20
10.0
 30
0.0
 40
2.25
  0
CIRCLE
  5
B7
330
1F
100
AcDbEntity
  8
0
100
AcDbCircle
 10
40.0
 20
26.0
 30
0.0
 40
3.0
  0
LINE
  5
B8
330
1F
100
AcDbEntity
  8
0
100
AcDbLine
 10
37.0
 20
26.0
 30
0.0
 11
37.0
 21
26.0
 31
0.0
  0
CIRCLE
  5
B9
330
1F
100
AcDbEntity
  8
0
100
AcDbCircle
 10
40.0
 20
26.0
 30
0.0
 40
3.0
  0
LINE
  5
BA
330
1F
100
AcDbEntity
  8
0
100
AcDbLine
 10
37.0
 20
26.0
 30
0.0
 11
37.0
 21
26.0
 31
0.0
  0
LINE
  5
BB
330
1F
100
AcDbEntity
  8
0
100
AcDbLine
 10
57.78459999999999
 20
28.0
 30
0.0
 11
57.78459999999999
 21
28.0
 31
0.0
  0
LINE
  5
BC
330
1F
100
AcDbEntity
  8
0
100
AcDbLine
 10
57.78459999999999
 20
28.0
 30
0.0
 11
57.78459999999999
 21
28.0
 31
0.0
  0
CIRCLE
  5
BD
330
1F
100
AcDbEntity
  8
0
100
AcDbCircle
 10
60.78459999999999
 20
28.0
 30
0.0
 40
3.0
  0
CIRCLE
  5
BE
330
1F
100
AcDbEntity
  8
0
100
AcDbCircle
 10
60.78459999999999
 20
28.0
 30
0.0
 40
3.0
  0
LINE
  5
BF
330
1F
100
AcDbEntity
  8
0
100
AcDbLine
 10
14.4
 20
40.0
 30
0.0
 11
14.4
 21
40.0
 31
0.0
  0
LINE
  5
C0
330
1F
100
AcDbEntity
  8
0
100
AcDbLine
 10
14.4
 20
40.0
 30
0.0
 11
14.4
 21
40.0
 31
0.0
  0
CIRCLE
  5
C1
330
1F
100
AcDbEntity
  8
0
100
AcDbCircle
 10
16.0
 20
40.0
 30
0.0
 40
1.6
  0
CIRCLE
  5
C2
330
1F
100
AcDbEntity
  8
0
100
AcDbCircle
 10
16.0
 20
40.0
 30
0.0
 40
1.6
  0
CIRCLE
  5
C3
330
1F
100
AcDbEntity
  8
0
100
AcDbCircle
 10
26.1418
 20
45.74029999999999
 30
0.0
 40
1.0
  0
LINE
  5
C4
330
1F
100
AcDbEntity
  8
0
100
AcDbLine
 10
25.1418
 20
45.74029999999999
 30
0.0
 11
25.1418
 21
45.74029999999999
 31
0.0
  0
CIRCLE
  5
C5
330
1F
100
AcDbEntity
  8
0
100
AcDbCircle
 10
26.1418
 20
45.74029999999999
 30
0.0
 40
1.0
  0
LINE
  5
C6
330
1F
100
AcDbEntity
  8
0
100
AcDbLine
 10
25.1418
 20
45.74029999999999
 30
0.0
 11
25.1418
 21
45.74029999999999
 31
0.0
  0
CIRCLE
  5
C7
330
1F
100
AcDbEntity
  8
0
100
AcDbCircle
 10
29.3934
 20
50.6066
 30
0.0
 40
1.0
  0
LINE
  5
C8
330
1F
100
AcDbEntity
  8
0
100
AcDbLine
 10
28.3934
 20
50.6066
 30
0.0
 11
28.3934
 21
50.6066
 31
0.0
  0
CIRCLE
  5
C9
330
1F
100
AcDbEntity
  8
0
100
AcDbCircle
 10
29.3934
 20
50.6066
 30
0.0
 40
1.0
  0
LINE
  5
CA
330
1F
100
AcDbEntity
  8
0
100
AcDbLine
 10
28.3934
 20
50.6066
 30
0.0
 11
28.3934
 21
50.6066
 31
0.0
  0
CIRCLE
  5
CB
330
1F
100
AcDbEntity
  8
0
100
AcDbCircle
 10
34.2597
 20
53.85819999999998
 30
0.0
 40
1.0
  0
LINE
  5
CC
330
1F
100
AcDbEntity
  8
0
100
AcDbLine
 10
33.2597
 20
53.85819999999998
 30
0.0
 11
33.2597
 21
53.85819999999998
 31
0.0
  0
CIRCLE
  5
CD
330
1F
100
AcDbEntity
  8
0
100
AcDbCircle
 10
34.2597
 20
53.85819999999998
 30
0.0
 40
1.0
  0
LINE
  5
CE
330
1F
100
AcDbEntity
  8
0
100
AcDbLine
 10
33.2597
 20
53.85819999999998
 30
0.0
 11
33.2597
 21
53.85819999999998
 31
0.0
  0
CIRCLE
  5
CF
330
1F
100
AcDbEntity
  8
0
100
AcDbCircle
 10
37.0736
 20
54.7118
 30
0.0
 40
1.0
  0
LINE
  5
D0
330
1F
100
AcDbEntity
  8
0
100
AcDbLine
 10
36.0736
 20
54.7118
 30
0.0
 11
36.0736
 21
54.7118
 31
0.0
  0
CIRCLE
  5
D1
330
1F
100
AcDbEntity
  8
0
100
AcDbCircle
 10
37.0736
 20
54.7118
 30
0.0
 40
1.0
  0
LINE
  5
D2
330
1F
100
AcDbEntity
  8
0
100
AcDbLine
 10
36.0736
 20
54.7118
 30
0.0
 11
36.0736
 21
54.7118
 31
0.0
  0
LINE
  5
D3
330
1F
100
AcDbEntity
  8
0
100
AcDbLine
 10
7.75
 20
70.0
 30
0.0
 11
7.75
 21
70.0
 31
0.0
  0
LINE
  5
D4
330
1F
100
AcDbEntity
  8
0
100
AcDbLine
 10
7.75
 20
70.0
 30
0.0
 11
7.75
 21
70.0
 31
0.0
  0
CIRCLE
  5
D5
330
1F
100
AcDbEntity
  8
0
100
AcDbCircle
 10
10.0
 20
70.0
 30
0.0
 40
2.25
  0
CIRCLE
  5
D6
330
1F
100
AcDbEntity
  8
0
100
AcDbCircle
 10
10.0
 20
70.0
 30
0.0
 40
2.25
  0
LINE
  5
D7
330
1F
100
AcDbEntity
  8
0
100
AcDbLine
 10
37.0
 20
64.0
 30
0.0
 11
37.0
 21
64.0
 31
0.0
  0
LINE
  5
D8
330
1F
100
AcDbEntity
  8
0
100
AcDbLine
 10
37.0
 20
64.0
 30
0.0
 11
37.0
 21
64.0
 31
0.0
  0
CIRCLE
  5
D9
330
1F
100
AcDbEntity
  8
0
100
AcDbCircle
 10
40.0
 20
64.0
 30
0.0
 40
3.0
  0
CIRCLE
  5
DA
330
1F
100
AcDbEntity
  8
0
100
AcDbCircle
 10
40.0
 20
64.0
 30
0.0
 40
3.0
  0
LINE
  5
DB
330
1F
100
AcDbEntity
  8
0
100
AcDbLine
 10
37.0
 20
40.0
 30
0.0
 11
37.0
 21
40.0
 31
0.0
  0
LINE
  5
DC
330
1F
100
AcDbEntity
  8
0
100
AcDbLine
 10
37.0
 20
40.0
 30
0.0
 11
37.0
 21
40.0
 31
0.0
  0
CIRCLE
  5
DD
330
1F
100
AcDbEntity
  8
0
100
AcDbCircle
 10
40.0
 20
40.0
 30
0.0
 40
3.0
  0
CIRCLE
  5
DE
330
1F
100
AcDbEntity
  8
0
100
AcDbCircle
 10
40.0
 20
40.0
 30
0.0
 40
3.0
  0
CIRCLE
  5
DF
330
1F
100
AcDbEntity
  8
0
100
AcDbCircle
 10
53.85819999999998
 20
45.74029999999999
 30
0.0
 40
1.0
  0
LINE
  5
E0
330
1F
100
AcDbEntity
  8
0
100
AcDbLine
 10
52.8582
 20
45.74029999999999
 30
0.0
 11
52.8582
 21
45.74029999999999
 31
0.0
  0
CIRCLE
  5
E1
330
1F
100
AcDbEntity
  8
0
100
AcDbCircle
 10
53.85819999999998
 20
45.74029999999999
 30
0.0
 40
1.0
  0
LINE
  5
E2
330
1F
100
AcDbEntity
  8
0
100
AcDbLine
 10
52.8582
 20
45.74029999999999
 30
0.0
 11
52.8582
 21
45.74029999999999
 31
0.0
  0
CIRCLE
  5
E3
330
1F
100
AcDbEntity
  8
0
100
AcDbCircle
 10
40.0
 20
55.0
 30
0.0
 40
1.0
  0
LINE
  5
E4
330
1F
100
AcDbEntity
  8
0
100
AcDbLine
 10
39.0
 20
55.0
 30
0.0
 11
39.0
 21
55.0
 31
0.0
  0
CIRCLE
  5
E5
330
1F
100
AcDbEntity
  8
0
100
AcDbCircle
 10
40.0
 20
55.0
 30
0.0
 40
1.0
  0
LINE
  5
E6
330
1F
100
AcDbEntity
  8
0
100
AcDbLine
 10
39.0
 20
55.0
 30
0.0
 11
39.0
 21
55.0
 31
0.0
  0
CIRCLE
  5
E7
330
1F
100
AcDbEntity
  8
0
100
AcDbCircle
 10
42.9264
 20
54.7118
 30
0.0
 40
1.0
  0
LINE
  5
E8
330
1F
100
AcDbEntity
  8
0
100
AcDbLine
 10
41.92639999999999
 20
54.7118
 30
0.0
 11
41.92639999999999
 21
54.7118
 31
0.0
  0
CIRCLE
  5
E9
330
1F
100
AcDbEntity
  8
0
100
AcDbCircle
 10
42.9264
 20
54.7118
 30
0.0
 40
1.0
  0
LINE
  5
EA
330
1F
100
AcDbEntity
  8
0
100
AcDbLine
 10
41.92639999999999
 20
54.7118
 30
0.0
 11
41.92639999999999
 21
54.7118
 31
0.0
  0
CIRCLE
  5
EB
330
1F
100
AcDbEntity
  8
0
100
AcDbCircle
 10
45.74029999999999
 20
53.85819999999998
 30
0.0
 40
1.0
  0
LINE
  5
EC
330
1F
100
AcDbEntity
  8
0
100
AcDbLine
 10
44.74029999999999
 20
53.85819999999998
 30
0.0
 11
44.74029999999999
 21
53.85819999999998
 31
0.0
  0
CIRCLE
  5
ED
330
1F
100
AcDbEntity
  8
0
100
AcDbCircle
 10
45.74029999999999
 20
53.85819999999998
 30
0.0
 40
1.0
  0
LINE
  5
EE
330
1F
100
AcDbEntity
  8
0
100
AcDbLine
 10
44.74029999999999
 20
53.85819999999998
 30
0.0
 11
44.74029999999999
 21
53.85819999999998
 31
0.0
  0
CIRCLE
  5
EF
330
1F
100
AcDbEntity
  8
0
100
AcDbCircle
 10
50.6066
 20
50.6066
 30
0.0
 40
1.0
  0
LINE
  5
F0
330
1F
100
AcDbEntity
  8
0
100
AcDbLine
 10
49.6066
 20
50.6066
 30
0.0
 11
49.6066
 21
50.6066
 31
0.0
  0
CIRCLE
  5
F1
330
1F
100
AcDbEntity
  8
0
100
AcDbCircle
 10
50.6066
 20
50.6066
 30
0.0
 40
1.0
  0
LINE
  5
F2
330
1F
100
AcDbEntity
  8
0
100
AcDbLine
 10
49.6066
 20
50.6066
 30
0.0
 11
49.6066
 21
50.6066
 31
0.0
  0
LINE
  5
F3
330
1F
100
AcDbEntity
  8
0
100
AcDbLine
 10
62.4
 20
40.0
 30
0.0
 11
62.4
 21
40.0
 31
0.0
  0
LINE
  5
F4
330
1F
100
AcDbEntity
  8
0
100
AcDbLine
 10
62.4
 20
40.0
 30
0.0
 11
62.4
 21
40.0
 31
0.0
  0
CIRCLE
  5
F5
330
1F
100
AcDbEntity
  8
0
100
AcDbCircle
 10
64.0
 20
40.0
 30
0.0
 40
1.6
  0
CIRCLE
  5
F6
330
1F
100
AcDbEntity
  8
0
100
AcDbCircle
 10
64.0
 20
40.0
 30
0.0
 40
1.6
  0
LINE
  5
F7
330
1F
100
AcDbEntity
  8
0
100
AcDbLine
 10
67.75
 20
70.0
 30
0.0
 11
67.75
 21
70.0
 31
0.0
  0
LINE
  5
F8
330
1F
100
AcDbEntity
  8
0
100
AcDbLine
 10
67.75
 20
70.0
 30
0.0
 11
67.75
 21
70.0
 31
0.0
  0
CIRCLE
  5
F9
330
1F
100
AcDbEntity
  8
0
100
AcDbCircle
 10
70.0
 20
70.0
 30
0.0
 40
2.25
  0
CIRCLE
  5
FA
330
1F
100
AcDbEntity
  8
0
100
AcDbCircle
 10
70.0
 20
70.0
 30
0.0
 40
2.25
  0
ENDSEC
  0
SECTION
  2
OBJECTS
  0
DICTIONARY
  5
C
330
0
100
AcDbDictionary
281
     1
  3
ACAD_COLOR
350
20005
  3
ACAD_GROUP
350
D
  3
ACAD_LAYOUT
350
2000A
  3
ACAD_MATERIAL
350
20004
  3
ACAD_MLINESTYLE
350
20008
  3
ACAD_PLOTSETTINGS
350
2000B
  3
ACAD_PLOTSTYLENAME
350
20002
  3
ACAD_TABLESTYLE
350
20006
  3
AcDbVariableDictionary
350
20010
  0
DICTIONARY
  5
20005
102
{ACAD_REACTORS
330
C
102
}
330
C
100
AcDbDictionary
281
     1
  0
DICTIONARY
  5
D
330
C
100
AcDbDictionary
281
     1
  0
DICTIONARY
  5
2000A
102
{ACAD_REACTORS
330
C
102
}
330
C
100
AcDbDictionary
281
     1
  3
Layout1
350
2000D
  3
Model
350
2000C
  0
DICTIONARY
  5
20004
102
{ACAD_REACTORS
330
C
102
}
330
C
100
AcDbDictionary
281
     1
  0
DICTIONARY
  5
20008
102
{ACAD_REACTORS
330
C
102
}
330
C
100
AcDbDictionary
281
     1
  3
Standard
350
20009
  0
DICTIONARY
  5
2000B
102
{ACAD_REACTORS
330
C
102
}
330
C
100
AcDbDictionary
281
     1
  0
ACDBDICTIONARYWDFLT
  5
20002
102
{ACAD_REACTORS
330
C
102
}
330
C
100
AcDbDictionary
281
     1
  3
Normal
350
20003
100
AcDbDictionaryWithDefault
340
20003
  0
DICTIONARY
  5
20006
102
{ACAD_REACTORS
330
C
102
}
330
C
100
AcDbDictionary
281
     1
  3
Standard
350
20007
  0
DICTIONARY
  5
20010
102
{ACAD_REACTORS
330
C
102
}
330
C
100
AcDbDictionary
281
     1
  3
CTABLESTYLE
350
20011
  0
LAYOUT
  5
2000D
102
{ACAD_REACTORS
330
2000A
102
}
330
2000A
100
AcDbPlotSettings
  1

  2
D11
  4

  6

 40
0.0
 41
0.0
 42
0.0
 43
0.0
 44
0.0
 45
0.0
 46
0.0
 47
0.0
 48
0.0
 49
0.0
140
0.0
141
0.0
142
1.0
143
1.0
 70
   688
 72
     0
 73
     0
 74
     5
  7

 75
    16
147
1.0
 76
     0
 77
     2
 78
   300
148
0.0
149
0.0
100
AcDbLayout
  1
Layout1
 70
     1
 71
     1
 10
0.0
 20
0.0
 11
210.0
 21
297.0
 12
0.0
 22
0.0
 32
0.0
 14
0.0
 24
0.0
 34
0.0
 15
50.0
 25
50.0
 35
50.0
146
0.0
 13
0.0
 23
0.0
 33
0.0
 16
1.0
 26
0.0
 36
0.0
 17
0.0
 27
1.0
 37
0.0
 76
     0
330
1E
  0
LAYOUT
  5
2000C
102
{ACAD_REACTORS
330
2000A
102
}
330
2000A
100
AcDbPlotSettings
  1

  2
D11
  4

  6

 40
0.0
 41
0.0
 42
0.0
 43
0.0
 44
0.0
 45
0.0
 46
0.0
 47
0.0
 48
0.0
 49
0.0
140
0.0
141
0.0
142
1.0
143
1.0
 70
  1712
 72
     0
 73
     0
 74
     0
  7

 75
     0
147
1.0
 76
     0
 77
     2
 78
   300
148
0.0
149
0.0
100
AcDbLayout
  1
Model
 70
     1
 71
     0
 10
0.0
 20
0.0
 11
12.0
 21
9.0
 12
0.0
 22
0.0
 32
0.0
 14
0.0
 24
0.0
 34
0.0
 15
0.0
 25
0.0
 35
0.0
146
0.0
 13
0.0
 23
0.0
 33
0.0
 16
1.0
 26
0.0
 36
0.0
 17
0.0
 27
1.0
 37
0.0
 76
     0
330
1F
  0
MLINESTYLE
  5
20009
102
{ACAD_REACTORS
330
20008
102
}
330
20008
100
AcDbMlineStyle
  2
STANDARD
 70
     0
  3

 62
   256
 51
90.0
 52
90.0
 71
     2
 49
0.5
 62
   256
  6
BYLAYER
 49
-0.5
 62
   256
  6
BYLAYER
  0
ACDBPLACEHOLDER
  5
20003
102
{ACAD_REACTORS
330
20002
102
}
330
20002
  0
TABLESTYLE
  5
20007
102
{ACAD_REACTORS
330
20006
102
}
330
20006
100
AcDbTableStyle
  3
Standard
 70
     0
 71
     0
 40
1.5
 41
1.5
280
     0
281
     0
  7
Standard
140
4.5
170
     2
 62
     0
 63
     7
283
     0
274
    -2
284
     1
 64
     0
275
    -2
285
     1
 65
     0
276
    -2
286
     1
 66
     0
277
    -2
287
     1
 67
     0
278
    -2
288
     1
 68
     0
279
    -2
289
     1
 69
     0
  7
Standard
140
6.0
170
     5
 62
     0
 63
     7
283
     0
274
    -2
284
     1
 64
     0
275
    -2
285
     1
 65
     0
276
    -2
286
     1
 66
     0
277
    -2
287
     1
 67
     0
278
    -2
288
     1
 68
     0
279
    -2
289
     1
 69
     0
  7
Standard
140
4.5
170
     5
 62
     0
 63
     7
283
     0
274
    -2
284
     1
 64
     0
275
    -2
285
     1
 65
     0
276
    -2
286
     1
 66
     0
277
    -2
287
     1
 67
     0
278
    -2
288
     1
 68
     0
279
    -2
289
     1
 69
     0
  0
DICTIONARYVAR
  5
20011
102
{ACAD_REACTORS
330
20010
102
}
330
20010
100
DictionaryVariables
280
     0
  1
STANDARD
  0
ENDSEC
  0
EOF
