  0
SECTION
  2
HEADER
  9
$ACADVER
  1
AC1018
  9
$ACADMAINTVER
 70
    77
  9
$DWGCODEPAGE
  3
ANSI_1252
  9
$INSBASE
 10
0.0
 20
0.0
 30
0.0
  9
$EXTMIN
 10
-0.0324120284265064
 20
-0.0094782502114867
 30
-0.0015258207003583
  9
$EXTMAX
 10
180.0436835492132
 20
37.02960994754892
 30
0.0000000349246037
  9
$LIMMIN
 10
0.0
 20
0.0
  9
$LIMMAX
 10
420.0
 20
297.0
  9
$ORTHOMODE
 70
     1
  9
$REGENMODE
 70
     1
  9
$FILLMODE
 70
     1
  9
$QTEXTMODE
 70
     0
  9
$MIRRTEXT
 70
     0
  9
$LTSCALE
 40
1.0
  9
$ATTMODE
 70
     0
  9
$TEXTSIZE
 40
1.0
  9
$TRACEWID
 40
15.68
  9
$TEXTSTYLE
  7
Standard
  9
$CLAYER
  8
0
  9
$CELTYPE
  6
ByLayer
  9
$CECOLOR
 62
   256
  9
$CELTSCALE
 40
1.0
  9
$DISPSILH
 70
     0
  9
$DIMSCALE
 40
2.5
  9
$DIMASZ
 40
2.5
  9
$DIMEXO
 40
0.625
  9
$DIMDLI
 40
3.75
  9
$DIMRND
 40
0.0
  9
$DIMDLE
 40
0.0
  9
$DIMEXE
 40
1.25
  9
$DIMTP
 40
0.0
  9
$DIMTM
 40
0.0
  9
$DIMTXT
 40
2.5
  9
$DIMCEN
 40
2.5
  9
$DIMTSZ
 40
0.0
  9
$DIMTOL
 70
     0
  9
$DIMLIM
 70
     0
  9
$DIMTIH
 70
     0
  9
$DIMTOH
 70
     0
  9
$DIMSE1
 70
     0
  9
$DIMSE2
 70
     0
  9
$DIMTAD
 70
     1
  9
$DIMZIN
 70
     8
  9
$DIMBLK
  1

  9
$DIMASO
 70
     1
  9
$DIMSHO
 70
     1
  9
$DIMPOST
  1

  9
$DIMAPOST
  1

  9
$DIMALT
 70
     0
  9
$DIMALTD
 70
     3
  9
$DIMALTF
 40
0.03937
  9
$DIMLFAC
 40
1.0
  9
$DIMTOFL
 70
     1
  9
$DIMTVP
 40
0.0
  9
$DIMTIX
 70
     0
  9
$DIMSOXD
 70
     0
  9
$DIMSAH
 70
     0
  9
$DIMBLK1
  1

  9
$DIMBLK2
  1

  9
$DIMSTYLE
  2
Standard
  9
$DIMCLRD
 70
     0
  9
$DIMCLRE
 70
     0
  9
$DIMCLRT
 70
     0
  9
$DIMTFAC
 40
1.0
  9
$DIMGAP
 40
0.625
  9
$DIMJUST
 70
     0
  9
$DIMSD1
 70
     0
  9
$DIMSD2
 70
     0
  9
$DIMTOLJ
 70
     0
  9
$DIMTZIN
 70
     8
  9
$DIMALTZ
 70
     0
  9
$DIMALTTZ
 70
     0
  9
$DIMUPT
 70
     0
  9
$DIMDEC
 70
     2
  9
$DIMTDEC
 70
     2
  9
$DIMALTU
 70
     2
  9
$DIMALTTD
 70
     3
  9
$DIMTXSTY
  7
Standard
  9
$DIMAUNIT
 70
     0
  9
$DIMADEC
 70
     0
  9
$DIMALTRND
 40
0.0
  9
$DIMAZIN
 70
     0
  9
$DIMDSEP
 70
    44
  9
$DIMATFIT
 70
     3
  9
$DIMFRAC
 70
     0
  9
$DIMLDRBLK
  1

  9
$DIMLUNIT
 70
     2
  9
$DIMLWD
 70
    -2
  9
$DIMLWE
 70
    -2
  9
$DIMTMOVE
 70
     0
  9
$LUNITS
 70
     2
  9
$LUPREC
 70
     4
  9
$SKETCHINC
 40
1.0
  9
$FILLETRAD
 40
0.0
  9
$AUNITS
 70
     0
  9
$AUPREC
 70
     2
  9
$MENU
  1
.
  9
$ELEVATION
 40
0.0
  9
$PELEVATION
 40
0.0
  9
$THICKNESS
 40
0.0
  9
$LIMCHECK
 70
     0
  9
$CHAMFERA
 40
0.0
  9
$CHAMFERB
 40
0.0
  9
$CHAMFERC
 40
0.0
  9
$CHAMFERD
 40
0.0
  9
$SKPOLY
 70
     0
  9
$TDCREATE
 40
2459836.421604815
  9
$TDUCREATE
 40
2459836.338271482
  9
$TDUPDATE
 40
2459836.422582998
  9
$TDUUPDATE
 40
2459836.339249664
  9
$TDINDWG
 40
0.0009785532
  9
$TDUSRTIMER
 40
0.0009785532
  9
$USRTIMER
 70
     1
  9
$ANGBASE
 50
0.0
  9
$ANGDIR
 70
     0
  9
$PDMODE
 70
    34
  9
$PDSIZE
 40
0.0
  9
$PLINEWID
 40
0.0
  9
$SPLFRAME
 70
     0
  9
$SPLINETYPE
 70
     6
  9
$SPLINESEGS
 70
     8
  9
$HANDSEED
  5
20014
  9
$SURFTAB1
 70
     6
  9
$SURFTAB2
 70
     6
  9
$SURFTYPE
 70
     6
  9
$SURFU
 70
     6
  9
$SURFV
 70
     6
  9
$UCSBASE
  2

  9
$UCSNAME
  2

  9
$UCSORG
 10
0.0
 20
0.0
 30
0.0
  9
$UCSXDIR
 10
1.0
 20
0.0
 30
0.0
  9
$UCSYDIR
 10
0.0
 20
1.0
 30
0.0
  9
$UCSORTHOREF
  2

  9
$UCSORTHOVIEW
 70
     0
  9
$UCSORGTOP
 10
0.0
 20
0.0
 30
0.0
  9
$UCSORGBOTTOM
 10
0.0
 20
0.0
 30
0.0
  9
$UCSORGLEFT
 10
0.0
 20
0.0
 30
0.0
  9
$UCSORGRIGHT
 10
0.0
 20
0.0
 30
0.0
  9
$UCSORGFRONT
 10
0.0
 20
0.0
 30
0.0
  9
$UCSORGBACK
 10
0.0
 20
0.0
 30
0.0
  9
$PUCSBASE
  2

  9
$PUCSNAME
  2

  9
$PUCSORG
 10
0.0
 20
0.0
 30
0.0
  9
$PUCSXDIR
 10
1.0
 20
0.0
 30
0.0
  9
$PUCSYDIR
 10
0.0
 20
1.0
 30
0.0
  9
$PUCSORTHOREF
  2

  9
$PUCSORTHOVIEW
 70
     0
  9
$PUCSORGTOP
 10
0.0
 20
0.0
 30
0.0
  9
$PUCSORGBOTTOM
 10
0.0
 20
0.0
 30
0.0
  9
$PUCSORGLEFT
 10
0.0
 20
0.0
 30
0.0
  9
$PUCSORGRIGHT
 10
0.0
 20
0.0
 30
0.0
  9
$PUCSORGFRONT
 10
0.0
 20
0.0
 30
0.0
  9
$PUCSORGBACK
 10
0.0
 20
0.0
 30
0.0
  9
$USERI1
 70
     0
  9
$USERI2
 70
     0
  9
$USERI3
 70
     0
  9
$USERI4
 70
     0
  9
$USERI5
 70
     0
  9
$USERR1
 40
0.0
  9
$USERR2
 40
0.0
  9
$USERR3
 40
0.0
  9
$USERR4
 40
0.0
  9
$USERR5
 40
0.0
  9
$WORLDVIEW
 70
     1
  9
$SHADEDGE
 70
     3
  9
$SHADEDIF
 70
    70
  9
$TILEMODE
 70
     1
  9
$MAXACTVP
 70
    64
  9
$PINSBASE
 10
0.0
 20
0.0
 30
0.0
  9
$PLIMCHECK
 70
     0
  9
$PEXTMIN
 10
0.0
 20
0.0
 30
0.0
  9
$PEXTMAX
 10
50.0
 20
50.0
 30
50.0
  9
$PLIMMIN
 10
0.0
 20
0.0
  9
$PLIMMAX
 10
210.0
 20
297.0
  9
$UNITMODE
 70
     0
  9
$VISRETAIN
 70
     1
  9
$PLINEGEN
 70
     0
  9
$PSLTSCALE
 70
     1
  9
$TREEDEPTH
 70
  3020
  9
$CMLSTYLE
  2
Standard
  9
$CMLJUST
 70
     0
  9
$CMLSCALE
 40
20.0
  9
$PROXYGRAPHICS
 70
     1
  9
$MEASUREMENT
 70
     1
  9
$CELWEIGHT
370
    -1
  9
$ENDCAPS
280
     0
  9
$JOINSTYLE
280
     0
  9
$LWDISPLAY
290
     0
  9
$INSUNITS
 70
     4
  9
$HYPERLINKBASE
  1

  9
$STYLESHEET
  1

  9
$XEDIT
290
     1
  9
$CEPSNTYPE
380
     0
  9
$PSTYLEMODE
290
     1
  9
$FINGERPRINTGUID
  2
{0192FBF8-46A8-4EE1-83F8-04521B1F09E2}
  9
$VERSIONGUID
  2
{3D413AE8-25A6-4E14-801B-CD45580683E6}
  9
$EXTNAMES
290
     1
  9
$PSVPSCALE
 40
1.0
  9
$OLESTARTUP
290
     0
  9
$SORTENTS
280
   127
  9
$INDEXCTL
280
     0
  9
$HIDETEXT
280
     1
  9
$XCLIPFRAME
290
     0
  9
$HALOGAP
280
     0
  9
$OBSCOLOR
 70
   257
  9
$OBSLTYPE
280
     0
  9
$INTERSECTIONDISPLAY
280
     0
  9
$INTERSECTIONCOLOR
 70
   257
  9
$DIMASSOC
280
     1
  9
$PROJECTNAME
  1

  0
ENDSEC
  0
SECTION
  2
CLASSES
  0
CLASS
  1
ACDBDICTIONARYWDFLT
  2
AcDbDictionaryWithDefault
  3
ObjectDBX Classes
 90
        0
 91
        1
280
     0
281
     0
  0
CLASS
  1
TABLESTYLE
  2
AcDbTableStyle
  3
ObjectDBX Classes
 90
     2047
 91
        1
280
     0
281
     0
  0
CLASS
  1
DICTIONARYVAR
  2
AcDbDictionaryVar
  3
ObjectDBX Classes
 90
        0
 91
        1
280
     0
281
     0
  0
ENDSEC
  0
SECTION
  2
TABLES
  0
TABLE
  2
VPORT
  5
8
330
0
100
AcDbSymbolTable
 70
     2
  0
VPORT
  5
20013
330
8
100
AcDbSymbolTableRecord
100
AcDbViewportTableRecord
  2
*Active
 70
     0
 10
0.0
 20
0.0
 11
1.0
 21
1.0
 12
90.00563576039338
 22
18.51006584866872
 13
0.0
 23
0.0
 14
10.0
 24
10.0
 15
10.0
 25
10.0
 16
0.0
 26
0.0
 36
1.0
 17
0.0
 27
0.0
 37
0.0
 40
91.34590472918052
 41
1.977707006369426
 42
50.0
 43
0.0
 44
0.0
 50
0.0
 51
0.0
 71
     0
 72
   100
 73
     1
 74
     3
 75
     0
 76
     0
 77
     0
 78
     0
281
     0
 65
     1
110
0.0
120
0.0
130
0.0
111
1.0
121
0.0
131
0.0
112
0.0
122
1.0
132
0.0
 79
     0
146
0.0
  0
ENDTAB
  0
TABLE
  2
LTYPE
  5
5
330
0
100
AcDbSymbolTable
 70
    25
  0
LTYPE
  5
14
330
5
100
AcDbSymbolTableRecord
100
AcDbLinetypeTableRecord
  2
ByBlock
 70
     0
  3

 72
    65
 73
     0
 40
0.0
  0
LTYPE
  5
15
330
5
100
AcDbSymbolTableRecord
100
AcDbLinetypeTableRecord
  2
ByLayer
 70
     0
  3

 72
    65
 73
     0
 40
0.0
  0
LTYPE
  5
16
330
5
100
AcDbSymbolTableRecord
100
AcDbLinetypeTableRecord
  2
Continuous
 70
     0
  3
Solid line
 72
    65
 73
     0
 40
0.0
  0
LTYPE
  5
32
330
5
100
AcDbSymbolTableRecord
100
AcDbLinetypeTableRecord
  2
DOT
 70
     0
  3
Dot . . . . . . . . . . . . . . . . . . . . . .
 72
    65
 73
     2
 40
6.349999999999999
 49
0.0
 74
     0
 49
-6.349999999999999
 74
     0
  0
LTYPE
  5
33
330
5
100
AcDbSymbolTableRecord
100
AcDbLinetypeTableRecord
  2
DOTTINY
 70
     0
  3
Dot (.15x) .....................................
 72
    65
 73
     2
 40
0.9525
 49
0.0
 74
     0
 49
-0.9525
 74
     0
  0
LTYPE
  5
34
330
5
100
AcDbSymbolTableRecord
100
AcDbLinetypeTableRecord
  2
DOT2
 70
     0
  3
Dot (.5x) .....................................
 72
    65
 73
     2
 40
3.174999999999999
 49
0.0
 74
     0
 49
-3.174999999999999
 74
     0
  0
LTYPE
  5
35
330
5
100
AcDbSymbolTableRecord
100
AcDbLinetypeTableRecord
  2
DOTX2
 70
     0
  3
Dot (2x) .  .  .  .  .  .  .  .  .  .  .  .  .
 72
    65
 73
     2
 40
12.7
 49
0.0
 74
     0
 49
-12.7
 74
     0
  0
LTYPE
  5
36
330
5
100
AcDbSymbolTableRecord
100
AcDbLinetypeTableRecord
  2
DASHED
 70
     0
  3
Dashed _ _ _ _ _ _ _ _ _ _ _ _ _ _ _ _ _
 72
    65
 73
     2
 40
19.05
 49
12.7
 74
     0
 49
-6.349999999999999
 74
     0
  0
LTYPE
  5
37
330
5
100
AcDbSymbolTableRecord
100
AcDbLinetypeTableRecord
  2
DASHEDTINY
 70
     0
  3
Dashed (.15x) _ _ _ _ _ _ _ _ _ _ _ _ _ _ _ _ _
 72
    65
 73
     2
 40
2.857499999999999
 49
1.905
 74
     0
 49
-0.9525
 74
     0
  0
LTYPE
  5
38
330
5
100
AcDbSymbolTableRecord
100
AcDbLinetypeTableRecord
  2
DASHED2
 70
     0
  3
Dashed (.5x) _ _ _ _ _ _ _ _ _ _ _ _ _ _ _ _ _
 72
    65
 73
     2
 40
9.525
 49
6.349999999999999
 74
     0
 49
-3.174999999999999
 74
     0
  0
LTYPE
  5
39
330
5
100
AcDbSymbolTableRecord
100
AcDbLinetypeTableRecord
  2
DASHEDX2
 70
     0
  3
Dashed (2x) ____  ____  ____  ____  ____  ___
 72
    65
 73
     2
 40
38.09999999999999
 49
25.4
 74
     0
 49
-12.7
 74
     0
  0
LTYPE
  5
3A
330
5
100
AcDbSymbolTableRecord
100
AcDbLinetypeTableRecord
  2
DASHDOT
 70
     0
  3
Dash dot __ . __ . __ . __ . __ . __ . __ . __
 72
    65
 73
     4
 40
25.4
 49
12.7
 74
     0
 49
-6.349999999999999
 74
     0
 49
0.0
 74
     0
 49
-6.349999999999999
 74
     0
  0
LTYPE
  5
3B
330
5
100
AcDbSymbolTableRecord
100
AcDbLinetypeTableRecord
  2
DASHDOTTINY
 70
     0
  3
Dash dot (.15x) _._._._._._._._._._._._._._._.
 72
    65
 73
     4
 40
3.81
 49
1.905
 74
     0
 49
-0.9525
 74
     0
 49
0.0
 74
     0
 49
-0.9525
 74
     0
  0
LTYPE
  5
3C
330
5
100
AcDbSymbolTableRecord
100
AcDbLinetypeTableRecord
  2
DASHDOT2
 70
     0
  3
Dash dot (.5x) _._._._._._._._._._._._._._._.
 72
    65
 73
     4
 40
12.7
 49
6.349999999999999
 74
     0
 49
-3.174999999999999
 74
     0
 49
0.0
 74
     0
 49
-3.174999999999999
 74
     0
  0
LTYPE
  5
3D
330
5
100
AcDbSymbolTableRecord
100
AcDbLinetypeTableRecord
  2
DASHDOTX2
 70
     0
  3
Dash dot (2x) ____  .  ____  .  ____  .  ___
 72
    65
 73
     4
 40
50.8
 49
25.4
 74
     0
 49
-12.7
 74
     0
 49
0.0
 74
     0
 49
-12.7
 74
     0
  0
LTYPE
  5
3E
330
5
100
AcDbSymbolTableRecord
100
AcDbLinetypeTableRecord
  2
DIVIDE
 70
     0
  3
Divide ____ . . ____ . . ____ . . ____ . . ____
 72
    65
 73
     6
 40
31.75
 49
12.7
 74
     0
 49
-6.349999999999999
 74
     0
 49
0.0
 74
     0
 49
-6.349999999999999
 74
     0
 49
0.0
 74
     0
 49
-6.349999999999999
 74
     0
  0
LTYPE
  5
3F
330
5
100
AcDbSymbolTableRecord
100
AcDbLinetypeTableRecord
  2
DIVIDETINY
 70
     0
  3
Divide (.15x) __..__..__..__..__..__..__..__.._
 72
    65
 73
     6
 40
4.7625
 49
1.905
 74
     0
 49
-0.9525
 74
     0
 49
0.0
 74
     0
 49
-0.9525
 74
     0
 49
0.0
 74
     0
 49
-0.9525
 74
     0
  0
LTYPE
  5
40
330
5
100
AcDbSymbolTableRecord
100
AcDbLinetypeTableRecord
  2
DIVIDE2
 70
     0
  3
Divide (.5x) __..__..__..__..__..__..__..__.._
 72
    65
 73
     6
 40
15.875
 49
6.349999999999999
 74
     0
 49
-3.174999999999999
 74
     0
 49
0.0
 74
     0
 49
-3.174999999999999
 74
     0
 49
0.0
 74
     0
 49
-3.174999999999999
 74
     0
  0
LTYPE
  5
41
330
5
100
AcDbSymbolTableRecord
100
AcDbLinetypeTableRecord
  2
DIVIDEX2
 70
     0
  3
Divide (2x) ________  .  .  ________  .  .  _
 72
    65
 73
     6
 40
63.5
 49
25.4
 74
     0
 49
-12.7
 74
     0
 49
0.0
 74
     0
 49
-12.7
 74
     0
 49
0.0
 74
     0
 49
-12.7
 74
     0
  0
LTYPE
  5
42
330
5
100
AcDbSymbolTableRecord
100
AcDbLinetypeTableRecord
  2
BORDER
 70
     0
  3
Border __ __ . __ __ . __ __ . __ __ . __ __ .
 72
    65
 73
     6
 40
44.45
 49
12.7
 74
     0
 49
-6.349999999999999
 74
     0
 49
12.7
 74
     0
 49
-6.349999999999999
 74
     0
 49
0.0
 74
     0
 49
-6.349999999999999
 74
     0
  0
LTYPE
  5
43
330
5
100
AcDbSymbolTableRecord
100
AcDbLinetypeTableRecord
  2
BORDERTINY
 70
     0
  3
Border (.15x) __.__.__.__.__.__.__.__.__.__.__.
 72
    65
 73
     6
 40
6.6675
 49
1.905
 74
     0
 49
-0.9525
 74
     0
 49
1.905
 74
     0
 49
-0.9525
 74
     0
 49
0.0
 74
     0
 49
-0.9525
 74
     0
  0
LTYPE
  5
44
330
5
100
AcDbSymbolTableRecord
100
AcDbLinetypeTableRecord
  2
BORDER2
 70
     0
  3
Border (.5x) __.__.__.__.__.__.__.__.__.__.__.
 72
    65
 73
     6
 40
22.225
 49
6.349999999999999
 74
     0
 49
-3.174999999999999
 74
     0
 49
6.349999999999999
 74
     0
 49
-3.174999999999999
 74
     0
 49
0.0
 74
     0
 49
-3.174999999999999
 74
     0
  0
LTYPE
  5
45
330
5
100
AcDbSymbolTableRecord
100
AcDbLinetypeTableRecord
  2
BORDERX2
 70
     0
  3
Border (2x) ____  ____  .  ____  ____  .  ___
 72
    65
 73
     6
 40
88.89999999999998
 49
25.4
 74
     0
 49
-12.7
 74
     0
 49
25.4
 74
     0
 49
-12.7
 74
     0
 49
0.0
 74
     0
 49
-12.7
 74
     0
  0
LTYPE
  5
46
330
5
100
AcDbSymbolTableRecord
100
AcDbLinetypeTableRecord
  2
CENTER
 70
     0
  3
Center ____ _ ____ _ ____ _ ____ _ ____ _ ____
 72
    65
 73
     4
 40
50.8
 49
31.75
 74
     0
 49
-6.349999999999999
 74
     0
 49
6.349999999999999
 74
     0
 49
-6.349999999999999
 74
     0
  0
LTYPE
  5
47
330
5
100
AcDbSymbolTableRecord
100
AcDbLinetypeTableRecord
  2
CENTERTINY
 70
     0
  3
Center (.15x) ___ _ ___ _ ___ _ ___ _ ___ _ ___
 72
    65
 73
     4
 40
7.62
 49
4.7625
 74
     0
 49
-0.9525
 74
     0
 49
0.9525
 74
     0
 49
-0.9525
 74
     0
  0
LTYPE
  5
48
330
5
100
AcDbSymbolTableRecord
100
AcDbLinetypeTableRecord
  2
CENTER2
 70
     0
  3
Center (.5x) ___ _ ___ _ ___ _ ___ _ ___ _ ___
 72
    65
 73
     4
 40
28.575
 49
19.05
 74
     0
 49
-3.174999999999999
 74
     0
 49
3.174999999999999
 74
     0
 49
-3.174999999999999
 74
     0
  0
LTYPE
  5
49
330
5
100
AcDbSymbolTableRecord
100
AcDbLinetypeTableRecord
  2
CENTERX2
 70
     0
  3
Center (2x) ________  __  ________  __  _____
 72
    65
 73
     4
 40
101.6
 49
63.5
 74
     0
 49
-12.7
 74
     0
 49
12.7
 74
     0
 49
-12.7
 74
     0
  0
ENDTAB
  0
TABLE
  2
LAYER
  5
2
330
0
100
AcDbSymbolTable
 70
    18
  0
LAYER
  5
10
330
2
100
AcDbSymbolTableRecord
100
AcDbLayerTableRecord
  2
0
 70
     0
 62
     7
  6
Continuous
370
    -3
390
F
  0
LAYER
  5
4A
330
2
100
AcDbSymbolTableRecord
100
AcDbLayerTableRecord
  2
none
 70
     0
 62
     7
  6
Continuous
370
    -3
390
F
  0
LAYER
  5
4B
330
2
100
AcDbSymbolTableRecord
100
AcDbLayerTableRecord
  2
test
 70
     0
 62
     7
  6
Continuous
370
    -3
390
F
  0
LAYER
  5
4C
330
2
100
AcDbSymbolTableRecord
100
AcDbLayerTableRecord
  2
test001
 70
     0
 62
     7
  6
Continuous
370
    -3
390
F
  0
LAYER
  5
4D
330
2
100
AcDbSymbolTableRecord
100
AcDbLayerTableRecord
  2
test002
 70
     0
 62
     7
  6
Continuous
370
    -3
390
F
  0
LAYER
  5
4E
330
2
100
AcDbSymbolTableRecord
100
AcDbLayerTableRecord
  2
test003
 70
     0
 62
     7
  6
Continuous
370
    -3
390
F
  0
LAYER
  5
4F
330
2
100
AcDbSymbolTableRecord
100
AcDbLayerTableRecord
  2
test004
 70
     0
 62
     7
  6
Continuous
370
    -3
390
F
  0
LAYER
  5
50
330
2
100
AcDbSymbolTableRecord
100
AcDbLayerTableRecord
  2
test005
 70
     0
 62
     7
  6
Continuous
370
    -3
390
F
  0
LAYER
  5
51
330
2
100
AcDbSymbolTableRecord
100
AcDbLayerTableRecord
  2
test006
 70
     0
 62
     7
  6
Continuous
370
    -3
390
F
  0
LAYER
  5
52
330
2
100
AcDbSymbolTableRecord
100
AcDbLayerTableRecord
  2
test007
 70
     0
 62
     7
  6
Continuous
370
    -3
390
F
  0
LAYER
  5
53
330
2
100
AcDbSymbolTableRecord
100
AcDbLayerTableRecord
  2
test008
 70
     0
 62
     7
  6
Continuous
370
    -3
390
F
  0
LAYER
  5
54
330
2
100
AcDbSymbolTableRecord
100
AcDbLayerTableRecord
  2
test009
 70
     0
 62
     7
  6
Continuous
370
    -3
390
F
  0
LAYER
  5
55
330
2
100
AcDbSymbolTableRecord
100
AcDbLayerTableRecord
  2
test010
 70
     0
 62
     7
  6
Continuous
370
    -3
390
F
  0
LAYER
  5
56
330
2
100
AcDbSymbolTableRecord
100
AcDbLayerTableRecord
  2
test011
 70
     0
 62
     7
  6
Continuous
370
    -3
390
F
  0
LAYER
  5
57
330
2
100
AcDbSymbolTableRecord
100
AcDbLayerTableRecord
  2
test012
 70
     0
 62
     7
  6
Continuous
370
    -3
390
F
  0
LAYER
  5
58
330
2
100
AcDbSymbolTableRecord
100
AcDbLayerTableRecord
  2
test013
 70
     0
 62
     7
  6
Continuous
370
    -3
390
F
  0
LAYER
  5
59
330
2
100
AcDbSymbolTableRecord
100
AcDbLayerTableRecord
  2
test014
 70
     0
 62
     7
  6
Continuous
370
    -3
390
F
  0
LAYER
  5
5A
330
2
100
AcDbSymbolTableRecord
100
AcDbLayerTableRecord
  2
test015
 70
     0
 62
     7
  6
Continuous
370
    -3
390
F
  0
ENDTAB
  0
TABLE
  2
STYLE
  5
3
330
0
100
AcDbSymbolTable
 70
     1
  0
STYLE
  5
5B
330
3
100
AcDbSymbolTableRecord
100
AcDbTextStyleTableRecord
  2
Standard
 70
     0
 40
0.0
 41
1.0
 50
0.0
 71
     0
 42
1.0
  3
txt
  4

  0
ENDTAB
  0
TABLE
  2
VIEW
  5
6
330
0
100
AcDbSymbolTable
 70
     0
  0
ENDTAB
  0
TABLE
  2
UCS
  5
7
330
0
100
AcDbSymbolTable
 70
     0
  0
ENDTAB
  0
TABLE
  2
APPID
  5
9
330
0
100
AcDbSymbolTable
 70
     2
  0
APPID
  5
12
330
9
100
AcDbSymbolTableRecord
100
AcDbRegAppTableRecord
  2
ACAD
 70
     0
  0
APPID
  5
5C
330
9
100
AcDbSymbolTableRecord
100
AcDbRegAppTableRecord
  2
LibreCad
 70
     0
  0
ENDTAB
  0
TABLE
  2
DIMSTYLE
  5
A
330
0
100
AcDbSymbolTable
 70
     1
100
AcDbDimStyleTable
 71
     0
  0
DIMSTYLE
105
5D
330
A
100
AcDbSymbolTableRecord
100
AcDbDimStyleTableRecord
  2
Standard
 70
     0
 41
2.5
 42
0.625
 44
1.25
 73
     0
 78
     1
140
2.5
142
2.5
147
0.625
271
     2
278
     0
340
5B
  0
ENDTAB
  0
TABLE
  2
BLOCK_RECORD
  5
1
330
0
100
AcDbSymbolTable
 70
     0
  0
BLOCK_RECORD
  5
1F
330
1
100
AcDbSymbolTableRecord
100
AcDbBlockTableRecord
  2
*Model_Space
340
2000C
  0
BLOCK_RECORD
  5
1E
330
1
100
AcDbSymbolTableRecord
100
AcDbBlockTableRecord
  2
*Paper_Space
340
2000D
  0
ENDTAB
  0
ENDSEC
  0
SECTION
  2
BLOCKS
  0
BLOCK
  5
20
330
1F
100
AcDbEntity
  8
0
100
AcDbBlockBegin
  2
*Model_Space
 70
     0
 10
0.0
 20
0.0
 30
0.0
  3
*Model_Space
  1

  0
ENDBLK
  5
21
330
1F
100
AcDbEntity
  8
0
100
AcDbBlockEnd
  0
BLOCK
  5
1C
330
1E
100
AcDbEntity
 67
     1
  8
0
100
AcDbBlockBegin
  2
*Paper_Space
 70
     0
 10
0.0
 20
0.0
 30
0.0
  3
*Paper_Space
  1

  0
ENDBLK
  5
1D
330
1E
100
AcDbEntity
 67
     1
  8
0
100
AcDbBlockEnd
  0
ENDSEC
  0
SECTION
  2
ENTITIES
  0
LINE
  5
5F
330
1F
100
AcDbEntity
  8
test012
100
AcDbLine
 10
179.99354592
 20
37.00999999999999
 30
0.0
 11
179.99354592
 21
37.00999999999999
 31
0.0
  0
LINE
  5
60
330
1F
100
AcDbEntity
  8
test012
100
AcDbLine
 10
-0.00645408
 20
37.00999999999999
 30
0.0
 11
179.99354592
 21
37.00999999999999
 31
0.0
  0
LINE
  5
61
330
1F
100
AcDbEntity
  8
test012
100
AcDbLine
 10
-0.00645408
 20
37.00999999999999
 30
0.0
 11
179.99354592
 21
37.00999999999999
 31
0.0
  0
LINE
  5
67
330
1F
100
AcDbEntity
  8
test012
100
AcDbLine
 10
30.74004592
 20
0.0
 30
0.0
 11
30.74004592
 21
0.0
 31
0.0
  0
LINE
  5
68
330
1F
100
AcDbEntity
  8
test012
100
AcDbLine
 10
0.0
 20
0.0
 30
0.0
 11
30.74004592
 21
0.0
 31
0.0
  0
LINE
  5
69
330
1F
100
AcDbEntity
  8
test012
100
AcDbLine
 10
0.0
 20
0.0
 30
0.0
 11
30.74004592
 21
0.0
 31
0.0
  0
LINE
  5
6A
330
1F
100
AcDbEntity
  8
test012
100
AcDbLine
 10
33.19684592
 20
6.75
 30
0.0
 11
33.19684592
 21
6.75
 31
0.0
  0
LINE
  5
6B
330
1F
100
AcDbEntity
  8
test012
100
AcDbLine
 10
30.74004592
 20
0.0
 30
0.0
 11
30.74004592
 21
0.0
 31
0.0
  0
LINE
  5
6C
330
1F
100
AcDbEntity
  8
test012
100
AcDbLine
 10
33.19684592
 20
6.75
 30
0.0
 11
30.74004592
 21
0.0
 31
0.0
  0
LINE
  5
6D
330
1F
100
AcDbEntity
  8
test012
100
AcDbLine
 10
33.19684592
 20
6.75
 30
0.0
 11
30.74004592
 21
0.0
 31
0.0
  0
LINE
  5
6E
330
1F
100
AcDbEntity
  8
test012
100
AcDbLine
 10
35.17944592
 20
6.75
 30
0.0
 11
35.17944592
 21
6.75
 31
0.0
  0
LINE
  5
6F
330
1F
100
AcDbEntity
  8
test012
100
AcDbLine
 10
33.19684592
 20
6.75
 30
0.0
 11
33.19684592
 21
6.75
 31
0.0
  0
LINE
  5
70
330
1F
100
AcDbEntity
  8
test012
100
AcDbLine
 10
35.17944592
 20
6.75
 30
0.0
 11
33.19684592
 21
6.75
 31
0.0
  0
LINE
  5
71
330
1F
100
AcDbEntity
  8
test012
100
AcDbLine
 10
35.17944592
 20
6.75
 30
0.0
 11
33.19684592
 21
6.75
 31
0.0
  0
LINE
  5
72
330
1F
100
AcDbEntity
  8
test012
100
AcDbLine
 10
37.63624592
 20
0.0
 30
0.0
 11
37.63624592
 21
0.0
 31
0.0
  0
LINE
  5
73
330
1F
100
AcDbEntity
  8
test012
100
AcDbLine
 10
35.17944592
 20
6.75
 30
0.0
 11
35.17944592
 21
6.75
 31
0.0
  0
LINE
  5
74
330
1F
100
AcDbEntity
  8
test012
100
AcDbLine
 10
37.63624592
 20
0.0
 30
0.0
 11
35.17944592
 21
6.75
 31
0.0
  0
LINE
  5
75
330
1F
100
AcDbEntity
  8
test012
100
AcDbLine
 10
37.63624592
 20
0.0
 30
0.0
 11
35.17944592
 21
6.75
 31
0.0
  0
LINE
  5
76
330
1F
100
AcDbEntity
  8
test012
100
AcDbLine
 10
40.16474592
 20
0.0
 30
0.0
 11
40.16474592
 21
0.0
 31
0.0
  0
LINE
  5
77
330
1F
100
AcDbEntity
  8
test012
100
AcDbLine
 10
37.63624592
 20
0.0
 30
0.0
 11
37.63624592
 21
0.0
 31
0.0
  0
LINE
  5
78
330
1F
100
AcDbEntity
  8
test012
100
AcDbLine
 10
40.16474592
 20
0.0
 30
0.0
 11
37.63624592
 21
0.0
 31
0.0
  0
LINE
  5
79
330
1F
100
AcDbEntity
  8
test012
100
AcDbLine
 10
40.16474592
 20
0.0
 30
0.0
 11
37.63624592
 21
0.0
 31
0.0
  0
LINE
  5
7A
330
1F
100
AcDbEntity
  8
test012
100
AcDbLine
 10
42.62154592
 20
6.75
 30
0.0
 11
42.62154592
 21
6.75
 31
0.0
  0
LINE
  5
7B
330
1F
100
AcDbEntity
  8
test012
100
AcDbLine
 10
40.16474592
 20
0.0
 30
0.0
 11
40.16474592
 21
0.0
 31
0.0
  0
LINE
  5
7C
330
1F
100
AcDbEntity
  8
test012
100
AcDbLine
 10
42.62154592
 20
6.75
 30
0.0
 11
40.16474592
 21
0.0
 31
0.0
  0
LINE
  5
7D
330
1F
100
AcDbEntity
  8
test012
100
AcDbLine
 10
42.62154592
 20
6.75
 30
0.0
 11
40.16474592
 21
0.0
 31
0.0
  0
LINE
  5
7E
330
1F
100
AcDbEntity
  8
test012
100
AcDbLine
 10
44.60414592
 20
6.75
 30
0.0
 11
44.60414592
 21
6.75
 31
0.0
  0
LINE
  5
7F
330
1F
100
AcDbEntity
  8
test012
100
AcDbLine
 10
42.62154592
 20
6.75
 30
0.0
 11
42.62154592
 21
6.75
 31
0.0
  0
LINE
  5
80
330
1F
100
AcDbEntity
  8
test012
100
AcDbLine
 10
44.60414592
 20
6.75
 30
0.0
 11
42.62154592
 21
6.75
 31
0.0
  0
LINE
  5
81
330
1F
100
AcDbEntity
  8
test012
100
AcDbLine
 10
44.60414592
 20
6.75
 30
0.0
 11
42.62154592
 21
6.75
 31
0.0
  0
LINE
  5
82
330
1F
100
AcDbEntity
  8
test012
100
AcDbLine
 10
47.06094592
 20
0.0
 30
0.0
 11
47.06094592
 21
0.0
 31
0.0
  0
LINE
  5
83
330
1F
100
AcDbEntity
  8
test012
100
AcDbLine
 10
44.60414592
 20
6.75
 30
0.0
 11
44.60414592
 21
6.75
 31
0.0
  0
LINE
  5
84
330
1F
100
AcDbEntity
  8
test012
100
AcDbLine
 10
47.06094592
 20
0.0
 30
0.0
 11
44.60414592
 21
6.75
 31
0.0
  0
LINE
  5
85
330
1F
100
AcDbEntity
  8
test012
100
AcDbLine
 10
47.06094592
 20
0.0
 30
0.0
 11
44.60414592
 21
6.75
 31
0.0
  0
LINE
  5
86
330
1F
100
AcDbEntity
  8
test012
100
AcDbLine
 10
49.58954592000001
 20
0.0
 30
0.0
 11
49.58954592000001
 21
0.0
 31
0.0
  0
LINE
  5
87
330
1F
100
AcDbEntity
  8
test012
100
AcDbLine
 10
47.06094592
 20
0.0
 30
0.0
 11
47.06094592
 21
0.0
 31
0.0
  0
LINE
  5
88
330
1F
100
AcDbEntity
  8
test012
100
AcDbLine
 10
49.58954592000001
 20
0.0
 30
0.0
 11
47.06094592
 21
0.0
 31
0.0
  0
LINE
  5
89
330
1F
100
AcDbEntity
  8
test012
100
AcDbLine
 10
49.58954592000001
 20
0.0
 30
0.0
 11
47.06094592
 21
0.0
 31
0.0
  0
LINE
  5
8A
330
1F
100
AcDbEntity
  8
test012
100
AcDbLine
 10
52.04634592
 20
6.75
 30
0.0
 11
52.04634592
 21
6.75
 31
0.0
  0
LINE
  5
8B
330
1F
100
AcDbEntity
  8
test012
100
AcDbLine
 10
49.58954592000001
 20
0.0
 30
0.0
 11
49.58954592000001
 21
0.0
 31
0.0
  0
LINE
  5
8C
330
1F
100
AcDbEntity
  8
test012
100
AcDbLine
 10
52.04634592
 20
6.75
 30
0.0
 11
49.58954592000001
 21
0.0
 31
0.0
  0
LINE
  5
8D
330
1F
100
AcDbEntity
  8
test012
100
AcDbLine
 10
52.04634592
 20
6.75
 30
0.0
 11
49.58954592000001
 21
0.0
 31
0.0
  0
LINE
  5
8E
330
1F
100
AcDbEntity
  8
test012
100
AcDbLine
 10
54.02894592
 20
6.75
 30
0.0
 11
54.02894592
 21
6.75
 31
0.0
  0
LINE
  5
8F
330
1F
100
AcDbEntity
  8
test012
100
AcDbLine
 10
52.04634592
 20
6.75
 30
0.0
 11
52.04634592
 21
6.75
 31
0.0
  0
LINE
  5
90
330
1F
100
AcDbEntity
  8
test012
100
AcDbLine
 10
54.02894592
 20
6.75
 30
0.0
 11
52.04634592
 21
6.75
 31
0.0
  0
LINE
  5
91
330
1F
100
AcDbEntity
  8
test012
100
AcDbLine
 10
54.02894592
 20
6.75
 30
0.0
 11
52.04634592
 21
6.75
 31
0.0
  0
LINE
  5
92
330
1F
100
AcDbEntity
  8
test012
100
AcDbLine
 10
56.48574592
 20
0.0
 30
0.0
 11
56.48574592
 21
0.0
 31
0.0
  0
LINE
  5
93
330
1F
100
AcDbEntity
  8
test012
100
AcDbLine
 10
54.02894592
 20
6.75
 30
0.0
 11
54.02894592
 21
6.75
 31
0.0
  0
LINE
  5
94
330
1F
100
AcDbEntity
  8
test012
100
AcDbLine
 10
56.48574592
 20
0.0
 30
0.0
 11
54.02894592
 21
6.75
 31
0.0
  0
LINE
  5
95
330
1F
100
AcDbEntity
  8
test012
100
AcDbLine
 10
56.48574592
 20
0.0
 30
0.0
 11
54.02894592
 21
6.75
 31
0.0
  0
LINE
  5
96
330
1F
100
AcDbEntity
  8
test012
100
AcDbLine
 10
59.01434592000001
 20
0.0
 30
0.0
 11
59.01434592000001
 21
0.0
 31
0.0
  0
LINE
  5
97
330
1F
100
AcDbEntity
  8
test012
100
AcDbLine
 10
56.48574592
 20
0.0
 30
0.0
 11
56.48574592
 21
0.0
 31
0.0
  0
LINE
  5
98
330
1F
100
AcDbEntity
  8
test012
100
AcDbLine
 10
59.01434592000001
 20
0.0
 30
0.0
 11
56.48574592
 21
0.0
 31
0.0
  0
LINE
  5
99
330
1F
100
AcDbEntity
  8
test012
100
AcDbLine
 10
59.01434592000001
 20
0.0
 30
0.0
 11
56.48574592
 21
0.0
 31
0.0
  0
LINE
  5
9A
330
1F
100
AcDbEntity
  8
test012
100
AcDbLine
 10
61.47114592000001
 20
6.75
 30
0.0
 11
61.47114592000001
 21
6.75
 31
0.0
  0
LINE
  5
9B
330
1F
100
AcDbEntity
  8
test012
100
AcDbLine
 10
59.01434592000001
 20
0.0
 30
0.0
 11
59.01434592000001
 21
0.0
 31
0.0
  0
LINE
  5
9C
330
1F
100
AcDbEntity
  8
test012
100
AcDbLine
 10
61.47114592000001
 20
6.75
 30
0.0
 11
59.01434592000001
 21
0.0
 31
0.0
  0
LINE
  5
9D
330
1F
100
AcDbEntity
  8
test012
100
AcDbLine
 10
61.47114592000001
 20
6.75
 30
0.0
 11
59.01434592000001
 21
0.0
 31
0.0
  0
LINE
  5
9E
330
1F
100
AcDbEntity
  8
test012
100
AcDbLine
 10
63.45374592
 20
6.75
 30
0.0
 11
63.45374592
 21
6.75
 31
0.0
  0
LINE
  5
9F
330
1F
100
AcDbEntity
  8
test012
100
AcDbLine
 10
61.47114592000001
 20
6.75
 30
0.0
 11
61.47114592000001
 21
6.75
 31
0.0
  0
LINE
  5
A0
330
1F
100
AcDbEntity
  8
test012
100
AcDbLine
 10
63.45374592
 20
6.75
 30
0.0
 11
61.47114592000001
 21
6.75
 31
0.0
  0
LINE
  5
A1
330
1F
100
AcDbEntity
  8
test012
100
AcDbLine
 10
63.45374592
 20
6.75
 30
0.0
 11
61.47114592000001
 21
6.75
 31
0.0
  0
LINE
  5
A2
330
1F
100
AcDbEntity
  8
test012
100
AcDbLine
 10
65.91054592
 20
0.0
 30
0.0
 11
65.91054592
 21
0.0
 31
0.0
  0
LINE
  5
A3
330
1F
100
AcDbEntity
  8
test012
100
AcDbLine
 10
63.45374592
 20
6.75
 30
0.0
 11
63.45374592
 21
6.75
 31
0.0
  0
LINE
  5
A4
330
1F
100
AcDbEntity
  8
test012
100
AcDbLine
 10
65.91054592
 20
0.0
 30
0.0
 11
63.45374592
 21
6.75
 31
0.0
  0
LINE
  5
A5
330
1F
100
AcDbEntity
  8
test012
100
AcDbLine
 10
65.91054592
 20
0.0
 30
0.0
 11
63.45374592
 21
6.75
 31
0.0
  0
LINE
  5
A6
330
1F
100
AcDbEntity
  8
test012
100
AcDbLine
 10
68.43914592
 20
0.0
 30
0.0
 11
68.43914592
 21
0.0
 31
0.0
  0
LINE
  5
A7
330
1F
100
AcDbEntity
  8
test012
100
AcDbLine
 10
65.91054592
 20
0.0
 30
0.0
 11
65.91054592
 21
0.0
 31
0.0
  0
LINE
  5
A8
330
1F
100
AcDbEntity
  8
test012
100
AcDbLine
 10
68.43914592
 20
0.0
 30
0.0
 11
65.91054592
 21
0.0
 31
0.0
  0
LINE
  5
A9
330
1F
100
AcDbEntity
  8
test012
100
AcDbLine
 10
68.43914592
 20
0.0
 30
0.0
 11
65.91054592
 21
0.0
 31
0.0
  0
LINE
  5
AA
330
1F
100
AcDbEntity
  8
test012
100
AcDbLine
 10
70.89594592
 20
6.75
 30
0.0
 11
70.89594592
 21
6.75
 31
0.0
  0
LINE
  5
AB
330
1F
100
AcDbEntity
  8
test012
100
AcDbLine
 10
68.43914592
 20
0.0
 30
0.0
 11
68.43914592
 21
0.0
 31
0.0
  0
LINE
  5
AC
330
1F
100
AcDbEntity
  8
test012
100
AcDbLine
 10
70.89594592
 20
6.75
 30
0.0
 11
68.43914592
 21
0.0
 31
0.0
  0
LINE
  5
AD
330
1F
100
AcDbEntity
  8
test012
100
AcDbLine
 10
70.89594592
 20
6.75
 30
0.0
 11
68.43914592
 21
0.0
 31
0.0
  0
LINE
  5
AE
330
1F
100
AcDbEntity
  8
test012
100
AcDbLine
 10
72.87854592000002
 20
6.75
 30
0.0
 11
72.87854592000002
 21
6.75
 31
0.0
  0
LINE
  5
AF
330
1F
100
AcDbEntity
  8
test012
100
AcDbLine
 10
70.89594592
 20
6.75
 30
0.0
 11
70.89594592
 21
6.75
 31
0.0
  0
LINE
  5
B0
330
1F
100
AcDbEntity
  8
test012
100
AcDbLine
 10
72.87854592000002
 20
6.75
 30
0.0
 11
70.89594592
 21
6.75
 31
0.0
  0
LINE
  5
B1
330
1F
100
AcDbEntity
  8
test012
100
AcDbLine
 10
72.87854592000002
 20
6.75
 30
0.0
 11
70.89594592
 21
6.75
 31
0.0
  0
LINE
  5
B2
330
1F
100
AcDbEntity
  8
test012
100
AcDbLine
 10
75.33534592000002
 20
0.0
 30
0.0
 11
75.33534592000002
 21
0.0
 31
0.0
  0
LINE
  5
B3
330
1F
100
AcDbEntity
  8
test012
100
AcDbLine
 10
72.87854592000002
 20
6.75
 30
0.0
 11
72.87854592000002
 21
6.75
 31
0.0
  0
LINE
  5
B4
330
1F
100
AcDbEntity
  8
test012
100
AcDbLine
 10
75.33534592000002
 20
0.0
 30
0.0
 11
72.87854592000002
 21
6.75
 31
0.0
  0
LINE
  5
B5
330
1F
100
AcDbEntity
  8
test012
100
AcDbLine
 10
75.33534592000002
 20
0.0
 30
0.0
 11
72.87854592000002
 21
6.75
 31
0.0
  0
LINE
  5
B6
330
1F
100
AcDbEntity
  8
test012
100
AcDbLine
 10
77.86384592
 20
0.0
 30
0.0
 11
77.86384592
 21
0.0
 31
0.0
  0
LINE
  5
B7
330
1F
100
AcDbEntity
  8
test012
100
AcDbLine
 10
75.33534592000002
 20
0.0
 30
0.0
 11
75.33534592000002
 21
0.0
 31
0.0
  0
LINE
  5
B8
330
1F
100
AcDbEntity
  8
test012
100
AcDbLine
 10
77.86384592
 20
0.0
 30
0.0
 11
75.33534592000002
 21
0.0
 31
0.0
  0
LINE
  5
B9
330
1F
100
AcDbEntity
  8
test012
100
AcDbLine
 10
77.86384592
 20
0.0
 30
0.0
 11
75.33534592000002
 21
0.0
 31
0.0
  0
LINE
  5
BA
330
1F
100
AcDbEntity
  8
test012
100
AcDbLine
 10
80.32064592000001
 20
6.75
 30
0.0
 11
80.32064592000001
 21
6.75
 31
0.0
  0
LINE
  5
BB
330
1F
100
AcDbEntity
  8
test012
100
AcDbLine
 10
77.86384592
 20
0.0
 30
0.0
 11
77.86384592
 21
0.0
 31
0.0
  0
LINE
  5
BC
330
1F
100
AcDbEntity
  8
test012
100
AcDbLine
 10
80.32064592000001
 20
6.75
 30
0.0
 11
77.86384592
 21
0.0
 31
0.0
  0
LINE
  5
BD
330
1F
100
AcDbEntity
  8
test012
100
AcDbLine
 10
80.32064592000001
 20
6.75
 30
0.0
 11
77.86384592
 21
0.0
 31
0.0
  0
LINE
  5
BE
330
1F
100
AcDbEntity
  8
test012
100
AcDbLine
 10
82.30334592
 20
6.75
 30
0.0
 11
82.30334592
 21
6.75
 31
0.0
  0
LINE
  5
BF
330
1F
100
AcDbEntity
  8
test012
100
AcDbLine
 10
80.32064592000001
 20
6.75
 30
0.0
 11
80.32064592000001
 21
6.75
 31
0.0
  0
LINE
  5
C0
330
1F
100
AcDbEntity
  8
test012
100
AcDbLine
 10
82.30334592
 20
6.75
 30
0.0
 11
80.32064592000001
 21
6.75
 31
0.0
  0
LINE
  5
C1
330
1F
100
AcDbEntity
  8
test012
100
AcDbLine
 10
82.30334592
 20
6.75
 30
0.0
 11
80.32064592000001
 21
6.75
 31
0.0
  0
LINE
  5
C2
330
1F
100
AcDbEntity
  8
test012
100
AcDbLine
 10
84.76014592
 20
0.0
 30
0.0
 11
84.76014592
 21
0.0
 31
0.0
  0
LINE
  5
C3
330
1F
100
AcDbEntity
  8
test012
100
AcDbLine
 10
82.30334592
 20
6.75
 30
0.0
 11
82.30334592
 21
6.75
 31
0.0
  0
LINE
  5
C4
330
1F
100
AcDbEntity
  8
test012
100
AcDbLine
 10
84.76014592
 20
0.0
 30
0.0
 11
82.30334592
 21
6.75
 31
0.0
  0
LINE
  5
C5
330
1F
100
AcDbEntity
  8
test012
100
AcDbLine
 10
84.76014592
 20
0.0
 30
0.0
 11
82.30334592
 21
6.75
 31
0.0
  0
LINE
  5
C6
330
1F
100
AcDbEntity
  8
test012
100
AcDbLine
 10
87.28864592000002
 20
0.0
 30
0.0
 11
87.28864592000002
 21
0.0
 31
0.0
  0
LINE
  5
C7
330
1F
100
AcDbEntity
  8
test012
100
AcDbLine
 10
84.76014592
 20
0.0
 30
0.0
 11
84.76014592
 21
0.0
 31
0.0
  0
LINE
  5
C8
330
1F
100
AcDbEntity
  8
test012
100
AcDbLine
 10
87.28864592000002
 20
0.0
 30
0.0
 11
84.76014592
 21
0.0
 31
0.0
  0
LINE
  5
C9
330
1F
100
AcDbEntity
  8
test012
100
AcDbLine
 10
87.28864592000002
 20
0.0
 30
0.0
 11
84.76014592
 21
0.0
 31
0.0
  0
LINE
  5
CA
330
1F
100
AcDbEntity
  8
test012
100
AcDbLine
 10
89.74544592000002
 20
6.75
 30
0.0
 11
89.74544592000002
 21
6.75
 31
0.0
  0
LINE
  5
CB
330
1F
100
AcDbEntity
  8
test012
100
AcDbLine
 10
87.28864592000002
 20
0.0
 30
0.0
 11
87.28864592000002
 21
0.0
 31
0.0
  0
LINE
  5
CC
330
1F
100
AcDbEntity
  8
test012
100
AcDbLine
 10
89.74544592000002
 20
6.75
 30
0.0
 11
87.28864592000002
 21
0.0
 31
0.0
  0
LINE
  5
CD
330
1F
100
AcDbEntity
  8
test012
100
AcDbLine
 10
89.74544592000002
 20
6.75
 30
0.0
 11
87.28864592000002
 21
0.0
 31
0.0
  0
LINE
  5
CE
330
1F
100
AcDbEntity
  8
test012
100
AcDbLine
 10
91.72804592
 20
6.75
 30
0.0
 11
91.72804592
 21
6.75
 31
0.0
  0
LINE
  5
CF
330
1F
100
AcDbEntity
  8
test012
100
AcDbLine
 10
89.74544592000002
 20
6.75
 30
0.0
 11
89.74544592000002
 21
6.75
 31
0.0
  0
LINE
  5
D0
330
1F
100
AcDbEntity
  8
test012
100
AcDbLine
 10
91.72804592
 20
6.75
 30
0.0
 11
89.74544592000002
 21
6.75
 31
0.0
  0
LINE
  5
D1
330
1F
100
AcDbEntity
  8
test012
100
AcDbLine
 10
91.72804592
 20
6.75
 30
0.0
 11
89.74544592000002
 21
6.75
 31
0.0
  0
LINE
  5
D2
330
1F
100
AcDbEntity
  8
test012
100
AcDbLine
 10
94.18484592
 20
0.0
 30
0.0
 11
94.18484592
 21
0.0
 31
0.0
  0
LINE
  5
D3
330
1F
100
AcDbEntity
  8
test012
100
AcDbLine
 10
91.72804592
 20
6.75
 30
0.0
 11
91.72804592
 21
6.75
 31
0.0
  0
LINE
  5
D4
330
1F
100
AcDbEntity
  8
test012
100
AcDbLine
 10
94.18484592
 20
0.0
 30
0.0
 11
91.72804592
 21
6.75
 31
0.0
  0
LINE
  5
D5
330
1F
100
AcDbEntity
  8
test012
100
AcDbLine
 10
94.18484592
 20
0.0
 30
0.0
 11
91.72804592
 21
6.75
 31
0.0
  0
LINE
  5
D6
330
1F
100
AcDbEntity
  8
test012
100
AcDbLine
 10
96.71344592
 20
0.0
 30
0.0
 11
96.71344592
 21
0.0
 31
0.0
  0
LINE
  5
D7
330
1F
100
AcDbEntity
  8
test012
100
AcDbLine
 10
94.18484592
 20
0.0
 30
0.0
 11
94.18484592
 21
0.0
 31
0.0
  0
LINE
  5
D8
330
1F
100
AcDbEntity
  8
test012
100
AcDbLine
 10
96.71344592
 20
0.0
 30
0.0
 11
94.18484592
 21
0.0
 31
0.0
  0
LINE
  5
D9
330
1F
100
AcDbEntity
  8
test012
100
AcDbLine
 10
96.71344592
 20
0.0
 30
0.0
 11
94.18484592
 21
0.0
 31
0.0
  0
LINE
  5
DA
330
1F
100
AcDbEntity
  8
test012
100
AcDbLine
 10
99.17024592
 20
6.75
 30
0.0
 11
99.17024592
 21
6.75
 31
0.0
  0
LINE
  5
DB
330
1F
100
AcDbEntity
  8
test012
100
AcDbLine
 10
96.71344592
 20
0.0
 30
0.0
 11
96.71344592
 21
0.0
 31
0.0
  0
LINE
  5
DC
330
1F
100
AcDbEntity
  8
test012
100
AcDbLine
 10
99.17024592
 20
6.75
 30
0.0
 11
96.71344592
 21
0.0
 31
0.0
  0
LINE
  5
DD
330
1F
100
AcDbEntity
  8
test012
100
AcDbLine
 10
99.17024592
 20
6.75
 30
0.0
 11
96.71344592
 21
0.0
 31
0.0
  0
LINE
  5
DE
330
1F
100
AcDbEntity
  8
test012
100
AcDbLine
 10
101.15254592
 20
6.75
 30
0.0
 11
101.15254592
 21
6.75
 31
0.0
  0
LINE
  5
DF
330
1F
100
AcDbEntity
  8
test012
100
AcDbLine
 10
99.17024592
 20
6.75
 30
0.0
 11
99.17024592
 21
6.75
 31
0.0
  0
LINE
  5
E0
330
1F
100
AcDbEntity
  8
test012
100
AcDbLine
 10
101.15254592
 20
6.75
 30
0.0
 11
99.17024592
 21
6.75
 31
0.0
  0
LINE
  5
E1
330
1F
100
AcDbEntity
  8
test012
100
AcDbLine
 10
101.15254592
 20
6.75
 30
0.0
 11
99.17024592
 21
6.75
 31
0.0
  0
LINE
  5
E2
330
1F
100
AcDbEntity
  8
test012
100
AcDbLine
 10
103.60954592
 20
0.0
 30
0.0
 11
103.60954592
 21
0.0
 31
0.0
  0
LINE
  5
E3
330
1F
100
AcDbEntity
  8
test012
100
AcDbLine
 10
101.15254592
 20
6.75
 30
0.0
 11
101.15254592
 21
6.75
 31
0.0
  0
LINE
  5
E4
330
1F
100
AcDbEntity
  8
test012
100
AcDbLine
 10
103.60954592
 20
0.0
 30
0.0
 11
101.15254592
 21
6.75
 31
0.0
  0
LINE
  5
E5
330
1F
100
AcDbEntity
  8
test012
100
AcDbLine
 10
103.60954592
 20
0.0
 30
0.0
 11
101.15254592
 21
6.75
 31
0.0
  0
LINE
  5
E6
330
1F
100
AcDbEntity
  8
test012
100
AcDbLine
 10
106.13854592
 20
0.0
 30
0.0
 11
106.13854592
 21
0.0
 31
0.0
  0
LINE
  5
E7
330
1F
100
AcDbEntity
  8
test012
100
AcDbLine
 10
103.60954592
 20
0.0
 30
0.0
 11
103.60954592
 21
0.0
 31
0.0
  0
LINE
  5
E8
330
1F
100
AcDbEntity
  8
test012
100
AcDbLine
 10
106.13854592
 20
0.0
 30
0.0
 11
103.60954592
 21
0.0
 31
0.0
  0
LINE
  5
E9
330
1F
100
AcDbEntity
  8
test012
100
AcDbLine
 10
106.13854592
 20
0.0
 30
0.0
 11
103.60954592
 21
0.0
 31
0.0
  0
LINE
  5
EA
330
1F
100
AcDbEntity
  8
test012
100
AcDbLine
 10
108.59454592
 20
6.75
 30
0.0
 11
108.59454592
 21
6.75
 31
0.0
  0
LINE
  5
EB
330
1F
100
AcDbEntity
  8
test012
100
AcDbLine
 10
106.13854592
 20
0.0
 30
0.0
 11
106.13854592
 21
0.0
 31
0.0
  0
LINE
  5
EC
330
1F
100
AcDbEntity
  8
test012
100
AcDbLine
 10
108.59454592
 20
6.75
 30
0.0
 11
106.13854592
 21
0.0
 31
0.0
  0
LINE
  5
ED
330
1F
100
AcDbEntity
  8
test012
100
AcDbLine
 10
108.59454592
 20
6.75
 30
0.0
 11
106.13854592
 21
0.0
 31
0.0
  0
LINE
  5
EE
330
1F
100
AcDbEntity
  8
test012
100
AcDbLine
 10
110.57754592
 20
6.75
 30
0.0
 11
110.57754592
 21
6.75
 31
0.0
  0
LINE
  5
EF
330
1F
100
AcDbEntity
  8
test012
100
AcDbLine
 10
108.59454592
 20
6.75
 30
0.0
 11
108.59454592
 21
6.75
 31
0.0
  0
LINE
  5
F0
330
1F
100
AcDbEntity
  8
test012
100
AcDbLine
 10
110.57754592
 20
6.75
 30
0.0
 11
108.59454592
 21
6.75
 31
0.0
  0
LINE
  5
F1
330
1F
100
AcDbEntity
  8
test012
100
AcDbLine
 10
110.57754592
 20
6.75
 30
0.0
 11
108.59454592
 21
6.75
 31
0.0
  0
LINE
  5
F2
330
1F
100
AcDbEntity
  8
test012
100
AcDbLine
 10
113.03454592
 20
0.0
 30
0.0
 11
113.03454592
 21
0.0
 31
0.0
  0
LINE
  5
F3
330
1F
100
AcDbEntity
  8
test012
100
AcDbLine
 10
110.57754592
 20
6.75
 30
0.0
 11
110.57754592
 21
6.75
 31
0.0
  0
LINE
  5
F4
330
1F
100
AcDbEntity
  8
test012
100
AcDbLine
 10
113.03454592
 20
0.0
 30
0.0
 11
110.57754592
 21
6.75
 31
0.0
  0
LINE
  5
F5
330
1F
100
AcDbEntity
  8
test012
100
AcDbLine
 10
113.03454592
 20
0.0
 30
0.0
 11
110.57754592
 21
6.75
 31
0.0
  0
LINE
  5
F6
330
1F
100
AcDbEntity
  8
test012
100
AcDbLine
 10
115.56254592
 20
0.0
 30
0.0
 11
115.56254592
 21
0.0
 31
0.0
  0
LINE
  5
F7
330
1F
100
AcDbEntity
  8
test012
100
AcDbLine
 10
113.03454592
 20
0.0
 30
0.0
 11
113.03454592
 21
0.0
 31
0.0
  0
LINE
  5
F8
330
1F
100
AcDbEntity
  8
test012
100
AcDbLine
 10
115.56254592
 20
0.0
 30
0.0
 11
113.03454592
 21
0.0
 31
0.0
  0
LINE
  5
F9
330
1F
100
AcDbEntity
  8
test012
100
AcDbLine
 10
115.56254592
 20
0.0
 30
0.0
 11
113.03454592
 21
0.0
 31
0.0
  0
LINE
  5
FA
330
1F
100
AcDbEntity
  8
test012
100
AcDbLine
 10
118.01954592
 20
6.75
 30
0.0
 11
118.01954592
 21
6.75
 31
0.0
  0
LINE
  5
FB
330
1F
100
AcDbEntity
  8
test012
100
AcDbLine
 10
115.56254592
 20
0.0
 30
0.0
 11
115.56254592
 21
0.0
 31
0.0
  0
LINE
  5
FC
330
1F
100
AcDbEntity
  8
test012
100
AcDbLine
 10
118.01954592
 20
6.75
 30
0.0
 11
115.56254592
 21
0.0
 31
0.0
  0
LINE
  5
FD
330
1F
100
AcDbEntity
  8
test012
100
AcDbLine
 10
118.01954592
 20
6.75
 30
0.0
 11
115.56254592
 21
0.0
 31
0.0
  0
LINE
  5
FE
330
1F
100
AcDbEntity
  8
test012
100
AcDbLine
 10
120.00254592
 20
6.75
 30
0.0
 11
120.00254592
 21
6.75
 31
0.0
  0
LINE
  5
FF
330
1F
100
AcDbEntity
  8
test012
100
AcDbLine
 10
118.01954592
 20
6.75
 30
0.0
 11
118.01954592
 21
6.75
 31
0.0
  0
LINE
  5
100
330
1F
100
AcDbEntity
  8
test012
100
AcDbLine
 10
120.00254592
 20
6.75
 30
0.0
 11
118.01954592
 21
6.75
 31
0.0
  0
LINE
  5
101
330
1F
100
AcDbEntity
  8
test012
100
AcDbLine
 10
120.00254592
 20
6.75
 30
0.0
 11
118.01954592
 21
6.75
 31
0.0
  0
LINE
  5
102
330
1F
100
AcDbEntity
  8
test012
100
AcDbLine
 10
122.45954592
 20
0.0
 30
0.0
 11
122.45954592
 21
0.0
 31
0.0
  0
LINE
  5
103
330
1F
100
AcDbEntity
  8
test012
100
AcDbLine
 10
120.00254592
 20
6.75
 30
0.0
 11
120.00254592
 21
6.75
 31
0.0
  0
LINE
  5
104
330
1F
100
AcDbEntity
  8
test012
100
AcDbLine
 10
122.45954592
 20
0.0
 30
0.0
 11
120.00254592
 21
6.75
 31
0.0
  0
LINE
  5
105
330
1F
100
AcDbEntity
  8
test012
100
AcDbLine
 10
122.45954592
 20
0.0
 30
0.0
 11
120.00254592
 21
6.75
 31
0.0
  0
LINE
  5
106
330
1F
100
AcDbEntity
  8
test012
100
AcDbLine
 10
124.98754592
 20
0.0
 30
0.0
 11
124.98754592
 21
0.0
 31
0.0
  0
LINE
  5
107
330
1F
100
AcDbEntity
  8
test012
100
AcDbLine
 10
122.45954592
 20
0.0
 30
0.0
 11
122.45954592
 21
0.0
 31
0.0
  0
LINE
  5
108
330
1F
100
AcDbEntity
  8
test012
100
AcDbLine
 10
124.98754592
 20
0.0
 30
0.0
 11
122.45954592
 21
0.0
 31
0.0
  0
LINE
  5
109
330
1F
100
AcDbEntity
  8
test012
100
AcDbLine
 10
124.98754592
 20
0.0
 30
0.0
 11
122.45954592
 21
0.0
 31
0.0
  0
LINE
  5
10A
330
1F
100
AcDbEntity
  8
test012
100
AcDbLine
 10
127.44454592
 20
6.75
 30
0.0
 11
127.44454592
 21
6.75
 31
0.0
  0
LINE
  5
10B
330
1F
100
AcDbEntity
  8
test012
100
AcDbLine
 10
124.98754592
 20
0.0
 30
0.0
 11
124.98754592
 21
0.0
 31
0.0
  0
LINE
  5
10C
330
1F
100
AcDbEntity
  8
test012
100
AcDbLine
 10
127.44454592
 20
6.75
 30
0.0
 11
124.98754592
 21
0.0
 31
0.0
  0
LINE
  5
10D
330
1F
100
AcDbEntity
  8
test012
100
AcDbLine
 10
127.44454592
 20
6.75
 30
0.0
 11
124.98754592
 21
0.0
 31
0.0
  0
LINE
  5
10E
330
1F
100
AcDbEntity
  8
test012
100
AcDbLine
 10
129.42754592
 20
6.75
 30
0.0
 11
129.42754592
 21
6.75
 31
0.0
  0
LINE
  5
10F
330
1F
100
AcDbEntity
  8
test012
100
AcDbLine
 10
127.44454592
 20
6.75
 30
0.0
 11
127.44454592
 21
6.75
 31
0.0
  0
LINE
  5
110
330
1F
100
AcDbEntity
  8
test012
100
AcDbLine
 10
129.42754592
 20
6.75
 30
0.0
 11
127.44454592
 21
6.75
 31
0.0
  0
LINE
  5
111
330
1F
100
AcDbEntity
  8
test012
100
AcDbLine
 10
129.42754592
 20
6.75
 30
0.0
 11
127.44454592
 21
6.75
 31
0.0
  0
LINE
  5
112
330
1F
100
AcDbEntity
  8
test012
100
AcDbLine
 10
131.88354592
 20
0.0
 30
0.0
 11
131.88354592
 21
0.0
 31
0.0
  0
LINE
  5
113
330
1F
100
AcDbEntity
  8
test012
100
AcDbLine
 10
129.42754592
 20
6.75
 30
0.0
 11
129.42754592
 21
6.75
 31
0.0
  0
LINE
  5
114
330
1F
100
AcDbEntity
  8
test012
100
AcDbLine
 10
131.88354592
 20
0.0
 30
0.0
 11
129.42754592
 21
6.75
 31
0.0
  0
LINE
  5
115
330
1F
100
AcDbEntity
  8
test012
100
AcDbLine
 10
131.88354592
 20
0.0
 30
0.0
 11
129.42754592
 21
6.75
 31
0.0
  0
LINE
  5
116
330
1F
100
AcDbEntity
  8
test012
100
AcDbLine
 10
134.41254592
 20
0.0
 30
0.0
 11
134.41254592
 21
0.0
 31
0.0
  0
LINE
  5
117
330
1F
100
AcDbEntity
  8
test012
100
AcDbLine
 10
131.88354592
 20
0.0
 30
0.0
 11
131.88354592
 21
0.0
 31
0.0
  0
LINE
  5
118
330
1F
100
AcDbEntity
  8
test012
100
AcDbLine
 10
134.41254592
 20
0.0
 30
0.0
 11
131.88354592
 21
0.0
 31
0.0
  0
LINE
  5
119
330
1F
100
AcDbEntity
  8
test012
100
AcDbLine
 10
134.41254592
 20
0.0
 30
0.0
 11
131.88354592
 21
0.0
 31
0.0
  0
LINE
  5
11A
330
1F
100
AcDbEntity
  8
test012
100
AcDbLine
 10
136.86954592
 20
6.75
 30
0.0
 11
136.86954592
 21
6.75
 31
0.0
  0
LINE
  5
11B
330
1F
100
AcDbEntity
  8
test012
100
AcDbLine
 10
134.41254592
 20
0.0
 30
0.0
 11
134.41254592
 21
0.0
 31
0.0
  0
LINE
  5
11C
330
1F
100
AcDbEntity
  8
test012
100
AcDbLine
 10
136.86954592
 20
6.75
 30
0.0
 11
134.41254592
 21
0.0
 31
0.0
  0
LINE
  5
11D
330
1F
100
AcDbEntity
  8
test012
100
AcDbLine
 10
136.86954592
 20
6.75
 30
0.0
 11
134.41254592
 21
0.0
 31
0.0
  0
LINE
  5
11E
330
1F
100
AcDbEntity
  8
test012
100
AcDbLine
 10
138.85154592
 20
6.75
 30
0.0
 11
138.85154592
 21
6.75
 31
0.0
  0
LINE
  5
11F
330
1F
100
AcDbEntity
  8
test012
100
AcDbLine
 10
136.86954592
 20
6.75
 30
0.0
 11
136.86954592
 21
6.75
 31
0.0
  0
LINE
  5
120
330
1F
100
AcDbEntity
  8
test012
100
AcDbLine
 10
138.85154592
 20
6.75
 30
0.0
 11
136.86954592
 21
6.75
 31
0.0
  0
LINE
  5
121
330
1F
100
AcDbEntity
  8
test012
100
AcDbLine
 10
138.85154592
 20
6.75
 30
0.0
 11
136.86954592
 21
6.75
 31
0.0
  0
LINE
  5
122
330
1F
100
AcDbEntity
  8
test012
100
AcDbLine
 10
141.30854592
 20
0.0
 30
0.0
 11
141.30854592
 21
0.0
 31
0.0
  0
LINE
  5
123
330
1F
100
AcDbEntity
  8
test012
100
AcDbLine
 10
138.85154592
 20
6.75
 30
0.0
 11
138.85154592
 21
6.75
 31
0.0
  0
LINE
  5
124
330
1F
100
AcDbEntity
  8
test012
100
AcDbLine
 10
141.30854592
 20
0.0
 30
0.0
 11
138.85154592
 21
6.75
 31
0.0
  0
LINE
  5
125
330
1F
100
AcDbEntity
  8
test012
100
AcDbLine
 10
141.30854592
 20
0.0
 30
0.0
 11
138.85154592
 21
6.75
 31
0.0
  0
LINE
  5
126
330
1F
100
AcDbEntity
  8
test012
100
AcDbLine
 10
143.83754592
 20
0.0
 30
0.0
 11
143.83754592
 21
0.0
 31
0.0
  0
LINE
  5
127
330
1F
100
AcDbEntity
  8
test012
100
AcDbLine
 10
141.30854592
 20
0.0
 30
0.0
 11
141.30854592
 21
0.0
 31
0.0
  0
LINE
  5
128
330
1F
100
AcDbEntity
  8
test012
100
AcDbLine
 10
143.83754592
 20
0.0
 30
0.0
 11
141.30854592
 21
0.0
 31
0.0
  0
LINE
  5
129
330
1F
100
AcDbEntity
  8
test012
100
AcDbLine
 10
143.83754592
 20
0.0
 30
0.0
 11
141.30854592
 21
0.0
 31
0.0
  0
LINE
  5
12A
330
1F
100
AcDbEntity
  8
test012
100
AcDbLine
 10
146.29454592
 20
6.75
 30
0.0
 11
146.29454592
 21
6.75
 31
0.0
  0
LINE
  5
12B
330
1F
100
AcDbEntity
  8
test012
100
AcDbLine
 10
143.83754592
 20
0.0
 30
0.0
 11
143.83754592
 21
0.0
 31
0.0
  0
LINE
  5
12C
330
1F
100
AcDbEntity
  8
test012
100
AcDbLine
 10
146.29454592
 20
6.75
 30
0.0
 11
143.83754592
 21
0.0
 31
0.0
  0
LINE
  5
12D
330
1F
100
AcDbEntity
  8
test012
100
AcDbLine
 10
146.29454592
 20
6.75
 30
0.0
 11
143.83754592
 21
0.0
 31
0.0
  0
LINE
  5
12E
330
1F
100
AcDbEntity
  8
test012
100
AcDbLine
 10
148.27654592
 20
6.75
 30
0.0
 11
148.27654592
 21
6.75
 31
0.0
  0
LINE
  5
12F
330
1F
100
AcDbEntity
  8
test012
100
AcDbLine
 10
146.29454592
 20
6.75
 30
0.0
 11
146.29454592
 21
6.75
 31
0.0
  0
LINE
  5
130
330
1F
100
AcDbEntity
  8
test012
100
AcDbLine
 10
148.27654592
 20
6.75
 30
0.0
 11
146.29454592
 21
6.75
 31
0.0
  0
LINE
  5
131
330
1F
100
AcDbEntity
  8
test012
100
AcDbLine
 10
148.27654592
 20
6.75
 30
0.0
 11
146.29454592
 21
6.75
 31
0.0
  0
LINE
  5
132
330
1F
100
AcDbEntity
  8
test012
100
AcDbLine
 10
150.73354592
 20
0.0099999999999909
 30
0.0
 11
150.73354592
 21
0.0099999999999909
 31
0.0
  0
LINE
  5
133
330
1F
100
AcDbEntity
  8
test012
100
AcDbLine
 10
148.27654592
 20
6.75
 30
0.0
 11
148.27654592
 21
6.75
 31
0.0
  0
LINE
  5
134
330
1F
100
AcDbEntity
  8
test012
100
AcDbLine
 10
150.73354592
 20
0.0099999999999909
 30
0.0
 11
148.27654592
 21
6.75
 31
0.0
  0
LINE
  5
135
330
1F
100
AcDbEntity
  8
test012
100
AcDbLine
 10
150.73354592
 20
0.0099999999999909
 30
0.0
 11
148.27654592
 21
6.75
 31
0.0
  0
LINE
  5
136
330
1F
100
AcDbEntity
  8
test012
100
AcDbLine
 10
150.73354592
 20
0.0099999999999909
 30
0.0
 11
150.73354592
 21
0.0099999999999909
 31
0.0
  0
LINE
  5
137
330
1F
100
AcDbEntity
  8
test012
100
AcDbLine
 10
179.99354592
 20
0.0099999999999909
 30
0.0
 11
179.99354592
 21
0.0099999999999909
 31
0.0
  0
LINE
  5
138
330
1F
100
AcDbEntity
  8
test012
100
AcDbLine
 10
150.73354592
 20
0.0099999999999909
 30
0.0
 11
179.99354592
 21
0.0099999999999909
 31
0.0
  0
LINE
  5
139
330
1F
100
AcDbEntity
  8
test012
100
AcDbLine
 10
150.73354592
 20
0.0099999999999909
 30
0.0
 11
179.99354592
 21
0.0099999999999909
 31
0.0
  0
LINE
  5
13A
330
1F
100
AcDbEntity
  8
test012
100
AcDbLine
 10
179.99354592
 20
37.00999999999999
 30
0.0
 11
179.99354592
 21
37.00999999999999
 31
0.0
  0
LINE
  5
13B
330
1F
100
AcDbEntity
  8
test012
100
AcDbLine
 10
179.99354592
 20
0.0099999999999909
 30
0.0
 11
179.99354592
 21
0.0099999999999909
 31
0.0
  0
LINE
  5
13C
330
1F
100
AcDbEntity
  8
test012
100
AcDbLine
 10
179.99354592
 20
37.00999999999999
 30
0.0
 11
179.99354592
 21
0.0099999999999909
 31
0.0
  0
LINE
  5
13D
330
1F
100
AcDbEntity
  8
test012
100
AcDbLine
 10
179.99354592
 20
37.00999999999999
 30
0.0
 11
179.99354592
 21
0.0099999999999909
 31
0.0
  0
LINE
  5
13E
330
1F
100
AcDbEntity
  8
test012
100
AcDbLine
 10
49.39354592
 20
21.88
 30
0.0
 11
49.39354592
 21
21.88
 31
0.0
  0
LINE
  5
13F
330
1F
100
AcDbEntity
  8
test012
100
AcDbLine
 10
49.39354592
 20
21.88
 30
0.0
 11
49.39354592
 21
21.88
 31
0.0
  0
CIRCLE
  5
140
330
1F
100
AcDbEntity
  8
test012
100
AcDbCircle
 10
46.99354592
 20
21.88
 30
0.0
 40
2.399999999999999
  0
CIRCLE
  5
141
330
1F
100
AcDbEntity
  8
test012
100
AcDbCircle
 10
46.99354592
 20
21.88
 30
0.0
 40
2.399999999999999
  0
LINE
  5
142
330
1F
100
AcDbEntity
  8
test012
100
AcDbLine
 10
69.39354592
 20
21.88
 30
0.0
 11
69.39354592
 21
21.88
 31
0.0
  0
LINE
  5
143
330
1F
100
AcDbEntity
  8
test012
100
AcDbLine
 10
69.39354592
 20
21.88
 30
0.0
 11
69.39354592
 21
21.88
 31
0.0
  0
CIRCLE
  5
144
330
1F
100
AcDbEntity
  8
test012
100
AcDbCircle
 10
66.99354592
 20
21.88
 30
0.0
 40
2.399999999999999
  0
CIRCLE
  5
145
330
1F
100
AcDbEntity
  8
test012
100
AcDbCircle
 10
66.99354592
 20
21.88
 30
0.0
 40
2.399999999999999
  0
LINE
  5
146
330
1F
100
AcDbEntity
  8
test012
100
AcDbLine
 10
139.39354592
 20
21.88
 30
0.0
 11
139.39354592
 21
21.88
 31
0.0
  0
LINE
  5
147
330
1F
100
AcDbEntity
  8
test012
100
AcDbLine
 10
139.39354592
 20
21.88
 30
0.0
 11
139.39354592
 21
21.88
 31
0.0
  0
CIRCLE
  5
148
330
1F
100
AcDbEntity
  8
test012
100
AcDbCircle
 10
136.99354592
 20
21.88
 30
0.0
 40
2.399999999999999
  0
CIRCLE
  5
149
330
1F
100
AcDbEntity
  8
test012
100
AcDbCircle
 10
136.99354592
 20
21.88
 30
0.0
 40
2.399999999999999
  0
LINE
  5
14A
330
1F
100
AcDbEntity
  8
test012
100
AcDbLine
 10
119.39354592
 20
21.88
 30
0.0
 11
119.39354592
 21
21.88
 31
0.0
  0
LINE
  5
14B
330
1F
100
AcDbEntity
  8
test012
100
AcDbLine
 10
119.39354592
 20
21.88
 30
0.0
 11
119.39354592
 21
21.88
 31
0.0
  0
CIRCLE
  5
14C
330
1F
100
AcDbEntity
  8
test012
100
AcDbCircle
 10
116.99354592
 20
21.88
 30
0.0
 40
2.399999999999999
  0
CIRCLE
  5
14D
330
1F
100
AcDbEntity
  8
test012
100
AcDbCircle
 10
116.99354592
 20
21.88
 30
0.0
 40
2.399999999999999
  0
LINE
  5
14E
330
1F
100
AcDbEntity
  8
test012
100
AcDbLine
 10
94.39354592
 20
24.00999999999999
 30
0.0
 11
94.39354592
 21
24.00999999999999
 31
0.0
  0
LINE
  5
14F
330
1F
100
AcDbEntity
  8
test012
100
AcDbLine
 10
94.39354592
 20
24.00999999999999
 30
0.0
 11
94.39354592
 21
24.00999999999999
 31
0.0
  0
CIRCLE
  5
150
330
1F
100
AcDbEntity
  8
test012
100
AcDbCircle
 10
91.99354592
 20
24.00999999999999
 30
0.0
 40
2.399999999999999
  0
CIRCLE
  5
151
330
1F
100
AcDbEntity
  8
test012
100
AcDbCircle
 10
91.99354592
 20
24.00999999999999
 30
0.0
 40
2.399999999999999
  0
LINE
  5
152
330
1F
100
AcDbEntity
  8
test012
100
AcDbLine
 10
-0.00645408
 20
37.00999999999999
 30
0.0
 11
179.99354592
 21
37.00999999999999
 31
0.0
  0
LINE
  5
154
330
1F
100
AcDbEntity
  8
test012
100
AcDbLine
 10
0.0
 20
0.0
 30
0.0
 11
30.74004592
 21
0.0
 31
0.0
  0
LINE
  5
155
330
1F
100
AcDbEntity
  8
test012
100
AcDbLine
 10
33.19684592
 20
6.75
 30
0.0
 11
30.74004592
 21
0.0
 31
0.0
  0
LINE
  5
156
330
1F
100
AcDbEntity
  8
test012
100
AcDbLine
 10
35.17944592
 20
6.75
 30
0.0
 11
33.19684592
 21
6.75
 31
0.0
  0
LINE
  5
157
330
1F
100
AcDbEntity
  8
test012
100
AcDbLine
 10
37.63624592
 20
0.0
 30
0.0
 11
35.17944592
 21
6.75
 31
0.0
  0
LINE
  5
158
330
1F
100
AcDbEntity
  8
test012
100
AcDbLine
 10
40.16474592
 20
0.0
 30
0.0
 11
37.63624592
 21
0.0
 31
0.0
  0
LINE
  5
159
330
1F
100
AcDbEntity
  8
test012
100
AcDbLine
 10
42.62154592
 20
6.75
 30
0.0
 11
40.16474592
 21
0.0
 31
0.0
  0
LINE
  5
15A
330
1F
100
AcDbEntity
  8
test012
100
AcDbLine
 10
44.60414592
 20
6.75
 30
0.0
 11
42.62154592
 21
6.75
 31
0.0
  0
LINE
  5
15B
330
1F
100
AcDbEntity
  8
test012
100
AcDbLine
 10
47.06094592
 20
0.0
 30
0.0
 11
44.60414592
 21
6.75
 31
0.0
  0
LINE
  5
15C
330
1F
100
AcDbEntity
  8
test012
100
AcDbLine
 10
49.58954592000001
 20
0.0
 30
0.0
 11
47.06094592
 21
0.0
 31
0.0
  0
LINE
  5
15D
330
1F
100
AcDbEntity
  8
test012
100
AcDbLine
 10
52.04634592
 20
6.75
 30
0.0
 11
49.58954592000001
 21
0.0
 31
0.0
  0
LINE
  5
15E
330
1F
100
AcDbEntity
  8
test012
100
AcDbLine
 10
54.02894592
 20
6.75
 30
0.0
 11
52.04634592
 21
6.75
 31
0.0
  0
LINE
  5
15F
330
1F
100
AcDbEntity
  8
test012
100
AcDbLine
 10
56.48574592
 20
0.0
 30
0.0
 11
54.02894592
 21
6.75
 31
0.0
  0
LINE
  5
160
330
1F
100
AcDbEntity
  8
test012
100
AcDbLine
 10
59.01434592000001
 20
0.0
 30
0.0
 11
56.48574592
 21
0.0
 31
0.0
  0
LINE
  5
161
330
1F
100
AcDbEntity
  8
test012
100
AcDbLine
 10
61.47114592000001
 20
6.75
 30
0.0
 11
59.01434592000001
 21
0.0
 31
0.0
  0
LINE
  5
162
330
1F
100
AcDbEntity
  8
test012
100
AcDbLine
 10
63.45374592
 20
6.75
 30
0.0
 11
61.47114592000001
 21
6.75
 31
0.0
  0
LINE
  5
163
330
1F
100
AcDbEntity
  8
test012
100
AcDbLine
 10
65.91054592
 20
0.0
 30
0.0
 11
63.45374592
 21
6.75
 31
0.0
  0
LINE
  5
164
330
1F
100
AcDbEntity
  8
test012
100
AcDbLine
 10
68.43914592
 20
0.0
 30
0.0
 11
65.91054592
 21
0.0
 31
0.0
  0
LINE
  5
165
330
1F
100
AcDbEntity
  8
test012
100
AcDbLine
 10
70.89594592
 20
6.75
 30
0.0
 11
68.43914592
 21
0.0
 31
0.0
  0
LINE
  5
166
330
1F
100
AcDbEntity
  8
test012
100
AcDbLine
 10
72.87854592000002
 20
6.75
 30
0.0
 11
70.89594592
 21
6.75
 31
0.0
  0
LINE
  5
167
330
1F
100
AcDbEntity
  8
test012
100
AcDbLine
 10
75.33534592000002
 20
0.0
 30
0.0
 11
72.87854592000002
 21
6.75
 31
0.0
  0
LINE
  5
168
330
1F
100
AcDbEntity
  8
test012
100
AcDbLine
 10
77.86384592
 20
0.0
 30
0.0
 11
75.33534592000002
 21
0.0
 31
0.0
  0
LINE
  5
169
330
1F
100
AcDbEntity
  8
test012
100
AcDbLine
 10
80.32064592000001
 20
6.75
 30
0.0
 11
77.86384592
 21
0.0
 31
0.0
  0
LINE
  5
16A
330
1F
100
AcDbEntity
  8
test012
100
AcDbLine
 10
82.30334592
 20
6.75
 30
0.0
 11
80.32064592000001
 21
6.75
 31
0.0
  0
LINE
  5
16B
330
1F
100
AcDbEntity
  8
test012
100
AcDbLine
 10
84.76014592
 20
0.0
 30
0.0
 11
82.30334592
 21
6.75
 31
0.0
  0
LINE
  5
16C
330
1F
100
AcDbEntity
  8
test012
100
AcDbLine
 10
87.28864592000002
 20
0.0
 30
0.0
 11
84.76014592
 21
0.0
 31
0.0
  0
LINE
  5
16D
330
1F
100
AcDbEntity
  8
test012
100
AcDbLine
 10
89.74544592000002
 20
6.75
 30
0.0
 11
87.28864592000002
 21
0.0
 31
0.0
  0
LINE
  5
16E
330
1F
100
AcDbEntity
  8
test012
100
AcDbLine
 10
91.72804592
 20
6.75
 30
0.0
 11
89.74544592000002
 21
6.75
 31
0.0
  0
LINE
  5
16F
330
1F
100
AcDbEntity
  8
test012
100
AcDbLine
 10
94.18484592
 20
0.0
 30
0.0
 11
91.72804592
 21
6.75
 31
0.0
  0
LINE
  5
170
330
1F
100
AcDbEntity
  8
test012
100
AcDbLine
 10
96.71344592
 20
0.0
 30
0.0
 11
94.18484592
 21
0.0
 31
0.0
  0
LINE
  5
171
330
1F
100
AcDbEntity
  8
test012
100
AcDbLine
 10
99.17024592
 20
6.75
 30
0.0
 11
96.71344592
 21
0.0
 31
0.0
  0
LINE
  5
172
330
1F
100
AcDbEntity
  8
test012
100
AcDbLine
 10
101.15254592
 20
6.75
 30
0.0
 11
99.17024592
 21
6.75
 31
0.0
  0
LINE
  5
173
330
1F
100
AcDbEntity
  8
test012
100
AcDbLine
 10
103.60954592
 20
0.0
 30
0.0
 11
101.15254592
 21
6.75
 31
0.0
  0
LINE
  5
174
330
1F
100
AcDbEntity
  8
test012
100
AcDbLine
 10
106.13854592
 20
0.0
 30
0.0
 11
103.60954592
 21
0.0
 31
0.0
  0
LINE
  5
175
330
1F
100
AcDbEntity
  8
test012
100
AcDbLine
 10
108.59454592
 20
6.75
 30
0.0
 11
106.13854592
 21
0.0
 31
0.0
  0
LINE
  5
176
330
1F
100
AcDbEntity
  8
test012
100
AcDbLine
 10
110.57754592
 20
6.75
 30
0.0
 11
108.59454592
 21
6.75
 31
0.0
  0
LINE
  5
177
330
1F
100
AcDbEntity
  8
test012
100
AcDbLine
 10
113.03454592
 20
0.0
 30
0.0
 11
110.57754592
 21
6.75
 31
0.0
  0
LINE
  5
178
330
1F
100
AcDbEntity
  8
test012
100
AcDbLine
 10
115.56254592
 20
0.0
 30
0.0
 11
113.03454592
 21
0.0
 31
0.0
  0
LINE
  5
179
330
1F
100
AcDbEntity
  8
test012
100
AcDbLine
 10
118.01954592
 20
6.75
 30
0.0
 11
115.56254592
 21
0.0
 31
0.0
  0
LINE
  5
17A
330
1F
100
AcDbEntity
  8
test012
100
AcDbLine
 10
120.00254592
 20
6.75
 30
0.0
 11
118.01954592
 21
6.75
 31
0.0
  0
LINE
  5
17B
330
1F
100
AcDbEntity
  8
test012
100
AcDbLine
 10
122.45954592
 20
0.0
 30
0.0
 11
120.00254592
 21
6.75
 31
0.0
  0
LINE
  5
17C
330
1F
100
AcDbEntity
  8
test012
100
AcDbLine
 10
124.98754592
 20
0.0
 30
0.0
 11
122.45954592
 21
0.0
 31
0.0
  0
LINE
  5
17D
330
1F
100
AcDbEntity
  8
test012
100
AcDbLine
 10
127.44454592
 20
6.75
 30
0.0
 11
124.98754592
 21
0.0
 31
0.0
  0
LINE
  5
17E
330
1F
100
AcDbEntity
  8
test012
100
AcDbLine
 10
129.42754592
 20
6.75
 30
0.0
 11
127.44454592
 21
6.75
 31
0.0
  0
LINE
  5
17F
330
1F
100
AcDbEntity
  8
test012
100
AcDbLine
 10
131.88354592
 20
0.0
 30
0.0
 11
129.42754592
 21
6.75
 31
0.0
  0
LINE
  5
180
330
1F
100
AcDbEntity
  8
test012
100
AcDbLine
 10
134.41254592
 20
0.0
 30
0.0
 11
131.88354592
 21
0.0
 31
0.0
  0
LINE
  5
181
330
1F
100
AcDbEntity
  8
test012
100
AcDbLine
 10
136.86954592
 20
6.75
 30
0.0
 11
134.41254592
 21
0.0
 31
0.0
  0
LINE
  5
182
330
1F
100
AcDbEntity
  8
test012
100
AcDbLine
 10
138.85154592
 20
6.75
 30
0.0
 11
136.86954592
 21
6.75
 31
0.0
  0
LINE
  5
183
330
1F
100
AcDbEntity
  8
test012
100
AcDbLine
 10
141.30854592
 20
0.0
 30
0.0
 11
138.85154592
 21
6.75
 31
0.0
  0
LINE
  5
184
330
1F
100
AcDbEntity
  8
test012
100
AcDbLine
 10
143.83754592
 20
0.0
 30
0.0
 11
141.30854592
 21
0.0
 31
0.0
  0
LINE
  5
185
330
1F
100
AcDbEntity
  8
test012
100
AcDbLine
 10
146.29454592
 20
6.75
 30
0.0
 11
143.83754592
 21
0.0
 31
0.0
  0
LINE
  5
186
330
1F
100
AcDbEntity
  8
test012
100
AcDbLine
 10
148.27654592
 20
6.75
 30
0.0
 11
146.29454592
 21
6.75
 31
0.0
  0
LINE
  5
187
330
1F
100
AcDbEntity
  8
test012
100
AcDbLine
 10
150.73354592
 20
0.0099999999999909
 30
0.0
 11
148.27654592
 21
6.75
 31
0.0
  0
LINE
  5
188
330
1F
100
AcDbEntity
  8
test012
100
AcDbLine
 10
150.73354592
 20
0.0099999999999909
 30
0.0
 11
179.99354592
 21
0.0099999999999909
 31
0.0
  0
LINE
  5
189
330
1F
100
AcDbEntity
  8
test012
100
AcDbLine
 10
179.99354592
 20
37.00999999999999
 30
0.0
 11
179.99354592
 21
0.0099999999999909
 31
0.0
  0
CIRCLE
  5
18A
330
1F
100
AcDbEntity
  8
test012
100
AcDbCircle
 10
46.99354592
 20
21.88
 30
0.0
 40
2.399999999999999
  0
CIRCLE
  5
18B
330
1F
100
AcDbEntity
  8
test012
100
AcDbCircle
 10
66.99354592
 20
21.88
 30
0.0
 40
2.399999999999999
  0
CIRCLE
  5
18C
330
1F
100
AcDbEntity
  8
test012
100
AcDbCircle
 10
136.99354592
 20
21.88
 30
0.0
 40
2.399999999999999
  0
CIRCLE
  5
18D
330
1F
100
AcDbEntity
  8
test012
100
AcDbCircle
 10
116.99354592
 20
21.88
 30
0.0
 40
2.399999999999999
  0
CIRCLE
  5
18E
330
1F
100
AcDbEntity
  8
test012
100
AcDbCircle
 10
91.99354592
 20
24.00999999999999
 30
0.0
 40
2.399999999999999
  0
LINE
  5
18F
330
1F
100
AcDbEntity
  8
test012
100
AcDbLine
 10
-0.00645408
 20
37.00999999999999
 30
0.0
 11
179.99354592
 21
37.00999999999999
 31
0.0
  0
LINE
  5
191
330
1F
100
AcDbEntity
  8
test012
100
AcDbLine
 10
-0.00645408
 20
0.0000000000000568
 30
0.0
 11
30.74004592
 21
0.0
 31
0.0
  0
LINE
  5
192
330
1F
100
AcDbEntity
  8
test012
100
AcDbLine
 10
33.19684592
 20
6.75
 30
0.0
 11
30.74004592
 21
0.0
 31
0.0
  0
LINE
  5
193
330
1F
100
AcDbEntity
  8
test012
100
AcDbLine
 10
35.17944592
 20
6.75
 30
0.0
 11
33.19684592
 21
6.75
 31
0.0
  0
LINE
  5
194
330
1F
100
AcDbEntity
  8
test012
100
AcDbLine
 10
37.63624592
 20
0.0
 30
0.0
 11
35.17944592
 21
6.75
 31
0.0
  0
LINE
  5
195
330
1F
100
AcDbEntity
  8
test012
100
AcDbLine
 10
40.16474592
 20
0.0
 30
0.0
 11
37.63624592
 21
0.0
 31
0.0
  0
LINE
  5
196
330
1F
100
AcDbEntity
  8
test012
100
AcDbLine
 10
42.62154592
 20
6.75
 30
0.0
 11
40.16474592
 21
0.0
 31
0.0
  0
LINE
  5
197
330
1F
100
AcDbEntity
  8
test012
100
AcDbLine
 10
44.60414592
 20
6.75
 30
0.0
 11
42.62154592
 21
6.75
 31
0.0
  0
LINE
  5
198
330
1F
100
AcDbEntity
  8
test012
100
AcDbLine
 10
47.06094592
 20
0.0
 30
0.0
 11
44.60414592
 21
6.75
 31
0.0
  0
LINE
  5
199
330
1F
100
AcDbEntity
  8
test012
100
AcDbLine
 10
49.58954592000001
 20
0.0
 30
0.0
 11
47.06094592
 21
0.0
 31
0.0
  0
LINE
  5
19A
330
1F
100
AcDbEntity
  8
test012
100
AcDbLine
 10
52.04634592
 20
6.75
 30
0.0
 11
49.58954592000001
 21
0.0
 31
0.0
  0
LINE
  5
19B
330
1F
100
AcDbEntity
  8
test012
100
AcDbLine
 10
54.02894592
 20
6.75
 30
0.0
 11
52.04634592
 21
6.75
 31
0.0
  0
LINE
  5
19C
330
1F
100
AcDbEntity
  8
test012
100
AcDbLine
 10
56.48574592
 20
0.0
 30
0.0
 11
54.02894592
 21
6.75
 31
0.0
  0
LINE
  5
19D
330
1F
100
AcDbEntity
  8
test012
100
AcDbLine
 10
59.01434592000001
 20
0.0
 30
0.0
 11
56.48574592
 21
0.0
 31
0.0
  0
LINE
  5
19E
330
1F
100
AcDbEntity
  8
test012
100
AcDbLine
 10
61.47114592000001
 20
6.75
 30
0.0
 11
59.01434592000001
 21
0.0
 31
0.0
  0
LINE
  5
19F
330
1F
100
AcDbEntity
  8
test012
100
AcDbLine
 10
63.45374592
 20
6.75
 30
0.0
 11
61.47114592000001
 21
6.75
 31
0.0
  0
LINE
  5
1A0
330
1F
100
AcDbEntity
  8
test012
100
AcDbLine
 10
65.91054592
 20
0.0
 30
0.0
 11
63.45374592
 21
6.75
 31
0.0
  0
LINE
  5
1A1
330
1F
100
AcDbEntity
  8
test012
100
AcDbLine
 10
68.43914592
 20
0.0
 30
0.0
 11
65.91054592
 21
0.0
 31
0.0
  0
LINE
  5
1A2
330
1F
100
AcDbEntity
  8
test012
100
AcDbLine
 10
70.89594592
 20
6.75
 30
0.0
 11
68.43914592
 21
0.0
 31
0.0
  0
LINE
  5
1A3
330
1F
100
AcDbEntity
  8
test012
100
AcDbLine
 10
72.87854592000002
 20
6.75
 30
0.0
 11
70.89594592
 21
6.75
 31
0.0
  0
LINE
  5
1A4
330
1F
100
AcDbEntity
  8
test012
100
AcDbLine
 10
75.33534592000002
 20
0.0
 30
0.0
 11
72.87854592000002
 21
6.75
 31
0.0
  0
LINE
  5
1A5
330
1F
100
AcDbEntity
  8
test012
100
AcDbLine
 10
77.86384592
 20
0.0
 30
0.0
 11
75.33534592000002
 21
0.0
 31
0.0
  0
LINE
  5
1A6
330
1F
100
AcDbEntity
  8
test012
100
AcDbLine
 10
80.32064592000001
 20
6.75
 30
0.0
 11
77.86384592
 21
0.0
 31
0.0
  0
LINE
  5
1A7
330
1F
100
AcDbEntity
  8
test012
100
AcDbLine
 10
82.30334592
 20
6.75
 30
0.0
 11
80.32064592000001
 21
6.75
 31
0.0
  0
LINE
  5
1A8
330
1F
100
AcDbEntity
  8
test012
100
AcDbLine
 10
84.76014592
 20
0.0
 30
0.0
 11
82.30334592
 21
6.75
 31
0.0
  0
LINE
  5
1A9
330
1F
100
AcDbEntity
  8
test012
100
AcDbLine
 10
87.28864592000002
 20
0.0
 30
0.0
 11
84.76014592
 21
0.0
 31
0.0
  0
LINE
  5
1AA
330
1F
100
AcDbEntity
  8
test012
100
AcDbLine
 10
89.74544592000002
 20
6.75
 30
0.0
 11
87.28864592000002
 21
0.0
 31
0.0
  0
LINE
  5
1AB
330
1F
100
AcDbEntity
  8
test012
100
AcDbLine
 10
91.72804592
 20
6.75
 30
0.0
 11
89.74544592000002
 21
6.75
 31
0.0
  0
LINE
  5
1AC
330
1F
100
AcDbEntity
  8
test012
100
AcDbLine
 10
94.18484592
 20
0.0
 30
0.0
 11
91.72804592
 21
6.75
 31
0.0
  0
LINE
  5
1AD
330
1F
100
AcDbEntity
  8
test012
100
AcDbLine
 10
96.71344592
 20
0.0
 30
0.0
 11
94.18484592
 21
0.0
 31
0.0
  0
LINE
  5
1AE
330
1F
100
AcDbEntity
  8
test012
100
AcDbLine
 10
99.17024592
 20
6.75
 30
0.0
 11
96.71344592
 21
0.0
 31
0.0
  0
LINE
  5
1AF
330
1F
100
AcDbEntity
  8
test012
100
AcDbLine
 10
101.15254592
 20
6.75
 30
0.0
 11
99.17024592
 21
6.75
 31
0.0
  0
LINE
  5
1B0
330
1F
100
AcDbEntity
  8
test012
100
AcDbLine
 10
103.60954592
 20
0.0
 30
0.0
 11
101.15254592
 21
6.75
 31
0.0
  0
LINE
  5
1B1
330
1F
100
AcDbEntity
  8
test012
100
AcDbLine
 10
106.13854592
 20
0.0
 30
0.0
 11
103.60954592
 21
0.0
 31
0.0
  0
LINE
  5
1B2
330
1F
100
AcDbEntity
  8
test012
100
AcDbLine
 10
108.59454592
 20
6.75
 30
0.0
 11
106.13854592
 21
0.0
 31
0.0
  0
LINE
  5
1B3
330
1F
100
AcDbEntity
  8
test012
100
AcDbLine
 10
110.57754592
 20
6.75
 30
0.0
 11
108.59454592
 21
6.75
 31
0.0
  0
LINE
  5
1B4
330
1F
100
AcDbEntity
  8
test012
100
AcDbLine
 10
113.03454592
 20
0.0
 30
0.0
 11
110.57754592
 21
6.75
 31
0.0
  0
LINE
  5
1B5
330
1F
100
AcDbEntity
  8
test012
100
AcDbLine
 10
115.56254592
 20
0.0
 30
0.0
 11
113.03454592
 21
0.0
 31
0.0
  0
LINE
  5
1B6
330
1F
100
AcDbEntity
  8
test012
100
AcDbLine
 10
118.01954592
 20
6.75
 30
0.0
 11
115.56254592
 21
0.0
 31
0.0
  0
LINE
  5
1B7
330
1F
100
AcDbEntity
  8
test012
100
AcDbLine
 10
120.00254592
 20
6.75
 30
0.0
 11
118.01954592
 21
6.75
 31
0.0
  0
LINE
  5
1B8
330
1F
100
AcDbEntity
  8
test012
100
AcDbLine
 10
122.45954592
 20
0.0
 30
0.0
 11
120.00254592
 21
6.75
 31
0.0
  0
LINE
  5
1B9
330
1F
100
AcDbEntity
  8
test012
100
AcDbLine
 10
124.98754592
 20
0.0
 30
0.0
 11
122.45954592
 21
0.0
 31
0.0
  0
LINE
  5
1BA
330
1F
100
AcDbEntity
  8
test012
100
AcDbLine
 10
127.44454592
 20
6.75
 30
0.0
 11
124.98754592
 21
0.0
 31
0.0
  0
LINE
  5
1BB
330
1F
100
AcDbEntity
  8
test012
100
AcDbLine
 10
129.42754592
 20
6.75
 30
0.0
 11
127.44454592
 21
6.75
 31
0.0
  0
LINE
  5
1BC
330
1F
100
AcDbEntity
  8
test012
100
AcDbLine
 10
131.88354592
 20
0.0
 30
0.0
 11
129.42754592
 21
6.75
 31
0.0
  0
LINE
  5
1BD
330
1F
100
AcDbEntity
  8
test012
100
AcDbLine
 10
134.41254592
 20
0.0
 30
0.0
 11
131.88354592
 21
0.0
 31
0.0
  0
LINE
  5
1BE
330
1F
100
AcDbEntity
  8
test012
100
AcDbLine
 10
136.86954592
 20
6.75
 30
0.0
 11
134.41254592
 21
0.0
 31
0.0
  0
LINE
  5
1BF
330
1F
100
AcDbEntity
  8
test012
100
AcDbLine
 10
138.85154592
 20
6.75
 30
0.0
 11
136.86954592
 21
6.75
 31
0.0
  0
LINE
  5
1C0
330
1F
100
AcDbEntity
  8
test012
100
AcDbLine
 10
141.30854592
 20
0.0
 30
0.0
 11
138.85154592
 21
6.75
 31
0.0
  0
LINE
  5
1C1
330
1F
100
AcDbEntity
  8
test012
100
AcDbLine
 10
143.83754592
 20
0.0
 30
0.0
 11
141.30854592
 21
0.0
 31
0.0
  0
LINE
  5
1C2
330
1F
100
AcDbEntity
  8
test012
100
AcDbLine
 10
146.29454592
 20
6.75
 30
0.0
 11
143.83754592
 21
0.0
 31
0.0
  0
LINE
  5
1C3
330
1F
100
AcDbEntity
  8
test012
100
AcDbLine
 10
148.27654592
 20
6.75
 30
0.0
 11
146.29454592
 21
6.75
 31
0.0
  0
LINE
  5
1C4
330
1F
100
AcDbEntity
  8
test012
100
AcDbLine
 10
150.73354592
 20
0.0099999999999909
 30
0.0
 11
148.27654592
 21
6.75
 31
0.0
  0
LINE
  5
1C5
330
1F
100
AcDbEntity
  8
test012
100
AcDbLine
 10
150.73354592
 20
0.0099999999999909
 30
0.0
 11
179.99354592
 21
0.0099999999999909
 31
0.0
  0
LINE
  5
1C6
330
1F
100
AcDbEntity
  8
test012
100
AcDbLine
 10
179.99354592
 20
37.00999999999999
 30
0.0
 11
179.99354592
 21
0.0099999999999909
 31
0.0
  0
CIRCLE
  5
1C7
330
1F
100
AcDbEntity
  8
test012
100
AcDbCircle
 10
46.99354592
 20
21.88
 30
0.0
 40
2.399999999999999
  0
CIRCLE
  5
1C8
330
1F
100
AcDbEntity
  8
test012
100
AcDbCircle
 10
66.99354592
 20
21.88
 30
0.0
 40
2.399999999999999
  0
CIRCLE
  5
1C9
330
1F
100
AcDbEntity
  8
test012
100
AcDbCircle
 10
136.99354592
 20
21.88
 30
0.0
 40
2.399999999999999
  0
CIRCLE
  5
1CA
330
1F
100
AcDbEntity
  8
test012
100
AcDbCircle
 10
116.99354592
 20
21.88
 30
0.0
 40
2.399999999999999
  0
CIRCLE
  5
1CB
330
1F
100
AcDbEntity
  8
test012
100
AcDbCircle
 10
91.99354592
 20
24.00999999999999
 30
0.0
 40
2.399999999999999
  0
LINE
  5
20010
330
1F
100
AcDbEntity
  8
0
100
AcDbLine
 10
-0.00645408
 20
37.00999999999999
 30
0.0
 11
-0.00645408
 21
0.0000000000000568
 31
0.0
  0
ENDSEC
  0
SECTION
  2
OBJECTS
  0
DICTIONARY
  5
C
330
0
100
AcDbDictionary
281
     1
  3
ACAD_COLOR
350
20005
  3
ACAD_GROUP
350
D
  3
ACAD_LAYOUT
350
2000A
  3
ACAD_MATERIAL
350
20004
  3
ACAD_MLINESTYLE
350
20008
  3
ACAD_PLOTSETTINGS
350
2000B
  3
ACAD_PLOTSTYLENAME
350
20002
  3
ACAD_TABLESTYLE
350
20006
  3
AcDbVariableDictionary
350
20011
  0
DICTIONARY
  5
20005
102
{ACAD_REACTORS
330
C
102
}
330
C
100
AcDbDictionary
281
     1
  0
DICTIONARY
  5
D
330
C
100
AcDbDictionary
281
     1
  0
DICTIONARY
  5
2000A
102
{ACAD_REACTORS
330
C
102
}
330
C
100
AcDbDictionary
281
     1
  3
Layout1
350
2000D
  3
Model
350
2000C
  0
DICTIONARY
  5
20004
102
{ACAD_REACTORS
330
C
102
}
330
C
100
AcDbDictionary
281
     1
  0
DICTIONARY
  5
20008
102
{ACAD_REACTORS
330
C
102
}
330
C
100
AcDbDictionary
281
     1
  3
Standard
350
20009
  0
DICTIONARY
  5
2000B
102
{ACAD_REACTORS
330
C
102
}
330
C
100
AcDbDictionary
281
     1
  0
ACDBDICTIONARYWDFLT
  5
20002
102
{ACAD_REACTORS
330
C
102
}
330
C
100
AcDbDictionary
281
     1
  3
Normal
350
20003
100
AcDbDictionaryWithDefault
340
20003
  0
DICTIONARY
  5
20006
102
{ACAD_REACTORS
330
C
102
}
330
C
100
AcDbDictionary
281
     1
  3
Standard
350
20007
  0
DICTIONARY
  5
20011
102
{ACAD_REACTORS
330
C
102
}
330
C
100
AcDbDictionary
281
     1
  3
CTABLESTYLE
350
20012
  0
LAYOUT
  5
2000D
102
{ACAD_REACTORS
330
2000A
102
}
330
2000A
100
AcDbPlotSettings
  1

  2
D11
  4

  6

 40
0.0
 41
0.0
 42
0.0
 43
0.0
 44
0.0
 45
0.0
 46
0.0
 47
0.0
 48
0.0
 49
0.0
140
0.0
141
0.0
142
1.0
143
1.0
 70
   688
 72
     0
 73
     0
 74
     5
  7

 75
    16
147
1.0
 76
     0
 77
     2
 78
   300
148
0.0
149
0.0
100
AcDbLayout
  1
Layout1
 70
     1
 71
     1
 10
0.0
 20
0.0
 11
210.0
 21
297.0
 12
0.0
 22
0.0
 32
0.0
 14
0.0
 24
0.0
 34
0.0
 15
50.0
 25
50.0
 35
50.0
146
0.0
 13
0.0
 23
0.0
 33
0.0
 16
1.0
 26
0.0
 36
0.0
 17
0.0
 27
1.0
 37
0.0
 76
     0
330
1E
  0
LAYOUT
  5
2000C
102
{ACAD_REACTORS
330
2000A
102
}
330
2000A
100
AcDbPlotSettings
  1

  2
D11
  4

  6

 40
0.0
 41
0.0
 42
0.0
 43
0.0
 44
0.0
 45
0.0
 46
0.0
 47
0.0
 48
0.0
 49
0.0
140
0.0
141
0.0
142
1.0
143
1.0
 70
  1712
 72
     0
 73
     0
 74
     0
  7

 75
     0
147
1.0
 76
     0
 77
     2
 78
   300
148
0.0
149
0.0
100
AcDbLayout
  1
Model
 70
     1
 71
     0
 10
0.0
 20
0.0
 11
12.0
 21
9.0
 12
0.0
 22
0.0
 32
0.0
 14
0.0
 24
0.0
 34
0.0
 15
0.0
 25
0.0
 35
0.0
146
0.0
 13
0.0
 23
0.0
 33
0.0
 16
1.0
 26
0.0
 36
0.0
 17
0.0
 27
1.0
 37
0.0
 76
     0
330
1F
  0
MLINESTYLE
  5
20009
102
{ACAD_REACTORS
330
20008
102
}
330
20008
100
AcDbMlineStyle
  2
STANDARD
 70
     0
  3

 62
   256
 51
90.0
 52
90.0
 71
     2
 49
0.5
 62
   256
  6
BYLAYER
 49
-0.5
 62
   256
  6
BYLAYER
  0
ACDBPLACEHOLDER
  5
20003
102
{ACAD_REACTORS
330
20002
102
}
330
20002
  0
TABLESTYLE
  5
20007
102
{ACAD_REACTORS
330
20006
102
}
330
20006
100
AcDbTableStyle
  3
Standard
 70
     0
 71
     0
 40
1.5
 41
1.5
280
     0
281
     0
  7
Standard
140
4.5
170
     2
 62
     0
 63
     7
283
     0
274
    -2
284
     1
 64
     0
275
    -2
285
     1
 65
     0
276
    -2
286
     1
 66
     0
277
    -2
287
     1
 67
     0
278
    -2
288
     1
 68
     0
279
    -2
289
     1
 69
     0
  7
Standard
140
6.0
170
     5
 62
     0
 63
     7
283
     0
274
    -2
284
     1
 64
     0
275
    -2
285
     1
 65
     0
276
    -2
286
     1
 66
     0
277
    -2
287
     1
 67
     0
278
    -2
288
     1
 68
     0
279
    -2
289
     1
 69
     0
  7
Standard
140
4.5
170
     5
 62
     0
 63
     7
283
     0
274
    -2
284
     1
 64
     0
275
    -2
285
     1
 65
     0
276
    -2
286
     1
 66
     0
277
    -2
287
     1
 67
     0
278
    -2
288
     1
 68
     0
279
    -2
289
     1
 69
     0
  0
DICTIONARYVAR
  5
20012
102
{ACAD_REACTORS
330
20011
102
}
330
20011
100
DictionaryVariables
280
     0
  1
STANDARD
  0
ENDSEC
  0
EOF
