  0
SECTION
  2
HEADER
  9
$ACADVER
  1
AC1018
  9
$ACADMAINTVER
 70
    77
  9
$DWGCODEPAGE
  3
ANSI_1252
  9
$INSBASE
 10
0.0
 20
0.0
 30
0.0
  9
$EXTMIN
 10
0.7606523248831651
 20
0.7818336639560926
 30
0.0
  9
$EXTMAX
 10
63.68054232488315
 20
63.52583366395617
 30
0.0
  9
$LIMMIN
 10
0.0
 20
0.0
  9
$LIMMAX
 10
12.0
 20
9.0
  9
$ORTHOMODE
 70
     0
  9
$REGENMODE
 70
     1
  9
$FILLMODE
 70
     1
  9
$QTEXTMODE
 70
     0
  9
$MIRRTEXT
 70
     0
  9
$LTSCALE
 40
1.0
  9
$ATTMODE
 70
     1
  9
$TEXTSIZE
 40
10.0
  9
$TRACEWID
 40
0.05
  9
$TEXTSTYLE
  7
STANDARD
  9
$CLAYER
  8
0
  9
$CELTYPE
  6
CONTINUOUS
  9
$CECOLOR
 62
   256
  9
$CELTSCALE
 40
1.0
  9
$DISPSILH
 70
     0
  9
$DIMSCALE
 40
1.0
  9
$DIMASZ
 40
0.18
  9
$DIMEXO
 40
0.0625
  9
$DIMDLI
 40
0.38
  9
$DIMRND
 40
0.0
  9
$DIMDLE
 40
0.0
  9
$DIMEXE
 40
0.18
  9
$DIMTP
 40
0.0
  9
$DIMTM
 40
0.0
  9
$DIMTXT
 40
0.18
  9
$DIMCEN
 40
0.09
  9
$DIMTSZ
 40
0.0
  9
$DIMTOL
 70
     0
  9
$DIMLIM
 70
     0
  9
$DIMTIH
 70
     1
  9
$DIMTOH
 70
     1
  9
$DIMSE1
 70
     0
  9
$DIMSE2
 70
     0
  9
$DIMTAD
 70
     0
  9
$DIMZIN
 70
     0
  9
$DIMBLK
  1

  9
$DIMASO
 70
     1
  9
$DIMSHO
 70
     1
  9
$DIMPOST
  1

  9
$DIMAPOST
  1

  9
$DIMALT
 70
     0
  9
$DIMALTD
 70
     2
  9
$DIMALTF
 40
25.4
  9
$DIMLFAC
 40
1.0
  9
$DIMTOFL
 70
     0
  9
$DIMTVP
 40
0.0
  9
$DIMTIX
 70
     0
  9
$DIMSOXD
 70
     0
  9
$DIMSAH
 70
     0
  9
$DIMBLK1
  1

  9
$DIMBLK2
  1

  9
$DIMSTYLE
  2
STANDARD
  9
$DIMCLRD
 70
     0
  9
$DIMCLRE
 70
     0
  9
$DIMCLRT
 70
     0
  9
$DIMTFAC
 40
1.0
  9
$DIMGAP
 40
0.09
  9
$DIMJUST
 70
     0
  9
$DIMSD1
 70
     0
  9
$DIMSD2
 70
     0
  9
$DIMTOLJ
 70
     1
  9
$DIMTZIN
 70
     0
  9
$DIMALTZ
 70
     0
  9
$DIMALTTZ
 70
     0
  9
$DIMUPT
 70
     0
  9
$DIMDEC
 70
     4
  9
$DIMTDEC
 70
     4
  9
$DIMALTU
 70
     2
  9
$DIMALTTD
 70
     2
  9
$DIMTXSTY
  7
STANDARD
  9
$DIMAUNIT
 70
     0
  9
$DIMADEC
 70
     0
  9
$DIMALTRND
 40
0.0
  9
$DIMAZIN
 70
     0
  9
$DIMDSEP
 70
    46
  9
$DIMATFIT
 70
     3
  9
$DIMFRAC
 70
     0
  9
$DIMLDRBLK
  1

  9
$DIMLUNIT
 70
     2
  9
$DIMLWD
 70
    -2
  9
$DIMLWE
 70
    -2
  9
$DIMTMOVE
 70
     0
  9
$LUNITS
 70
     2
  9
$LUPREC
 70
     4
  9
$SKETCHINC
 40
0.1
  9
$FILLETRAD
 40
0.0
  9
$AUNITS
 70
     0
  9
$AUPREC
 70
     0
  9
$MENU
  1
.
  9
$ELEVATION
 40
0.0
  9
$PELEVATION
 40
0.0
  9
$THICKNESS
 40
0.0
  9
$LIMCHECK
 70
     0
  9
$CHAMFERA
 40
0.0
  9
$CHAMFERB
 40
0.0
  9
$CHAMFERC
 40
0.0
  9
$CHAMFERD
 40
0.0
  9
$SKPOLY
 70
     0
  9
$TDCREATE
 40
2459647.595535625
  9
$TDUCREATE
 40
2459647.553868958
  9
$TDUPDATE
 40
2459647.618065359
  9
$TDUUPDATE
 40
2459647.576398692
  9
$TDINDWG
 40
0.0026801736
  9
$TDUSRTIMER
 40
0.0026801736
  9
$USRTIMER
 70
     1
  9
$ANGBASE
 50
0.0
  9
$ANGDIR
 70
     0
  9
$PDMODE
 70
     0
  9
$PDSIZE
 40
0.0
  9
$PLINEWID
 40
0.0
  9
$SPLFRAME
 70
     0
  9
$SPLINETYPE
 70
     6
  9
$SPLINESEGS
 70
     8
  9
$HANDSEED
  5
1002B
  9
$SURFTAB1
 70
     6
  9
$SURFTAB2
 70
     6
  9
$SURFTYPE
 70
     6
  9
$SURFU
 70
     6
  9
$SURFV
 70
     6
  9
$UCSBASE
  2

  9
$UCSNAME
  2

  9
$UCSORG
 10
0.0
 20
0.0
 30
0.0
  9
$UCSXDIR
 10
1.0
 20
0.0
 30
0.0
  9
$UCSYDIR
 10
0.0
 20
1.0
 30
0.0
  9
$UCSORTHOREF
  2

  9
$UCSORTHOVIEW
 70
     0
  9
$UCSORGTOP
 10
0.0
 20
0.0
 30
0.0
  9
$UCSORGBOTTOM
 10
0.0
 20
0.0
 30
0.0
  9
$UCSORGLEFT
 10
0.0
 20
0.0
 30
0.0
  9
$UCSORGRIGHT
 10
0.0
 20
0.0
 30
0.0
  9
$UCSORGFRONT
 10
0.0
 20
0.0
 30
0.0
  9
$UCSORGBACK
 10
0.0
 20
0.0
 30
0.0
  9
$PUCSBASE
  2

  9
$PUCSNAME
  2

  9
$PUCSORG
 10
0.0
 20
0.0
 30
0.0
  9
$PUCSXDIR
 10
1.0
 20
0.0
 30
0.0
  9
$PUCSYDIR
 10
0.0
 20
1.0
 30
0.0
  9
$PUCSORTHOREF
  2

  9
$PUCSORTHOVIEW
 70
     0
  9
$PUCSORGTOP
 10
0.0
 20
0.0
 30
0.0
  9
$PUCSORGBOTTOM
 10
0.0
 20
0.0
 30
0.0
  9
$PUCSORGLEFT
 10
0.0
 20
0.0
 30
0.0
  9
$PUCSORGRIGHT
 10
0.0
 20
0.0
 30
0.0
  9
$PUCSORGFRONT
 10
0.0
 20
0.0
 30
0.0
  9
$PUCSORGBACK
 10
0.0
 20
0.0
 30
0.0
  9
$USERI1
 70
     0
  9
$USERI2
 70
     0
  9
$USERI3
 70
     0
  9
$USERI4
 70
     0
  9
$USERI5
 70
     0
  9
$USERR1
 40
0.0
  9
$USERR2
 40
0.0
  9
$USERR3
 40
0.0
  9
$USERR4
 40
0.0
  9
$USERR5
 40
0.0
  9
$WORLDVIEW
 70
     1
  9
$SHADEDGE
 70
     3
  9
$SHADEDIF
 70
    70
  9
$TILEMODE
 70
     1
  9
$MAXACTVP
 70
    64
  9
$PINSBASE
 10
0.0
 20
0.0
 30
0.0
  9
$PLIMCHECK
 70
     0
  9
$PEXTMIN
 10
0.0
 20
0.0
 30
0.0
  9
$PEXTMAX
 10
50.0
 20
50.0
 30
50.0
  9
$PLIMMIN
 10
0.0
 20
0.0
  9
$PLIMMAX
 10
12.0
 20
9.0
  9
$UNITMODE
 70
     0
  9
$VISRETAIN
 70
     1
  9
$PLINEGEN
 70
     0
  9
$PSLTSCALE
 70
     1
  9
$TREEDEPTH
 70
  3020
  9
$CMLSTYLE
  2
Standard
  9
$CMLJUST
 70
     0
  9
$CMLSCALE
 40
1.0
  9
$PROXYGRAPHICS
 70
     1
  9
$MEASUREMENT
 70
     0
  9
$CELWEIGHT
370
    -1
  9
$ENDCAPS
280
     0
  9
$JOINSTYLE
280
     0
  9
$LWDISPLAY
290
     0
  9
$INSUNITS
 70
     0
  9
$HYPERLINKBASE
  1

  9
$STYLESHEET
  1

  9
$XEDIT
290
     1
  9
$CEPSNTYPE
380
     0
  9
$PSTYLEMODE
290
     1
  9
$FINGERPRINTGUID
  2
{C6A78B63-D275-42C0-8D8C-E372EDB53FC1}
  9
$VERSIONGUID
  2
{C3C26F9A-FD5B-4372-A220-78ED8A961F97}
  9
$EXTNAMES
290
     1
  9
$PSVPSCALE
 40
0.0
  9
$OLESTARTUP
290
     0
  9
$SORTENTS
280
   127
  9
$INDEXCTL
280
     0
  9
$HIDETEXT
280
     0
  9
$XCLIPFRAME
290
     0
  9
$HALOGAP
280
     0
  9
$OBSCOLOR
 70
   257
  9
$OBSLTYPE
280
     0
  9
$INTERSECTIONDISPLAY
280
     0
  9
$INTERSECTIONCOLOR
 70
   257
  9
$DIMASSOC
280
     1
  9
$PROJECTNAME
  1

  0
ENDSEC
  0
SECTION
  2
CLASSES
  0
CLASS
  1
ACDBDICTIONARYWDFLT
  2
AcDbDictionaryWithDefault
  3
ObjectDBX Classes
 90
        0
 91
        1
280
     0
281
     0
  0
CLASS
  1
TABLESTYLE
  2
AcDbTableStyle
  3
ObjectDBX Classes
 90
     2047
 91
        1
280
     0
281
     0
  0
CLASS
  1
DICTIONARYVAR
  2
AcDbDictionaryVar
  3
ObjectDBX Classes
 90
        0
 91
        1
280
     0
281
     0
  0
ENDSEC
  0
SECTION
  2
TABLES
  0
TABLE
  2
VPORT
  5
20
330
0
100
AcDbSymbolTable
 70
     2
  0
VPORT
  5
1002A
330
20
100
AcDbSymbolTableRecord
100
AcDbViewportTableRecord
  2
*Active
 70
     0
 10
0.0
 20
0.0
 11
1.0
 21
1.0
 12
55.59420396717388
 22
39.87737386829299
 13
0.0
 23
0.0
 14
1.0
 24
1.0
 15
0.0
 25
0.0
 16
0.0
 26
0.0
 36
1.0
 17
0.0
 27
0.0
 37
0.0
 40
146.8061968359774
 41
1.977707006369426
 42
50.0
 43
0.0
 44
0.0
 50
0.0
 51
0.0
 71
     0
 72
   100
 73
     1
 74
     1
 75
     0
 76
     0
 77
     0
 78
     0
281
     0
 65
     1
110
0.0
120
0.0
130
0.0
111
1.0
121
0.0
131
0.0
112
0.0
122
1.0
132
0.0
 79
     0
146
0.0
  0
ENDTAB
  0
TABLE
  2
LTYPE
  5
22
330
0
100
AcDbSymbolTable
 70
     1
  0
LTYPE
  5
23
330
22
100
AcDbSymbolTableRecord
100
AcDbLinetypeTableRecord
  2
BYBLOCK
 70
     0
  3

 72
    65
 73
     0
 40
0.0
  0
LTYPE
  5
24
330
22
100
AcDbSymbolTableRecord
100
AcDbLinetypeTableRecord
  2
BYLAYER
 70
     0
  3

 72
    65
 73
     0
 40
0.0
  0
LTYPE
  5
25
330
22
100
AcDbSymbolTableRecord
100
AcDbLinetypeTableRecord
  2
CONTINUOUS
 70
     0
  3
Solid line
 72
    65
 73
     0
 40
0.0
  0
ENDTAB
  0
TABLE
  2
LAYER
  5
BEF
330
0
100
AcDbSymbolTable
 70
    18
  0
LAYER
  5
BF0
330
BEF
100
AcDbSymbolTableRecord
100
AcDbLayerTableRecord
  2
0
 70
     0
 62
     7
  6
CONTINUOUS
370
    -3
390
10002
  0
ENDTAB
  0
TABLE
  2
STYLE
  5
70
330
0
100
AcDbSymbolTable
 70
     2
  0
STYLE
  5
71
330
70
100
AcDbSymbolTableRecord
100
AcDbTextStyleTableRecord
  2
STANDARD
 70
     0
 40
0.0
 41
1.0
 50
0.0
 71
     0
 42
10.0
  3
arial.ttf
  4

1001
ACAD
1000
Arial
1071
       34
  0
ENDTAB
  0
TABLE
  2
VIEW
  5
73
330
0
100
AcDbSymbolTable
 70
     0
  0
ENDTAB
  0
TABLE
  2
UCS
  5
74
330
0
100
AcDbSymbolTable
 70
     0
  0
ENDTAB
  0
TABLE
  2
APPID
  5
75
330
0
100
AcDbSymbolTable
 70
     2
  0
APPID
  5
76
330
75
100
AcDbSymbolTableRecord
100
AcDbRegAppTableRecord
  2
ACAD
 70
     0
  0
APPID
  5
77
330
75
100
AcDbSymbolTableRecord
100
AcDbRegAppTableRecord
  2
ACADANNOTATIVE
 70
     0
  0
ENDTAB
  0
TABLE
  2
DIMSTYLE
  5
78
330
0
100
AcDbSymbolTable
 70
     1
100
AcDbDimStyleTable
 71
     0
  0
DIMSTYLE
105
79
330
78
100
AcDbSymbolTableRecord
100
AcDbDimStyleTableRecord
  2
STANDARD
 70
     0
 40
0.0
 41
2.5
 42
0.625
 43
3.75
 44
1.25
 73
     0
 74
     0
 77
     1
 78
     8
140
2.5
141
2.5
143
0.03937007874016
147
0.625
171
     3
172
     1
271
     2
272
     2
274
     3
283
     0
284
     8
340
71
  0
ENDTAB
  0
TABLE
  2
BLOCK_RECORD
  5
A01
330
0
100
AcDbSymbolTable
 70
     0
  0
BLOCK_RECORD
  5
A02
330
A01
100
AcDbSymbolTableRecord
100
AcDbBlockTableRecord
  2
*MODEL_SPACE
340
1000B
  0
BLOCK_RECORD
  5
A03
330
A01
100
AcDbSymbolTableRecord
100
AcDbBlockTableRecord
  2
*PAPER_SPACE
340
1000C
  0
ENDTAB
  0
ENDSEC
  0
SECTION
  2
BLOCKS
  0
BLOCK
  5
A04
330
A02
100
AcDbEntity
  8
0
100
AcDbBlockBegin
  2
*MODEL_SPACE
 70
     0
 10
0.0
 20
0.0
 30
0.0
  3
*MODEL_SPACE
  1
 
  0
ENDBLK
  5
A05
330
A02
100
AcDbEntity
  8
0
100
AcDbBlockEnd
  0
BLOCK
  5
A06
330
A03
100
AcDbEntity
 67
     1
  8
0
100
AcDbBlockBegin
  2
*PAPER_SPACE
 70
     0
 10
0.0
 20
0.0
 30
0.0
  3
*PAPER_SPACE
  1
 
  0
ENDBLK
  5
A07
330
A03
100
AcDbEntity
 67
     1
  8
0
100
AcDbBlockEnd
  0
ENDSEC
  0
SECTION
  2
ENTITIES
  0
SPLINE
  5
AD9
330
A02
100
AcDbEntity
  8
0
100
AcDbSpline
210
0.0
220
0.0
230
1.0
 70
     8
 71
     2
 72
     6
 73
     3
 74
     0
 42
0.0000000001
 43
0.0000000001
 40
0.0
 40
0.0
 40
0.0
 40
2.32865
 40
2.32865
 40
2.32865
 10
46.59784232488315
 20
11.88183366395617
 30
0.0
 10
45.85274232488315
 20
10.8758336639562
 30
0.0
 10
47.04904232488315
 20
9.726833663956199
 30
0.0
  0
SPLINE
  5
ADA
330
A02
100
AcDbEntity
  8
0
100
AcDbSpline
210
0.0
220
0.0
230
1.0
 70
    24
 71
     1
 72
     4
 73
     2
 74
     0
 42
0.0000000001
 43
0.0000000001
 40
0.0
 40
0.0
 40
1.7214
 40
1.7214
 10
47.96394232488315
 20
12.9288336639562
 30
0.0
 10
46.59784232488315
 20
11.88183366395617
 30
0.0
  0
SPLINE
  5
ADB
330
A02
100
AcDbEntity
  8
0
100
AcDbSpline
210
0.0
220
0.0
230
1.0
 70
     8
 71
     3
 72
    14
 73
    10
 74
     0
 42
0.0000000001
 43
0.0000000001
 40
0.0
 40
0.0
 40
0.0
 40
0.0
 40
0.821049
 40
0.821049
 40
0.821049
 40
1.847299999999999
 40
1.847299999999999
 40
1.847299999999999
 40
5.131269999999997
 40
5.131269999999997
 40
5.131269999999997
 40
5.131269999999997
 10
47.04904232488315
 20
9.726833663956199
 30
0.0
 10
47.18974232488315
 20
9.491833663956183
 30
0.0
 10
47.29444232488314
 20
9.236833663956188
 30
0.0
 10
47.38434232488314
 20
8.977833663956175
 30
0.0
 10
47.49604232488315
 20
8.653833663956161
 30
0.0
 10
47.58814232488315
 20
8.324833663956212
 30
0.0
 10
47.66054232488317
 20
7.989833663956232
 30
0.0
 10
47.89574232488315
 20
6.920833663956215
 30
0.0
 10
47.95364232488315
 20
5.812833663956213
 30
0.0
 10
47.92434232488315
 20
4.722833663956179
 30
0.0
  0
SPLINE
  5
ADC
330
A02
100
AcDbEntity
  8
0
100
AcDbSpline
210
0.0
220
0.0
230
1.0
 70
     8
 71
     2
 72
     6
 73
     3
 74
     0
 42
0.0000000001
 43
0.0000000001
 40
0.0
 40
0.0
 40
0.0
 40
2.32865
 40
2.32865
 40
2.32865
 10
49.92764232488315
 20
11.93383366395619
 30
0.0
 10
49.12814232488314
 20
13.38683366395617
 30
0.0
 10
47.96394232488315
 20
12.9288336639562
 30
0.0
  0
SPLINE
  5
ADD
330
A02
100
AcDbEntity
  8
0
100
AcDbSpline
210
0.0
220
0.0
230
1.0
 70
    24
 71
     1
 72
     4
 73
     2
 74
     0
 42
0.0000000001
 43
0.0000000001
 40
0.0
 40
0.0
 40
2.065329999999998
 40
2.065329999999998
 10
47.92434232488315
 20
4.722833663956179
 30
0.0
 10
46.10074232488314
 20
3.752833663956208
 30
0.0
  0
SPLINE
  5
ADE
330
A02
100
AcDbEntity
  8
0
100
AcDbSpline
210
0.0
220
0.0
230
1.0
 70
     8
 71
     3
 72
    14
 73
    10
 74
     0
 42
0.0000000001
 43
0.0000000001
 40
0.0
 40
0.0
 40
0.0
 40
0.0
 40
3.28398
 40
3.28398
 40
3.28398
 40
4.310219999999998
 40
4.310219999999998
 40
4.310219999999998
 40
5.131269999999997
 40
5.131269999999997
 40
5.131269999999997
 40
5.131269999999997
 10
54.53274232488316
 20
9.788833663956213
 30
0.0
 10
53.47224232488315
 20
10.0438336639562
 30
0.0
 10
52.41734232488315
 20
10.38683366395616
 30
0.0
 10
51.44614232488315
 20
10.89183366395616
 30
0.0
 10
51.14164232488317
 20
11.0488336639562
 30
0.0
 10
50.84744232488315
 20
11.22283366395618
 30
0.0
 10
50.56344232488315
 20
11.41483366395618
 30
0.0
 10
50.33664232488316
 20
11.56883366395618
 30
0.0
 10
50.11834232488316
 20
11.73683366395619
 30
0.0
 10
49.92764232488315
 20
11.93383366395619
 30
0.0
  0
SPLINE
  5
ADF
330
A02
100
AcDbEntity
  8
0
100
AcDbSpline
210
0.0
220
0.0
230
1.0
 70
     8
 71
     3
 72
    14
 73
    10
 74
     0
 42
0.0000000001
 43
0.0000000001
 40
0.0
 40
0.0
 40
0.0
 40
0.0
 40
3.28398
 40
3.28398
 40
3.28398
 40
4.310219999999998
 40
4.310219999999998
 40
4.310219999999998
 40
5.131269999999997
 40
5.131269999999997
 40
5.131269999999997
 40
5.131269999999997
 10
46.10074232488314
 20
3.752833663956208
 30
0.0
 10
45.18054232488315
 20
4.337833663956189
 30
0.0
 10
44.29434232488318
 20
5.005833663956194
 30
0.0
 10
43.53964232488315
 20
5.798833663956202
 30
0.0
 10
43.30264232488317
 20
6.045833663956215
 30
0.0
 10
43.08104232488315
 20
6.306833663956183
 30
0.0
 10
42.87474232488317
 20
6.580833663956183
 30
0.0
 10
42.71024232488314
 20
6.799833663956177
 30
0.0
 10
42.55804232488315
 20
7.028833663956161
 30
0.0
 10
42.44164232488315
 20
7.276833663956097
 30
0.0
  0
SPLINE
  5
AE0
330
A02
100
AcDbEntity
  8
0
100
AcDbSpline
210
0.0
220
0.0
230
1.0
 70
    24
 71
     1
 72
     4
 73
     2
 74
     0
 42
0.0000000001
 43
0.0000000001
 40
0.0
 40
0.0
 40
2.065329999999998
 40
2.065329999999998
 10
55.94264232488317
 20
11.29783366395622
 30
0.0
 10
54.53274232488316
 20
9.788833663956213
 30
0.0
  0
SPLINE
  5
AE1
330
A02
100
AcDbEntity
  8
0
100
AcDbSpline
210
0.0
220
0.0
230
1.0
 70
     8
 71
     2
 72
     6
 73
     3
 74
     0
 42
0.0000000001
 43
0.0000000001
 40
0.0
 40
0.0
 40
0.0
 40
2.32865
 40
2.32865
 40
2.32865
 10
42.44164232488315
 20
7.276833663956097
 30
0.0
 10
42.15754232488317
 20
8.911833663956201
 30
0.0
 10
40.90754232488317
 20
8.855833663956216
 30
0.0
  0
SPLINE
  5
AE2
330
A02
100
AcDbEntity
  8
0
100
AcDbSpline
210
0.0
220
0.0
230
1.0
 70
     8
 71
     3
 72
    14
 73
    10
 74
     0
 42
0.0000000001
 43
0.0000000001
 40
0.0
 40
0.0
 40
0.0
 40
0.0
 40
0.821049
 40
0.821049
 40
0.821049
 40
1.847299999999999
 40
1.847299999999999
 40
1.847299999999999
 40
5.131269999999997
 40
5.131269999999997
 40
5.131269999999997
 40
5.131269999999997
 10
53.49004232488315
 20
15.74683366395618
 30
0.0
 10
53.69944232488315
 20
15.56983366395622
 30
0.0
 10
53.88094232488317
 20
15.36283366395622
 30
0.0
 10
54.05014232488316
 20
15.14783366395619
 30
0.0
 10
54.26104232488317
 20
14.87683366395617
 30
0.0
 10
54.45504232488314
 20
14.59483366395619
 30
0.0
 10
54.63234232488314
 20
14.30183366395619
 30
0.0
 10
55.20184232488317
 20
13.36783366395622
 30
0.0
 10
55.61634232488316
 20
12.33883366395616
 30
0.0
 10
55.94264232488317
 20
11.29783366395622
 30
0.0
  0
SPLINE
  5
AE3
330
A02
100
AcDbEntity
  8
0
100
AcDbSpline
210
0.0
220
0.0
230
1.0
 70
    24
 71
     1
 72
     4
 73
     2
 74
     0
 42
0.0000000001
 43
0.0000000001
 40
0.0
 40
0.0
 40
1.7214
 40
1.7214
 10
40.90754232488317
 20
8.855833663956216
 30
0.0
 10
39.27534232488316
 20
8.308833663956193
 30
0.0
  0
SPLINE
  5
AE4
330
A02
100
AcDbEntity
  8
0
100
AcDbSpline
210
0.0
220
0.0
230
1.0
 70
     8
 71
     2
 72
     6
 73
     3
 74
     0
 42
0.0000000001
 43
0.0000000001
 40
0.0
 40
0.0
 40
0.0
 40
2.32865
 40
2.32865
 40
2.32865
 10
52.36344232488317
 20
17.63783366395619
 30
0.0
 10
51.98514232488316
 20
16.44583366395619
 30
0.0
 10
53.49004232488315
 20
15.74683366395618
 30
0.0
  0
SPLINE
  5
AE5
330
A02
100
AcDbEntity
  8
0
100
AcDbSpline
210
0.0
220
0.0
230
1.0
 70
     8
 71
     2
 72
     6
 73
     3
 74
     0
 42
0.0000000001
 43
0.0000000001
 40
0.0
 40
0.0
 40
0.0
 40
2.32865
 40
2.32865
 40
2.32865
 10
39.27534232488316
 20
8.308833663956193
 30
0.0
 10
38.24424232488317
 20
7.599833663956188
 30
0.0
 10
39.00254232488317
 20
6.124833663956222
 30
0.0
  0
SPLINE
  5
AE6
330
A02
100
AcDbEntity
  8
0
100
AcDbSpline
210
0.0
220
0.0
230
1.0
 70
    24
 71
     1
 72
     4
 73
     2
 74
     0
 42
0.0000000001
 43
0.0000000001
 40
0.0
 40
0.0
 40
1.7214
 40
1.7214
 10
53.31554232488318
 20
19.07183366395617
 30
0.0
 10
52.36344232488317
 20
17.63783366395619
 30
0.0
  0
SPLINE
  5
AE7
330
A02
100
AcDbEntity
  8
0
100
AcDbSpline
210
0.0
220
0.0
230
1.0
 70
     8
 71
     3
 72
    14
 73
    10
 74
     0
 42
0.0000000001
 43
0.0000000001
 40
0.0
 40
0.0
 40
0.0
 40
0.0
 40
0.821049
 40
0.821049
 40
0.821049
 40
1.847299999999999
 40
1.847299999999999
 40
1.847299999999999
 40
5.131269999999997
 40
5.131269999999997
 40
5.131269999999997
 40
5.131269999999997
 10
39.00254232488317
 20
6.124833663956222
 30
0.0
 10
39.05914232488316
 20
5.855833663956217
 30
0.0
 10
39.07564232488315
 20
5.58183366395616
 30
0.0
 10
39.07664232488317
 20
5.307833663956215
 30
0.0
 10
39.07694232488316
 20
4.964833663956198
 30
0.0
 10
39.05704232488317
 20
4.622833663956213
 30
0.0
 10
39.01694232488317
 20
4.282833663956181
 30
0.0
 10
38.89234232488317
 20
3.195833663956193
 30
0.0
 10
38.58724232488317
 20
2.128833663956186
 30
0.0
 10
38.20554232488316
 20
1.106833663956193
 30
0.0
  0
SPLINE
  5
AE8
330
A02
100
AcDbEntity
  8
0
100
AcDbSpline
210
0.0
220
0.0
230
1.0
 70
     8
 71
     2
 72
     6
 73
     3
 74
     0
 42
0.0000000001
 43
0.0000000001
 40
0.0
 40
0.0
 40
0.0
 40
2.32865
 40
2.32865
 40
2.32865
 10
55.49614232488316
 20
18.76783366395619
 30
0.0
 10
54.26784232488316
 20
19.88383366395618
 30
0.0
 10
53.31554232488318
 20
19.07183366395617
 30
0.0
  0
SPLINE
  5
AE9
330
A02
100
AcDbEntity
  8
0
100
AcDbSpline
210
0.0
220
0.0
230
1.0
 70
    24
 71
     1
 72
     4
 73
     2
 74
     0
 42
0.0000000001
 43
0.0000000001
 40
0.0
 40
0.0
 40
2.065329999999998
 40
2.065329999999998
 10
38.20554232488316
 20
1.106833663956193
 30
0.0
 10
36.16594232488316
 20
0.7818336639560926
 30
0.0
  0
SPLINE
  5
AEA
330
A02
100
AcDbEntity
  8
0
100
AcDbSpline
210
0.0
220
0.0
230
1.0
 70
     8
 71
     3
 72
    14
 73
    10
 74
     0
 42
0.0000000001
 43
0.0000000001
 40
0.0
 40
0.0
 40
0.0
 40
0.0
 40
3.28398
 40
3.28398
 40
3.28398
 40
4.310219999999998
 40
4.310219999999998
 40
4.310219999999998
 40
5.131269999999997
 40
5.131269999999997
 40
5.131269999999997
 40
5.131269999999997
 10
60.54804232488315
 20
18.23483366395618
 30
0.0
 10
59.46234232488317
 20
18.13183366395617
 30
0.0
 10
58.35294232488315
 20
18.1138336639562
 30
0.0
 10
57.27044232488315
 20
18.27583366395618
 30
0.0
 10
56.93154232488318
 20
18.32583366395619
 30
0.0
 10
56.59664232488315
 20
18.3948336639562
 30
0.0
 10
56.26564232488315
 20
18.48483366395618
 30
0.0
 10
56.00104232488316
 20
18.55683366395618
 30
0.0
 10
55.74034232488315
 20
18.64383366395617
 30
0.0
 10
55.49614232488316
 20
18.76783366395619
 30
0.0
  0
SPLINE
  5
AEB
330
A02
100
AcDbEntity
  8
0
100
AcDbSpline
210
0.0
220
0.0
230
1.0
 70
     8
 71
     3
 72
    14
 73
    10
 74
     0
 42
0.0000000001
 43
0.0000000001
 40
0.0
 40
0.0
 40
0.0
 40
0.0
 40
3.28398
 40
3.28398
 40
3.28398
 40
4.310219999999998
 40
4.310219999999998
 40
4.310219999999998
 40
5.131269999999997
 40
5.131269999999997
 40
5.131269999999997
 40
5.131269999999997
 10
36.16594232488316
 20
0.7818336639560926
 30
0.0
 10
35.48564232488317
 20
1.634833663956214
 30
0.0
 10
34.86424232488317
 20
2.553833663956196
 30
0.0
 10
34.40784232488316
 20
3.548833663956201
 30
0.0
 10
34.26394232488317
 20
3.85983366395618
 30
0.0
 10
34.13894232488317
 20
4.177833663956221
 30
0.0
 10
34.03274232488318
 20
4.503833663956187
 30
0.0
 10
33.94844232488317
 20
4.76483366395621
 30
0.0
 10
33.87884232488318
 20
5.030833663956173
 30
0.0
 10
33.84934232488317
 20
5.302833663956222
 30
0.0
  0
SPLINE
  5
AEC
330
A02
100
AcDbEntity
  8
0
100
AcDbSpline
210
0.0
220
0.0
230
1.0
 70
    24
 71
     1
 72
     4
 73
     2
 74
     0
 42
0.0000000001
 43
0.0000000001
 40
0.0
 40
0.0
 40
2.065329999999998
 40
2.065329999999998
 10
61.39154232488316
 20
20.11983366395629
 30
0.0
 10
60.54804232488315
 20
18.23483366395618
 30
0.0
  0
SPLINE
  5
AED
330
A02
100
AcDbEntity
  8
0
100
AcDbSpline
210
0.0
220
0.0
230
1.0
 70
     8
 71
     2
 72
     6
 73
     3
 74
     0
 42
0.0000000001
 43
0.0000000001
 40
0.0
 40
0.0
 40
0.0
 40
2.32865
 40
2.32865
 40
2.32865
 10
33.84934232488317
 20
5.302833663956222
 30
0.0
 10
34.11134232488317
 20
6.941833663956173
 30
0.0
 10
32.91104232488316
 20
7.294833663956183
 30
0.0
  0
SPLINE
  5
AEE
330
A02
100
AcDbEntity
  8
0
100
AcDbSpline
210
0.0
220
0.0
230
1.0
 70
     8
 71
     3
 72
    14
 73
    10
 74
     0
 42
0.0000000001
 43
0.0000000001
 40
0.0
 40
0.0
 40
0.0
 40
0.0
 40
0.821049
 40
0.821049
 40
0.821049
 40
1.847299999999999
 40
1.847299999999999
 40
1.847299999999999
 40
5.131269999999997
 40
5.131269999999997
 40
5.131269999999997
 40
5.131269999999997
 10
57.62734232488316
 20
23.53183366395609
 30
0.0
 10
57.88274232488316
 20
23.43183366395618
 30
0.0
 10
58.12154232488317
 20
23.29583366395622
 30
0.0
 10
58.35154232488315
 20
23.1468336639561
 30
0.0
 10
58.63884232488317
 20
22.95983366395621
 30
0.0
 10
58.91384232488316
 20
22.7558336639562
 30
0.0
 10
59.17664232488315
 20
22.5368336639562
 30
0.0
 10
60.01884232488317
 20
21.83683366395616
 30
0.0
 10
60.74504232488314
 20
20.99883366395619
 30
0.0
 10
61.39154232488316
 20
20.11983366395629
 30
0.0
  0
SPLINE
  5
AEF
330
A02
100
AcDbEntity
  8
0
100
AcDbSpline
210
0.0
220
0.0
230
1.0
 70
    24
 71
     1
 72
     4
 73
     2
 74
     0
 42
0.0000000001
 43
0.0000000001
 40
0.0
 40
0.0
 40
1.7214
 40
1.7214
 10
32.91104232488316
 20
7.294833663956183
 30
0.0
 10
31.18974232488317
 20
7.307833663956215
 30
0.0
  0
SPLINE
  5
AF0
330
A02
100
AcDbEntity
  8
0
100
AcDbSpline
210
0.0
220
0.0
230
1.0
 70
     8
 71
     2
 72
     6
 73
     3
 74
     0
 42
0.0000000001
 43
0.0000000001
 40
0.0
 40
0.0
 40
0.0
 40
2.32865
 40
2.32865
 40
2.32865
 10
55.94764232488316
 20
24.95483366395621
 30
0.0
 10
55.97704232488317
 20
23.70383366395618
 30
0.0
 10
57.62734232488316
 20
23.53183366395609
 30
0.0
  0
SPLINE
  5
AF1
330
A02
100
AcDbEntity
  8
0
100
AcDbSpline
210
0.0
220
0.0
230
1.0
 70
     8
 71
     2
 72
     6
 73
     3
 74
     0
 42
0.0000000001
 43
0.0000000001
 40
0.0
 40
0.0
 40
0.0
 40
2.32865
 40
2.32865
 40
2.32865
 10
31.18974232488317
 20
7.307833663956215
 30
0.0
 10
29.98434232488317
 20
6.971833663956202
 30
0.0
 10
30.22234232488317
 20
5.329833663956208
 30
0.0
  0
SPLINE
  5
AF2
330
A02
100
AcDbEntity
  8
0
100
AcDbSpline
210
0.0
220
0.0
230
1.0
 70
    24
 71
     1
 72
     4
 73
     2
 74
     0
 42
0.0000000001
 43
0.0000000001
 40
0.0
 40
0.0
 40
1.7214
 40
1.7214
 10
56.38244232488315
 20
26.61983366395629
 30
0.0
 10
55.94764232488316
 20
24.95483366395621
 30
0.0
  0
SPLINE
  5
AF3
330
A02
100
AcDbEntity
  8
0
100
AcDbSpline
210
0.0
220
0.0
230
1.0
 70
     8
 71
     3
 72
    14
 73
    10
 74
     0
 42
0.0000000001
 43
0.0000000001
 40
0.0
 40
0.0
 40
0.0
 40
0.0
 40
0.821049
 40
0.821049
 40
0.821049
 40
1.847299999999999
 40
1.847299999999999
 40
1.847299999999999
 40
5.131269999999997
 40
5.131269999999997
 40
5.131269999999997
 40
5.131269999999997
 10
30.22234232488317
 20
5.329833663956208
 30
0.0
 10
30.18884232488316
 20
5.057833663956215
 30
0.0
 10
30.11534232488317
 20
4.792833663956173
 30
0.0
 10
30.02714232488317
 20
4.533833663956158
 30
0.0
 10
29.91614232488317
 20
4.20883366395617
 30
0.0
 10
29.78644232488317
 20
3.892833663956196
 30
0.0
 10
29.63804232488316
 20
3.583833663956169
 30
0.0
 10
29.16704232488316
 20
2.595833663956169
 30
0.0
 10
28.53224232488317
 20
1.685833663956201
 30
0.0
 10
27.83944232488317
 20
0.8438336639561612
 30
0.0
  0
SPLINE
  5
AF4
330
A02
100
AcDbEntity
  8
0
100
AcDbSpline
210
0.0
220
0.0
230
1.0
 70
     8
 71
     2
 72
     6
 73
     3
 74
     0
 42
0.0000000001
 43
0.0000000001
 40
0.0
 40
0.0
 40
0.0
 40
2.32865
 40
2.32865
 40
2.32865
 10
58.54354232488315
 20
27.04083366395617
 30
0.0
 10
57.01964232488315
 20
27.69683366395617
 30
0.0
 10
56.38244232488315
 20
26.61983366395629
 30
0.0
  0
SPLINE
  5
AF5
330
A02
100
AcDbEntity
  8
0
100
AcDbSpline
210
0.0
220
0.0
230
1.0
 70
    24
 71
     1
 72
     4
 73
     2
 74
     0
 42
0.0000000001
 43
0.0000000001
 40
0.0
 40
0.0
 40
2.065329999999998
 40
2.065329999999998
 10
27.83944232488317
 20
0.8438336639561612
 30
0.0
 10
25.80484232488317
 20
1.198833663956178
 30
0.0
  0
SPLINE
  5
AF6
330
A02
100
AcDbEntity
  8
0
100
AcDbSpline
210
0.0
220
0.0
230
1.0
 70
     8
 71
     3
 72
    14
 73
    10
 74
     0
 42
0.0000000001
 43
0.0000000001
 40
0.0
 40
0.0
 40
0.0
 40
0.0
 40
3.28398
 40
3.28398
 40
3.28398
 40
4.310219999999998
 40
4.310219999999998
 40
4.310219999999998
 40
5.131269999999997
 40
5.131269999999997
 40
5.131269999999997
 40
5.131269999999997
 10
63.49494232488314
 20
28.17683366395619
 30
0.0
 10
62.50154232488317
 20
27.7268336639562
 30
0.0
 10
61.45794232488317
 20
27.34983366395619
 30
0.0
 10
60.38154232488317
 20
27.15183366395616
 30
0.0
 10
60.04494232488315
 20
27.08883366395617
 30
0.0
 10
59.70554232488314
 20
27.04583366395622
 30
0.0
 10
59.36344232488315
 20
27.02283366395619
 30
0.0
 10
59.08984232488315
 20
27.00483366395622
 30
0.0
 10
58.81494232488314
 20
27.00283366395622
 30
0.0
 10
58.54354232488315
 20
27.04083366395617
 30
0.0
  0
SPLINE
  5
AF7
330
A02
100
AcDbEntity
  8
0
100
AcDbSpline
210
0.0
220
0.0
230
1.0
 70
     8
 71
     3
 72
    14
 73
    10
 74
     0
 42
0.0000000001
 43
0.0000000001
 40
0.0
 40
0.0
 40
0.0
 40
0.0
 40
3.28398
 40
3.28398
 40
3.28398
 40
4.310219999999998
 40
4.310219999999998
 40
4.310219999999998
 40
5.131269999999997
 40
5.131269999999997
 40
5.131269999999997
 40
5.131269999999997
 10
25.80484232488317
 20
1.198833663956178
 30
0.0
 10
25.43814232488316
 20
2.225833663956165
 30
0.0
 10
25.14884232488317
 20
3.296833663956192
 30
0.0
 10
25.04024232488316
 20
4.385833663956191
 30
0.0
 10
25.00504232488317
 20
4.726833663956199
 30
0.0
 10
24.99024232488317
 20
5.067833663956206
 30
0.0
 10
24.99564232488316
 20
5.410833663956167
 30
0.0
 10
25.00064232488317
 20
5.684833663956226
 30
0.0
 10
25.02114232488317
 20
5.95883366395617
 30
0.0
 10
25.08174232488317
 20
6.226833663956198
 30
0.0
  0
SPLINE
  5
AF8
330
A02
100
AcDbEntity
  8
0
100
AcDbSpline
210
0.0
220
0.0
230
1.0
 70
    24
 71
     1
 72
     4
 73
     2
 74
     0
 42
0.0000000001
 43
0.0000000001
 40
0.0
 40
0.0
 40
2.065329999999998
 40
2.065329999999998
 10
63.68054232488315
 20
30.2338336639562
 30
0.0
 10
63.49494232488314
 20
28.17683366395619
 30
0.0
  0
SPLINE
  5
AF9
330
A02
100
AcDbEntity
  8
0
100
AcDbSpline
210
0.0
220
0.0
230
1.0
 70
     8
 71
     2
 72
     6
 73
     3
 74
     0
 42
0.0000000001
 43
0.0000000001
 40
0.0
 40
0.0
 40
0.0
 40
2.32865
 40
2.32865
 40
2.32865
 10
25.08174232488317
 20
6.226833663956198
 30
0.0
 10
25.86154232488317
 20
7.690833663956197
 30
0.0
 10
24.84104232488317
 20
8.414833663956187
 30
0.0
  0
SPLINE
  5
AFA
330
A02
100
AcDbEntity
  8
0
100
AcDbSpline
210
0.0
220
0.0
230
1.0
 70
     8
 71
     3
 72
    14
 73
    10
 74
     0
 42
0.0000000001
 43
0.0000000001
 40
0.0
 40
0.0
 40
0.0
 40
0.0
 40
0.821049
 40
0.821049
 40
0.821049
 40
1.847299999999999
 40
1.847299999999999
 40
1.847299999999999
 40
5.131269999999997
 40
5.131269999999997
 40
5.131269999999997
 40
5.131269999999997
 10
59.01264232488315
 20
32.23783366395622
 30
0.0
 10
59.28654232488316
 20
32.2268336639562
 30
0.0
 10
59.55654232488317
 20
32.17583366395621
 30
0.0
 10
59.82254232488315
 20
32.1088336639562
 30
0.0
 10
60.15504232488314
 20
32.02583366395618
 30
0.0
 10
60.48124232488316
 20
31.92283366395623
 30
0.0
 10
60.80114232488316
 20
31.79983366395618
 30
0.0
 10
61.82464232488317
 20
31.4118336639562
 30
0.0
 10
62.78384232488317
 20
30.85483366395619
 30
0.0
 10
63.68054232488315
 20
30.2338336639562
 30
0.0
  0
SPLINE
  5
AFB
330
A02
100
AcDbEntity
  8
0
100
AcDbSpline
210
0.0
220
0.0
230
1.0
 70
    24
 71
     1
 72
     4
 73
     2
 74
     0
 42
0.0000000001
 43
0.0000000001
 40
0.0
 40
0.0
 40
1.7214
 40
1.7214
 10
24.84104232488317
 20
8.414833663956187
 30
0.0
 10
23.21704232488317
 20
8.985833663956212
 30
0.0
  0
SPLINE
  5
AFC
330
A02
100
AcDbEntity
  8
0
100
AcDbSpline
210
0.0
220
0.0
230
1.0
 70
     8
 71
     2
 72
     6
 73
     3
 74
     0
 42
0.0000000001
 43
0.0000000001
 40
0.0
 40
0.0
 40
0.0
 40
2.32865
 40
2.32865
 40
2.32865
 10
56.96184232488317
 20
33.03883366395621
 30
0.0
 10
57.39584232488315
 20
31.86483366395624
 30
0.0
 10
59.01264232488315
 20
32.23783366395622
 30
0.0
  0
SPLINE
  5
AFD
330
A02
100
AcDbEntity
  8
0
100
AcDbSpline
210
0.0
220
0.0
230
1.0
 70
     8
 71
     2
 72
     6
 73
     3
 74
     0
 42
0.0000000001
 43
0.0000000001
 40
0.0
 40
0.0
 40
0.0
 40
2.32865
 40
2.32865
 40
2.32865
 10
23.21704232488317
 20
8.985833663956212
 30
0.0
 10
21.96794232488317
 20
9.059833663956226
 30
0.0
 10
21.65984232488316
 20
7.429833663956286
 30
0.0
  0
SPLINE
  5
AFE
330
A02
100
AcDbEntity
  8
0
100
AcDbSpline
210
0.0
220
0.0
230
1.0
 70
    24
 71
     1
 72
     4
 73
     2
 74
     0
 42
0.0000000001
 43
0.0000000001
 40
0.0
 40
0.0
 40
1.7214
 40
1.7214
 10
56.83224232488317
 20
34.75483366395622
 30
0.0
 10
56.96184232488317
 20
33.03883366395621
 30
0.0
  0
SPLINE
  5
AFF
330
A02
100
AcDbEntity
  8
0
100
AcDbSpline
210
0.0
220
0.0
230
1.0
 70
     8
 71
     3
 72
    14
 73
    10
 74
     0
 42
0.0000000001
 43
0.0000000001
 40
0.0
 40
0.0
 40
0.0
 40
0.0
 40
0.821049
 40
0.821049
 40
0.821049
 40
1.847299999999999
 40
1.847299999999999
 40
1.847299999999999
 40
5.131269999999997
 40
5.131269999999997
 40
5.131269999999997
 40
5.131269999999997
 10
21.65984232488316
 20
7.429833663956286
 30
0.0
 10
21.53984232488316
 20
7.182833663956215
 30
0.0
 10
21.38434232488316
 20
6.95683366395616
 30
0.0
 10
21.21664232488317
 20
6.739833663956232
 30
0.0
 10
21.00634232488316
 20
6.46883366395616
 30
0.0
 10
20.78094232488316
 20
6.211833663956156
 30
0.0
 10
20.54034232488318
 20
5.967833663956183
 30
0.0
 10
19.77404232488316
 20
5.185833663956202
 30
0.0
 10
18.87814232488316
 20
4.531833663956091
 30
0.0
 10
17.94934232488316
 20
3.959833663956203
 30
0.0
  0
SPLINE
  5
B00
330
A02
100
AcDbEntity
  8
0
100
AcDbSpline
210
0.0
220
0.0
230
1.0
 70
     8
 71
     2
 72
     6
 73
     3
 74
     0
 42
0.0000000001
 43
0.0000000001
 40
0.0
 40
0.0
 40
0.0
 40
2.32865
 40
2.32865
 40
2.32865
 10
58.73964232488315
 20
35.8548336639562
 30
0.0
 10
57.08524232488315
 20
35.98083366395633
 30
0.0
 10
56.83224232488317
 20
34.75483366395622
 30
0.0
  0
SPLINE
  5
B01
330
A02
100
AcDbEntity
  8
0
100
AcDbSpline
210
0.0
220
0.0
230
1.0
 70
    24
 71
     1
 72
     4
 73
     2
 74
     0
 42
0.0000000001
 43
0.0000000001
 40
0.0
 40
0.0
 40
2.065329999999998
 40
2.065329999999998
 10
17.94934232488316
 20
3.959833663956203
 30
0.0
 10
16.14024232488316
 20
4.955833663956183
 30
0.0
  0
SPLINE
  5
B02
330
A02
100
AcDbEntity
  8
0
100
AcDbSpline
210
0.0
220
0.0
230
1.0
 70
     8
 71
     3
 72
    14
 73
    10
 74
     0
 42
0.0000000001
 43
0.0000000001
 40
0.0
 40
0.0
 40
0.0
 40
0.0
 40
3.28398
 40
3.28398
 40
3.28398
 40
4.310219999999998
 40
4.310219999999998
 40
4.310219999999998
 40
5.131269999999997
 40
5.131269999999997
 40
5.131269999999997
 40
5.131269999999997
 10
63.05394232488318
 20
38.5368336639562
 30
0.0
 10
62.26064232488314
 20
37.78883366395621
 30
0.0
 10
61.39594232488317
 20
37.09283366395619
 30
0.0
 10
60.44214232488315
 20
36.55583366395621
 30
0.0
 10
60.14434232488316
 20
36.38683366395617
 30
0.0
 10
59.83734232488315
 20
36.23683366395619
 30
0.0
 10
59.52114232488316
 20
36.10383366395622
 30
0.0
 10
59.26814232488315
 20
35.99783366395616
 30
0.0
 10
59.00884232488316
 20
35.90683366395615
 30
0.0
 10
58.73964232488315
 20
35.8548336639562
 30
0.0
  0
SPLINE
  5
B03
330
A02
100
AcDbEntity
  8
0
100
AcDbSpline
210
0.0
220
0.0
230
1.0
 70
     8
 71
     3
 72
    14
 73
    10
 74
     0
 42
0.0000000001
 43
0.0000000001
 40
0.0
 40
0.0
 40
0.0
 40
0.0
 40
3.28398
 40
3.28398
 40
3.28398
 40
4.310219999999998
 40
4.310219999999998
 40
4.310219999999998
 40
5.131269999999997
 40
5.131269999999997
 40
5.131269999999997
 40
5.131269999999997
 10
16.14024232488316
 20
4.955833663956183
 30
0.0
 10
16.12694232488316
 20
6.046833663956192
 30
0.0
 10
16.20114232488316
 20
7.153833663956161
 30
0.0
 10
16.45204232488316
 20
8.218833663956161
 30
0.0
 10
16.52934232488316
 20
8.552833663956221
 30
0.0
 10
16.62634232488316
 20
8.880833663956195
 30
0.0
 10
16.74274232488316
 20
9.203833663956173
 30
0.0
 10
16.83644232488316
 20
9.460833663956179
 30
0.0
 10
16.94484232488316
 20
9.713833663956163
 30
0.0
 10
17.08894232488316
 20
9.946833663956168
 30
0.0
  0
SPLINE
  5
B04
330
A02
100
AcDbEntity
  8
0
100
AcDbSpline
210
0.0
220
0.0
230
1.0
 70
    24
 71
     1
 72
     4
 73
     2
 74
     0
 42
0.0000000001
 43
0.0000000001
 40
0.0
 40
0.0
 40
2.065329999999998
 40
2.065329999999998
 10
62.56164232488315
 20
40.54283366395617
 30
0.0
 10
63.05394232488318
 20
38.5368336639562
 30
0.0
  0
SPLINE
  5
B05
330
A02
100
AcDbEntity
  8
0
100
AcDbSpline
210
0.0
220
0.0
230
1.0
 70
     8
 71
     2
 72
     6
 73
     3
 74
     0
 42
0.0000000001
 43
0.0000000001
 40
0.0
 40
0.0
 40
0.0
 40
2.32865
 40
2.32865
 40
2.32865
 10
17.08894232488316
 20
9.946833663956168
 30
0.0
 10
18.30204232488316
 20
11.07883366395617
 30
0.0
 10
17.57184232488316
 20
12.09483366395619
 30
0.0
  0
SPLINE
  5
B06
330
A02
100
AcDbEntity
  8
0
100
AcDbSpline
210
0.0
220
0.0
230
1.0
 70
     8
 71
     3
 72
    14
 73
    10
 74
     0
 42
0.0000000001
 43
0.0000000001
 40
0.0
 40
0.0
 40
0.0
 40
0.0
 40
0.821049
 40
0.821049
 40
0.821049
 40
1.847299999999999
 40
1.847299999999999
 40
1.847299999999999
 40
5.131269999999997
 40
5.131269999999997
 40
5.131269999999997
 40
5.131269999999997
 10
57.49594232488315
 20
40.92283366395617
 30
0.0
 10
57.75844232488315
 20
41.0008336639562
 30
0.0
 10
58.03054232488316
 20
41.04083366395616
 30
0.0
 10
58.30374232488317
 20
41.06383366395625
 30
0.0
 10
58.64544232488317
 20
41.09283366395618
 30
0.0
 10
58.98744232488315
 20
41.10083366395616
 30
0.0
 10
59.32974232488316
 20
41.08883366395621
 30
0.0
 10
60.42374232488317
 20
41.05483366395623
 30
0.0
 10
61.51194232488315
 20
40.83883366395621
 30
0.0
 10
62.56164232488315
 20
40.54283366395617
 30
0.0
  0
SPLINE
  5
B07
330
A02
100
AcDbEntity
  8
0
100
AcDbSpline
210
0.0
220
0.0
230
1.0
 70
    24
 71
     1
 72
     4
 73
     2
 74
     0
 42
0.0000000001
 43
0.0000000001
 40
0.0
 40
0.0
 40
1.7214
 40
1.7214
 10
17.57184232488316
 20
12.09483366395619
 30
0.0
 10
16.22124232488316
 20
13.1618336639562
 30
0.0
  0
SPLINE
  5
B08
330
A02
100
AcDbEntity
  8
0
100
AcDbSpline
210
0.0
220
0.0
230
1.0
 70
     8
 71
     2
 72
     6
 73
     3
 74
     0
 42
0.0000000001
 43
0.0000000001
 40
0.0
 40
0.0
 40
0.0
 40
2.32865
 40
2.32865
 40
2.32865
 10
55.29614232488317
 20
41.01383366395622
 30
0.0
 10
56.08774232488316
 20
40.04483366395618
 30
0.0
 10
57.49594232488315
 20
40.92283366395617
 30
0.0
  0
SPLINE
  5
B09
330
A02
100
AcDbEntity
  8
0
100
AcDbSpline
210
0.0
220
0.0
230
1.0
 70
     8
 71
     2
 72
     6
 73
     3
 74
     0
 42
0.0000000001
 43
0.0000000001
 40
0.0
 40
0.0
 40
0.0
 40
2.32865
 40
2.32865
 40
2.32865
 10
16.22124232488316
 20
13.1618336639562
 30
0.0
 10
15.06394232488316
 20
13.6378336639562
 30
0.0
 10
14.24314232488316
 20
12.19583366395619
 30
0.0
  0
SPLINE
  5
B0A
330
A02
100
AcDbEntity
  8
0
100
AcDbSpline
210
0.0
220
0.0
230
1.0
 70
    24
 71
     1
 72
     4
 73
     2
 74
     0
 42
0.0000000001
 43
0.0000000001
 40
0.0
 40
0.0
 40
1.7214
 40
1.7214
 10
54.61634232488315
 20
42.59583366395617
 30
0.0
 10
55.29614232488317
 20
41.01383366395622
 30
0.0
  0
SPLINE
  5
B0B
330
A02
100
AcDbEntity
  8
0
100
AcDbSpline
210
0.0
220
0.0
230
1.0
 70
     8
 71
     3
 72
    14
 73
    10
 74
     0
 42
0.0000000001
 43
0.0000000001
 40
0.0
 40
0.0
 40
0.0
 40
0.0
 40
0.821049
 40
0.821049
 40
0.821049
 40
1.847299999999999
 40
1.847299999999999
 40
1.847299999999999
 40
5.131269999999997
 40
5.131269999999997
 40
5.131269999999997
 40
5.131269999999997
 10
14.24314232488316
 20
12.19583366395619
 30
0.0
 10
14.04964232488316
 20
12.00183366395618
 30
0.0
 10
13.82884232488316
 20
11.83783366395619
 30
0.0
 10
13.59984232488316
 20
11.68683366395618
 30
0.0
 10
13.31304232488316
 20
11.49883366395619
 30
0.0
 10
13.01624232488316
 20
11.32883366395617
 30
0.0
 10
12.70954232488316
 20
11.17683366395619
 30
0.0
 10
11.73094232488316
 20
10.6858336639562
 30
0.0
 10
10.67114232488316
 20
10.35783366395617
 30
0.0
 10
9.607042324883163
 20
10.11883366395619
 30
0.0
  0
SPLINE
  5
B0C
330
A02
100
AcDbEntity
  8
0
100
AcDbSpline
210
0.0
220
0.0
230
1.0
 70
     8
 71
     2
 72
     6
 73
     3
 74
     0
 42
0.0000000001
 43
0.0000000001
 40
0.0
 40
0.0
 40
0.0
 40
2.32865
 40
2.32865
 40
2.32865
 10
56.06334232488316
 20
44.25483366395622
 30
0.0
 10
54.45764232488317
 20
43.83683366395614
 30
0.0
 10
54.61634232488315
 20
42.59583366395617
 30
0.0
  0
SPLINE
  5
B0D
330
A02
100
AcDbEntity
  8
0
100
AcDbSpline
210
0.0
220
0.0
230
1.0
 70
    24
 71
     1
 72
     4
 73
     2
 74
     0
 42
0.0000000001
 43
0.0000000001
 40
0.0
 40
0.0
 40
2.065329999999998
 40
2.065329999999998
 10
9.607042324883163
 20
10.11883366395619
 30
0.0
 10
8.219442324883161
 20
11.64883366395617
 30
0.0
  0
SPLINE
  5
B0E
330
A02
100
AcDbEntity
  8
0
100
AcDbSpline
210
0.0
220
0.0
230
1.0
 70
     8
 71
     3
 72
    14
 73
    10
 74
     0
 42
0.0000000001
 43
0.0000000001
 40
0.0
 40
0.0
 40
0.0
 40
0.0
 40
3.28398
 40
3.28398
 40
3.28398
 40
4.310219999999998
 40
4.310219999999998
 40
4.310219999999998
 40
5.131269999999997
 40
5.131269999999997
 40
5.131269999999997
 40
5.131269999999997
 10
59.27304232488316
 20
48.19283366395609
 30
0.0
 10
58.76564232488315
 20
47.2268336639562
 30
0.0
 10
58.17354232488316
 20
46.28883366395621
 30
0.0
 10
57.44584232488318
 20
45.47083366395617
 30
0.0
 10
57.21894232488317
 20
45.2148336639562
 30
0.0
 10
56.97764232488315
 20
44.9718336639562
 30
0.0
 10
56.72164232488317
 20
44.7438336639562
 30
0.0
 10
56.51664232488315
 20
44.56183366395618
 30
0.0
 10
56.30104232488315
 20
44.39183366395615
 30
0.0
 10
56.06334232488316
 20
44.25483366395622
 30
0.0
  0
SPLINE
  5
B0F
330
A02
100
AcDbEntity
  8
0
100
AcDbSpline
210
0.0
220
0.0
230
1.0
 70
     8
 71
     3
 72
    14
 73
    10
 74
     0
 42
0.0000000001
 43
0.0000000001
 40
0.0
 40
0.0
 40
0.0
 40
0.0
 40
3.28398
 40
3.28398
 40
3.28398
 40
4.310219999999998
 40
4.310219999999998
 40
4.310219999999998
 40
5.131269999999997
 40
5.131269999999997
 40
5.131269999999997
 40
5.131269999999997
 10
8.219442324883161
 20
11.64883366395617
 30
0.0
 10
8.560992324883164
 20
12.68383366395619
 30
0.0
 10
8.990572324883164
 20
13.70683366395616
 30
0.0
 10
9.573842324883164
 20
14.63383366395618
 30
0.0
 10
9.755342324883164
 20
14.9238336639562
 30
0.0
 10
9.953542324883164
 20
15.2028336639562
 30
0.0
 10
10.16834232488316
 20
15.46983366395619
 30
0.0
 10
10.34064232488316
 20
15.68283366395621
 30
0.0
 10
10.52524232488316
 20
15.88683366395617
 30
0.0
 10
10.73724232488316
 20
16.0608336639562
 30
0.0
  0
SPLINE
  5
B10
330
A02
100
AcDbEntity
  8
0
100
AcDbSpline
210
0.0
220
0.0
230
1.0
 70
    24
 71
     1
 72
     4
 73
     2
 74
     0
 42
0.0000000001
 43
0.0000000001
 40
0.0
 40
0.0
 40
2.065329999999998
 40
2.065329999999998
 10
58.15614232488314
 20
49.92983366395622
 30
0.0
 10
59.27304232488316
 20
48.19283366395609
 30
0.0
  0
SPLINE
  5
B11
330
A02
100
AcDbEntity
  8
0
100
AcDbSpline
210
0.0
220
0.0
230
1.0
 70
     8
 71
     2
 72
     6
 73
     3
 74
     0
 42
0.0000000001
 43
0.0000000001
 40
0.0
 40
0.0
 40
0.0
 40
2.32865
 40
2.32865
 40
2.32865
 10
10.73724232488316
 20
16.0608336639562
 30
0.0
 10
12.25214232488316
 20
16.73683366395619
 30
0.0
 10
11.89144232488316
 20
17.9358336639562
 30
0.0
  0
SPLINE
  5
B12
330
A02
100
AcDbEntity
  8
0
100
AcDbSpline
210
0.0
220
0.0
230
1.0
 70
     8
 71
     3
 72
    14
 73
    10
 74
     0
 42
0.0000000001
 43
0.0000000001
 40
0.0
 40
0.0
 40
0.0
 40
0.0
 40
0.821049
 40
0.821049
 40
0.821049
 40
1.847299999999999
 40
1.847299999999999
 40
1.847299999999999
 40
5.131269999999997
 40
5.131269999999997
 40
5.131269999999997
 40
5.131269999999997
 10
53.24144232488317
 20
48.64383366395628
 30
0.0
 10
53.46424232488317
 20
48.80383366395618
 30
0.0
 10
53.70894232488318
 20
48.92883366395619
 30
0.0
 10
53.95964232488315
 20
49.03983366395618
 30
0.0
 10
54.27354232488315
 20
49.17783366395616
 30
0.0
 10
54.59424232488315
 20
49.29683366395618
 30
0.0
 10
54.92184232488316
 20
49.39683366395616
 30
0.0
 10
55.96774232488314
 20
49.71983366395619
 30
0.0
 10
57.06714232488316
 20
49.8688336639562
 30
0.0
 10
58.15614232488314
 20
49.92983366395622
 30
0.0
  0
SPLINE
  5
B13
330
A02
100
AcDbEntity
  8
0
100
AcDbSpline
210
0.0
220
0.0
230
1.0
 70
    24
 71
     1
 72
     4
 73
     2
 74
     0
 42
0.0000000001
 43
0.0000000001
 40
0.0
 40
0.0
 40
1.7214
 40
1.7214
 10
11.89144232488316
 20
17.9358336639562
 30
0.0
 10
10.96054232488316
 20
19.38383366395617
 30
0.0
  0
SPLINE
  5
B14
330
A02
100
AcDbEntity
  8
0
100
AcDbSpline
210
0.0
220
0.0
230
1.0
 70
     8
 71
     2
 72
     6
 73
     3
 74
     0
 42
0.0000000001
 43
0.0000000001
 40
0.0
 40
0.0
 40
0.0
 40
2.32865
 40
2.32865
 40
2.32865
 10
51.13124232488317
 20
48.01683366395615
 30
0.0
 10
52.19454232488317
 20
47.35683366395618
 30
0.0
 10
53.24144232488317
 20
48.64383366395628
 30
0.0
  0
SPLINE
  5
B15
330
A02
100
AcDbEntity
  8
0
100
AcDbSpline
210
0.0
220
0.0
230
1.0
 70
     8
 71
     2
 72
     6
 73
     3
 74
     0
 42
0.0000000001
 43
0.0000000001
 40
0.0
 40
0.0
 40
0.0
 40
2.32865
 40
2.32865
 40
2.32865
 10
10.96054232488316
 20
19.38383366395617
 30
0.0
 10
10.02024232488316
 20
20.20883366395617
 30
0.0
 10
8.775742324883164
 20
19.11183366395619
 30
0.0
  0
SPLINE
  5
B16
330
A02
100
AcDbEntity
  8
0
100
AcDbSpline
210
0.0
220
0.0
230
1.0
 70
    24
 71
     1
 72
     4
 73
     2
 74
     0
 42
0.0000000001
 43
0.0000000001
 40
0.0
 40
0.0
 40
1.7214
 40
1.7214
 10
49.97464232488315
 20
49.29183366395618
 30
0.0
 10
51.13124232488317
 20
48.01683366395615
 30
0.0
  0
SPLINE
  5
B17
330
A02
100
AcDbEntity
  8
0
100
AcDbSpline
210
0.0
220
0.0
230
1.0
 70
     8
 71
     3
 72
    14
 73
    10
 74
     0
 42
0.0000000001
 43
0.0000000001
 40
0.0
 40
0.0
 40
0.0
 40
0.0
 40
0.821049
 40
0.821049
 40
0.821049
 40
1.847299999999999
 40
1.847299999999999
 40
1.847299999999999
 40
5.131269999999997
 40
5.131269999999997
 40
5.131269999999997
 40
5.131269999999997
 10
8.775742324883164
 20
19.11183366395619
 30
0.0
 10
8.529692324883161
 20
18.99083366395621
 30
0.0
 10
8.267712324883165
 20
18.90783366395618
 30
0.0
 10
8.002152324883166
 20
18.83883366395616
 30
0.0
 10
7.669852324883166
 20
18.75483366395622
 30
0.0
 10
7.333912324883161
 20
18.68983366395622
 30
0.0
 10
6.994342324883161
 20
18.64583366395618
 30
0.0
 10
5.909582324883165
 20
18.49983366395622
 30
0.0
 10
4.800612324883164
 20
18.53283366395618
 30
0.0
 10
3.716502324883164
 20
18.65283366395619
 30
0.0
  0
SPLINE
  5
B18
330
A02
100
AcDbEntity
  8
0
100
AcDbSpline
210
0.0
220
0.0
230
1.0
 70
     8
 71
     2
 72
     6
 73
     3
 74
     0
 42
0.0000000001
 43
0.0000000001
 40
0.0
 40
0.0
 40
0.0
 40
2.32865
 40
2.32865
 40
2.32865
 10
50.80454232488317
 20
51.33083366395618
 30
0.0
 10
49.42164232488316
 20
50.41383366395621
 30
0.0
 10
49.97464232488315
 20
49.29183366395618
 30
0.0
  0
SPLINE
  5
B19
330
A02
100
AcDbEntity
  8
0
100
AcDbSpline
210
0.0
220
0.0
230
1.0
 70
    24
 71
     1
 72
     4
 73
     2
 74
     0
 42
0.0000000001
 43
0.0000000001
 40
0.0
 40
0.0
 40
2.065329999999998
 40
2.065329999999998
 10
3.716502324883164
 20
18.65283366395619
 30
0.0
 10
2.900792324883163
 20
20.54983366395618
 30
0.0
  0
SPLINE
  5
B1A
330
A02
100
AcDbEntity
  8
0
100
AcDbSpline
210
0.0
220
0.0
230
1.0
 70
     8
 71
     3
 72
    14
 73
    10
 74
     0
 42
0.0000000001
 43
0.0000000001
 40
0.0
 40
0.0
 40
0.0
 40
0.0
 40
3.28398
 40
3.28398
 40
3.28398
 40
4.310219999999998
 40
4.310219999999998
 40
4.310219999999998
 40
5.131269999999997
 40
5.131269999999997
 40
5.131269999999997
 40
5.131269999999997
 10
52.56174232488316
 20
56.0968336639562
 30
0.0
 10
52.39534232488317
 20
55.01883366395622
 30
0.0
 10
52.14004232488315
 20
53.93983366395622
 30
0.0
 10
51.71714232488316
 20
52.92983366395622
 30
0.0
 10
51.58594232488315
 20
52.61383366395619
 30
0.0
 10
51.43634232488317
 20
52.3058336639562
 30
0.0
 10
51.26844232488317
 20
52.00683366395617
 30
0.0
 10
51.13354232488315
 20
51.76883366395628
 30
0.0
 10
50.98504232488315
 20
51.5368336639562
 30
0.0
 10
50.80454232488317
 20
51.33083366395618
 30
0.0
  0
SPLINE
  5
B1B
330
A02
100
AcDbEntity
  8
0
100
AcDbSpline
210
0.0
220
0.0
230
1.0
 70
     8
 71
     3
 72
    14
 73
    10
 74
     0
 42
0.0000000001
 43
0.0000000001
 40
0.0
 40
0.0
 40
0.0
 40
0.0
 40
3.28398
 40
3.28398
 40
3.28398
 40
4.310219999999998
 40
4.310219999999998
 40
4.310219999999998
 40
5.131269999999997
 40
5.131269999999997
 40
5.131269999999997
 40
5.131269999999997
 10
2.900792324883163
 20
20.54983366395618
 30
0.0
 10
3.560152324883163
 20
21.41883366395621
 30
0.0
 10
4.298602324883162
 20
22.24683366395618
 30
0.0
 10
5.150992324883164
 20
22.9338336639562
 30
0.0
 10
5.416972324883165
 20
23.14883366395617
 30
0.0
 10
5.694952324883161
 20
23.34883366395616
 30
0.0
 10
5.984932324883165
 20
23.53183366395609
 30
0.0
 10
6.217132324883161
 20
23.67783366395628
 30
0.0
 10
6.457862324883161
 20
23.80983366395623
 30
0.0
 10
6.714782324883161
 20
23.90583366395617
 30
0.0
  0
SPLINE
  5
B1C
330
A02
100
AcDbEntity
  8
0
100
AcDbSpline
210
0.0
220
0.0
230
1.0
 70
    24
 71
     1
 72
     4
 73
     2
 74
     0
 42
0.0000000001
 43
0.0000000001
 40
0.0
 40
0.0
 40
2.065329999999998
 40
2.065329999999998
 10
50.94124232488315
 20
57.37783366395614
 30
0.0
 10
52.56174232488316
 20
56.0968336639562
 30
0.0
  0
SPLINE
  5
B1D
330
A02
100
AcDbEntity
  8
0
100
AcDbSpline
210
0.0
220
0.0
230
1.0
 70
     8
 71
     2
 72
     6
 73
     3
 74
     0
 42
0.0000000001
 43
0.0000000001
 40
0.0
 40
0.0
 40
0.0
 40
2.32865
 40
2.32865
 40
2.32865
 10
6.714782324883161
 20
23.90583366395617
 30
0.0
 10
8.367372324883165
 20
24.0538336639562
 30
0.0
 10
8.415192324883165
 20
25.3038336639562
 30
0.0
  0
SPLINE
  5
B1E
330
A02
100
AcDbEntity
  8
0
100
AcDbSpline
210
0.0
220
0.0
230
1.0
 70
     8
 71
     3
 72
    14
 73
    10
 74
     0
 42
0.0000000001
 43
0.0000000001
 40
0.0
 40
0.0
 40
0.0
 40
0.0
 40
0.821049
 40
0.821049
 40
0.821049
 40
1.847299999999999
 40
1.847299999999999
 40
1.847299999999999
 40
5.131269999999997
 40
5.131269999999997
 40
5.131269999999997
 40
5.131269999999997
 10
46.71034232488316
 20
54.56583366395618
 30
0.0
 10
46.86924232488315
 20
54.78983366395619
 30
0.0
 10
47.05994232488317
 20
54.98783366395617
 30
0.0
 10
47.26104232488316
 20
55.1738336639562
 30
0.0
 10
47.51304232488315
 20
55.40583366395617
 30
0.0
 10
47.77774232488314
 20
55.62283366395615
 30
0.0
 10
48.05524232488315
 20
55.82383366395635
 30
0.0
 10
48.93964232488317
 20
56.46883366395623
 30
0.0
 10
49.93104232488317
 20
56.96683366395614
 30
0.0
 10
50.94124232488315
 20
57.37783366395614
 30
0.0
  0
SPLINE
  5
B1F
330
A02
100
AcDbEntity
  8
0
100
AcDbSpline
210
0.0
220
0.0
230
1.0
 70
    24
 71
     1
 72
     4
 73
     2
 74
     0
 42
0.0000000001
 43
0.0000000001
 40
0.0
 40
0.0
 40
1.7214
 40
1.7214
 10
8.415192324883165
 20
25.3038336639562
 30
0.0
 10
8.004892324883165
 20
26.97583366395617
 30
0.0
  0
SPLINE
  5
B20
330
A02
100
AcDbEntity
  8
0
100
AcDbSpline
210
0.0
220
0.0
230
1.0
 70
     8
 71
     2
 72
     6
 73
     3
 74
     0
 42
0.0000000001
 43
0.0000000001
 40
0.0
 40
0.0
 40
0.0
 40
2.32865
 40
2.32865
 40
2.32865
 10
44.91824232488315
 20
53.2868336639562
 30
0.0
 10
46.13804232488314
 20
53.00883366395622
 30
0.0
 10
46.71034232488316
 20
54.56583366395618
 30
0.0
  0
SPLINE
  5
B21
330
A02
100
AcDbEntity
  8
0
100
AcDbSpline
210
0.0
220
0.0
230
1.0
 70
     8
 71
     2
 72
     6
 73
     3
 74
     0
 42
0.0000000001
 43
0.0000000001
 40
0.0
 40
0.0
 40
0.0
 40
2.32865
 40
2.32865
 40
2.32865
 10
8.004892324883165
 20
26.97583366395617
 30
0.0
 10
7.383642324883163
 20
28.06183366395618
 30
0.0
 10
5.850242324883161
 20
27.42783366395622
 30
0.0
  0
SPLINE
  5
B22
330
A02
100
AcDbEntity
  8
0
100
AcDbSpline
210
0.0
220
0.0
230
1.0
 70
    24
 71
     1
 72
     4
 73
     2
 74
     0
 42
0.0000000001
 43
0.0000000001
 40
0.0
 40
0.0
 40
1.7214
 40
1.7214
 10
43.41034232488317
 20
54.11783366395615
 30
0.0
 10
44.91824232488315
 20
53.2868336639562
 30
0.0
  0
SPLINE
  5
B23
330
A02
100
AcDbEntity
  8
0
100
AcDbSpline
210
0.0
220
0.0
230
1.0
 70
     8
 71
     3
 72
    14
 73
    10
 74
     0
 42
0.0000000001
 43
0.0000000001
 40
0.0
 40
0.0
 40
0.0
 40
0.0
 40
0.821049
 40
0.821049
 40
0.821049
 40
1.847299999999999
 40
1.847299999999999
 40
1.847299999999999
 40
5.131269999999997
 40
5.131269999999997
 40
5.131269999999997
 40
5.131269999999997
 10
5.850242324883161
 20
27.42783366395622
 30
0.0
 10
5.578312324883162
 20
27.39383366395617
 30
0.0
 10
5.303472324883165
 20
27.3998336639562
 30
0.0
 10
5.030152324883164
 20
27.42183366395619
 30
0.0
 10
4.688402324883162
 20
27.44983366395621
 30
0.0
 10
4.349712324883163
 20
27.49783366395622
 30
0.0
 10
4.014062324883163
 20
27.5658336639562
 30
0.0
 10
2.940632324883164
 20
27.7798336639562
 30
0.0
 10
1.902732324883165
 20
28.17183366395619
 30
0.0
 10
0.9160823248831647
 20
28.63683366395617
 30
0.0
  0
SPLINE
  5
B24
330
A02
100
AcDbEntity
  8
0
100
AcDbSpline
210
0.0
220
0.0
230
1.0
 70
     8
 71
     2
 72
     6
 73
     3
 74
     0
 42
0.0000000001
 43
0.0000000001
 40
0.0
 40
0.0
 40
0.0
 40
2.32865
 40
2.32865
 40
2.32865
 10
43.53314232488315
 20
56.3158336639562
 30
0.0
 10
42.52284232488316
 20
54.99983366395622
 30
0.0
 10
43.41034232488317
 20
54.11783366395615
 30
0.0
  0
SPLINE
  5
B25
330
A02
100
AcDbEntity
  8
0
100
AcDbSpline
210
0.0
220
0.0
230
1.0
 70
    24
 71
     1
 72
     4
 73
     2
 74
     0
 42
0.0000000001
 43
0.0000000001
 40
0.0
 40
0.0
 40
2.065329999999998
 40
2.065329999999998
 10
0.9160823248831647
 20
28.63683366395617
 30
0.0
 10
0.7606523248831651
 20
30.69583366395619
 30
0.0
  0
SPLINE
  5
B26
330
A02
100
AcDbEntity
  8
0
100
AcDbSpline
210
0.0
220
0.0
230
1.0
 70
     8
 71
     3
 72
    14
 73
    10
 74
     0
 42
0.0000000001
 43
0.0000000001
 40
0.0
 40
0.0
 40
0.0
 40
0.0
 40
3.28398
 40
3.28398
 40
3.28398
 40
4.310219999999998
 40
4.310219999999998
 40
4.310219999999998
 40
5.131269999999997
 40
5.131269999999997
 40
5.131269999999997
 40
5.131269999999997
 10
43.64744232488314
 20
61.3948336639562
 30
0.0
 10
43.84004232488314
 20
60.32083366395618
 30
0.0
 10
43.94914232488314
 20
59.21683366395614
 30
0.0
 10
43.87704232488317
 20
58.12483366395622
 30
0.0
 10
43.85564232488316
 20
57.78283366395618
 30
0.0
 10
43.81404232488317
 20
57.44383366395635
 30
0.0
 10
43.75224232488315
 20
57.10583366395622
 30
0.0
 10
43.70224232488316
 20
56.83683366395604
 30
0.0
 10
43.63684232488315
 20
56.56983366395621
 30
0.0
 10
43.53314232488315
 20
56.3158336639562
 30
0.0
  0
SPLINE
  5
B27
330
A02
100
AcDbEntity
  8
0
100
AcDbSpline
210
0.0
220
0.0
230
1.0
 70
     8
 71
     3
 72
    14
 73
    10
 74
     0
 42
0.0000000001
 43
0.0000000001
 40
0.0
 40
0.0
 40
0.0
 40
0.0
 40
3.28398
 40
3.28398
 40
3.28398
 40
4.310219999999998
 40
4.310219999999998
 40
4.310219999999998
 40
5.131269999999997
 40
5.131269999999997
 40
5.131269999999997
 40
5.131269999999997
 10
0.7606523248831651
 20
30.69583366395619
 30
0.0
 10
1.666372324883163
 20
31.3038336639562
 30
0.0
 10
2.633672324883162
 20
31.84683366395621
 30
0.0
 10
3.662832324883162
 20
32.21983366395619
 30
0.0
 10
3.984462324883162
 20
32.33783366395619
 30
0.0
 10
4.312112324883162
 20
32.43583366395621
 30
0.0
 10
4.645792324883164
 20
32.51483366395621
 30
0.0
 10
4.912762324883162
 20
32.57683366395617
 30
0.0
 10
5.183552324883162
 20
32.62483366395623
 30
0.0
 10
5.457552324883162
 20
32.63183366395618
 30
0.0
  0
SPLINE
  5
B28
330
A02
100
AcDbEntity
  8
0
100
AcDbSpline
210
0.0
220
0.0
230
1.0
 70
    24
 71
     1
 72
     4
 73
     2
 74
     0
 42
0.0000000001
 43
0.0000000001
 40
0.0
 40
0.0
 40
2.065329999999998
 40
2.065329999999998
 10
41.69904232488316
 20
62.0798336639562
 30
0.0
 10
43.64744232488314
 20
61.3948336639562
 30
0.0
  0
SPLINE
  5
B29
330
A02
100
AcDbEntity
  8
0
100
AcDbSpline
210
0.0
220
0.0
230
1.0
 70
     8
 71
     2
 72
     6
 73
     3
 74
     0
 42
0.0000000001
 43
0.0000000001
 40
0.0
 40
0.0
 40
0.0
 40
2.32865
 40
2.32865
 40
2.32865
 10
5.457552324883162
 20
32.63183366395618
 30
0.0
 10
7.068702324883165
 20
32.23483366395618
 30
0.0
 10
7.519912324883161
 20
33.40183366395616
 30
0.0
  0
SPLINE
  5
B2A
330
A02
100
AcDbEntity
  8
0
100
AcDbSpline
210
0.0
220
0.0
230
1.0
 70
     8
 71
     3
 72
    14
 73
    10
 74
     0
 42
0.0000000001
 43
0.0000000001
 40
0.0
 40
0.0
 40
0.0
 40
0.0
 40
0.821049
 40
0.821049
 40
0.821049
 40
1.847299999999999
 40
1.847299999999999
 40
1.847299999999999
 40
5.131269999999997
 40
5.131269999999997
 40
5.131269999999997
 40
5.131269999999997
 10
38.61024232488317
 20
58.04683366395618
 30
0.0
 10
38.68804232488317
 20
58.30883366395618
 30
0.0
 10
38.80414232488316
 20
58.55783366395615
 30
0.0
 10
38.93384232488318
 20
58.79983366395618
 30
0.0
 10
39.09664232488316
 20
59.10183366395621
 30
0.0
 10
39.27674232488318
 20
59.39283366395603
 30
0.0
 10
39.47394232488316
 20
59.67283366395617
 30
0.0
 10
40.10104232488315
 20
60.56983366395622
 30
0.0
 10
40.87704232488317
 20
61.36283366395615
 30
0.0
 10
41.69904232488316
 20
62.0798336639562
 30
0.0
  0
SPLINE
  5
B2B
330
A02
100
AcDbEntity
  8
0
100
AcDbSpline
210
0.0
220
0.0
230
1.0
 70
    24
 71
     1
 72
     4
 73
     2
 74
     0
 42
0.0000000001
 43
0.0000000001
 40
0.0
 40
0.0
 40
1.7214
 40
1.7214
 10
7.519912324883161
 20
33.40183366395616
 30
0.0
 10
7.674672324883164
 20
35.11683366395619
 30
0.0
  0
SPLINE
  5
B2C
330
A02
100
AcDbEntity
  8
0
100
AcDbSpline
210
0.0
220
0.0
230
1.0
 70
     8
 71
     2
 72
     6
 73
     3
 74
     0
 42
0.0000000001
 43
0.0000000001
 40
0.0
 40
0.0
 40
0.0
 40
2.32865
 40
2.32865
 40
2.32865
 10
37.33044232488317
 20
56.25483366395622
 30
0.0
 10
38.57464232488317
 20
56.38783366395603
 30
0.0
 10
38.61024232488317
 20
58.04683366395618
 30
0.0
  0
SPLINE
  5
B2D
330
A02
100
AcDbEntity
  8
0
100
AcDbSpline
210
0.0
220
0.0
230
1.0
 70
     8
 71
     2
 72
     6
 73
     3
 74
     0
 42
0.0000000001
 43
0.0000000001
 40
0.0
 40
0.0
 40
0.0
 40
2.32865
 40
2.32865
 40
2.32865
 10
7.674672324883164
 20
35.11683366395619
 30
0.0
 10
7.439742324883162
 20
36.34583366395617
 30
0.0
 10
5.783632324883162
 20
36.24383366395619
 30
0.0
  0
SPLINE
  5
B2E
330
A02
100
AcDbEntity
  8
0
100
AcDbSpline
210
0.0
220
0.0
230
1.0
 70
    24
 71
     1
 72
     4
 73
     2
 74
     0
 42
0.0000000001
 43
0.0000000001
 40
0.0
 40
0.0
 40
1.7214
 40
1.7214
 10
35.63474232488316
 20
56.55083366395621
 30
0.0
 10
37.33044232488317
 20
56.25483366395622
 30
0.0
  0
SPLINE
  5
B2F
330
A02
100
AcDbEntity
  8
0
100
AcDbSpline
210
0.0
220
0.0
230
1.0
 70
     8
 71
     3
 72
    14
 73
    10
 74
     0
 42
0.0000000001
 43
0.0000000001
 40
0.0
 40
0.0
 40
0.0
 40
0.0
 40
0.821049
 40
0.821049
 40
0.821049
 40
1.847299999999999
 40
1.847299999999999
 40
1.847299999999999
 40
5.131269999999997
 40
5.131269999999997
 40
5.131269999999997
 40
5.131269999999997
 10
5.783632324883162
 20
36.24383366395619
 30
0.0
 10
5.515292324883162
 20
36.29983366395618
 30
0.0
 10
5.257372324883164
 20
36.39483366395622
 30
0.0
 10
5.005912324883163
 20
36.5038336639563
 30
0.0
 10
4.691752324883164
 20
36.64183366395616
 30
0.0
 10
4.387002324883162
 20
36.79683366395619
 30
0.0
 10
4.091652324883162
 20
36.97083366395617
 30
0.0
 10
3.145872324883164
 20
37.52183366395616
 30
0.0
 10
2.291512324883163
 20
38.22883366395622
 30
0.0
 10
1.509232324883164
 20
38.98883366395621
 30
0.0
  0
SPLINE
  5
B30
330
A02
100
AcDbEntity
  8
0
100
AcDbSpline
210
0.0
220
0.0
230
1.0
 70
     8
 71
     2
 72
     6
 73
     3
 74
     0
 42
0.0000000001
 43
0.0000000001
 40
0.0
 40
0.0
 40
0.0
 40
2.32865
 40
2.32865
 40
2.32865
 10
35.03704232488317
 20
58.66983366395619
 30
0.0
 10
34.50894232488316
 20
57.0968336639562
 30
0.0
 10
35.63474232488316
 20
56.55083366395621
 30
0.0
  0
SPLINE
  5
B31
330
A02
100
AcDbEntity
  8
0
100
AcDbSpline
210
0.0
220
0.0
230
1.0
 70
    24
 71
     1
 72
     4
 73
     2
 74
     0
 42
0.0000000001
 43
0.0000000001
 40
0.0
 40
0.0
 40
2.065329999999998
 40
2.065329999999998
 10
1.509232324883164
 20
38.98883366395621
 30
0.0
 10
2.030942324883163
 20
40.98783366395617
 30
0.0
  0
SPLINE
  5
B32
330
A02
100
AcDbEntity
  8
0
100
AcDbSpline
210
0.0
220
0.0
230
1.0
 70
     8
 71
     3
 72
    14
 73
    10
 74
     0
 42
0.0000000001
 43
0.0000000001
 40
0.0
 40
0.0
 40
0.0
 40
0.0
 40
3.28398
 40
3.28398
 40
3.28398
 40
4.310219999999998
 40
4.310219999999998
 40
4.310219999999998
 40
5.131269999999997
 40
5.131269999999997
 40
5.131269999999997
 40
5.131269999999997
 10
33.49614232488317
 20
63.50983366395621
 30
0.0
 10
34.02684232488316
 20
62.55783366395615
 30
0.0
 10
34.48854232488316
 20
61.5488336639562
 30
0.0
 10
34.77494232488317
 20
60.49183366395618
 30
0.0
 10
34.86574232488317
 20
60.1618336639562
 30
0.0
 10
34.93664232488317
 20
59.82683366395615
 30
0.0
 10
34.98774232488317
 20
59.48783366395615
 30
0.0
 10
35.02794232488316
 20
59.21683366395614
 30
0.0
 10
35.05284232488317
 20
58.94283366395614
 30
0.0
 10
35.03704232488317
 20
58.66983366395619
 30
0.0
  0
SPLINE
  5
B33
330
A02
100
AcDbEntity
  8
0
100
AcDbSpline
210
0.0
220
0.0
230
1.0
 70
     8
 71
     3
 72
    14
 73
    10
 74
     0
 42
0.0000000001
 43
0.0000000001
 40
0.0
 40
0.0
 40
0.0
 40
0.0
 40
3.28398
 40
3.28398
 40
3.28398
 40
4.310219999999998
 40
4.310219999999998
 40
4.310219999999998
 40
5.131269999999997
 40
5.131269999999997
 40
5.131269999999997
 40
5.131269999999997
 10
2.030942324883163
 20
40.98783366395617
 30
0.0
 10
3.084872324883164
 20
41.26783366395613
 30
0.0
 10
4.176202324883163
 20
41.46783366395617
 30
0.0
 10
5.270612324883162
 20
41.48583366395621
 30
0.0
 10
5.613022324883162
 20
41.49283366395615
 30
0.0
 10
5.954842324883165
 20
41.47983366395617
 30
0.0
 10
6.296072324883165
 20
41.44583366395618
 30
0.0
 10
6.568862324883161
 20
41.4188336639562
 30
0.0
 10
6.840382324883162
 20
41.37583366395618
 30
0.0
 10
7.101772324883165
 20
41.29283366395617
 30
0.0
  0
SPLINE
  5
B34
330
A02
100
AcDbEntity
  8
0
100
AcDbSpline
210
0.0
220
0.0
230
1.0
 70
    24
 71
     1
 72
     4
 73
     2
 74
     0
 42
0.0000000001
 43
0.0000000001
 40
0.0
 40
0.0
 40
2.065329999999998
 40
2.065329999999998
 10
31.43084232488317
 20
63.52583366395617
 30
0.0
 10
33.49614232488317
 20
63.50983366395621
 30
0.0
  0
SPLINE
  5
B35
330
A02
100
AcDbEntity
  8
0
100
AcDbSpline
210
0.0
220
0.0
230
1.0
 70
     8
 71
     2
 72
     6
 73
     3
 74
     0
 42
0.0000000001
 43
0.0000000001
 40
0.0
 40
0.0
 40
0.0
 40
2.32865
 40
2.32865
 40
2.32865
 10
7.101772324883165
 20
41.29283366395617
 30
0.0
 10
8.496892324883161
 20
40.39483366395621
 30
0.0
 10
9.302592324883164
 20
41.35183366395621
 30
0.0
  0
SPLINE
  5
B36
330
A02
100
AcDbEntity
  8
0
100
AcDbSpline
210
0.0
220
0.0
230
1.0
 70
     8
 71
     3
 72
    14
 73
    10
 74
     0
 42
0.0000000001
 43
0.0000000001
 40
0.0
 40
0.0
 40
0.0
 40
0.0
 40
0.821049
 40
0.821049
 40
0.821049
 40
1.847299999999999
 40
1.847299999999999
 40
1.847299999999999
 40
5.131269999999997
 40
5.131269999999997
 40
5.131269999999997
 40
5.131269999999997
 10
29.81894232488317
 20
58.70783366395603
 30
0.0
 10
29.80724232488317
 20
58.9818336639562
 30
0.0
 10
29.83614232488317
 20
59.25483366395622
 30
0.0
 10
29.88034232488317
 20
59.52583366395618
 30
0.0
 10
29.93644232488316
 20
59.86383366395621
 30
0.0
 10
30.01224232488317
 20
60.19783366395603
 30
0.0
 10
30.10784232488317
 20
60.52683366395616
 30
0.0
 10
30.40974232488317
 20
61.57883366395634
 30
0.0
 10
30.88624232488316
 20
62.58083366395618
 30
0.0
 10
31.43084232488317
 20
63.52583366395617
 30
0.0
  0
SPLINE
  5
B37
330
A02
100
AcDbEntity
  8
0
100
AcDbSpline
210
0.0
220
0.0
230
1.0
 70
    24
 71
     1
 72
     4
 73
     2
 74
     0
 42
0.0000000001
 43
0.0000000001
 40
0.0
 40
0.0
 40
1.7214
 40
1.7214
 10
9.302592324883164
 20
41.35183366395621
 30
0.0
 10
10.00564232488316
 20
42.9238336639562
 30
0.0
  0
SPLINE
  5
B38
330
A02
100
AcDbEntity
  8
0
100
AcDbSpline
210
0.0
220
0.0
230
1.0
 70
     8
 71
     2
 72
     6
 73
     3
 74
     0
 42
0.0000000001
 43
0.0000000001
 40
0.0
 40
0.0
 40
0.0
 40
2.32865
 40
2.32865
 40
2.32865
 10
29.19024232488317
 20
56.59783366395618
 30
0.0
 10
30.32394232488317
 20
57.12783366395604
 30
0.0
 10
29.81894232488317
 20
58.70783366395603
 30
0.0
  0
SPLINE
  5
B39
330
A02
100
AcDbEntity
  8
0
100
AcDbSpline
210
0.0
220
0.0
230
1.0
 70
     8
 71
     2
 72
     6
 73
     3
 74
     0
 42
0.0000000001
 43
0.0000000001
 40
0.0
 40
0.0
 40
0.0
 40
2.32865
 40
2.32865
 40
2.32865
 10
10.00564232488316
 20
42.9238336639562
 30
0.0
 10
10.18244232488316
 20
44.1618336639562
 30
0.0
 10
8.583132324883164
 20
44.6038336639562
 30
0.0
  0
SPLINE
  5
B3A
330
A02
100
AcDbEntity
  8
0
100
AcDbSpline
210
0.0
220
0.0
230
1.0
 70
    24
 71
     1
 72
     4
 73
     2
 74
     0
 42
0.0000000001
 43
0.0000000001
 40
0.0
 40
0.0
 40
1.7214
 40
1.7214
 10
27.49034232488317
 20
56.32683366395617
 30
0.0
 10
29.19024232488317
 20
56.59783366395618
 30
0.0
  0
SPLINE
  5
B3B
330
A02
100
AcDbEntity
  8
0
100
AcDbSpline
210
0.0
220
0.0
230
1.0
 70
     8
 71
     3
 72
    14
 73
    10
 74
     0
 42
0.0000000001
 43
0.0000000001
 40
0.0
 40
0.0
 40
0.0
 40
0.0
 40
0.821049
 40
0.821049
 40
0.821049
 40
1.847299999999999
 40
1.847299999999999
 40
1.847299999999999
 40
5.131269999999997
 40
5.131269999999997
 40
5.131269999999997
 40
5.131269999999997
 10
8.583132324883164
 20
44.6038336639562
 30
0.0
 10
8.347462324883162
 20
44.7438336639562
 30
0.0
 10
8.134402324883165
 20
44.91783366395617
 30
0.0
 10
7.932052324883166
 20
45.10283366395618
 30
0.0
 10
7.679532324883162
 20
45.3348336639562
 30
0.0
 10
7.441742324883161
 20
45.58083366395618
 30
0.0
 10
7.218702324883165
 20
45.8398336639562
 30
0.0
 10
6.503062324883162
 20
46.6688336639562
 30
0.0
 10
5.924822324883165
 20
47.61583366395622
 30
0.0
 10
5.431692324883163
 20
48.58783366395618
 30
0.0
  0
SPLINE
  5
B3C
330
A02
100
AcDbEntity
  8
0
100
AcDbSpline
210
0.0
220
0.0
230
1.0
 70
     8
 71
     2
 72
     6
 73
     3
 74
     0
 42
0.0000000001
 43
0.0000000001
 40
0.0
 40
0.0
 40
0.0
 40
2.32865
 40
2.32865
 40
2.32865
 10
26.23704232488317
 20
58.13683366395618
 30
0.0
 10
26.24824232488317
 20
56.47783366395618
 30
0.0
 10
27.49034232488317
 20
56.32683366395617
 30
0.0
  0
SPLINE
  5
B3D
330
A02
100
AcDbEntity
  8
0
100
AcDbSpline
210
0.0
220
0.0
230
1.0
 70
    24
 71
     1
 72
     4
 73
     2
 74
     0
 42
0.0000000001
 43
0.0000000001
 40
0.0
 40
0.0
 40
2.065329999999998
 40
2.065329999999998
 10
5.431692324883163
 20
48.58783366395618
 30
0.0
 10
6.574002324883164
 20
50.30883366395618
 30
0.0
  0
SPLINE
  5
B3E
330
A02
100
AcDbEntity
  8
0
100
AcDbSpline
210
0.0
220
0.0
230
1.0
 70
     8
 71
     3
 72
    14
 73
    10
 74
     0
 42
0.0000000001
 43
0.0000000001
 40
0.0
 40
0.0
 40
0.0
 40
0.0
 40
3.28398
 40
3.28398
 40
3.28398
 40
4.310219999999998
 40
4.310219999999998
 40
4.310219999999998
 40
5.131269999999997
 40
5.131269999999997
 40
5.131269999999997
 40
5.131269999999997
 10
23.20784232488316
 20
62.2148336639562
 30
0.0
 10
24.01924232488317
 20
61.48683366395618
 30
0.0
 10
24.78344232488316
 20
60.68183366395619
 30
0.0
 10
25.39734232488317
 20
59.77583366395617
 30
0.0
 10
25.59044232488317
 20
59.49283366395615
 30
0.0
 10
25.76614232488317
 20
59.19983366395621
 30
0.0
 10
25.92454232488317
 20
58.89583366395618
 30
0.0
 10
26.05064232488317
 20
58.65183366395616
 30
0.0
 10
26.16314232488317
 20
58.40083366395617
 30
0.0
 10
26.23704232488317
 20
58.13683366395618
 30
0.0
  0
SPLINE
  5
B3F
330
A02
100
AcDbEntity
  8
0
100
AcDbSpline
210
0.0
220
0.0
230
1.0
 70
     8
 71
     3
 72
    14
 73
    10
 74
     0
 42
0.0000000001
 43
0.0000000001
 40
0.0
 40
0.0
 40
0.0
 40
0.0
 40
3.28398
 40
3.28398
 40
3.28398
 40
4.310219999999998
 40
4.310219999999998
 40
4.310219999999998
 40
5.131269999999997
 40
5.131269999999997
 40
5.131269999999997
 40
5.131269999999997
 10
6.574002324883164
 20
50.30883366395618
 30
0.0
 10
7.661932324883164
 20
50.2318336639562
 30
0.0
 10
8.759032324883159
 20
50.06683366395617
 30
0.0
 10
9.800142324883164
 20
49.7288336639562
 30
0.0
 10
10.12614232488316
 20
49.62383366395631
 30
0.0
 10
10.44514232488316
 20
49.5008336639562
 30
0.0
 10
10.75694232488316
 20
49.35783366395618
 30
0.0
 10
11.00594232488316
 20
49.24283366395616
 30
0.0
 10
11.24884232488316
 20
49.11383366395621
 30
0.0
 10
11.46924232488316
 20
48.95083366395618
 30
0.0
  0
SPLINE
  5
B40
330
A02
100
AcDbEntity
  8
0
100
AcDbSpline
210
0.0
220
0.0
230
1.0
 70
    24
 71
     1
 72
     4
 73
     2
 74
     0
 42
0.0000000001
 43
0.0000000001
 40
0.0
 40
0.0
 40
2.065329999999998
 40
2.065329999999998
 10
21.24954232488317
 20
61.55883366395618
 30
0.0
 10
23.20784232488316
 20
62.2148336639562
 30
0.0
  0
SPLINE
  5
B41
330
A02
100
AcDbEntity
  8
0
100
AcDbSpline
210
0.0
220
0.0
230
1.0
 70
     8
 71
     2
 72
     6
 73
     3
 74
     0
 42
0.0000000001
 43
0.0000000001
 40
0.0
 40
0.0
 40
0.0
 40
2.32865
 40
2.32865
 40
2.32865
 10
11.46924232488316
 20
48.95083366395618
 30
0.0
 10
12.49714232488316
 20
47.64883366395622
 30
0.0
 10
13.57004232488316
 20
48.29283366395618
 30
0.0
  0
SPLINE
  5
B42
330
A02
100
AcDbEntity
  8
0
100
AcDbSpline
210
0.0
220
0.0
230
1.0
 70
     8
 71
     3
 72
    14
 73
    10
 74
     0
 42
0.0000000001
 43
0.0000000001
 40
0.0
 40
0.0
 40
0.0
 40
0.0
 40
0.821049
 40
0.821049
 40
0.821049
 40
1.847299999999999
 40
1.847299999999999
 40
1.847299999999999
 40
5.131269999999997
 40
5.131269999999997
 40
5.131269999999997
 40
5.131269999999997
 10
21.28924232488317
 20
56.47883366395621
 30
0.0
 10
21.18924232488316
 20
56.73483366395618
 30
0.0
 10
21.12784232488317
 20
57.00283366395614
 30
0.0
 10
21.08174232488317
 20
57.27283366395614
 30
0.0
 10
21.02494232488316
 20
57.61083366395621
 30
0.0
 10
20.98834232488316
 20
57.95083366395618
 30
0.0
 10
20.97194232488317
 20
58.29283366395618
 30
0.0
 10
20.91594232488317
 20
59.38583366395619
 30
0.0
 10
21.04124232488317
 20
60.48883366395621
 30
0.0
 10
21.24954232488317
 20
61.55883366395618
 30
0.0
  0
SPLINE
  5
B43
330
A02
100
AcDbEntity
  8
0
100
AcDbSpline
210
0.0
220
0.0
230
1.0
 70
    24
 71
     1
 72
     4
 73
     2
 74
     0
 42
0.0000000001
 43
0.0000000001
 40
0.0
 40
0.0
 40
1.7214
 40
1.7214
 10
13.57004232488316
 20
48.29283366395618
 30
0.0
 10
14.74514232488316
 20
49.55083366395621
 30
0.0
  0
SPLINE
  5
B44
330
A02
100
AcDbEntity
  8
0
100
AcDbSpline
210
0.0
220
0.0
230
1.0
 70
     8
 71
     2
 72
     6
 73
     3
 74
     0
 42
0.0000000001
 43
0.0000000001
 40
0.0
 40
0.0
 40
0.0
 40
2.32865
 40
2.32865
 40
2.32865
 10
21.37974232488316
 20
54.27983366395618
 30
0.0
 10
22.28004232488316
 20
55.14783366395602
 30
0.0
 10
21.28924232488317
 20
56.47883366395621
 30
0.0
  0
SPLINE
  5
B45
330
A02
100
AcDbEntity
  8
0
100
AcDbSpline
210
0.0
220
0.0
230
1.0
 70
     8
 71
     2
 72
     6
 73
     3
 74
     0
 42
0.0000000001
 43
0.0000000001
 40
0.0
 40
0.0
 40
0.0
 40
2.32865
 40
2.32865
 40
2.32865
 10
14.74514232488316
 20
49.55083366395621
 30
0.0
 10
15.31464232488316
 20
50.66483366395619
 30
0.0
 10
13.94534232488316
 20
51.60183366395621
 30
0.0
  0
SPLINE
  5
B46
330
A02
100
AcDbEntity
  8
0
100
AcDbSpline
210
0.0
220
0.0
230
1.0
 70
    24
 71
     1
 72
     4
 73
     2
 74
     0
 42
0.0000000001
 43
0.0000000001
 40
0.0
 40
0.0
 40
1.7214
 40
1.7214
 10
19.85984232488316
 20
53.47083366395618
 30
0.0
 10
21.37974232488316
 20
54.27983366395618
 30
0.0
  0
SPLINE
  5
B47
330
A02
100
AcDbEntity
  8
0
100
AcDbSpline
210
0.0
220
0.0
230
1.0
 70
     8
 71
     3
 72
    14
 73
    10
 74
     0
 42
0.0000000001
 43
0.0000000001
 40
0.0
 40
0.0
 40
0.0
 40
0.0
 40
0.821049
 40
0.821049
 40
0.821049
 40
1.847299999999999
 40
1.847299999999999
 40
1.847299999999999
 40
5.131269999999997
 40
5.131269999999997
 40
5.131269999999997
 40
5.131269999999997
 10
13.94534232488316
 20
51.60183366395621
 30
0.0
 10
13.76794232488316
 20
51.8108336639562
 30
0.0
 10
13.62284232488316
 20
52.04383366395621
 30
0.0
 10
13.49154232488316
 20
52.28483366395618
 30
0.0
 10
13.32794232488316
 20
52.58583366395619
 30
0.0
 10
13.18294232488316
 20
52.89583366395618
 30
0.0
 10
13.05634232488316
 20
53.21383366395622
 30
0.0
 10
12.64844232488316
 20
54.22983366395619
 30
0.0
 10
12.40894232488316
 20
55.31283366395616
 30
0.0
 10
12.25844232488316
 20
56.39383366395622
 30
0.0
  0
SPLINE
  5
B48
330
A02
100
AcDbEntity
  8
0
100
AcDbSpline
210
0.0
220
0.0
230
1.0
 70
     8
 71
     2
 72
     6
 73
     3
 74
     0
 42
0.0000000001
 43
0.0000000001
 40
0.0
 40
0.0
 40
0.0
 40
2.32865
 40
2.32865
 40
2.32865
 10
18.08674232488316
 20
54.77683366395615
 30
0.0
 10
18.63604232488316
 20
53.21083366395619
 30
0.0
 10
19.85984232488316
 20
53.47083366395618
 30
0.0
  0
SPLINE
  5
B49
330
A02
100
AcDbEntity
  8
0
100
AcDbSpline
210
0.0
220
0.0
230
1.0
 70
    24
 71
     1
 72
     4
 73
     2
 74
     0
 42
0.0000000001
 43
0.0000000001
 40
0.0
 40
0.0
 40
2.065329999999998
 40
2.065329999999998
 10
12.25844232488316
 20
56.39383366395622
 30
0.0
 10
13.89754232488316
 20
57.6498336639562
 30
0.0
  0
SPLINE
  5
B4A
330
A02
100
AcDbEntity
  8
0
100
AcDbSpline
210
0.0
220
0.0
230
1.0
 70
     8
 71
     3
 72
    14
 73
    10
 74
     0
 42
0.0000000001
 43
0.0000000001
 40
0.0
 40
0.0
 40
0.0
 40
0.0
 40
3.28398
 40
3.28398
 40
3.28398
 40
4.310219999999998
 40
4.310219999999998
 40
4.310219999999998
 40
5.131269999999997
 40
5.131269999999997
 40
5.131269999999997
 40
5.131269999999997
 10
13.89754232488316
 20
57.6498336639562
 30
0.0
 10
14.90154232488316
 20
57.22383366395622
 30
0.0
 10
15.88554232488316
 20
56.71183366395616
 30
0.0
 10
16.76044232488316
 20
56.05383366395621
 30
0.0
 10
17.03484232488316
 20
55.84883366395621
 30
0.0
 10
17.29634232488316
 20
55.62783366395614
 30
0.0
 10
17.54494232488316
 20
55.39183366395615
 30
0.0
 10
17.74324232488316
 20
55.20283366395602
 30
0.0
 10
17.93114232488316
 20
55.00183366395617
 30
0.0
 10
18.08674232488316
 20
54.77683366395615
 30
0.0
  0
CIRCLE
  5
B4B
330
A02
100
AcDbEntity
  8
0
100
AcDbCircle
 10
32.66844232488317
 20
44.52783366395618
 30
0.0
 40
2.399999999999999
  0
CIRCLE
  5
B4C
330
A02
100
AcDbEntity
  8
0
100
AcDbCircle
 10
42.83274232488316
 20
25.4118336639562
 30
0.0
 40
2.399999999999999
  0
CIRCLE
  5
B4D
330
A02
100
AcDbEntity
  8
0
100
AcDbCircle
 10
32.23214232488317
 20
32.03583366395617
 30
0.0
 40
4.0
  0
CIRCLE
  5
B4E
330
A02
100
AcDbEntity
  8
0
100
AcDbCircle
 10
21.19534232488316
 20
26.1668336639562
 30
0.0
 40
2.399999999999999
  0
ENDSEC
  0
SECTION
  2
OBJECTS
  0
DICTIONARY
  5
F000
330
0
100
AcDbDictionary
281
     1
  3
ACAD_COLOR
350
10004
  3
ACAD_GROUP
350
F001
  3
ACAD_LAYOUT
350
10009
  3
ACAD_MATERIAL
350
10003
  3
ACAD_MLINESTYLE
350
10007
  3
ACAD_PLOTSETTINGS
350
1000A
  3
ACAD_PLOTSTYLENAME
350
10001
  3
ACAD_TABLESTYLE
350
10005
  3
AcDbVariableDictionary
350
1001E
  0
DICTIONARY
  5
10004
102
{ACAD_REACTORS
330
F000
102
}
330
F000
100
AcDbDictionary
281
     1
  0
DICTIONARY
  5
F001
330
F000
100
AcDbDictionary
281
     1
  0
DICTIONARY
  5
10009
102
{ACAD_REACTORS
330
F000
102
}
330
F000
100
AcDbDictionary
281
     1
  3
Layout1
350
1000C
  3
Model
350
1000B
  0
DICTIONARY
  5
10003
102
{ACAD_REACTORS
330
F000
102
}
330
F000
100
AcDbDictionary
281
     1
  0
DICTIONARY
  5
10007
102
{ACAD_REACTORS
330
F000
102
}
330
F000
100
AcDbDictionary
281
     1
  3
Standard
350
10008
  0
DICTIONARY
  5
1000A
102
{ACAD_REACTORS
330
F000
102
}
330
F000
100
AcDbDictionary
281
     1
  0
ACDBDICTIONARYWDFLT
  5
10001
102
{ACAD_REACTORS
330
F000
102
}
330
F000
100
AcDbDictionary
281
     1
  3
Normal
350
10002
100
AcDbDictionaryWithDefault
340
10002
  0
DICTIONARY
  5
10005
102
{ACAD_REACTORS
330
F000
102
}
330
F000
100
AcDbDictionary
281
     1
  3
Standard
350
10006
  0
DICTIONARY
  5
1001E
102
{ACAD_REACTORS
330
F000
102
}
330
F000
100
AcDbDictionary
281
     1
  3
CTABLESTYLE
350
1001F
  0
LAYOUT
  5
1000C
102
{ACAD_REACTORS
330
10009
102
}
330
10009
100
AcDbPlotSettings
  1

  2
D11
  4

  6

 40
0.0
 41
0.0
 42
0.0
 43
0.0
 44
0.0
 45
0.0
 46
0.0
 47
0.0
 48
0.0
 49
0.0
140
0.0
141
0.0
142
1.0
143
1.0
 70
   688
 72
     0
 73
     0
 74
     5
  7

 75
    16
147
1.0
 76
     0
 77
     2
 78
   300
148
0.0
149
0.0
100
AcDbLayout
  1
Layout1
 70
     1
 71
     1
 10
0.0
 20
0.0
 11
12.0
 21
9.0
 12
0.0
 22
0.0
 32
0.0
 14
0.0
 24
0.0
 34
0.0
 15
50.0
 25
50.0
 35
50.0
146
0.0
 13
0.0
 23
0.0
 33
0.0
 16
1.0
 26
0.0
 36
0.0
 17
0.0
 27
1.0
 37
0.0
 76
     0
330
A03
  0
LAYOUT
  5
1000B
102
{ACAD_REACTORS
330
10009
102
}
330
10009
100
AcDbPlotSettings
  1

  2
D11
  4

  6

 40
0.0
 41
0.0
 42
0.0
 43
0.0
 44
0.0
 45
0.0
 46
0.0
 47
0.0
 48
0.0
 49
0.0
140
0.0
141
0.0
142
1.0
143
1.0
 70
  1712
 72
     0
 73
     0
 74
     0
  7

 75
     0
147
1.0
 76
     0
 77
     2
 78
   300
148
0.0
149
0.0
100
AcDbLayout
  1
Model
 70
     1
 71
     0
 10
0.0
 20
0.0
 11
12.0
 21
9.0
 12
0.0
 22
0.0
 32
0.0
 14
0.0
 24
0.0
 34
0.0
 15
0.0
 25
0.0
 35
0.0
146
0.0
 13
0.0
 23
0.0
 33
0.0
 16
1.0
 26
0.0
 36
0.0
 17
0.0
 27
1.0
 37
0.0
 76
     0
330
A02
  0
MLINESTYLE
  5
10008
102
{ACAD_REACTORS
330
10007
102
}
330
10007
100
AcDbMlineStyle
  2
STANDARD
 70
     0
  3

 62
   256
 51
90.0
 52
90.0
 71
     2
 49
0.5
 62
   256
  6
BYLAYER
 49
-0.5
 62
   256
  6
BYLAYER
  0
ACDBPLACEHOLDER
  5
10002
102
{ACAD_REACTORS
330
10001
102
}
330
10001
  0
TABLESTYLE
  5
10006
102
{ACAD_REACTORS
330
10005
102
}
330
10005
100
AcDbTableStyle
  3
Standard
 70
     0
 71
     0
 40
0.06
 41
0.06
280
     0
281
     0
  7
STANDARD
140
0.18
170
     2
 62
     0
 63
     7
283
     0
274
    -2
284
     1
 64
     0
275
    -2
285
     1
 65
     0
276
    -2
286
     1
 66
     0
277
    -2
287
     1
 67
     0
278
    -2
288
     1
 68
     0
279
    -2
289
     1
 69
     0
  7
STANDARD
140
0.25
170
     5
 62
     0
 63
     7
283
     0
274
    -2
284
     1
 64
     0
275
    -2
285
     1
 65
     0
276
    -2
286
     1
 66
     0
277
    -2
287
     1
 67
     0
278
    -2
288
     1
 68
     0
279
    -2
289
     1
 69
     0
  7
STANDARD
140
0.18
170
     5
 62
     0
 63
     7
283
     0
274
    -2
284
     1
 64
     0
275
    -2
285
     1
 65
     0
276
    -2
286
     1
 66
     0
277
    -2
287
     1
 67
     0
278
    -2
288
     1
 68
     0
279
    -2
289
     1
 69
     0
  0
DICTIONARYVAR
  5
1001F
102
{ACAD_REACTORS
330
1001E
102
}
330
1001E
100
DictionaryVariables
280
     0
  1
STANDARD
  0
ENDSEC
  0
EOF
