%TF.GenerationSoftware,KiCad,Pcbnew,(6.0.7)*%
%TF.CreationDate,2022-09-26T21:00:32+02:00*%
%TF.ProjectId,LcdResolver,4c636452-6573-46f6-9c76-65722e6b6963,0*%
%TF.SameCoordinates,Original*%
%TF.FileFunction,Soldermask,Top*%
%TF.FilePolarity,Negative*%
%FSLAX46Y46*%
G04 Gerber Fmt 4.6, Leading zero omitted, Abs format (unit mm)*
G04 Created by KiCad (PCBNEW (6.0.7)) date 2022-09-26 21:00:32*
%MOMM*%
%LPD*%
G01*
G04 APERTURE LIST*
G04 Aperture macros list*
%AMRoundRect*
0 Rectangle with rounded corners*
0 $1 Rounding radius*
0 $2 $3 $4 $5 $6 $7 $8 $9 X,Y pos of 4 corners*
0 Add a 4 corners polygon primitive as box body*
4,1,4,$2,$3,$4,$5,$6,$7,$8,$9,$2,$3,0*
0 Add four circle primitives for the rounded corners*
1,1,$1+$1,$2,$3*
1,1,$1+$1,$4,$5*
1,1,$1+$1,$6,$7*
1,1,$1+$1,$8,$9*
0 Add four rect primitives between the rounded corners*
20,1,$1+$1,$2,$3,$4,$5,0*
20,1,$1+$1,$4,$5,$6,$7,0*
20,1,$1+$1,$6,$7,$8,$9,0*
20,1,$1+$1,$8,$9,$2,$3,0*%
%AMFreePoly0*
4,1,22,0.500000,-0.750000,0.000000,-0.750000,0.000000,-0.745033,-0.079941,-0.743568,-0.215256,-0.701293,-0.333266,-0.622738,-0.424486,-0.514219,-0.481581,-0.384460,-0.499164,-0.250000,-0.500000,-0.250000,-0.500000,0.250000,-0.499164,0.250000,-0.499963,0.256109,-0.478152,0.396186,-0.417904,0.524511,-0.324060,0.630769,-0.204165,0.706417,-0.067858,0.745374,0.000000,0.744959,0.000000,0.750000,
0.500000,0.750000,0.500000,-0.750000,0.500000,-0.750000,$1*%
%AMFreePoly1*
4,1,20,0.000000,0.744959,0.073905,0.744508,0.209726,0.703889,0.328688,0.626782,0.421226,0.519385,0.479903,0.390333,0.500000,0.250000,0.500000,-0.250000,0.499851,-0.262216,0.476331,-0.402017,0.414519,-0.529596,0.319384,-0.634700,0.198574,-0.708877,0.061801,-0.746166,0.000000,-0.745033,0.000000,-0.750000,-0.500000,-0.750000,-0.500000,0.750000,0.000000,0.750000,0.000000,0.744959,
0.000000,0.744959,$1*%
G04 Aperture macros list end*
%ADD10RoundRect,0.250000X-0.450000X0.262500X-0.450000X-0.262500X0.450000X-0.262500X0.450000X0.262500X0*%
%ADD11R,1.700000X1.700000*%
%ADD12O,1.700000X1.700000*%
%ADD13C,1.620000*%
%ADD14RoundRect,0.150000X0.150000X-0.650000X0.150000X0.650000X-0.150000X0.650000X-0.150000X-0.650000X0*%
%ADD15RoundRect,0.250000X0.450000X-0.262500X0.450000X0.262500X-0.450000X0.262500X-0.450000X-0.262500X0*%
%ADD16FreePoly0,90.000000*%
%ADD17FreePoly1,90.000000*%
%ADD18C,3.200000*%
%ADD19RoundRect,0.150000X0.150000X-0.587500X0.150000X0.587500X-0.150000X0.587500X-0.150000X-0.587500X0*%
%ADD20RoundRect,0.250000X0.475000X-0.250000X0.475000X0.250000X-0.475000X0.250000X-0.475000X-0.250000X0*%
G04 APERTURE END LIST*
D10*
%TO.C,R2*%
X167386000Y-90325500D03*
X167386000Y-92150500D03*
%TD*%
D11*
%TO.C,J2*%
X110871000Y-84888000D03*
D12*
X113411000Y-84888000D03*
X115951000Y-84888000D03*
X118491000Y-84888000D03*
X121031000Y-84888000D03*
X123571000Y-84888000D03*
X126111000Y-84888000D03*
X128651000Y-84888000D03*
X131191000Y-84888000D03*
X133731000Y-84888000D03*
X136271000Y-84888000D03*
X138811000Y-84888000D03*
X141351000Y-84888000D03*
X143891000Y-84888000D03*
X146431000Y-84888000D03*
X148971000Y-84888000D03*
%TD*%
D13*
%TO.C,RV1*%
X110276000Y-91532000D03*
X112776000Y-96532000D03*
X115276000Y-91532000D03*
%TD*%
D14*
%TO.C,U1*%
X133096000Y-97028000D03*
X134366000Y-97028000D03*
X135636000Y-97028000D03*
X136906000Y-97028000D03*
X138176000Y-97028000D03*
X139446000Y-97028000D03*
X140716000Y-97028000D03*
X141986000Y-97028000D03*
X141986000Y-90528000D03*
X140716000Y-90528000D03*
X139446000Y-90528000D03*
X138176000Y-90528000D03*
X136906000Y-90528000D03*
X135636000Y-90528000D03*
X134366000Y-90528000D03*
X133096000Y-90528000D03*
%TD*%
D10*
%TO.C,R6*%
X103378000Y-93500500D03*
X103378000Y-95325500D03*
%TD*%
%TO.C,R4*%
X159766000Y-90325500D03*
X159766000Y-92150500D03*
%TD*%
D11*
%TO.C,J1*%
X136271000Y-106478000D03*
D12*
X133731000Y-106478000D03*
X131191000Y-106478000D03*
X128651000Y-106478000D03*
X126111000Y-106478000D03*
X123571000Y-106478000D03*
X121031000Y-106478000D03*
X118491000Y-106478000D03*
X115951000Y-106478000D03*
X113411000Y-106478000D03*
X110871000Y-106478000D03*
%TD*%
D15*
%TO.C,R7*%
X100965000Y-95349000D03*
X100965000Y-93524000D03*
%TD*%
D16*
%TO.C,JP1*%
X153162000Y-91836000D03*
D17*
X153162000Y-90536000D03*
%TD*%
D18*
%TO.C,H2*%
X176276000Y-86158000D03*
%TD*%
D10*
%TO.C,R1*%
X147066000Y-94770500D03*
X147066000Y-96595500D03*
%TD*%
D11*
%TO.C,J3*%
X157226000Y-84888000D03*
D12*
X159766000Y-84888000D03*
X162306000Y-84888000D03*
X164846000Y-84888000D03*
X167386000Y-84888000D03*
%TD*%
D19*
%TO.C,Q1*%
X148021000Y-92175500D03*
X149921000Y-92175500D03*
X148971000Y-90300500D03*
%TD*%
D10*
%TO.C,R3*%
X162306000Y-90325500D03*
X162306000Y-92150500D03*
%TD*%
D18*
%TO.C,H4*%
X102616000Y-86158000D03*
%TD*%
D15*
%TO.C,R5*%
X105791000Y-95325500D03*
X105791000Y-93500500D03*
%TD*%
D20*
%TO.C,C1*%
X129286000Y-95363000D03*
X129286000Y-93463000D03*
%TD*%
D18*
%TO.C,H1*%
X176276000Y-105843000D03*
%TD*%
%TO.C,H3*%
X101981000Y-105843000D03*
%TD*%
M02*
