%TF.GenerationSoftware,KiCad,Pcbnew,(6.0.7)*%
%TF.CreationDate,2022-09-26T21:00:32+02:00*%
%TF.ProjectId,LcdResolver,4c636452-6573-46f6-9c76-65722e6b6963,0*%
%TF.SameCoordinates,Original*%
%TF.FileFunction,Copper,L2,Bot*%
%TF.FilePolarity,Positive*%
%FSLAX46Y46*%
G04 Gerber Fmt 4.6, Leading zero omitted, Abs format (unit mm)*
G04 Created by KiCad (PCBNEW (6.0.7)) date 2022-09-26 21:00:32*
%MOMM*%
%LPD*%
G01*
G04 APERTURE LIST*
%TA.AperFunction,ComponentPad*%
%ADD10R,1.700000X1.700000*%
%TD*%
%TA.AperFunction,ComponentPad*%
%ADD11O,1.700000X1.700000*%
%TD*%
%TA.AperFunction,ComponentPad*%
%ADD12C,1.620000*%
%TD*%
%TA.AperFunction,ViaPad*%
%ADD13C,0.800000*%
%TD*%
%TA.AperFunction,Conductor*%
%ADD14C,0.300000*%
%TD*%
%TA.AperFunction,Conductor*%
%ADD15C,0.500000*%
%TD*%
G04 APERTURE END LIST*
D10*
%TO.P,J2,1,Pin_1*%
%TO.N,GND*%
X110871000Y-84888000D03*
D11*
%TO.P,J2,2,Pin_2*%
%TO.N,+5V*%
X113411000Y-84888000D03*
%TO.P,J2,3,Pin_3*%
%TO.N,VO*%
X115951000Y-84888000D03*
%TO.P,J2,4,Pin_4*%
%TO.N,RS*%
X118491000Y-84888000D03*
%TO.P,J2,5,Pin_5*%
%TO.N,GND*%
X121031000Y-84888000D03*
%TO.P,J2,6,Pin_6*%
%TO.N,Enable*%
X123571000Y-84888000D03*
%TO.P,J2,7,Pin_7*%
%TO.N,unconnected-(J2-Pad7)*%
X126111000Y-84888000D03*
%TO.P,J2,8,Pin_8*%
%TO.N,unconnected-(J2-Pad8)*%
X128651000Y-84888000D03*
%TO.P,J2,9,Pin_9*%
%TO.N,unconnected-(J2-Pad9)*%
X131191000Y-84888000D03*
%TO.P,J2,10,Pin_10*%
%TO.N,unconnected-(J2-Pad10)*%
X133731000Y-84888000D03*
%TO.P,J2,11,Pin_11*%
%TO.N,D4*%
X136271000Y-84888000D03*
%TO.P,J2,12,Pin_12*%
%TO.N,D5*%
X138811000Y-84888000D03*
%TO.P,J2,13,Pin_13*%
%TO.N,D6*%
X141351000Y-84888000D03*
%TO.P,J2,14,Pin_14*%
%TO.N,D7*%
X143891000Y-84888000D03*
%TO.P,J2,15,Pin_15*%
%TO.N,+5V*%
X146431000Y-84888000D03*
%TO.P,J2,16,Pin_16*%
%TO.N,Backlight cathode (-)*%
X148971000Y-84888000D03*
%TD*%
D12*
%TO.P,RV1,1,1*%
%TO.N,+5V*%
X110276000Y-91532000D03*
%TO.P,RV1,2,2*%
%TO.N,VO*%
X112776000Y-96532000D03*
%TO.P,RV1,3,3*%
%TO.N,GND*%
X115276000Y-91532000D03*
%TD*%
D10*
%TO.P,J1,1,Pin_1*%
%TO.N,GND*%
X136271000Y-106478000D03*
D11*
%TO.P,J1,2,Pin_2*%
X133731000Y-106478000D03*
%TO.P,J1,3,Pin_3*%
%TO.N,+5V*%
X131191000Y-106478000D03*
%TO.P,J1,4,Pin_4*%
%TO.N,+3.3V*%
X128651000Y-106478000D03*
%TO.P,J1,5,Pin_5*%
%TO.N,Enable*%
X126111000Y-106478000D03*
%TO.P,J1,6,Pin_6*%
%TO.N,SPI_CLK*%
X123571000Y-106478000D03*
%TO.P,J1,7,Pin_7*%
%TO.N,SPI_DATA*%
X121031000Y-106478000D03*
%TO.P,J1,8,Pin_8*%
%TO.N,Backlight_On*%
X118491000Y-106478000D03*
%TO.P,J1,9,Pin_9*%
%TO.N,Resolver_A*%
X115951000Y-106478000D03*
%TO.P,J1,10,Pin_10*%
%TO.N,Resolver_B*%
X113411000Y-106478000D03*
%TO.P,J1,11,Pin_11*%
%TO.N,Resolver_SW*%
X110871000Y-106478000D03*
%TD*%
D10*
%TO.P,J3,1,Pin_1*%
%TO.N,GND*%
X157226000Y-84888000D03*
D11*
%TO.P,J3,2,Pin_2*%
%TO.N,Resolver_SW*%
X159766000Y-84888000D03*
%TO.P,J3,3,Pin_3*%
%TO.N,Resolver_B*%
X162306000Y-84888000D03*
%TO.P,J3,4,Pin_4*%
%TO.N,GND*%
X164846000Y-84888000D03*
%TO.P,J3,5,Pin_5*%
%TO.N,Resolver_A*%
X167386000Y-84888000D03*
%TD*%
D13*
%TO.N,Enable*%
X123571000Y-88571000D03*
X123571000Y-90349000D03*
X109093000Y-98552000D03*
X109093000Y-100723500D03*
%TO.N,SPI_CLK*%
X124968000Y-101219000D03*
%TO.N,Backlight_On*%
X147066000Y-100128000D03*
X149056477Y-102118477D03*
%TO.N,Resolver_A*%
X165354000Y-93016000D03*
X165989000Y-90349000D03*
%TO.N,VO*%
X106807000Y-96901000D03*
%TO.N,RS*%
X131445000Y-89460000D03*
X134366000Y-95175000D03*
%TO.N,D4*%
X135636000Y-95175000D03*
%TO.N,D5*%
X136906000Y-95175000D03*
%TO.N,D6*%
X138176000Y-95175000D03*
%TO.N,D7*%
X139446000Y-95175000D03*
%TO.N,GND*%
X99441000Y-95377000D03*
X141986000Y-95429000D03*
X151130000Y-92127000D03*
X132969000Y-92889000D03*
X130683000Y-92329000D03*
%TD*%
D14*
%TO.N,Enable*%
X109093000Y-98552000D02*
X109093000Y-100723500D01*
X123571000Y-90349000D02*
X123571000Y-88571000D01*
%TO.N,SPI_CLK*%
X123571000Y-106478000D02*
X123571000Y-102616000D01*
X123571000Y-102616000D02*
X124968000Y-101219000D01*
%TO.N,Backlight_On*%
X149056477Y-102118477D02*
X147066000Y-100128000D01*
%TO.N,Resolver_A*%
X165354000Y-90984000D02*
X165354000Y-93016000D01*
X165989000Y-90349000D02*
X165354000Y-90984000D01*
D15*
%TO.N,VO*%
X112355000Y-96953000D02*
X112776000Y-96532000D01*
X106807000Y-96953000D02*
X112355000Y-96953000D01*
D14*
%TO.N,RS*%
X132334000Y-89460000D02*
X131445000Y-89460000D01*
X134366000Y-91492000D02*
X132461000Y-89587000D01*
X132461000Y-89587000D02*
X132334000Y-89460000D01*
X134366000Y-95175000D02*
X134366000Y-91492000D01*
%TO.N,D4*%
X136271000Y-94540000D02*
X135636000Y-95175000D01*
X136271000Y-84888000D02*
X136271000Y-94540000D01*
%TO.N,D5*%
X137414000Y-86285000D02*
X138811000Y-84888000D01*
X137414000Y-94667000D02*
X137414000Y-86285000D01*
X136906000Y-95175000D02*
X137414000Y-94667000D01*
%TO.N,D6*%
X138176000Y-95175000D02*
X140081000Y-93270000D01*
X140081000Y-86158000D02*
X141351000Y-84888000D01*
X140081000Y-93270000D02*
X140081000Y-86158000D01*
%TO.N,D7*%
X141224000Y-87555000D02*
X143891000Y-84888000D01*
X141224000Y-93397000D02*
X141224000Y-87555000D01*
X139446000Y-95175000D02*
X141224000Y-93397000D01*
%TD*%
%TA.AperFunction,Conductor*%
%TO.N,GND*%
G36*
X177516018Y-80318000D02*
G01*
X177530851Y-80320310D01*
X177530855Y-80320310D01*
X177539724Y-80321691D01*
X177560183Y-80319016D01*
X177582008Y-80318072D01*
X177938937Y-80333656D01*
X177949886Y-80334614D01*
X178334379Y-80385233D01*
X178345205Y-80387142D01*
X178723822Y-80471080D01*
X178734439Y-80473925D01*
X178904702Y-80527608D01*
X179104302Y-80590542D01*
X179114615Y-80594295D01*
X179472932Y-80742715D01*
X179482876Y-80747353D01*
X179826867Y-80926423D01*
X179836387Y-80931919D01*
X180163468Y-81140292D01*
X180172472Y-81146597D01*
X180480138Y-81382678D01*
X180488558Y-81389743D01*
X180774483Y-81651744D01*
X180782256Y-81659517D01*
X181044257Y-81945442D01*
X181051322Y-81953862D01*
X181287403Y-82261528D01*
X181293708Y-82270532D01*
X181502081Y-82597613D01*
X181507577Y-82607133D01*
X181686643Y-82951115D01*
X181691289Y-82961077D01*
X181839702Y-83319377D01*
X181843461Y-83329706D01*
X181960075Y-83699561D01*
X181962920Y-83710178D01*
X182046858Y-84088795D01*
X182048767Y-84099621D01*
X182090591Y-84417305D01*
X182099386Y-84484114D01*
X182100344Y-84495063D01*
X182106285Y-84631124D01*
X182115603Y-84844552D01*
X182114223Y-84869429D01*
X182112309Y-84881724D01*
X182113473Y-84890626D01*
X182113473Y-84890628D01*
X182116436Y-84913283D01*
X182117500Y-84929621D01*
X182117500Y-106428633D01*
X182116000Y-106448018D01*
X182113690Y-106462851D01*
X182113690Y-106462855D01*
X182112309Y-106471724D01*
X182114984Y-106492183D01*
X182115928Y-106514008D01*
X182106215Y-106736475D01*
X182100344Y-106870936D01*
X182099386Y-106881886D01*
X182048767Y-107266379D01*
X182046858Y-107277205D01*
X181962920Y-107655822D01*
X181960075Y-107666439D01*
X181922787Y-107784703D01*
X181892916Y-107879443D01*
X181843461Y-108036294D01*
X181839702Y-108046623D01*
X181691289Y-108404923D01*
X181686643Y-108414885D01*
X181507577Y-108758867D01*
X181502081Y-108768387D01*
X181293708Y-109095468D01*
X181287403Y-109104472D01*
X181051322Y-109412138D01*
X181044257Y-109420558D01*
X180782256Y-109706483D01*
X180774483Y-109714256D01*
X180488558Y-109976257D01*
X180480138Y-109983322D01*
X180172472Y-110219403D01*
X180163468Y-110225708D01*
X179836387Y-110434081D01*
X179826868Y-110439576D01*
X179482876Y-110618647D01*
X179472932Y-110623285D01*
X179114615Y-110771705D01*
X179104302Y-110775458D01*
X178904702Y-110838392D01*
X178734439Y-110892075D01*
X178723822Y-110894920D01*
X178345205Y-110978858D01*
X178334379Y-110980767D01*
X177949886Y-111031386D01*
X177938937Y-111032344D01*
X177589446Y-111047603D01*
X177564571Y-111046223D01*
X177552276Y-111044309D01*
X177543374Y-111045473D01*
X177543372Y-111045473D01*
X177528323Y-111047441D01*
X177520714Y-111048436D01*
X177504379Y-111049500D01*
X101395367Y-111049500D01*
X101375982Y-111048000D01*
X101361149Y-111045690D01*
X101361145Y-111045690D01*
X101352276Y-111044309D01*
X101331817Y-111046984D01*
X101309992Y-111047928D01*
X100953063Y-111032344D01*
X100942114Y-111031386D01*
X100557621Y-110980767D01*
X100546795Y-110978858D01*
X100168178Y-110894920D01*
X100157561Y-110892075D01*
X99987298Y-110838392D01*
X99787698Y-110775458D01*
X99777385Y-110771705D01*
X99419068Y-110623285D01*
X99409124Y-110618647D01*
X99065132Y-110439576D01*
X99055613Y-110434081D01*
X98728532Y-110225708D01*
X98719528Y-110219403D01*
X98411862Y-109983322D01*
X98403442Y-109976257D01*
X98117517Y-109714256D01*
X98109744Y-109706483D01*
X97847743Y-109420558D01*
X97840678Y-109412138D01*
X97604597Y-109104472D01*
X97598292Y-109095468D01*
X97389919Y-108768387D01*
X97384423Y-108758867D01*
X97205357Y-108414885D01*
X97200711Y-108404923D01*
X97052298Y-108046623D01*
X97048539Y-108036294D01*
X96999085Y-107879443D01*
X96969213Y-107784703D01*
X96931925Y-107666439D01*
X96929080Y-107655822D01*
X96845142Y-107277205D01*
X96843233Y-107266379D01*
X96792614Y-106881886D01*
X96791656Y-106870936D01*
X96785785Y-106736475D01*
X96776561Y-106525206D01*
X96778188Y-106498805D01*
X96778769Y-106495352D01*
X96778770Y-106495345D01*
X96779576Y-106490552D01*
X96779729Y-106478000D01*
X96775773Y-106450376D01*
X96774500Y-106432514D01*
X96774500Y-105975703D01*
X99871743Y-105975703D01*
X99872302Y-105979947D01*
X99872302Y-105979951D01*
X99880037Y-106038702D01*
X99909268Y-106260734D01*
X99985129Y-106538036D01*
X100097923Y-106802476D01*
X100245561Y-107049161D01*
X100425313Y-107273528D01*
X100439499Y-107286990D01*
X100616798Y-107455240D01*
X100633851Y-107471423D01*
X100867317Y-107639186D01*
X100871112Y-107641195D01*
X100871113Y-107641196D01*
X100889956Y-107651173D01*
X101121392Y-107773712D01*
X101226087Y-107812025D01*
X101301858Y-107839753D01*
X101391373Y-107872511D01*
X101672264Y-107933755D01*
X101700841Y-107936004D01*
X101895282Y-107951307D01*
X101895291Y-107951307D01*
X101897739Y-107951500D01*
X102053271Y-107951500D01*
X102055407Y-107951354D01*
X102055418Y-107951354D01*
X102263548Y-107937165D01*
X102263554Y-107937164D01*
X102267825Y-107936873D01*
X102272020Y-107936004D01*
X102272022Y-107936004D01*
X102408584Y-107907723D01*
X102549342Y-107878574D01*
X102820343Y-107782607D01*
X103075812Y-107650750D01*
X103079313Y-107648289D01*
X103079317Y-107648287D01*
X103258761Y-107522171D01*
X103311023Y-107485441D01*
X103521622Y-107289740D01*
X103703713Y-107067268D01*
X103853927Y-106822142D01*
X103969483Y-106558898D01*
X104002015Y-106444695D01*
X109508251Y-106444695D01*
X109508548Y-106449848D01*
X109508548Y-106449851D01*
X109514011Y-106544590D01*
X109521110Y-106667715D01*
X109522247Y-106672761D01*
X109522248Y-106672767D01*
X109536606Y-106736475D01*
X109570222Y-106885639D01*
X109582878Y-106916807D01*
X109645321Y-107070586D01*
X109654266Y-107092616D01*
X109705942Y-107176944D01*
X109768291Y-107278688D01*
X109770987Y-107283088D01*
X109917250Y-107451938D01*
X110089126Y-107594632D01*
X110282000Y-107707338D01*
X110490692Y-107787030D01*
X110495760Y-107788061D01*
X110495763Y-107788062D01*
X110590862Y-107807410D01*
X110709597Y-107831567D01*
X110714772Y-107831757D01*
X110714774Y-107831757D01*
X110927673Y-107839564D01*
X110927677Y-107839564D01*
X110932837Y-107839753D01*
X110937957Y-107839097D01*
X110937959Y-107839097D01*
X111149288Y-107812025D01*
X111149289Y-107812025D01*
X111154416Y-107811368D01*
X111159366Y-107809883D01*
X111363429Y-107748661D01*
X111363434Y-107748659D01*
X111368384Y-107747174D01*
X111568994Y-107648896D01*
X111750860Y-107519173D01*
X111782239Y-107487904D01*
X111905435Y-107365137D01*
X111909096Y-107361489D01*
X111968594Y-107278689D01*
X112039453Y-107180077D01*
X112040776Y-107181028D01*
X112087645Y-107137857D01*
X112157580Y-107125625D01*
X112223026Y-107153144D01*
X112250875Y-107184994D01*
X112310987Y-107283088D01*
X112457250Y-107451938D01*
X112629126Y-107594632D01*
X112822000Y-107707338D01*
X113030692Y-107787030D01*
X113035760Y-107788061D01*
X113035763Y-107788062D01*
X113130862Y-107807410D01*
X113249597Y-107831567D01*
X113254772Y-107831757D01*
X113254774Y-107831757D01*
X113467673Y-107839564D01*
X113467677Y-107839564D01*
X113472837Y-107839753D01*
X113477957Y-107839097D01*
X113477959Y-107839097D01*
X113689288Y-107812025D01*
X113689289Y-107812025D01*
X113694416Y-107811368D01*
X113699366Y-107809883D01*
X113903429Y-107748661D01*
X113903434Y-107748659D01*
X113908384Y-107747174D01*
X114108994Y-107648896D01*
X114290860Y-107519173D01*
X114322239Y-107487904D01*
X114445435Y-107365137D01*
X114449096Y-107361489D01*
X114508594Y-107278689D01*
X114579453Y-107180077D01*
X114580776Y-107181028D01*
X114627645Y-107137857D01*
X114697580Y-107125625D01*
X114763026Y-107153144D01*
X114790875Y-107184994D01*
X114850987Y-107283088D01*
X114997250Y-107451938D01*
X115169126Y-107594632D01*
X115362000Y-107707338D01*
X115570692Y-107787030D01*
X115575760Y-107788061D01*
X115575763Y-107788062D01*
X115670862Y-107807410D01*
X115789597Y-107831567D01*
X115794772Y-107831757D01*
X115794774Y-107831757D01*
X116007673Y-107839564D01*
X116007677Y-107839564D01*
X116012837Y-107839753D01*
X116017957Y-107839097D01*
X116017959Y-107839097D01*
X116229288Y-107812025D01*
X116229289Y-107812025D01*
X116234416Y-107811368D01*
X116239366Y-107809883D01*
X116443429Y-107748661D01*
X116443434Y-107748659D01*
X116448384Y-107747174D01*
X116648994Y-107648896D01*
X116830860Y-107519173D01*
X116862239Y-107487904D01*
X116985435Y-107365137D01*
X116989096Y-107361489D01*
X117048594Y-107278689D01*
X117119453Y-107180077D01*
X117120776Y-107181028D01*
X117167645Y-107137857D01*
X117237580Y-107125625D01*
X117303026Y-107153144D01*
X117330875Y-107184994D01*
X117390987Y-107283088D01*
X117537250Y-107451938D01*
X117709126Y-107594632D01*
X117902000Y-107707338D01*
X118110692Y-107787030D01*
X118115760Y-107788061D01*
X118115763Y-107788062D01*
X118210862Y-107807410D01*
X118329597Y-107831567D01*
X118334772Y-107831757D01*
X118334774Y-107831757D01*
X118547673Y-107839564D01*
X118547677Y-107839564D01*
X118552837Y-107839753D01*
X118557957Y-107839097D01*
X118557959Y-107839097D01*
X118769288Y-107812025D01*
X118769289Y-107812025D01*
X118774416Y-107811368D01*
X118779366Y-107809883D01*
X118983429Y-107748661D01*
X118983434Y-107748659D01*
X118988384Y-107747174D01*
X119188994Y-107648896D01*
X119370860Y-107519173D01*
X119402239Y-107487904D01*
X119525435Y-107365137D01*
X119529096Y-107361489D01*
X119588594Y-107278689D01*
X119659453Y-107180077D01*
X119660776Y-107181028D01*
X119707645Y-107137857D01*
X119777580Y-107125625D01*
X119843026Y-107153144D01*
X119870875Y-107184994D01*
X119930987Y-107283088D01*
X120077250Y-107451938D01*
X120249126Y-107594632D01*
X120442000Y-107707338D01*
X120650692Y-107787030D01*
X120655760Y-107788061D01*
X120655763Y-107788062D01*
X120750862Y-107807410D01*
X120869597Y-107831567D01*
X120874772Y-107831757D01*
X120874774Y-107831757D01*
X121087673Y-107839564D01*
X121087677Y-107839564D01*
X121092837Y-107839753D01*
X121097957Y-107839097D01*
X121097959Y-107839097D01*
X121309288Y-107812025D01*
X121309289Y-107812025D01*
X121314416Y-107811368D01*
X121319366Y-107809883D01*
X121523429Y-107748661D01*
X121523434Y-107748659D01*
X121528384Y-107747174D01*
X121728994Y-107648896D01*
X121910860Y-107519173D01*
X121942239Y-107487904D01*
X122065435Y-107365137D01*
X122069096Y-107361489D01*
X122128594Y-107278689D01*
X122199453Y-107180077D01*
X122200776Y-107181028D01*
X122247645Y-107137857D01*
X122317580Y-107125625D01*
X122383026Y-107153144D01*
X122410875Y-107184994D01*
X122470987Y-107283088D01*
X122617250Y-107451938D01*
X122789126Y-107594632D01*
X122982000Y-107707338D01*
X123190692Y-107787030D01*
X123195760Y-107788061D01*
X123195763Y-107788062D01*
X123290862Y-107807410D01*
X123409597Y-107831567D01*
X123414772Y-107831757D01*
X123414774Y-107831757D01*
X123627673Y-107839564D01*
X123627677Y-107839564D01*
X123632837Y-107839753D01*
X123637957Y-107839097D01*
X123637959Y-107839097D01*
X123849288Y-107812025D01*
X123849289Y-107812025D01*
X123854416Y-107811368D01*
X123859366Y-107809883D01*
X124063429Y-107748661D01*
X124063434Y-107748659D01*
X124068384Y-107747174D01*
X124268994Y-107648896D01*
X124450860Y-107519173D01*
X124482239Y-107487904D01*
X124605435Y-107365137D01*
X124609096Y-107361489D01*
X124668594Y-107278689D01*
X124739453Y-107180077D01*
X124740776Y-107181028D01*
X124787645Y-107137857D01*
X124857580Y-107125625D01*
X124923026Y-107153144D01*
X124950875Y-107184994D01*
X125010987Y-107283088D01*
X125157250Y-107451938D01*
X125329126Y-107594632D01*
X125522000Y-107707338D01*
X125730692Y-107787030D01*
X125735760Y-107788061D01*
X125735763Y-107788062D01*
X125830862Y-107807410D01*
X125949597Y-107831567D01*
X125954772Y-107831757D01*
X125954774Y-107831757D01*
X126167673Y-107839564D01*
X126167677Y-107839564D01*
X126172837Y-107839753D01*
X126177957Y-107839097D01*
X126177959Y-107839097D01*
X126389288Y-107812025D01*
X126389289Y-107812025D01*
X126394416Y-107811368D01*
X126399366Y-107809883D01*
X126603429Y-107748661D01*
X126603434Y-107748659D01*
X126608384Y-107747174D01*
X126808994Y-107648896D01*
X126990860Y-107519173D01*
X127022239Y-107487904D01*
X127145435Y-107365137D01*
X127149096Y-107361489D01*
X127208594Y-107278689D01*
X127279453Y-107180077D01*
X127280776Y-107181028D01*
X127327645Y-107137857D01*
X127397580Y-107125625D01*
X127463026Y-107153144D01*
X127490875Y-107184994D01*
X127550987Y-107283088D01*
X127697250Y-107451938D01*
X127869126Y-107594632D01*
X128062000Y-107707338D01*
X128270692Y-107787030D01*
X128275760Y-107788061D01*
X128275763Y-107788062D01*
X128370862Y-107807410D01*
X128489597Y-107831567D01*
X128494772Y-107831757D01*
X128494774Y-107831757D01*
X128707673Y-107839564D01*
X128707677Y-107839564D01*
X128712837Y-107839753D01*
X128717957Y-107839097D01*
X128717959Y-107839097D01*
X128929288Y-107812025D01*
X128929289Y-107812025D01*
X128934416Y-107811368D01*
X128939366Y-107809883D01*
X129143429Y-107748661D01*
X129143434Y-107748659D01*
X129148384Y-107747174D01*
X129348994Y-107648896D01*
X129530860Y-107519173D01*
X129562239Y-107487904D01*
X129685435Y-107365137D01*
X129689096Y-107361489D01*
X129748594Y-107278689D01*
X129819453Y-107180077D01*
X129820776Y-107181028D01*
X129867645Y-107137857D01*
X129937580Y-107125625D01*
X130003026Y-107153144D01*
X130030875Y-107184994D01*
X130090987Y-107283088D01*
X130237250Y-107451938D01*
X130409126Y-107594632D01*
X130602000Y-107707338D01*
X130810692Y-107787030D01*
X130815760Y-107788061D01*
X130815763Y-107788062D01*
X130910862Y-107807410D01*
X131029597Y-107831567D01*
X131034772Y-107831757D01*
X131034774Y-107831757D01*
X131247673Y-107839564D01*
X131247677Y-107839564D01*
X131252837Y-107839753D01*
X131257957Y-107839097D01*
X131257959Y-107839097D01*
X131469288Y-107812025D01*
X131469289Y-107812025D01*
X131474416Y-107811368D01*
X131479366Y-107809883D01*
X131683429Y-107748661D01*
X131683434Y-107748659D01*
X131688384Y-107747174D01*
X131888994Y-107648896D01*
X132070860Y-107519173D01*
X132102239Y-107487904D01*
X132225435Y-107365137D01*
X132229096Y-107361489D01*
X132288594Y-107278689D01*
X132359453Y-107180077D01*
X132360640Y-107180930D01*
X132407960Y-107137362D01*
X132477897Y-107125145D01*
X132543338Y-107152678D01*
X132571166Y-107184511D01*
X132628694Y-107278388D01*
X132634777Y-107286699D01*
X132774213Y-107447667D01*
X132781580Y-107454883D01*
X132945434Y-107590916D01*
X132953881Y-107596831D01*
X133137756Y-107704279D01*
X133147042Y-107708729D01*
X133346001Y-107784703D01*
X133355899Y-107787579D01*
X133459250Y-107808606D01*
X133473299Y-107807410D01*
X133477000Y-107797065D01*
X133477000Y-107796517D01*
X133985000Y-107796517D01*
X133989064Y-107810359D01*
X134002478Y-107812393D01*
X134009184Y-107811534D01*
X134019262Y-107809392D01*
X134223255Y-107748191D01*
X134232842Y-107744433D01*
X134424095Y-107650739D01*
X134432945Y-107645464D01*
X134606328Y-107521792D01*
X134614200Y-107515139D01*
X134719286Y-107410418D01*
X134781657Y-107376501D01*
X134852464Y-107381689D01*
X134909226Y-107424335D01*
X134926208Y-107455439D01*
X134967675Y-107566052D01*
X134976214Y-107581649D01*
X135052715Y-107683724D01*
X135065276Y-107696285D01*
X135167351Y-107772786D01*
X135182946Y-107781324D01*
X135303394Y-107826478D01*
X135318649Y-107830105D01*
X135369514Y-107835631D01*
X135376328Y-107836000D01*
X135998885Y-107836000D01*
X136014124Y-107831525D01*
X136015329Y-107830135D01*
X136017000Y-107822452D01*
X136017000Y-107817884D01*
X136525000Y-107817884D01*
X136529475Y-107833123D01*
X136530865Y-107834328D01*
X136538548Y-107835999D01*
X137165669Y-107835999D01*
X137172490Y-107835629D01*
X137223352Y-107830105D01*
X137238604Y-107826479D01*
X137359054Y-107781324D01*
X137374649Y-107772786D01*
X137476724Y-107696285D01*
X137489285Y-107683724D01*
X137565786Y-107581649D01*
X137574324Y-107566054D01*
X137619478Y-107445606D01*
X137623105Y-107430351D01*
X137628631Y-107379486D01*
X137629000Y-107372672D01*
X137629000Y-106750115D01*
X137624525Y-106734876D01*
X137623135Y-106733671D01*
X137615452Y-106732000D01*
X136543115Y-106732000D01*
X136527876Y-106736475D01*
X136526671Y-106737865D01*
X136525000Y-106745548D01*
X136525000Y-107817884D01*
X136017000Y-107817884D01*
X136017000Y-106750115D01*
X136012525Y-106734876D01*
X136011135Y-106733671D01*
X136003452Y-106732000D01*
X134003115Y-106732000D01*
X133987876Y-106736475D01*
X133986671Y-106737865D01*
X133985000Y-106745548D01*
X133985000Y-107796517D01*
X133477000Y-107796517D01*
X133477000Y-106205885D01*
X133985000Y-106205885D01*
X133989475Y-106221124D01*
X133990865Y-106222329D01*
X133998548Y-106224000D01*
X135998885Y-106224000D01*
X136014124Y-106219525D01*
X136015329Y-106218135D01*
X136017000Y-106210452D01*
X136017000Y-106205885D01*
X136525000Y-106205885D01*
X136529475Y-106221124D01*
X136530865Y-106222329D01*
X136538548Y-106224000D01*
X137610884Y-106224000D01*
X137626123Y-106219525D01*
X137627328Y-106218135D01*
X137628999Y-106210452D01*
X137628999Y-105975703D01*
X174166743Y-105975703D01*
X174167302Y-105979947D01*
X174167302Y-105979951D01*
X174175037Y-106038702D01*
X174204268Y-106260734D01*
X174280129Y-106538036D01*
X174392923Y-106802476D01*
X174540561Y-107049161D01*
X174720313Y-107273528D01*
X174734499Y-107286990D01*
X174911798Y-107455240D01*
X174928851Y-107471423D01*
X175162317Y-107639186D01*
X175166112Y-107641195D01*
X175166113Y-107641196D01*
X175184956Y-107651173D01*
X175416392Y-107773712D01*
X175521087Y-107812025D01*
X175596858Y-107839753D01*
X175686373Y-107872511D01*
X175967264Y-107933755D01*
X175995841Y-107936004D01*
X176190282Y-107951307D01*
X176190291Y-107951307D01*
X176192739Y-107951500D01*
X176348271Y-107951500D01*
X176350407Y-107951354D01*
X176350418Y-107951354D01*
X176558548Y-107937165D01*
X176558554Y-107937164D01*
X176562825Y-107936873D01*
X176567020Y-107936004D01*
X176567022Y-107936004D01*
X176703584Y-107907723D01*
X176844342Y-107878574D01*
X177115343Y-107782607D01*
X177370812Y-107650750D01*
X177374313Y-107648289D01*
X177374317Y-107648287D01*
X177553761Y-107522171D01*
X177606023Y-107485441D01*
X177816622Y-107289740D01*
X177998713Y-107067268D01*
X178148927Y-106822142D01*
X178264483Y-106558898D01*
X178343244Y-106282406D01*
X178383751Y-105997784D01*
X178383845Y-105979951D01*
X178385235Y-105714583D01*
X178385235Y-105714576D01*
X178385257Y-105710297D01*
X178347732Y-105425266D01*
X178271871Y-105147964D01*
X178159077Y-104883524D01*
X178011439Y-104636839D01*
X177831687Y-104412472D01*
X177623149Y-104214577D01*
X177389683Y-104046814D01*
X177367843Y-104035250D01*
X177344654Y-104022972D01*
X177135608Y-103912288D01*
X176865627Y-103813489D01*
X176584736Y-103752245D01*
X176553685Y-103749801D01*
X176361718Y-103734693D01*
X176361709Y-103734693D01*
X176359261Y-103734500D01*
X176203729Y-103734500D01*
X176201593Y-103734646D01*
X176201582Y-103734646D01*
X175993452Y-103748835D01*
X175993446Y-103748836D01*
X175989175Y-103749127D01*
X175984980Y-103749996D01*
X175984978Y-103749996D01*
X175848416Y-103778277D01*
X175707658Y-103807426D01*
X175436657Y-103903393D01*
X175181188Y-104035250D01*
X175177687Y-104037711D01*
X175177683Y-104037713D01*
X175167594Y-104044804D01*
X174945977Y-104200559D01*
X174735378Y-104396260D01*
X174553287Y-104618732D01*
X174403073Y-104863858D01*
X174287517Y-105127102D01*
X174286342Y-105131229D01*
X174286341Y-105131230D01*
X174278126Y-105160069D01*
X174208756Y-105403594D01*
X174168249Y-105688216D01*
X174168227Y-105692505D01*
X174168226Y-105692512D01*
X174167486Y-105833840D01*
X174166743Y-105975703D01*
X137628999Y-105975703D01*
X137628999Y-105583331D01*
X137628629Y-105576510D01*
X137623105Y-105525648D01*
X137619479Y-105510396D01*
X137574324Y-105389946D01*
X137565786Y-105374351D01*
X137489285Y-105272276D01*
X137476724Y-105259715D01*
X137374649Y-105183214D01*
X137359054Y-105174676D01*
X137238606Y-105129522D01*
X137223351Y-105125895D01*
X137172486Y-105120369D01*
X137165672Y-105120000D01*
X136543115Y-105120000D01*
X136527876Y-105124475D01*
X136526671Y-105125865D01*
X136525000Y-105133548D01*
X136525000Y-106205885D01*
X136017000Y-106205885D01*
X136017000Y-105138116D01*
X136012525Y-105122877D01*
X136011135Y-105121672D01*
X136003452Y-105120001D01*
X135376331Y-105120001D01*
X135369510Y-105120371D01*
X135318648Y-105125895D01*
X135303396Y-105129521D01*
X135182946Y-105174676D01*
X135167351Y-105183214D01*
X135065276Y-105259715D01*
X135052715Y-105272276D01*
X134976214Y-105374351D01*
X134967676Y-105389946D01*
X134926100Y-105500849D01*
X134883458Y-105557613D01*
X134816897Y-105582313D01*
X134747548Y-105567105D01*
X134714925Y-105541419D01*
X134663806Y-105485240D01*
X134656273Y-105478215D01*
X134489139Y-105346222D01*
X134480552Y-105340517D01*
X134294117Y-105237599D01*
X134284705Y-105233369D01*
X134083959Y-105162280D01*
X134073988Y-105159646D01*
X134002837Y-105146972D01*
X133989540Y-105148432D01*
X133985000Y-105162989D01*
X133985000Y-106205885D01*
X133477000Y-106205885D01*
X133477000Y-105161102D01*
X133473082Y-105147758D01*
X133458806Y-105145771D01*
X133420324Y-105151660D01*
X133410288Y-105154051D01*
X133207868Y-105220212D01*
X133198359Y-105224209D01*
X133009463Y-105322542D01*
X133000738Y-105328036D01*
X132830433Y-105455905D01*
X132822726Y-105462748D01*
X132675590Y-105616717D01*
X132669109Y-105624722D01*
X132564498Y-105778074D01*
X132509587Y-105823076D01*
X132439062Y-105831247D01*
X132375315Y-105799993D01*
X132354618Y-105775509D01*
X132273822Y-105650617D01*
X132273820Y-105650614D01*
X132271014Y-105646277D01*
X132120670Y-105481051D01*
X132116619Y-105477852D01*
X132116615Y-105477848D01*
X131949414Y-105345800D01*
X131949410Y-105345798D01*
X131945359Y-105342598D01*
X131909028Y-105322542D01*
X131893136Y-105313769D01*
X131749789Y-105234638D01*
X131744920Y-105232914D01*
X131744916Y-105232912D01*
X131544087Y-105161795D01*
X131544083Y-105161794D01*
X131539212Y-105160069D01*
X131534119Y-105159162D01*
X131534116Y-105159161D01*
X131324373Y-105121800D01*
X131324367Y-105121799D01*
X131319284Y-105120894D01*
X131245452Y-105119992D01*
X131101081Y-105118228D01*
X131101079Y-105118228D01*
X131095911Y-105118165D01*
X130875091Y-105151955D01*
X130662756Y-105221357D01*
X130589071Y-105259715D01*
X130474487Y-105319364D01*
X130464607Y-105324507D01*
X130460474Y-105327610D01*
X130460471Y-105327612D01*
X130290100Y-105455530D01*
X130285965Y-105458635D01*
X130282393Y-105462373D01*
X130182309Y-105567105D01*
X130131629Y-105620138D01*
X130024201Y-105777621D01*
X129969293Y-105822621D01*
X129898768Y-105830792D01*
X129835021Y-105799538D01*
X129814324Y-105775054D01*
X129733822Y-105650617D01*
X129733820Y-105650614D01*
X129731014Y-105646277D01*
X129580670Y-105481051D01*
X129576619Y-105477852D01*
X129576615Y-105477848D01*
X129409414Y-105345800D01*
X129409410Y-105345798D01*
X129405359Y-105342598D01*
X129369028Y-105322542D01*
X129353136Y-105313769D01*
X129209789Y-105234638D01*
X129204920Y-105232914D01*
X129204916Y-105232912D01*
X129004087Y-105161795D01*
X129004083Y-105161794D01*
X128999212Y-105160069D01*
X128994119Y-105159162D01*
X128994116Y-105159161D01*
X128784373Y-105121800D01*
X128784367Y-105121799D01*
X128779284Y-105120894D01*
X128705452Y-105119992D01*
X128561081Y-105118228D01*
X128561079Y-105118228D01*
X128555911Y-105118165D01*
X128335091Y-105151955D01*
X128122756Y-105221357D01*
X128049071Y-105259715D01*
X127934487Y-105319364D01*
X127924607Y-105324507D01*
X127920474Y-105327610D01*
X127920471Y-105327612D01*
X127750100Y-105455530D01*
X127745965Y-105458635D01*
X127742393Y-105462373D01*
X127642309Y-105567105D01*
X127591629Y-105620138D01*
X127484201Y-105777621D01*
X127429293Y-105822621D01*
X127358768Y-105830792D01*
X127295021Y-105799538D01*
X127274324Y-105775054D01*
X127193822Y-105650617D01*
X127193820Y-105650614D01*
X127191014Y-105646277D01*
X127040670Y-105481051D01*
X127036619Y-105477852D01*
X127036615Y-105477848D01*
X126869414Y-105345800D01*
X126869410Y-105345798D01*
X126865359Y-105342598D01*
X126829028Y-105322542D01*
X126813136Y-105313769D01*
X126669789Y-105234638D01*
X126664920Y-105232914D01*
X126664916Y-105232912D01*
X126464087Y-105161795D01*
X126464083Y-105161794D01*
X126459212Y-105160069D01*
X126454119Y-105159162D01*
X126454116Y-105159161D01*
X126244373Y-105121800D01*
X126244367Y-105121799D01*
X126239284Y-105120894D01*
X126165452Y-105119992D01*
X126021081Y-105118228D01*
X126021079Y-105118228D01*
X126015911Y-105118165D01*
X125795091Y-105151955D01*
X125582756Y-105221357D01*
X125509071Y-105259715D01*
X125394487Y-105319364D01*
X125384607Y-105324507D01*
X125380474Y-105327610D01*
X125380471Y-105327612D01*
X125210100Y-105455530D01*
X125205965Y-105458635D01*
X125202393Y-105462373D01*
X125102309Y-105567105D01*
X125051629Y-105620138D01*
X124944201Y-105777621D01*
X124889293Y-105822621D01*
X124818768Y-105830792D01*
X124755021Y-105799538D01*
X124734324Y-105775054D01*
X124653822Y-105650617D01*
X124653820Y-105650614D01*
X124651014Y-105646277D01*
X124500670Y-105481051D01*
X124496619Y-105477852D01*
X124496615Y-105477848D01*
X124329412Y-105345799D01*
X124325359Y-105342598D01*
X124320841Y-105340104D01*
X124320835Y-105340100D01*
X124294605Y-105325620D01*
X124244635Y-105275187D01*
X124229500Y-105215312D01*
X124229500Y-102940951D01*
X124249502Y-102872830D01*
X124266404Y-102851856D01*
X124953854Y-102164405D01*
X125016167Y-102130380D01*
X125042950Y-102127500D01*
X125063487Y-102127500D01*
X125069939Y-102126128D01*
X125069944Y-102126128D01*
X125156887Y-102107647D01*
X125250288Y-102087794D01*
X125256319Y-102085109D01*
X125418722Y-102012803D01*
X125418724Y-102012802D01*
X125424752Y-102010118D01*
X125579253Y-101897866D01*
X125707040Y-101755944D01*
X125802527Y-101590556D01*
X125861542Y-101408928D01*
X125881504Y-101219000D01*
X125861542Y-101029072D01*
X125802527Y-100847444D01*
X125707040Y-100682056D01*
X125696052Y-100669852D01*
X125583675Y-100545045D01*
X125583674Y-100545044D01*
X125579253Y-100540134D01*
X125424752Y-100427882D01*
X125418724Y-100425198D01*
X125418722Y-100425197D01*
X125256319Y-100352891D01*
X125256318Y-100352891D01*
X125250288Y-100350206D01*
X125156888Y-100330353D01*
X125069944Y-100311872D01*
X125069939Y-100311872D01*
X125063487Y-100310500D01*
X124872513Y-100310500D01*
X124866061Y-100311872D01*
X124866056Y-100311872D01*
X124779112Y-100330353D01*
X124685712Y-100350206D01*
X124679682Y-100352891D01*
X124679681Y-100352891D01*
X124517278Y-100425197D01*
X124517276Y-100425198D01*
X124511248Y-100427882D01*
X124356747Y-100540134D01*
X124352326Y-100545044D01*
X124352325Y-100545045D01*
X124239949Y-100669852D01*
X124228960Y-100682056D01*
X124133473Y-100847444D01*
X124074458Y-101029072D01*
X124073768Y-101035635D01*
X124073768Y-101035636D01*
X124061245Y-101154785D01*
X124034232Y-101220441D01*
X124025031Y-101230709D01*
X123163391Y-102092350D01*
X123154611Y-102100338D01*
X123147920Y-102104584D01*
X123142494Y-102110362D01*
X123099395Y-102156258D01*
X123096640Y-102159100D01*
X123076073Y-102179667D01*
X123073356Y-102183170D01*
X123065648Y-102192195D01*
X123034028Y-102225867D01*
X123030207Y-102232818D01*
X123030206Y-102232819D01*
X123023697Y-102244658D01*
X123012843Y-102261182D01*
X123005018Y-102271271D01*
X122999696Y-102278132D01*
X122996549Y-102285404D01*
X122996548Y-102285406D01*
X122981346Y-102320535D01*
X122976124Y-102331195D01*
X122953876Y-102371663D01*
X122948541Y-102392441D01*
X122942142Y-102411131D01*
X122933620Y-102430824D01*
X122932380Y-102438655D01*
X122926394Y-102476448D01*
X122923987Y-102488071D01*
X122922014Y-102495756D01*
X122912500Y-102532812D01*
X122912500Y-102554259D01*
X122910949Y-102573969D01*
X122907594Y-102595152D01*
X122908340Y-102603043D01*
X122911941Y-102641138D01*
X122912500Y-102652996D01*
X122912500Y-105212705D01*
X122892498Y-105280826D01*
X122852441Y-105317572D01*
X122853570Y-105319364D01*
X122849200Y-105322116D01*
X122844607Y-105324507D01*
X122665965Y-105458635D01*
X122662393Y-105462373D01*
X122562309Y-105567105D01*
X122511629Y-105620138D01*
X122404201Y-105777621D01*
X122349293Y-105822621D01*
X122278768Y-105830792D01*
X122215021Y-105799538D01*
X122194324Y-105775054D01*
X122113822Y-105650617D01*
X122113820Y-105650614D01*
X122111014Y-105646277D01*
X121960670Y-105481051D01*
X121956619Y-105477852D01*
X121956615Y-105477848D01*
X121789414Y-105345800D01*
X121789410Y-105345798D01*
X121785359Y-105342598D01*
X121749028Y-105322542D01*
X121733136Y-105313769D01*
X121589789Y-105234638D01*
X121584920Y-105232914D01*
X121584916Y-105232912D01*
X121384087Y-105161795D01*
X121384083Y-105161794D01*
X121379212Y-105160069D01*
X121374119Y-105159162D01*
X121374116Y-105159161D01*
X121164373Y-105121800D01*
X121164367Y-105121799D01*
X121159284Y-105120894D01*
X121085452Y-105119992D01*
X120941081Y-105118228D01*
X120941079Y-105118228D01*
X120935911Y-105118165D01*
X120715091Y-105151955D01*
X120502756Y-105221357D01*
X120429071Y-105259715D01*
X120314487Y-105319364D01*
X120304607Y-105324507D01*
X120300474Y-105327610D01*
X120300471Y-105327612D01*
X120130100Y-105455530D01*
X120125965Y-105458635D01*
X120122393Y-105462373D01*
X120022309Y-105567105D01*
X119971629Y-105620138D01*
X119864201Y-105777621D01*
X119809293Y-105822621D01*
X119738768Y-105830792D01*
X119675021Y-105799538D01*
X119654324Y-105775054D01*
X119573822Y-105650617D01*
X119573820Y-105650614D01*
X119571014Y-105646277D01*
X119420670Y-105481051D01*
X119416619Y-105477852D01*
X119416615Y-105477848D01*
X119249414Y-105345800D01*
X119249410Y-105345798D01*
X119245359Y-105342598D01*
X119209028Y-105322542D01*
X119193136Y-105313769D01*
X119049789Y-105234638D01*
X119044920Y-105232914D01*
X119044916Y-105232912D01*
X118844087Y-105161795D01*
X118844083Y-105161794D01*
X118839212Y-105160069D01*
X118834119Y-105159162D01*
X118834116Y-105159161D01*
X118624373Y-105121800D01*
X118624367Y-105121799D01*
X118619284Y-105120894D01*
X118545452Y-105119992D01*
X118401081Y-105118228D01*
X118401079Y-105118228D01*
X118395911Y-105118165D01*
X118175091Y-105151955D01*
X117962756Y-105221357D01*
X117889071Y-105259715D01*
X117774487Y-105319364D01*
X117764607Y-105324507D01*
X117760474Y-105327610D01*
X117760471Y-105327612D01*
X117590100Y-105455530D01*
X117585965Y-105458635D01*
X117582393Y-105462373D01*
X117482309Y-105567105D01*
X117431629Y-105620138D01*
X117324201Y-105777621D01*
X117269293Y-105822621D01*
X117198768Y-105830792D01*
X117135021Y-105799538D01*
X117114324Y-105775054D01*
X117033822Y-105650617D01*
X117033820Y-105650614D01*
X117031014Y-105646277D01*
X116880670Y-105481051D01*
X116876619Y-105477852D01*
X116876615Y-105477848D01*
X116709414Y-105345800D01*
X116709410Y-105345798D01*
X116705359Y-105342598D01*
X116669028Y-105322542D01*
X116653136Y-105313769D01*
X116509789Y-105234638D01*
X116504920Y-105232914D01*
X116504916Y-105232912D01*
X116304087Y-105161795D01*
X116304083Y-105161794D01*
X116299212Y-105160069D01*
X116294119Y-105159162D01*
X116294116Y-105159161D01*
X116084373Y-105121800D01*
X116084367Y-105121799D01*
X116079284Y-105120894D01*
X116005452Y-105119992D01*
X115861081Y-105118228D01*
X115861079Y-105118228D01*
X115855911Y-105118165D01*
X115635091Y-105151955D01*
X115422756Y-105221357D01*
X115349071Y-105259715D01*
X115234487Y-105319364D01*
X115224607Y-105324507D01*
X115220474Y-105327610D01*
X115220471Y-105327612D01*
X115050100Y-105455530D01*
X115045965Y-105458635D01*
X115042393Y-105462373D01*
X114942309Y-105567105D01*
X114891629Y-105620138D01*
X114784201Y-105777621D01*
X114729293Y-105822621D01*
X114658768Y-105830792D01*
X114595021Y-105799538D01*
X114574324Y-105775054D01*
X114493822Y-105650617D01*
X114493820Y-105650614D01*
X114491014Y-105646277D01*
X114340670Y-105481051D01*
X114336619Y-105477852D01*
X114336615Y-105477848D01*
X114169414Y-105345800D01*
X114169410Y-105345798D01*
X114165359Y-105342598D01*
X114129028Y-105322542D01*
X114113136Y-105313769D01*
X113969789Y-105234638D01*
X113964920Y-105232914D01*
X113964916Y-105232912D01*
X113764087Y-105161795D01*
X113764083Y-105161794D01*
X113759212Y-105160069D01*
X113754119Y-105159162D01*
X113754116Y-105159161D01*
X113544373Y-105121800D01*
X113544367Y-105121799D01*
X113539284Y-105120894D01*
X113465452Y-105119992D01*
X113321081Y-105118228D01*
X113321079Y-105118228D01*
X113315911Y-105118165D01*
X113095091Y-105151955D01*
X112882756Y-105221357D01*
X112809071Y-105259715D01*
X112694487Y-105319364D01*
X112684607Y-105324507D01*
X112680474Y-105327610D01*
X112680471Y-105327612D01*
X112510100Y-105455530D01*
X112505965Y-105458635D01*
X112502393Y-105462373D01*
X112402309Y-105567105D01*
X112351629Y-105620138D01*
X112244201Y-105777621D01*
X112189293Y-105822621D01*
X112118768Y-105830792D01*
X112055021Y-105799538D01*
X112034324Y-105775054D01*
X111953822Y-105650617D01*
X111953820Y-105650614D01*
X111951014Y-105646277D01*
X111800670Y-105481051D01*
X111796619Y-105477852D01*
X111796615Y-105477848D01*
X111629414Y-105345800D01*
X111629410Y-105345798D01*
X111625359Y-105342598D01*
X111589028Y-105322542D01*
X111573136Y-105313769D01*
X111429789Y-105234638D01*
X111424920Y-105232914D01*
X111424916Y-105232912D01*
X111224087Y-105161795D01*
X111224083Y-105161794D01*
X111219212Y-105160069D01*
X111214119Y-105159162D01*
X111214116Y-105159161D01*
X111004373Y-105121800D01*
X111004367Y-105121799D01*
X110999284Y-105120894D01*
X110925452Y-105119992D01*
X110781081Y-105118228D01*
X110781079Y-105118228D01*
X110775911Y-105118165D01*
X110555091Y-105151955D01*
X110342756Y-105221357D01*
X110269071Y-105259715D01*
X110154487Y-105319364D01*
X110144607Y-105324507D01*
X110140474Y-105327610D01*
X110140471Y-105327612D01*
X109970100Y-105455530D01*
X109965965Y-105458635D01*
X109962393Y-105462373D01*
X109862309Y-105567105D01*
X109811629Y-105620138D01*
X109685743Y-105804680D01*
X109638715Y-105905993D01*
X109594134Y-106002036D01*
X109591688Y-106007305D01*
X109531989Y-106222570D01*
X109508251Y-106444695D01*
X104002015Y-106444695D01*
X104048244Y-106282406D01*
X104088751Y-105997784D01*
X104088845Y-105979951D01*
X104090235Y-105714583D01*
X104090235Y-105714576D01*
X104090257Y-105710297D01*
X104052732Y-105425266D01*
X103976871Y-105147964D01*
X103864077Y-104883524D01*
X103716439Y-104636839D01*
X103536687Y-104412472D01*
X103328149Y-104214577D01*
X103094683Y-104046814D01*
X103072843Y-104035250D01*
X103049654Y-104022972D01*
X102840608Y-103912288D01*
X102570627Y-103813489D01*
X102289736Y-103752245D01*
X102258685Y-103749801D01*
X102066718Y-103734693D01*
X102066709Y-103734693D01*
X102064261Y-103734500D01*
X101908729Y-103734500D01*
X101906593Y-103734646D01*
X101906582Y-103734646D01*
X101698452Y-103748835D01*
X101698446Y-103748836D01*
X101694175Y-103749127D01*
X101689980Y-103749996D01*
X101689978Y-103749996D01*
X101553416Y-103778277D01*
X101412658Y-103807426D01*
X101141657Y-103903393D01*
X100886188Y-104035250D01*
X100882687Y-104037711D01*
X100882683Y-104037713D01*
X100872594Y-104044804D01*
X100650977Y-104200559D01*
X100440378Y-104396260D01*
X100258287Y-104618732D01*
X100108073Y-104863858D01*
X99992517Y-105127102D01*
X99991342Y-105131229D01*
X99991341Y-105131230D01*
X99983126Y-105160069D01*
X99913756Y-105403594D01*
X99873249Y-105688216D01*
X99873227Y-105692505D01*
X99873226Y-105692512D01*
X99872486Y-105833840D01*
X99871743Y-105975703D01*
X96774500Y-105975703D01*
X96774500Y-96901000D01*
X105893496Y-96901000D01*
X105894186Y-96907565D01*
X105902815Y-96989661D01*
X105913458Y-97090928D01*
X105972473Y-97272556D01*
X106067960Y-97437944D01*
X106072378Y-97442851D01*
X106072379Y-97442852D01*
X106191325Y-97574955D01*
X106195747Y-97579866D01*
X106294843Y-97651864D01*
X106331114Y-97678216D01*
X106350248Y-97692118D01*
X106356276Y-97694802D01*
X106356278Y-97694803D01*
X106418247Y-97722393D01*
X106524712Y-97769794D01*
X106618112Y-97789647D01*
X106705056Y-97808128D01*
X106705061Y-97808128D01*
X106711513Y-97809500D01*
X106902487Y-97809500D01*
X106908939Y-97808128D01*
X106908944Y-97808128D01*
X106995887Y-97789647D01*
X107089288Y-97769794D01*
X107193705Y-97723305D01*
X107195753Y-97722393D01*
X107247002Y-97711500D01*
X108344283Y-97711500D01*
X108412404Y-97731502D01*
X108458897Y-97785158D01*
X108469001Y-97855432D01*
X108437919Y-97921810D01*
X108353960Y-98015056D01*
X108258473Y-98180444D01*
X108199458Y-98362072D01*
X108179496Y-98552000D01*
X108199458Y-98741928D01*
X108258473Y-98923556D01*
X108353960Y-99088944D01*
X108358378Y-99093851D01*
X108358379Y-99093852D01*
X108402136Y-99142449D01*
X108432854Y-99206456D01*
X108434500Y-99226759D01*
X108434500Y-100048741D01*
X108414498Y-100116862D01*
X108402136Y-100133051D01*
X108353960Y-100186556D01*
X108350659Y-100192274D01*
X108274488Y-100324206D01*
X108258473Y-100351944D01*
X108199458Y-100533572D01*
X108198769Y-100540131D01*
X108198768Y-100540134D01*
X108184368Y-100677148D01*
X108179496Y-100723500D01*
X108199458Y-100913428D01*
X108258473Y-101095056D01*
X108353960Y-101260444D01*
X108481747Y-101402366D01*
X108636248Y-101514618D01*
X108642276Y-101517302D01*
X108642278Y-101517303D01*
X108786542Y-101581533D01*
X108810712Y-101592294D01*
X108904112Y-101612147D01*
X108991056Y-101630628D01*
X108991061Y-101630628D01*
X108997513Y-101632000D01*
X109188487Y-101632000D01*
X109194939Y-101630628D01*
X109194944Y-101630628D01*
X109281887Y-101612147D01*
X109375288Y-101592294D01*
X109399458Y-101581533D01*
X109543722Y-101517303D01*
X109543724Y-101517302D01*
X109549752Y-101514618D01*
X109704253Y-101402366D01*
X109832040Y-101260444D01*
X109927527Y-101095056D01*
X109986542Y-100913428D01*
X110006504Y-100723500D01*
X110001632Y-100677148D01*
X109987232Y-100540134D01*
X109987231Y-100540131D01*
X109986542Y-100533572D01*
X109927527Y-100351944D01*
X109911513Y-100324206D01*
X109835341Y-100192274D01*
X109832040Y-100186556D01*
X109783864Y-100133051D01*
X109781440Y-100128000D01*
X146152496Y-100128000D01*
X146172458Y-100317928D01*
X146231473Y-100499556D01*
X146234776Y-100505278D01*
X146234777Y-100505279D01*
X146251112Y-100533572D01*
X146326960Y-100664944D01*
X146331378Y-100669851D01*
X146331379Y-100669852D01*
X146342368Y-100682056D01*
X146454747Y-100806866D01*
X146609248Y-100919118D01*
X146615276Y-100921802D01*
X146615278Y-100921803D01*
X146777681Y-100994109D01*
X146783712Y-100996794D01*
X146877113Y-101016647D01*
X146964056Y-101035128D01*
X146964061Y-101035128D01*
X146970513Y-101036500D01*
X146991050Y-101036500D01*
X147059171Y-101056502D01*
X147080145Y-101073405D01*
X148113507Y-102106767D01*
X148147533Y-102169079D01*
X148149721Y-102182688D01*
X148162935Y-102308405D01*
X148221950Y-102490033D01*
X148225253Y-102495755D01*
X148225254Y-102495756D01*
X148251226Y-102540741D01*
X148317437Y-102655421D01*
X148445224Y-102797343D01*
X148544320Y-102869341D01*
X148549123Y-102872830D01*
X148599725Y-102909595D01*
X148605753Y-102912279D01*
X148605755Y-102912280D01*
X148670152Y-102940951D01*
X148774189Y-102987271D01*
X148867589Y-103007124D01*
X148954533Y-103025605D01*
X148954538Y-103025605D01*
X148960990Y-103026977D01*
X149151964Y-103026977D01*
X149158416Y-103025605D01*
X149158421Y-103025605D01*
X149245365Y-103007124D01*
X149338765Y-102987271D01*
X149442802Y-102940951D01*
X149507199Y-102912280D01*
X149507201Y-102912279D01*
X149513229Y-102909595D01*
X149563832Y-102872830D01*
X149568634Y-102869341D01*
X149667730Y-102797343D01*
X149795517Y-102655421D01*
X149861728Y-102540741D01*
X149887700Y-102495756D01*
X149887701Y-102495755D01*
X149891004Y-102490033D01*
X149950019Y-102308405D01*
X149959302Y-102220087D01*
X149969291Y-102125042D01*
X149969981Y-102118477D01*
X149950019Y-101928549D01*
X149891004Y-101746921D01*
X149795517Y-101581533D01*
X149667730Y-101439611D01*
X149513229Y-101327359D01*
X149507201Y-101324675D01*
X149507199Y-101324674D01*
X149344796Y-101252368D01*
X149344795Y-101252368D01*
X149338765Y-101249683D01*
X149245365Y-101229830D01*
X149158421Y-101211349D01*
X149158416Y-101211349D01*
X149151964Y-101209977D01*
X149131427Y-101209977D01*
X149063306Y-101189975D01*
X149042332Y-101173072D01*
X148008970Y-100139710D01*
X147974944Y-100077398D01*
X147972755Y-100063786D01*
X147960232Y-99944636D01*
X147960232Y-99944635D01*
X147959542Y-99938072D01*
X147900527Y-99756444D01*
X147805040Y-99591056D01*
X147677253Y-99449134D01*
X147522752Y-99336882D01*
X147516724Y-99334198D01*
X147516722Y-99334197D01*
X147354319Y-99261891D01*
X147354318Y-99261891D01*
X147348288Y-99259206D01*
X147254888Y-99239353D01*
X147167944Y-99220872D01*
X147167939Y-99220872D01*
X147161487Y-99219500D01*
X146970513Y-99219500D01*
X146964061Y-99220872D01*
X146964056Y-99220872D01*
X146877112Y-99239353D01*
X146783712Y-99259206D01*
X146777682Y-99261891D01*
X146777681Y-99261891D01*
X146615278Y-99334197D01*
X146615276Y-99334198D01*
X146609248Y-99336882D01*
X146454747Y-99449134D01*
X146326960Y-99591056D01*
X146231473Y-99756444D01*
X146172458Y-99938072D01*
X146152496Y-100128000D01*
X109781440Y-100128000D01*
X109753146Y-100069044D01*
X109751500Y-100048741D01*
X109751500Y-99226759D01*
X109771502Y-99158638D01*
X109783864Y-99142449D01*
X109827621Y-99093852D01*
X109827622Y-99093851D01*
X109832040Y-99088944D01*
X109927527Y-98923556D01*
X109986542Y-98741928D01*
X110006504Y-98552000D01*
X109986542Y-98362072D01*
X109927527Y-98180444D01*
X109832040Y-98015056D01*
X109748081Y-97921810D01*
X109717363Y-97857803D01*
X109726128Y-97787349D01*
X109771591Y-97732818D01*
X109841717Y-97711500D01*
X112157676Y-97711500D01*
X112210926Y-97723305D01*
X112323324Y-97775717D01*
X112546170Y-97835429D01*
X112776000Y-97855536D01*
X113005830Y-97835429D01*
X113228676Y-97775717D01*
X113343030Y-97722393D01*
X113432781Y-97680542D01*
X113432786Y-97680539D01*
X113437768Y-97678216D01*
X113585240Y-97574955D01*
X113622242Y-97549046D01*
X113622245Y-97549044D01*
X113626753Y-97545887D01*
X113789887Y-97382753D01*
X113922216Y-97193768D01*
X113924539Y-97188786D01*
X113924542Y-97188781D01*
X114017392Y-96989661D01*
X114019717Y-96984676D01*
X114079429Y-96761830D01*
X114099536Y-96532000D01*
X114079429Y-96302170D01*
X114019717Y-96079324D01*
X113965119Y-95962237D01*
X113924542Y-95875219D01*
X113924539Y-95875214D01*
X113922216Y-95870232D01*
X113814818Y-95716852D01*
X113793046Y-95685758D01*
X113793044Y-95685755D01*
X113789887Y-95681247D01*
X113626753Y-95518113D01*
X113622245Y-95514956D01*
X113622242Y-95514954D01*
X113543370Y-95459728D01*
X113437768Y-95385784D01*
X113432786Y-95383461D01*
X113432781Y-95383458D01*
X113326442Y-95333872D01*
X113228676Y-95288283D01*
X113005830Y-95228571D01*
X112776000Y-95208464D01*
X112546170Y-95228571D01*
X112323324Y-95288283D01*
X112225558Y-95333872D01*
X112119219Y-95383458D01*
X112119214Y-95383461D01*
X112114232Y-95385784D01*
X112008630Y-95459728D01*
X111929758Y-95514954D01*
X111929755Y-95514956D01*
X111925247Y-95518113D01*
X111762113Y-95681247D01*
X111758956Y-95685755D01*
X111758954Y-95685758D01*
X111737182Y-95716852D01*
X111629784Y-95870232D01*
X111627461Y-95875214D01*
X111627458Y-95875219D01*
X111586881Y-95962237D01*
X111532283Y-96079324D01*
X111526444Y-96101114D01*
X111489495Y-96161734D01*
X111425634Y-96192755D01*
X111404739Y-96194500D01*
X107421158Y-96194500D01*
X107353037Y-96174498D01*
X107347097Y-96170436D01*
X107269094Y-96113763D01*
X107269093Y-96113762D01*
X107263752Y-96109882D01*
X107257724Y-96107198D01*
X107257722Y-96107197D01*
X107095319Y-96034891D01*
X107095318Y-96034891D01*
X107089288Y-96032206D01*
X106995887Y-96012353D01*
X106908944Y-95993872D01*
X106908939Y-95993872D01*
X106902487Y-95992500D01*
X106711513Y-95992500D01*
X106705061Y-95993872D01*
X106705056Y-95993872D01*
X106618112Y-96012353D01*
X106524712Y-96032206D01*
X106518682Y-96034891D01*
X106518681Y-96034891D01*
X106356278Y-96107197D01*
X106356276Y-96107198D01*
X106350248Y-96109882D01*
X106195747Y-96222134D01*
X106067960Y-96364056D01*
X105972473Y-96529444D01*
X105913458Y-96711072D01*
X105893496Y-96901000D01*
X96774500Y-96901000D01*
X96774500Y-91532000D01*
X108952464Y-91532000D01*
X108972571Y-91761830D01*
X109032283Y-91984676D01*
X109034608Y-91989661D01*
X109127458Y-92188781D01*
X109127461Y-92188786D01*
X109129784Y-92193768D01*
X109262113Y-92382753D01*
X109425247Y-92545887D01*
X109429755Y-92549044D01*
X109429758Y-92549046D01*
X109508630Y-92604272D01*
X109614232Y-92678216D01*
X109619214Y-92680539D01*
X109619219Y-92680542D01*
X109725558Y-92730128D01*
X109823324Y-92775717D01*
X110046170Y-92835429D01*
X110276000Y-92855536D01*
X110505830Y-92835429D01*
X110728676Y-92775717D01*
X110826442Y-92730128D01*
X110932781Y-92680542D01*
X110932786Y-92680539D01*
X110937768Y-92678216D01*
X111013421Y-92625243D01*
X114547312Y-92625243D01*
X114556608Y-92637258D01*
X114609974Y-92674625D01*
X114619469Y-92680108D01*
X114818513Y-92772923D01*
X114828805Y-92776669D01*
X115040942Y-92833511D01*
X115051737Y-92835414D01*
X115270525Y-92854556D01*
X115281475Y-92854556D01*
X115500263Y-92835414D01*
X115511058Y-92833511D01*
X115723195Y-92776669D01*
X115733487Y-92772923D01*
X115932531Y-92680108D01*
X115942026Y-92674625D01*
X115996230Y-92636671D01*
X116004605Y-92626194D01*
X115997537Y-92612747D01*
X115288812Y-91904022D01*
X115274868Y-91896408D01*
X115273035Y-91896539D01*
X115266420Y-91900790D01*
X114553742Y-92613468D01*
X114547312Y-92625243D01*
X111013421Y-92625243D01*
X111043370Y-92604272D01*
X111122242Y-92549046D01*
X111122245Y-92549044D01*
X111126753Y-92545887D01*
X111289887Y-92382753D01*
X111422216Y-92193768D01*
X111424539Y-92188786D01*
X111424542Y-92188781D01*
X111517392Y-91989661D01*
X111519717Y-91984676D01*
X111579429Y-91761830D01*
X111599057Y-91537475D01*
X113953444Y-91537475D01*
X113972586Y-91756263D01*
X113974489Y-91767058D01*
X114031331Y-91979195D01*
X114035077Y-91989487D01*
X114127895Y-92188536D01*
X114133373Y-92198022D01*
X114171328Y-92252229D01*
X114181806Y-92260604D01*
X114195254Y-92253536D01*
X114903978Y-91544812D01*
X114910356Y-91533132D01*
X115640408Y-91533132D01*
X115640539Y-91534965D01*
X115644790Y-91541580D01*
X116357468Y-92254258D01*
X116369242Y-92260688D01*
X116381258Y-92251391D01*
X116418627Y-92198022D01*
X116424105Y-92188536D01*
X116516923Y-91989487D01*
X116520669Y-91979195D01*
X116577511Y-91767058D01*
X116579414Y-91756263D01*
X116598556Y-91537475D01*
X116598556Y-91526525D01*
X116579414Y-91307737D01*
X116577511Y-91296942D01*
X116520669Y-91084805D01*
X116516923Y-91074513D01*
X116424105Y-90875464D01*
X116418627Y-90865978D01*
X116380672Y-90811771D01*
X116370194Y-90803396D01*
X116356746Y-90810464D01*
X115648022Y-91519188D01*
X115640408Y-91533132D01*
X114910356Y-91533132D01*
X114911592Y-91530868D01*
X114911461Y-91529035D01*
X114907210Y-91522420D01*
X114194532Y-90809742D01*
X114182758Y-90803312D01*
X114170742Y-90812609D01*
X114133373Y-90865978D01*
X114127895Y-90875464D01*
X114035077Y-91074513D01*
X114031331Y-91084805D01*
X113974489Y-91296942D01*
X113972586Y-91307737D01*
X113953444Y-91526525D01*
X113953444Y-91537475D01*
X111599057Y-91537475D01*
X111599536Y-91532000D01*
X111579429Y-91302170D01*
X111519717Y-91079324D01*
X111461895Y-90955323D01*
X111424542Y-90875219D01*
X111424539Y-90875214D01*
X111422216Y-90870232D01*
X111336166Y-90747340D01*
X111293046Y-90685758D01*
X111293044Y-90685755D01*
X111289887Y-90681247D01*
X111126753Y-90518113D01*
X111122245Y-90514956D01*
X111122242Y-90514954D01*
X111031269Y-90451254D01*
X111012063Y-90437806D01*
X114547396Y-90437806D01*
X114554464Y-90451254D01*
X115263188Y-91159978D01*
X115277132Y-91167592D01*
X115278965Y-91167461D01*
X115285580Y-91163210D01*
X115998258Y-90450532D01*
X116004688Y-90438757D01*
X115995392Y-90426742D01*
X115942026Y-90389375D01*
X115932531Y-90383892D01*
X115857704Y-90349000D01*
X122657496Y-90349000D01*
X122658186Y-90355565D01*
X122665729Y-90427328D01*
X122677458Y-90538928D01*
X122736473Y-90720556D01*
X122739776Y-90726278D01*
X122739777Y-90726279D01*
X122747504Y-90739663D01*
X122831960Y-90885944D01*
X122959747Y-91027866D01*
X123038651Y-91085193D01*
X123100413Y-91130066D01*
X123114248Y-91140118D01*
X123120276Y-91142802D01*
X123120278Y-91142803D01*
X123231188Y-91192183D01*
X123288712Y-91217794D01*
X123374392Y-91236006D01*
X123469056Y-91256128D01*
X123469061Y-91256128D01*
X123475513Y-91257500D01*
X123666487Y-91257500D01*
X123672939Y-91256128D01*
X123672944Y-91256128D01*
X123767608Y-91236006D01*
X123853288Y-91217794D01*
X123910812Y-91192183D01*
X124021722Y-91142803D01*
X124021724Y-91142802D01*
X124027752Y-91140118D01*
X124041588Y-91130066D01*
X124103349Y-91085193D01*
X124182253Y-91027866D01*
X124310040Y-90885944D01*
X124394496Y-90739663D01*
X124402223Y-90726279D01*
X124402224Y-90726278D01*
X124405527Y-90720556D01*
X124464542Y-90538928D01*
X124476272Y-90427328D01*
X124483814Y-90355565D01*
X124484504Y-90349000D01*
X124483814Y-90342435D01*
X124465232Y-90165635D01*
X124465232Y-90165633D01*
X124464542Y-90159072D01*
X124405527Y-89977444D01*
X124310040Y-89812056D01*
X124261864Y-89758551D01*
X124231146Y-89694544D01*
X124229500Y-89674241D01*
X124229500Y-89245759D01*
X124249502Y-89177638D01*
X124261864Y-89161449D01*
X124305621Y-89112852D01*
X124305622Y-89112851D01*
X124310040Y-89107944D01*
X124379061Y-88988396D01*
X124402223Y-88948279D01*
X124402224Y-88948278D01*
X124405527Y-88942556D01*
X124464542Y-88760928D01*
X124473809Y-88672763D01*
X124483814Y-88577565D01*
X124484504Y-88571000D01*
X124482599Y-88552872D01*
X124465232Y-88387635D01*
X124465232Y-88387633D01*
X124464542Y-88381072D01*
X124405527Y-88199444D01*
X124401313Y-88192144D01*
X124313341Y-88039774D01*
X124310040Y-88034056D01*
X124250307Y-87967715D01*
X124186675Y-87897045D01*
X124186674Y-87897044D01*
X124182253Y-87892134D01*
X124027752Y-87779882D01*
X124021724Y-87777198D01*
X124021722Y-87777197D01*
X123859319Y-87704891D01*
X123859318Y-87704891D01*
X123853288Y-87702206D01*
X123759888Y-87682353D01*
X123672944Y-87663872D01*
X123672939Y-87663872D01*
X123666487Y-87662500D01*
X123475513Y-87662500D01*
X123469061Y-87663872D01*
X123469056Y-87663872D01*
X123382112Y-87682353D01*
X123288712Y-87702206D01*
X123282682Y-87704891D01*
X123282681Y-87704891D01*
X123120278Y-87777197D01*
X123120276Y-87777198D01*
X123114248Y-87779882D01*
X122959747Y-87892134D01*
X122955326Y-87897044D01*
X122955325Y-87897045D01*
X122891694Y-87967715D01*
X122831960Y-88034056D01*
X122828659Y-88039774D01*
X122740688Y-88192144D01*
X122736473Y-88199444D01*
X122677458Y-88381072D01*
X122676768Y-88387633D01*
X122676768Y-88387635D01*
X122659401Y-88552872D01*
X122657496Y-88571000D01*
X122658186Y-88577565D01*
X122668192Y-88672763D01*
X122677458Y-88760928D01*
X122736473Y-88942556D01*
X122739776Y-88948278D01*
X122739777Y-88948279D01*
X122762939Y-88988396D01*
X122831960Y-89107944D01*
X122836378Y-89112851D01*
X122836379Y-89112852D01*
X122880136Y-89161449D01*
X122910854Y-89225456D01*
X122912500Y-89245759D01*
X122912500Y-89674241D01*
X122892498Y-89742362D01*
X122880136Y-89758551D01*
X122831960Y-89812056D01*
X122736473Y-89977444D01*
X122677458Y-90159072D01*
X122676768Y-90165633D01*
X122676768Y-90165635D01*
X122658186Y-90342435D01*
X122657496Y-90349000D01*
X115857704Y-90349000D01*
X115733487Y-90291077D01*
X115723195Y-90287331D01*
X115511058Y-90230489D01*
X115500263Y-90228586D01*
X115281475Y-90209444D01*
X115270525Y-90209444D01*
X115051737Y-90228586D01*
X115040942Y-90230489D01*
X114828805Y-90287331D01*
X114818513Y-90291077D01*
X114619464Y-90383895D01*
X114609978Y-90389373D01*
X114555771Y-90427328D01*
X114547396Y-90437806D01*
X111012063Y-90437806D01*
X110937768Y-90385784D01*
X110932786Y-90383461D01*
X110932781Y-90383458D01*
X110826442Y-90333872D01*
X110728676Y-90288283D01*
X110505830Y-90228571D01*
X110276000Y-90208464D01*
X110046170Y-90228571D01*
X109823324Y-90288283D01*
X109725558Y-90333872D01*
X109619219Y-90383458D01*
X109619214Y-90383461D01*
X109614232Y-90385784D01*
X109520731Y-90451254D01*
X109429758Y-90514954D01*
X109429755Y-90514956D01*
X109425247Y-90518113D01*
X109262113Y-90681247D01*
X109258956Y-90685755D01*
X109258954Y-90685758D01*
X109215834Y-90747340D01*
X109129784Y-90870232D01*
X109127461Y-90875214D01*
X109127458Y-90875219D01*
X109090105Y-90955323D01*
X109032283Y-91079324D01*
X108972571Y-91302170D01*
X108952464Y-91532000D01*
X96774500Y-91532000D01*
X96774500Y-86290703D01*
X100506743Y-86290703D01*
X100544268Y-86575734D01*
X100620129Y-86853036D01*
X100732923Y-87117476D01*
X100880561Y-87364161D01*
X101060313Y-87588528D01*
X101077397Y-87604740D01*
X101259129Y-87777197D01*
X101268851Y-87786423D01*
X101502317Y-87954186D01*
X101506112Y-87956195D01*
X101506113Y-87956196D01*
X101527869Y-87967715D01*
X101756392Y-88088712D01*
X102026373Y-88187511D01*
X102307264Y-88248755D01*
X102335841Y-88251004D01*
X102530282Y-88266307D01*
X102530291Y-88266307D01*
X102532739Y-88266500D01*
X102688271Y-88266500D01*
X102690407Y-88266354D01*
X102690418Y-88266354D01*
X102898548Y-88252165D01*
X102898554Y-88252164D01*
X102902825Y-88251873D01*
X102907020Y-88251004D01*
X102907022Y-88251004D01*
X103125647Y-88205729D01*
X103184342Y-88193574D01*
X103455343Y-88097607D01*
X103710812Y-87965750D01*
X103714313Y-87963289D01*
X103714317Y-87963287D01*
X103907152Y-87827760D01*
X103946023Y-87800441D01*
X104053213Y-87700834D01*
X104153479Y-87607661D01*
X104153481Y-87607658D01*
X104156622Y-87604740D01*
X104338713Y-87382268D01*
X104488927Y-87137142D01*
X104604483Y-86873898D01*
X104683244Y-86597406D01*
X104713515Y-86384704D01*
X104723146Y-86317036D01*
X104723146Y-86317034D01*
X104723751Y-86312784D01*
X104723845Y-86294951D01*
X104725235Y-86029583D01*
X104725235Y-86029576D01*
X104725257Y-86025297D01*
X104722537Y-86004632D01*
X104708190Y-85895660D01*
X104693314Y-85782669D01*
X109513001Y-85782669D01*
X109513371Y-85789490D01*
X109518895Y-85840352D01*
X109522521Y-85855604D01*
X109567676Y-85976054D01*
X109576214Y-85991649D01*
X109652715Y-86093724D01*
X109665276Y-86106285D01*
X109767351Y-86182786D01*
X109782946Y-86191324D01*
X109903394Y-86236478D01*
X109918649Y-86240105D01*
X109969514Y-86245631D01*
X109976328Y-86246000D01*
X110598885Y-86246000D01*
X110614124Y-86241525D01*
X110615329Y-86240135D01*
X110617000Y-86232452D01*
X110617000Y-86227884D01*
X111125000Y-86227884D01*
X111129475Y-86243123D01*
X111130865Y-86244328D01*
X111138548Y-86245999D01*
X111765669Y-86245999D01*
X111772490Y-86245629D01*
X111823352Y-86240105D01*
X111838604Y-86236479D01*
X111959054Y-86191324D01*
X111974649Y-86182786D01*
X112076724Y-86106285D01*
X112089285Y-86093724D01*
X112165786Y-85991649D01*
X112174324Y-85976054D01*
X112215225Y-85866952D01*
X112257867Y-85810188D01*
X112324428Y-85785488D01*
X112393777Y-85800696D01*
X112428444Y-85828684D01*
X112453865Y-85858031D01*
X112453869Y-85858035D01*
X112457250Y-85861938D01*
X112629126Y-86004632D01*
X112822000Y-86117338D01*
X112826825Y-86119180D01*
X112826826Y-86119181D01*
X112899612Y-86146975D01*
X113030692Y-86197030D01*
X113035760Y-86198061D01*
X113035763Y-86198062D01*
X113100860Y-86211306D01*
X113249597Y-86241567D01*
X113254772Y-86241757D01*
X113254774Y-86241757D01*
X113467673Y-86249564D01*
X113467677Y-86249564D01*
X113472837Y-86249753D01*
X113477957Y-86249097D01*
X113477959Y-86249097D01*
X113689288Y-86222025D01*
X113689289Y-86222025D01*
X113694416Y-86221368D01*
X113699376Y-86219880D01*
X113903429Y-86158661D01*
X113903434Y-86158659D01*
X113908384Y-86157174D01*
X114108994Y-86058896D01*
X114290860Y-85929173D01*
X114449096Y-85771489D01*
X114579453Y-85590077D01*
X114580776Y-85591028D01*
X114627645Y-85547857D01*
X114697580Y-85535625D01*
X114763026Y-85563144D01*
X114790875Y-85594994D01*
X114850987Y-85693088D01*
X114997250Y-85861938D01*
X115169126Y-86004632D01*
X115362000Y-86117338D01*
X115366825Y-86119180D01*
X115366826Y-86119181D01*
X115439612Y-86146975D01*
X115570692Y-86197030D01*
X115575760Y-86198061D01*
X115575763Y-86198062D01*
X115640860Y-86211306D01*
X115789597Y-86241567D01*
X115794772Y-86241757D01*
X115794774Y-86241757D01*
X116007673Y-86249564D01*
X116007677Y-86249564D01*
X116012837Y-86249753D01*
X116017957Y-86249097D01*
X116017959Y-86249097D01*
X116229288Y-86222025D01*
X116229289Y-86222025D01*
X116234416Y-86221368D01*
X116239376Y-86219880D01*
X116443429Y-86158661D01*
X116443434Y-86158659D01*
X116448384Y-86157174D01*
X116648994Y-86058896D01*
X116830860Y-85929173D01*
X116989096Y-85771489D01*
X117119453Y-85590077D01*
X117120776Y-85591028D01*
X117167645Y-85547857D01*
X117237580Y-85535625D01*
X117303026Y-85563144D01*
X117330875Y-85594994D01*
X117390987Y-85693088D01*
X117537250Y-85861938D01*
X117709126Y-86004632D01*
X117902000Y-86117338D01*
X117906825Y-86119180D01*
X117906826Y-86119181D01*
X117979612Y-86146975D01*
X118110692Y-86197030D01*
X118115760Y-86198061D01*
X118115763Y-86198062D01*
X118180860Y-86211306D01*
X118329597Y-86241567D01*
X118334772Y-86241757D01*
X118334774Y-86241757D01*
X118547673Y-86249564D01*
X118547677Y-86249564D01*
X118552837Y-86249753D01*
X118557957Y-86249097D01*
X118557959Y-86249097D01*
X118769288Y-86222025D01*
X118769289Y-86222025D01*
X118774416Y-86221368D01*
X118779376Y-86219880D01*
X118983429Y-86158661D01*
X118983434Y-86158659D01*
X118988384Y-86157174D01*
X119188994Y-86058896D01*
X119370860Y-85929173D01*
X119529096Y-85771489D01*
X119659453Y-85590077D01*
X119660640Y-85590930D01*
X119707960Y-85547362D01*
X119777897Y-85535145D01*
X119843338Y-85562678D01*
X119871166Y-85594511D01*
X119928694Y-85688388D01*
X119934777Y-85696699D01*
X120074213Y-85857667D01*
X120081580Y-85864883D01*
X120245434Y-86000916D01*
X120253881Y-86006831D01*
X120437756Y-86114279D01*
X120447042Y-86118729D01*
X120646001Y-86194703D01*
X120655899Y-86197579D01*
X120759250Y-86218606D01*
X120773299Y-86217410D01*
X120777000Y-86207065D01*
X120777000Y-86206517D01*
X121285000Y-86206517D01*
X121289064Y-86220359D01*
X121302478Y-86222393D01*
X121309184Y-86221534D01*
X121319262Y-86219392D01*
X121523255Y-86158191D01*
X121532842Y-86154433D01*
X121724095Y-86060739D01*
X121732945Y-86055464D01*
X121906328Y-85931792D01*
X121914200Y-85925139D01*
X122065052Y-85774812D01*
X122071730Y-85766965D01*
X122199022Y-85589819D01*
X122200279Y-85590722D01*
X122247373Y-85547362D01*
X122317311Y-85535145D01*
X122382751Y-85562678D01*
X122410579Y-85594511D01*
X122470987Y-85693088D01*
X122617250Y-85861938D01*
X122789126Y-86004632D01*
X122982000Y-86117338D01*
X122986825Y-86119180D01*
X122986826Y-86119181D01*
X123059612Y-86146975D01*
X123190692Y-86197030D01*
X123195760Y-86198061D01*
X123195763Y-86198062D01*
X123260860Y-86211306D01*
X123409597Y-86241567D01*
X123414772Y-86241757D01*
X123414774Y-86241757D01*
X123627673Y-86249564D01*
X123627677Y-86249564D01*
X123632837Y-86249753D01*
X123637957Y-86249097D01*
X123637959Y-86249097D01*
X123849288Y-86222025D01*
X123849289Y-86222025D01*
X123854416Y-86221368D01*
X123859376Y-86219880D01*
X124063429Y-86158661D01*
X124063434Y-86158659D01*
X124068384Y-86157174D01*
X124268994Y-86058896D01*
X124450860Y-85929173D01*
X124609096Y-85771489D01*
X124739453Y-85590077D01*
X124740776Y-85591028D01*
X124787645Y-85547857D01*
X124857580Y-85535625D01*
X124923026Y-85563144D01*
X124950875Y-85594994D01*
X125010987Y-85693088D01*
X125157250Y-85861938D01*
X125329126Y-86004632D01*
X125522000Y-86117338D01*
X125526825Y-86119180D01*
X125526826Y-86119181D01*
X125599612Y-86146975D01*
X125730692Y-86197030D01*
X125735760Y-86198061D01*
X125735763Y-86198062D01*
X125800860Y-86211306D01*
X125949597Y-86241567D01*
X125954772Y-86241757D01*
X125954774Y-86241757D01*
X126167673Y-86249564D01*
X126167677Y-86249564D01*
X126172837Y-86249753D01*
X126177957Y-86249097D01*
X126177959Y-86249097D01*
X126389288Y-86222025D01*
X126389289Y-86222025D01*
X126394416Y-86221368D01*
X126399376Y-86219880D01*
X126603429Y-86158661D01*
X126603434Y-86158659D01*
X126608384Y-86157174D01*
X126808994Y-86058896D01*
X126990860Y-85929173D01*
X127149096Y-85771489D01*
X127279453Y-85590077D01*
X127280776Y-85591028D01*
X127327645Y-85547857D01*
X127397580Y-85535625D01*
X127463026Y-85563144D01*
X127490875Y-85594994D01*
X127550987Y-85693088D01*
X127697250Y-85861938D01*
X127869126Y-86004632D01*
X128062000Y-86117338D01*
X128066825Y-86119180D01*
X128066826Y-86119181D01*
X128139612Y-86146975D01*
X128270692Y-86197030D01*
X128275760Y-86198061D01*
X128275763Y-86198062D01*
X128340860Y-86211306D01*
X128489597Y-86241567D01*
X128494772Y-86241757D01*
X128494774Y-86241757D01*
X128707673Y-86249564D01*
X128707677Y-86249564D01*
X128712837Y-86249753D01*
X128717957Y-86249097D01*
X128717959Y-86249097D01*
X128929288Y-86222025D01*
X128929289Y-86222025D01*
X128934416Y-86221368D01*
X128939376Y-86219880D01*
X129143429Y-86158661D01*
X129143434Y-86158659D01*
X129148384Y-86157174D01*
X129348994Y-86058896D01*
X129530860Y-85929173D01*
X129689096Y-85771489D01*
X129819453Y-85590077D01*
X129820776Y-85591028D01*
X129867645Y-85547857D01*
X129937580Y-85535625D01*
X130003026Y-85563144D01*
X130030875Y-85594994D01*
X130090987Y-85693088D01*
X130237250Y-85861938D01*
X130409126Y-86004632D01*
X130602000Y-86117338D01*
X130606825Y-86119180D01*
X130606826Y-86119181D01*
X130679612Y-86146975D01*
X130810692Y-86197030D01*
X130815760Y-86198061D01*
X130815763Y-86198062D01*
X130880860Y-86211306D01*
X131029597Y-86241567D01*
X131034772Y-86241757D01*
X131034774Y-86241757D01*
X131247673Y-86249564D01*
X131247677Y-86249564D01*
X131252837Y-86249753D01*
X131257957Y-86249097D01*
X131257959Y-86249097D01*
X131469288Y-86222025D01*
X131469289Y-86222025D01*
X131474416Y-86221368D01*
X131479376Y-86219880D01*
X131683429Y-86158661D01*
X131683434Y-86158659D01*
X131688384Y-86157174D01*
X131888994Y-86058896D01*
X132070860Y-85929173D01*
X132229096Y-85771489D01*
X132359453Y-85590077D01*
X132360776Y-85591028D01*
X132407645Y-85547857D01*
X132477580Y-85535625D01*
X132543026Y-85563144D01*
X132570875Y-85594994D01*
X132630987Y-85693088D01*
X132777250Y-85861938D01*
X132949126Y-86004632D01*
X133142000Y-86117338D01*
X133146825Y-86119180D01*
X133146826Y-86119181D01*
X133219612Y-86146975D01*
X133350692Y-86197030D01*
X133355760Y-86198061D01*
X133355763Y-86198062D01*
X133420860Y-86211306D01*
X133569597Y-86241567D01*
X133574772Y-86241757D01*
X133574774Y-86241757D01*
X133787673Y-86249564D01*
X133787677Y-86249564D01*
X133792837Y-86249753D01*
X133797957Y-86249097D01*
X133797959Y-86249097D01*
X134009288Y-86222025D01*
X134009289Y-86222025D01*
X134014416Y-86221368D01*
X134019376Y-86219880D01*
X134223429Y-86158661D01*
X134223434Y-86158659D01*
X134228384Y-86157174D01*
X134428994Y-86058896D01*
X134610860Y-85929173D01*
X134769096Y-85771489D01*
X134899453Y-85590077D01*
X134900776Y-85591028D01*
X134947645Y-85547857D01*
X135017580Y-85535625D01*
X135083026Y-85563144D01*
X135110875Y-85594994D01*
X135170987Y-85693088D01*
X135317250Y-85861938D01*
X135489126Y-86004632D01*
X135493583Y-86007236D01*
X135493588Y-86007240D01*
X135550070Y-86040245D01*
X135598794Y-86091883D01*
X135612500Y-86149033D01*
X135612500Y-94149166D01*
X135592498Y-94217287D01*
X135538842Y-94263780D01*
X135512701Y-94272412D01*
X135353712Y-94306206D01*
X135347682Y-94308891D01*
X135347681Y-94308891D01*
X135201749Y-94373864D01*
X135131382Y-94383298D01*
X135067085Y-94353191D01*
X135029271Y-94293103D01*
X135024500Y-94258757D01*
X135024500Y-91574059D01*
X135025059Y-91562203D01*
X135026789Y-91554463D01*
X135024562Y-91483611D01*
X135024500Y-91479653D01*
X135024500Y-91450568D01*
X135023946Y-91446179D01*
X135023013Y-91434337D01*
X135021811Y-91396094D01*
X135021562Y-91388169D01*
X135015580Y-91367579D01*
X135011570Y-91348216D01*
X135009875Y-91334796D01*
X135009875Y-91334795D01*
X135008882Y-91326936D01*
X135005966Y-91319571D01*
X135005965Y-91319567D01*
X134991874Y-91283979D01*
X134988035Y-91272769D01*
X134975145Y-91228400D01*
X134964225Y-91209935D01*
X134955534Y-91192195D01*
X134947635Y-91172244D01*
X134920482Y-91134871D01*
X134913967Y-91124952D01*
X134894493Y-91092023D01*
X134894490Y-91092019D01*
X134890453Y-91085193D01*
X134875289Y-91070029D01*
X134862448Y-91054995D01*
X134854501Y-91044057D01*
X134849841Y-91037643D01*
X134814247Y-91008197D01*
X134805468Y-91000208D01*
X132857655Y-89052395D01*
X132849665Y-89043615D01*
X132849663Y-89043613D01*
X132845416Y-89036920D01*
X132793742Y-88988395D01*
X132790901Y-88985641D01*
X132770333Y-88965073D01*
X132766826Y-88962353D01*
X132757804Y-88954647D01*
X132729913Y-88928456D01*
X132724133Y-88923028D01*
X132717181Y-88919206D01*
X132705342Y-88912697D01*
X132688818Y-88901843D01*
X132678132Y-88893555D01*
X132671868Y-88888696D01*
X132664596Y-88885549D01*
X132664594Y-88885548D01*
X132629465Y-88870346D01*
X132618805Y-88865124D01*
X132585284Y-88846695D01*
X132585282Y-88846694D01*
X132578337Y-88842876D01*
X132557559Y-88837541D01*
X132538869Y-88831142D01*
X132519176Y-88822620D01*
X132473552Y-88815394D01*
X132461929Y-88812987D01*
X132433928Y-88805798D01*
X132417188Y-88801500D01*
X132395741Y-88801500D01*
X132376031Y-88799949D01*
X132362677Y-88797834D01*
X132354848Y-88796594D01*
X132308859Y-88800941D01*
X132297004Y-88801500D01*
X132125224Y-88801500D01*
X132057103Y-88781498D01*
X132051163Y-88777436D01*
X132050909Y-88777251D01*
X131901752Y-88668882D01*
X131895724Y-88666198D01*
X131895722Y-88666197D01*
X131733319Y-88593891D01*
X131733318Y-88593891D01*
X131727288Y-88591206D01*
X131632227Y-88571000D01*
X131546944Y-88552872D01*
X131546939Y-88552872D01*
X131540487Y-88551500D01*
X131349513Y-88551500D01*
X131343061Y-88552872D01*
X131343056Y-88552872D01*
X131257773Y-88571000D01*
X131162712Y-88591206D01*
X131156682Y-88593891D01*
X131156681Y-88593891D01*
X130994278Y-88666197D01*
X130994276Y-88666198D01*
X130988248Y-88668882D01*
X130833747Y-88781134D01*
X130829326Y-88786044D01*
X130829325Y-88786045D01*
X130719589Y-88907920D01*
X130705960Y-88923056D01*
X130610473Y-89088444D01*
X130551458Y-89270072D01*
X130550768Y-89276633D01*
X130550768Y-89276635D01*
X130533401Y-89441872D01*
X130531496Y-89460000D01*
X130532186Y-89466565D01*
X130542192Y-89561763D01*
X130551458Y-89649928D01*
X130610473Y-89831556D01*
X130705960Y-89996944D01*
X130833747Y-90138866D01*
X130906124Y-90191451D01*
X130956556Y-90228092D01*
X130988248Y-90251118D01*
X130994276Y-90253802D01*
X130994278Y-90253803D01*
X131156681Y-90326109D01*
X131162712Y-90328794D01*
X131226888Y-90342435D01*
X131343056Y-90367128D01*
X131343061Y-90367128D01*
X131349513Y-90368500D01*
X131540487Y-90368500D01*
X131546939Y-90367128D01*
X131546944Y-90367128D01*
X131663112Y-90342435D01*
X131727288Y-90328794D01*
X131733319Y-90326109D01*
X131895722Y-90253803D01*
X131895724Y-90253802D01*
X131901752Y-90251118D01*
X131933445Y-90228092D01*
X131983876Y-90191451D01*
X132050743Y-90167593D01*
X132119895Y-90183673D01*
X132147032Y-90204292D01*
X133670595Y-91727855D01*
X133704621Y-91790167D01*
X133707500Y-91816950D01*
X133707500Y-94500241D01*
X133687498Y-94568362D01*
X133675136Y-94584551D01*
X133626960Y-94638056D01*
X133531473Y-94803444D01*
X133472458Y-94985072D01*
X133452496Y-95175000D01*
X133453186Y-95181565D01*
X133456064Y-95208943D01*
X133472458Y-95364928D01*
X133531473Y-95546556D01*
X133626960Y-95711944D01*
X133754747Y-95853866D01*
X133909248Y-95966118D01*
X133915276Y-95968802D01*
X133915278Y-95968803D01*
X134063715Y-96034891D01*
X134083712Y-96043794D01*
X134177113Y-96063647D01*
X134264056Y-96082128D01*
X134264061Y-96082128D01*
X134270513Y-96083500D01*
X134461487Y-96083500D01*
X134467939Y-96082128D01*
X134467944Y-96082128D01*
X134554887Y-96063647D01*
X134648288Y-96043794D01*
X134668285Y-96034891D01*
X134816722Y-95968803D01*
X134816724Y-95968802D01*
X134822752Y-95966118D01*
X134926940Y-95890421D01*
X134993806Y-95866563D01*
X135062958Y-95882643D01*
X135075056Y-95890418D01*
X135179248Y-95966118D01*
X135185276Y-95968802D01*
X135185278Y-95968803D01*
X135333715Y-96034891D01*
X135353712Y-96043794D01*
X135447113Y-96063647D01*
X135534056Y-96082128D01*
X135534061Y-96082128D01*
X135540513Y-96083500D01*
X135731487Y-96083500D01*
X135737939Y-96082128D01*
X135737944Y-96082128D01*
X135824887Y-96063647D01*
X135918288Y-96043794D01*
X135938285Y-96034891D01*
X136086722Y-95968803D01*
X136086724Y-95968802D01*
X136092752Y-95966118D01*
X136196940Y-95890421D01*
X136263806Y-95866563D01*
X136332958Y-95882643D01*
X136345056Y-95890418D01*
X136449248Y-95966118D01*
X136455276Y-95968802D01*
X136455278Y-95968803D01*
X136603715Y-96034891D01*
X136623712Y-96043794D01*
X136717113Y-96063647D01*
X136804056Y-96082128D01*
X136804061Y-96082128D01*
X136810513Y-96083500D01*
X137001487Y-96083500D01*
X137007939Y-96082128D01*
X137007944Y-96082128D01*
X137094887Y-96063647D01*
X137188288Y-96043794D01*
X137208285Y-96034891D01*
X137356722Y-95968803D01*
X137356724Y-95968802D01*
X137362752Y-95966118D01*
X137466940Y-95890421D01*
X137533806Y-95866563D01*
X137602958Y-95882643D01*
X137615056Y-95890418D01*
X137719248Y-95966118D01*
X137725276Y-95968802D01*
X137725278Y-95968803D01*
X137873715Y-96034891D01*
X137893712Y-96043794D01*
X137987113Y-96063647D01*
X138074056Y-96082128D01*
X138074061Y-96082128D01*
X138080513Y-96083500D01*
X138271487Y-96083500D01*
X138277939Y-96082128D01*
X138277944Y-96082128D01*
X138364887Y-96063647D01*
X138458288Y-96043794D01*
X138478285Y-96034891D01*
X138626722Y-95968803D01*
X138626724Y-95968802D01*
X138632752Y-95966118D01*
X138736940Y-95890421D01*
X138803806Y-95866563D01*
X138872958Y-95882643D01*
X138885056Y-95890418D01*
X138989248Y-95966118D01*
X138995276Y-95968802D01*
X138995278Y-95968803D01*
X139143715Y-96034891D01*
X139163712Y-96043794D01*
X139257113Y-96063647D01*
X139344056Y-96082128D01*
X139344061Y-96082128D01*
X139350513Y-96083500D01*
X139541487Y-96083500D01*
X139547939Y-96082128D01*
X139547944Y-96082128D01*
X139634887Y-96063647D01*
X139728288Y-96043794D01*
X139748285Y-96034891D01*
X139896722Y-95968803D01*
X139896724Y-95968802D01*
X139902752Y-95966118D01*
X140057253Y-95853866D01*
X140185040Y-95711944D01*
X140280527Y-95546556D01*
X140331740Y-95388941D01*
X140337502Y-95371207D01*
X140337502Y-95371205D01*
X140339542Y-95364928D01*
X140352755Y-95239213D01*
X140379768Y-95173558D01*
X140388970Y-95163290D01*
X141631605Y-93920655D01*
X141640385Y-93912665D01*
X141640387Y-93912663D01*
X141647080Y-93908416D01*
X141669263Y-93884794D01*
X141695604Y-93856743D01*
X141698359Y-93853901D01*
X141718927Y-93833333D01*
X141721647Y-93829826D01*
X141729353Y-93820804D01*
X141760972Y-93787133D01*
X141764794Y-93780181D01*
X141771303Y-93768342D01*
X141782157Y-93751818D01*
X141790445Y-93741132D01*
X141795304Y-93734868D01*
X141798452Y-93727594D01*
X141813654Y-93692465D01*
X141818876Y-93681805D01*
X141837305Y-93648284D01*
X141837306Y-93648282D01*
X141841124Y-93641337D01*
X141846459Y-93620559D01*
X141852858Y-93601869D01*
X141861380Y-93582176D01*
X141868606Y-93536552D01*
X141871013Y-93524929D01*
X141880528Y-93487868D01*
X141882500Y-93480188D01*
X141882500Y-93458741D01*
X141884051Y-93439031D01*
X141886166Y-93425677D01*
X141887406Y-93417848D01*
X141883059Y-93371859D01*
X141882500Y-93360004D01*
X141882500Y-93016000D01*
X164440496Y-93016000D01*
X164460458Y-93205928D01*
X164519473Y-93387556D01*
X164614960Y-93552944D01*
X164619378Y-93557851D01*
X164619379Y-93557852D01*
X164647832Y-93589452D01*
X164742747Y-93694866D01*
X164831916Y-93759651D01*
X164877697Y-93792913D01*
X164897248Y-93807118D01*
X164903276Y-93809802D01*
X164903278Y-93809803D01*
X165008708Y-93856743D01*
X165071712Y-93884794D01*
X165155656Y-93902637D01*
X165252056Y-93923128D01*
X165252061Y-93923128D01*
X165258513Y-93924500D01*
X165449487Y-93924500D01*
X165455939Y-93923128D01*
X165455944Y-93923128D01*
X165552344Y-93902637D01*
X165636288Y-93884794D01*
X165699292Y-93856743D01*
X165804722Y-93809803D01*
X165804724Y-93809802D01*
X165810752Y-93807118D01*
X165830304Y-93792913D01*
X165876084Y-93759651D01*
X165965253Y-93694866D01*
X166060168Y-93589452D01*
X166088621Y-93557852D01*
X166088622Y-93557851D01*
X166093040Y-93552944D01*
X166188527Y-93387556D01*
X166247542Y-93205928D01*
X166267504Y-93016000D01*
X166250639Y-92855536D01*
X166248232Y-92832635D01*
X166248232Y-92832633D01*
X166247542Y-92826072D01*
X166188527Y-92644444D01*
X166093040Y-92479056D01*
X166044864Y-92425551D01*
X166014146Y-92361544D01*
X166012500Y-92341241D01*
X166012500Y-91374834D01*
X166032502Y-91306713D01*
X166086158Y-91260220D01*
X166112299Y-91251588D01*
X166271288Y-91217794D01*
X166328812Y-91192183D01*
X166439722Y-91142803D01*
X166439724Y-91142802D01*
X166445752Y-91140118D01*
X166459588Y-91130066D01*
X166521349Y-91085193D01*
X166600253Y-91027866D01*
X166728040Y-90885944D01*
X166812496Y-90739663D01*
X166820223Y-90726279D01*
X166820224Y-90726278D01*
X166823527Y-90720556D01*
X166882542Y-90538928D01*
X166894272Y-90427328D01*
X166901814Y-90355565D01*
X166902504Y-90349000D01*
X166901814Y-90342435D01*
X166883232Y-90165635D01*
X166883232Y-90165633D01*
X166882542Y-90159072D01*
X166823527Y-89977444D01*
X166728040Y-89812056D01*
X166600253Y-89670134D01*
X166445752Y-89557882D01*
X166439724Y-89555198D01*
X166439722Y-89555197D01*
X166277319Y-89482891D01*
X166277318Y-89482891D01*
X166271288Y-89480206D01*
X166176227Y-89460000D01*
X166090944Y-89441872D01*
X166090939Y-89441872D01*
X166084487Y-89440500D01*
X165893513Y-89440500D01*
X165887061Y-89441872D01*
X165887056Y-89441872D01*
X165801773Y-89460000D01*
X165706712Y-89480206D01*
X165700682Y-89482891D01*
X165700681Y-89482891D01*
X165538278Y-89555197D01*
X165538276Y-89555198D01*
X165532248Y-89557882D01*
X165377747Y-89670134D01*
X165249960Y-89812056D01*
X165154473Y-89977444D01*
X165095458Y-90159072D01*
X165086192Y-90247237D01*
X165082245Y-90284786D01*
X165055232Y-90350442D01*
X165046030Y-90360710D01*
X164946395Y-90460345D01*
X164937615Y-90468335D01*
X164937613Y-90468337D01*
X164930920Y-90472584D01*
X164925494Y-90478362D01*
X164925493Y-90478363D01*
X164882396Y-90524257D01*
X164879641Y-90527099D01*
X164859073Y-90547667D01*
X164856356Y-90551170D01*
X164848648Y-90560195D01*
X164817028Y-90593867D01*
X164813207Y-90600818D01*
X164813206Y-90600819D01*
X164806697Y-90612658D01*
X164795843Y-90629182D01*
X164788018Y-90639271D01*
X164782696Y-90646132D01*
X164779549Y-90653404D01*
X164779548Y-90653406D01*
X164764346Y-90688535D01*
X164759124Y-90699195D01*
X164736876Y-90739663D01*
X164731541Y-90760441D01*
X164725142Y-90779131D01*
X164716620Y-90798824D01*
X164714437Y-90812609D01*
X164709394Y-90844448D01*
X164706987Y-90856071D01*
X164699798Y-90884072D01*
X164695500Y-90900812D01*
X164695500Y-90922259D01*
X164693949Y-90941969D01*
X164690594Y-90963152D01*
X164691340Y-90971043D01*
X164694941Y-91009138D01*
X164695500Y-91020996D01*
X164695500Y-92341241D01*
X164675498Y-92409362D01*
X164663136Y-92425551D01*
X164614960Y-92479056D01*
X164519473Y-92644444D01*
X164460458Y-92826072D01*
X164459768Y-92832633D01*
X164459768Y-92832635D01*
X164457361Y-92855536D01*
X164440496Y-93016000D01*
X141882500Y-93016000D01*
X141882500Y-87879950D01*
X141902502Y-87811829D01*
X141919405Y-87790855D01*
X143419557Y-86290703D01*
X174166743Y-86290703D01*
X174204268Y-86575734D01*
X174280129Y-86853036D01*
X174392923Y-87117476D01*
X174540561Y-87364161D01*
X174720313Y-87588528D01*
X174737397Y-87604740D01*
X174919129Y-87777197D01*
X174928851Y-87786423D01*
X175162317Y-87954186D01*
X175166112Y-87956195D01*
X175166113Y-87956196D01*
X175187869Y-87967715D01*
X175416392Y-88088712D01*
X175686373Y-88187511D01*
X175967264Y-88248755D01*
X175995841Y-88251004D01*
X176190282Y-88266307D01*
X176190291Y-88266307D01*
X176192739Y-88266500D01*
X176348271Y-88266500D01*
X176350407Y-88266354D01*
X176350418Y-88266354D01*
X176558548Y-88252165D01*
X176558554Y-88252164D01*
X176562825Y-88251873D01*
X176567020Y-88251004D01*
X176567022Y-88251004D01*
X176785647Y-88205729D01*
X176844342Y-88193574D01*
X177115343Y-88097607D01*
X177370812Y-87965750D01*
X177374313Y-87963289D01*
X177374317Y-87963287D01*
X177567152Y-87827760D01*
X177606023Y-87800441D01*
X177713213Y-87700834D01*
X177813479Y-87607661D01*
X177813481Y-87607658D01*
X177816622Y-87604740D01*
X177998713Y-87382268D01*
X178148927Y-87137142D01*
X178264483Y-86873898D01*
X178343244Y-86597406D01*
X178373515Y-86384704D01*
X178383146Y-86317036D01*
X178383146Y-86317034D01*
X178383751Y-86312784D01*
X178383845Y-86294951D01*
X178385235Y-86029583D01*
X178385235Y-86029576D01*
X178385257Y-86025297D01*
X178382537Y-86004632D01*
X178368190Y-85895660D01*
X178347732Y-85740266D01*
X178335814Y-85696699D01*
X178306878Y-85590930D01*
X178271871Y-85462964D01*
X178234641Y-85375680D01*
X178160763Y-85202476D01*
X178160761Y-85202472D01*
X178159077Y-85198524D01*
X178084527Y-85073960D01*
X178013643Y-84955521D01*
X178013640Y-84955517D01*
X178011439Y-84951839D01*
X177831687Y-84727472D01*
X177623149Y-84529577D01*
X177389683Y-84361814D01*
X177367843Y-84350250D01*
X177344654Y-84337972D01*
X177135608Y-84227288D01*
X176865627Y-84128489D01*
X176584736Y-84067245D01*
X176553685Y-84064801D01*
X176361718Y-84049693D01*
X176361709Y-84049693D01*
X176359261Y-84049500D01*
X176203729Y-84049500D01*
X176201593Y-84049646D01*
X176201582Y-84049646D01*
X175993452Y-84063835D01*
X175993446Y-84063836D01*
X175989175Y-84064127D01*
X175984980Y-84064996D01*
X175984978Y-84064996D01*
X175870057Y-84088795D01*
X175707658Y-84122426D01*
X175436657Y-84218393D01*
X175181188Y-84350250D01*
X175177687Y-84352711D01*
X175177683Y-84352713D01*
X175167594Y-84359804D01*
X174945977Y-84515559D01*
X174930892Y-84529577D01*
X174818520Y-84634000D01*
X174735378Y-84711260D01*
X174553287Y-84933732D01*
X174403073Y-85178858D01*
X174287517Y-85442102D01*
X174208756Y-85718594D01*
X174168249Y-86003216D01*
X174168227Y-86007505D01*
X174168226Y-86007512D01*
X174166832Y-86273624D01*
X174166743Y-86290703D01*
X143419557Y-86290703D01*
X143464928Y-86245332D01*
X143527240Y-86211306D01*
X143579140Y-86210956D01*
X143729597Y-86241567D01*
X143734772Y-86241757D01*
X143734774Y-86241757D01*
X143947673Y-86249564D01*
X143947677Y-86249564D01*
X143952837Y-86249753D01*
X143957957Y-86249097D01*
X143957959Y-86249097D01*
X144169288Y-86222025D01*
X144169289Y-86222025D01*
X144174416Y-86221368D01*
X144179376Y-86219880D01*
X144383429Y-86158661D01*
X144383434Y-86158659D01*
X144388384Y-86157174D01*
X144588994Y-86058896D01*
X144770860Y-85929173D01*
X144929096Y-85771489D01*
X145059453Y-85590077D01*
X145060776Y-85591028D01*
X145107645Y-85547857D01*
X145177580Y-85535625D01*
X145243026Y-85563144D01*
X145270875Y-85594994D01*
X145330987Y-85693088D01*
X145477250Y-85861938D01*
X145649126Y-86004632D01*
X145842000Y-86117338D01*
X145846825Y-86119180D01*
X145846826Y-86119181D01*
X145919612Y-86146975D01*
X146050692Y-86197030D01*
X146055760Y-86198061D01*
X146055763Y-86198062D01*
X146120860Y-86211306D01*
X146269597Y-86241567D01*
X146274772Y-86241757D01*
X146274774Y-86241757D01*
X146487673Y-86249564D01*
X146487677Y-86249564D01*
X146492837Y-86249753D01*
X146497957Y-86249097D01*
X146497959Y-86249097D01*
X146709288Y-86222025D01*
X146709289Y-86222025D01*
X146714416Y-86221368D01*
X146719376Y-86219880D01*
X146923429Y-86158661D01*
X146923434Y-86158659D01*
X146928384Y-86157174D01*
X147128994Y-86058896D01*
X147310860Y-85929173D01*
X147469096Y-85771489D01*
X147599453Y-85590077D01*
X147600776Y-85591028D01*
X147647645Y-85547857D01*
X147717580Y-85535625D01*
X147783026Y-85563144D01*
X147810875Y-85594994D01*
X147870987Y-85693088D01*
X148017250Y-85861938D01*
X148189126Y-86004632D01*
X148382000Y-86117338D01*
X148386825Y-86119180D01*
X148386826Y-86119181D01*
X148459612Y-86146975D01*
X148590692Y-86197030D01*
X148595760Y-86198061D01*
X148595763Y-86198062D01*
X148660860Y-86211306D01*
X148809597Y-86241567D01*
X148814772Y-86241757D01*
X148814774Y-86241757D01*
X149027673Y-86249564D01*
X149027677Y-86249564D01*
X149032837Y-86249753D01*
X149037957Y-86249097D01*
X149037959Y-86249097D01*
X149249288Y-86222025D01*
X149249289Y-86222025D01*
X149254416Y-86221368D01*
X149259376Y-86219880D01*
X149463429Y-86158661D01*
X149463434Y-86158659D01*
X149468384Y-86157174D01*
X149668994Y-86058896D01*
X149850860Y-85929173D01*
X149997877Y-85782669D01*
X155868001Y-85782669D01*
X155868371Y-85789490D01*
X155873895Y-85840352D01*
X155877521Y-85855604D01*
X155922676Y-85976054D01*
X155931214Y-85991649D01*
X156007715Y-86093724D01*
X156020276Y-86106285D01*
X156122351Y-86182786D01*
X156137946Y-86191324D01*
X156258394Y-86236478D01*
X156273649Y-86240105D01*
X156324514Y-86245631D01*
X156331328Y-86246000D01*
X156953885Y-86246000D01*
X156969124Y-86241525D01*
X156970329Y-86240135D01*
X156972000Y-86232452D01*
X156972000Y-86227884D01*
X157480000Y-86227884D01*
X157484475Y-86243123D01*
X157485865Y-86244328D01*
X157493548Y-86245999D01*
X158120669Y-86245999D01*
X158127490Y-86245629D01*
X158178352Y-86240105D01*
X158193604Y-86236479D01*
X158314054Y-86191324D01*
X158329649Y-86182786D01*
X158431724Y-86106285D01*
X158444285Y-86093724D01*
X158520786Y-85991649D01*
X158529324Y-85976054D01*
X158570225Y-85866952D01*
X158612867Y-85810188D01*
X158679428Y-85785488D01*
X158748777Y-85800696D01*
X158783444Y-85828684D01*
X158808865Y-85858031D01*
X158808869Y-85858035D01*
X158812250Y-85861938D01*
X158984126Y-86004632D01*
X159177000Y-86117338D01*
X159181825Y-86119180D01*
X159181826Y-86119181D01*
X159254612Y-86146975D01*
X159385692Y-86197030D01*
X159390760Y-86198061D01*
X159390763Y-86198062D01*
X159455860Y-86211306D01*
X159604597Y-86241567D01*
X159609772Y-86241757D01*
X159609774Y-86241757D01*
X159822673Y-86249564D01*
X159822677Y-86249564D01*
X159827837Y-86249753D01*
X159832957Y-86249097D01*
X159832959Y-86249097D01*
X160044288Y-86222025D01*
X160044289Y-86222025D01*
X160049416Y-86221368D01*
X160054376Y-86219880D01*
X160258429Y-86158661D01*
X160258434Y-86158659D01*
X160263384Y-86157174D01*
X160463994Y-86058896D01*
X160645860Y-85929173D01*
X160804096Y-85771489D01*
X160934453Y-85590077D01*
X160935776Y-85591028D01*
X160982645Y-85547857D01*
X161052580Y-85535625D01*
X161118026Y-85563144D01*
X161145875Y-85594994D01*
X161205987Y-85693088D01*
X161352250Y-85861938D01*
X161524126Y-86004632D01*
X161717000Y-86117338D01*
X161721825Y-86119180D01*
X161721826Y-86119181D01*
X161794612Y-86146975D01*
X161925692Y-86197030D01*
X161930760Y-86198061D01*
X161930763Y-86198062D01*
X161995860Y-86211306D01*
X162144597Y-86241567D01*
X162149772Y-86241757D01*
X162149774Y-86241757D01*
X162362673Y-86249564D01*
X162362677Y-86249564D01*
X162367837Y-86249753D01*
X162372957Y-86249097D01*
X162372959Y-86249097D01*
X162584288Y-86222025D01*
X162584289Y-86222025D01*
X162589416Y-86221368D01*
X162594376Y-86219880D01*
X162798429Y-86158661D01*
X162798434Y-86158659D01*
X162803384Y-86157174D01*
X163003994Y-86058896D01*
X163185860Y-85929173D01*
X163344096Y-85771489D01*
X163474453Y-85590077D01*
X163475640Y-85590930D01*
X163522960Y-85547362D01*
X163592897Y-85535145D01*
X163658338Y-85562678D01*
X163686166Y-85594511D01*
X163743694Y-85688388D01*
X163749777Y-85696699D01*
X163889213Y-85857667D01*
X163896580Y-85864883D01*
X164060434Y-86000916D01*
X164068881Y-86006831D01*
X164252756Y-86114279D01*
X164262042Y-86118729D01*
X164461001Y-86194703D01*
X164470899Y-86197579D01*
X164574250Y-86218606D01*
X164588299Y-86217410D01*
X164592000Y-86207065D01*
X164592000Y-86206517D01*
X165100000Y-86206517D01*
X165104064Y-86220359D01*
X165117478Y-86222393D01*
X165124184Y-86221534D01*
X165134262Y-86219392D01*
X165338255Y-86158191D01*
X165347842Y-86154433D01*
X165539095Y-86060739D01*
X165547945Y-86055464D01*
X165721328Y-85931792D01*
X165729200Y-85925139D01*
X165880052Y-85774812D01*
X165886730Y-85766965D01*
X166014022Y-85589819D01*
X166015279Y-85590722D01*
X166062373Y-85547362D01*
X166132311Y-85535145D01*
X166197751Y-85562678D01*
X166225579Y-85594511D01*
X166285987Y-85693088D01*
X166432250Y-85861938D01*
X166604126Y-86004632D01*
X166797000Y-86117338D01*
X166801825Y-86119180D01*
X166801826Y-86119181D01*
X166874612Y-86146975D01*
X167005692Y-86197030D01*
X167010760Y-86198061D01*
X167010763Y-86198062D01*
X167075860Y-86211306D01*
X167224597Y-86241567D01*
X167229772Y-86241757D01*
X167229774Y-86241757D01*
X167442673Y-86249564D01*
X167442677Y-86249564D01*
X167447837Y-86249753D01*
X167452957Y-86249097D01*
X167452959Y-86249097D01*
X167664288Y-86222025D01*
X167664289Y-86222025D01*
X167669416Y-86221368D01*
X167674376Y-86219880D01*
X167878429Y-86158661D01*
X167878434Y-86158659D01*
X167883384Y-86157174D01*
X168083994Y-86058896D01*
X168265860Y-85929173D01*
X168424096Y-85771489D01*
X168554453Y-85590077D01*
X168567995Y-85562678D01*
X168651136Y-85394453D01*
X168651137Y-85394451D01*
X168653430Y-85389811D01*
X168712668Y-85194837D01*
X168716865Y-85181023D01*
X168716865Y-85181021D01*
X168718370Y-85176069D01*
X168747529Y-84954590D01*
X168747855Y-84941250D01*
X168749074Y-84891365D01*
X168749074Y-84891361D01*
X168749156Y-84888000D01*
X168730852Y-84665361D01*
X168676431Y-84448702D01*
X168587354Y-84243840D01*
X168471655Y-84064996D01*
X168468822Y-84060617D01*
X168468820Y-84060614D01*
X168466014Y-84056277D01*
X168315670Y-83891051D01*
X168311619Y-83887852D01*
X168311615Y-83887848D01*
X168144414Y-83755800D01*
X168144410Y-83755798D01*
X168140359Y-83752598D01*
X168104028Y-83732542D01*
X168012970Y-83682276D01*
X167944789Y-83644638D01*
X167939920Y-83642914D01*
X167939916Y-83642912D01*
X167739087Y-83571795D01*
X167739083Y-83571794D01*
X167734212Y-83570069D01*
X167729119Y-83569162D01*
X167729116Y-83569161D01*
X167519373Y-83531800D01*
X167519367Y-83531799D01*
X167514284Y-83530894D01*
X167440452Y-83529992D01*
X167296081Y-83528228D01*
X167296079Y-83528228D01*
X167290911Y-83528165D01*
X167070091Y-83561955D01*
X166857756Y-83631357D01*
X166784071Y-83669715D01*
X166706343Y-83710178D01*
X166659607Y-83734507D01*
X166655474Y-83737610D01*
X166655471Y-83737612D01*
X166572450Y-83799946D01*
X166480965Y-83868635D01*
X166477393Y-83872373D01*
X166342920Y-84013091D01*
X166326629Y-84030138D01*
X166323720Y-84034403D01*
X166323714Y-84034411D01*
X166286616Y-84088795D01*
X166219204Y-84187618D01*
X166218898Y-84188066D01*
X166163987Y-84233069D01*
X166093462Y-84241240D01*
X166029715Y-84209986D01*
X166009018Y-84185502D01*
X165928426Y-84060926D01*
X165922136Y-84052757D01*
X165778806Y-83895240D01*
X165771273Y-83888215D01*
X165604139Y-83756222D01*
X165595552Y-83750517D01*
X165409117Y-83647599D01*
X165399705Y-83643369D01*
X165198959Y-83572280D01*
X165188988Y-83569646D01*
X165117837Y-83556972D01*
X165104540Y-83558432D01*
X165100000Y-83572989D01*
X165100000Y-86206517D01*
X164592000Y-86206517D01*
X164592000Y-83571102D01*
X164588082Y-83557758D01*
X164573806Y-83555771D01*
X164535324Y-83561660D01*
X164525288Y-83564051D01*
X164322868Y-83630212D01*
X164313359Y-83634209D01*
X164124463Y-83732542D01*
X164115738Y-83738036D01*
X163945433Y-83865905D01*
X163937726Y-83872748D01*
X163790590Y-84026717D01*
X163784109Y-84034722D01*
X163679498Y-84188074D01*
X163624587Y-84233076D01*
X163554062Y-84241247D01*
X163490315Y-84209993D01*
X163469618Y-84185509D01*
X163388822Y-84060617D01*
X163388820Y-84060614D01*
X163386014Y-84056277D01*
X163235670Y-83891051D01*
X163231619Y-83887852D01*
X163231615Y-83887848D01*
X163064414Y-83755800D01*
X163064410Y-83755798D01*
X163060359Y-83752598D01*
X163024028Y-83732542D01*
X162932970Y-83682276D01*
X162864789Y-83644638D01*
X162859920Y-83642914D01*
X162859916Y-83642912D01*
X162659087Y-83571795D01*
X162659083Y-83571794D01*
X162654212Y-83570069D01*
X162649119Y-83569162D01*
X162649116Y-83569161D01*
X162439373Y-83531800D01*
X162439367Y-83531799D01*
X162434284Y-83530894D01*
X162360452Y-83529992D01*
X162216081Y-83528228D01*
X162216079Y-83528228D01*
X162210911Y-83528165D01*
X161990091Y-83561955D01*
X161777756Y-83631357D01*
X161704071Y-83669715D01*
X161626343Y-83710178D01*
X161579607Y-83734507D01*
X161575474Y-83737610D01*
X161575471Y-83737612D01*
X161492450Y-83799946D01*
X161400965Y-83868635D01*
X161397393Y-83872373D01*
X161262920Y-84013091D01*
X161246629Y-84030138D01*
X161139201Y-84187621D01*
X161084293Y-84232621D01*
X161013768Y-84240792D01*
X160950021Y-84209538D01*
X160929324Y-84185054D01*
X160848822Y-84060617D01*
X160848820Y-84060614D01*
X160846014Y-84056277D01*
X160695670Y-83891051D01*
X160691619Y-83887852D01*
X160691615Y-83887848D01*
X160524414Y-83755800D01*
X160524410Y-83755798D01*
X160520359Y-83752598D01*
X160484028Y-83732542D01*
X160392970Y-83682276D01*
X160324789Y-83644638D01*
X160319920Y-83642914D01*
X160319916Y-83642912D01*
X160119087Y-83571795D01*
X160119083Y-83571794D01*
X160114212Y-83570069D01*
X160109119Y-83569162D01*
X160109116Y-83569161D01*
X159899373Y-83531800D01*
X159899367Y-83531799D01*
X159894284Y-83530894D01*
X159820452Y-83529992D01*
X159676081Y-83528228D01*
X159676079Y-83528228D01*
X159670911Y-83528165D01*
X159450091Y-83561955D01*
X159237756Y-83631357D01*
X159164071Y-83669715D01*
X159086343Y-83710178D01*
X159039607Y-83734507D01*
X159035474Y-83737610D01*
X159035471Y-83737612D01*
X158952450Y-83799946D01*
X158860965Y-83868635D01*
X158857393Y-83872373D01*
X158779898Y-83953466D01*
X158718374Y-83988895D01*
X158647462Y-83985438D01*
X158589676Y-83944192D01*
X158570823Y-83910644D01*
X158529324Y-83799946D01*
X158520786Y-83784351D01*
X158444285Y-83682276D01*
X158431724Y-83669715D01*
X158329649Y-83593214D01*
X158314054Y-83584676D01*
X158193606Y-83539522D01*
X158178351Y-83535895D01*
X158127486Y-83530369D01*
X158120672Y-83530000D01*
X157498115Y-83530000D01*
X157482876Y-83534475D01*
X157481671Y-83535865D01*
X157480000Y-83543548D01*
X157480000Y-86227884D01*
X156972000Y-86227884D01*
X156972000Y-85160115D01*
X156967525Y-85144876D01*
X156966135Y-85143671D01*
X156958452Y-85142000D01*
X155886116Y-85142000D01*
X155870877Y-85146475D01*
X155869672Y-85147865D01*
X155868001Y-85155548D01*
X155868001Y-85782669D01*
X149997877Y-85782669D01*
X150009096Y-85771489D01*
X150139453Y-85590077D01*
X150152995Y-85562678D01*
X150236136Y-85394453D01*
X150236137Y-85394451D01*
X150238430Y-85389811D01*
X150297668Y-85194837D01*
X150301865Y-85181023D01*
X150301865Y-85181021D01*
X150303370Y-85176069D01*
X150332529Y-84954590D01*
X150332855Y-84941250D01*
X150334074Y-84891365D01*
X150334074Y-84891361D01*
X150334156Y-84888000D01*
X150315852Y-84665361D01*
X150303424Y-84615885D01*
X155868000Y-84615885D01*
X155872475Y-84631124D01*
X155873865Y-84632329D01*
X155881548Y-84634000D01*
X156953885Y-84634000D01*
X156969124Y-84629525D01*
X156970329Y-84628135D01*
X156972000Y-84620452D01*
X156972000Y-83548116D01*
X156967525Y-83532877D01*
X156966135Y-83531672D01*
X156958452Y-83530001D01*
X156331331Y-83530001D01*
X156324510Y-83530371D01*
X156273648Y-83535895D01*
X156258396Y-83539521D01*
X156137946Y-83584676D01*
X156122351Y-83593214D01*
X156020276Y-83669715D01*
X156007715Y-83682276D01*
X155931214Y-83784351D01*
X155922676Y-83799946D01*
X155877522Y-83920394D01*
X155873895Y-83935649D01*
X155868369Y-83986514D01*
X155868000Y-83993328D01*
X155868000Y-84615885D01*
X150303424Y-84615885D01*
X150261431Y-84448702D01*
X150172354Y-84243840D01*
X150056655Y-84064996D01*
X150053822Y-84060617D01*
X150053820Y-84060614D01*
X150051014Y-84056277D01*
X149900670Y-83891051D01*
X149896619Y-83887852D01*
X149896615Y-83887848D01*
X149729414Y-83755800D01*
X149729410Y-83755798D01*
X149725359Y-83752598D01*
X149689028Y-83732542D01*
X149597970Y-83682276D01*
X149529789Y-83644638D01*
X149524920Y-83642914D01*
X149524916Y-83642912D01*
X149324087Y-83571795D01*
X149324083Y-83571794D01*
X149319212Y-83570069D01*
X149314119Y-83569162D01*
X149314116Y-83569161D01*
X149104373Y-83531800D01*
X149104367Y-83531799D01*
X149099284Y-83530894D01*
X149025452Y-83529992D01*
X148881081Y-83528228D01*
X148881079Y-83528228D01*
X148875911Y-83528165D01*
X148655091Y-83561955D01*
X148442756Y-83631357D01*
X148369071Y-83669715D01*
X148291343Y-83710178D01*
X148244607Y-83734507D01*
X148240474Y-83737610D01*
X148240471Y-83737612D01*
X148157450Y-83799946D01*
X148065965Y-83868635D01*
X148062393Y-83872373D01*
X147927920Y-84013091D01*
X147911629Y-84030138D01*
X147804201Y-84187621D01*
X147749293Y-84232621D01*
X147678768Y-84240792D01*
X147615021Y-84209538D01*
X147594324Y-84185054D01*
X147513822Y-84060617D01*
X147513820Y-84060614D01*
X147511014Y-84056277D01*
X147360670Y-83891051D01*
X147356619Y-83887852D01*
X147356615Y-83887848D01*
X147189414Y-83755800D01*
X147189410Y-83755798D01*
X147185359Y-83752598D01*
X147149028Y-83732542D01*
X147057970Y-83682276D01*
X146989789Y-83644638D01*
X146984920Y-83642914D01*
X146984916Y-83642912D01*
X146784087Y-83571795D01*
X146784083Y-83571794D01*
X146779212Y-83570069D01*
X146774119Y-83569162D01*
X146774116Y-83569161D01*
X146564373Y-83531800D01*
X146564367Y-83531799D01*
X146559284Y-83530894D01*
X146485452Y-83529992D01*
X146341081Y-83528228D01*
X146341079Y-83528228D01*
X146335911Y-83528165D01*
X146115091Y-83561955D01*
X145902756Y-83631357D01*
X145829071Y-83669715D01*
X145751343Y-83710178D01*
X145704607Y-83734507D01*
X145700474Y-83737610D01*
X145700471Y-83737612D01*
X145617450Y-83799946D01*
X145525965Y-83868635D01*
X145522393Y-83872373D01*
X145387920Y-84013091D01*
X145371629Y-84030138D01*
X145264201Y-84187621D01*
X145209293Y-84232621D01*
X145138768Y-84240792D01*
X145075021Y-84209538D01*
X145054324Y-84185054D01*
X144973822Y-84060617D01*
X144973820Y-84060614D01*
X144971014Y-84056277D01*
X144820670Y-83891051D01*
X144816619Y-83887852D01*
X144816615Y-83887848D01*
X144649414Y-83755800D01*
X144649410Y-83755798D01*
X144645359Y-83752598D01*
X144609028Y-83732542D01*
X144517970Y-83682276D01*
X144449789Y-83644638D01*
X144444920Y-83642914D01*
X144444916Y-83642912D01*
X144244087Y-83571795D01*
X144244083Y-83571794D01*
X144239212Y-83570069D01*
X144234119Y-83569162D01*
X144234116Y-83569161D01*
X144024373Y-83531800D01*
X144024367Y-83531799D01*
X144019284Y-83530894D01*
X143945452Y-83529992D01*
X143801081Y-83528228D01*
X143801079Y-83528228D01*
X143795911Y-83528165D01*
X143575091Y-83561955D01*
X143362756Y-83631357D01*
X143289071Y-83669715D01*
X143211343Y-83710178D01*
X143164607Y-83734507D01*
X143160474Y-83737610D01*
X143160471Y-83737612D01*
X143077450Y-83799946D01*
X142985965Y-83868635D01*
X142982393Y-83872373D01*
X142847920Y-84013091D01*
X142831629Y-84030138D01*
X142724201Y-84187621D01*
X142669293Y-84232621D01*
X142598768Y-84240792D01*
X142535021Y-84209538D01*
X142514324Y-84185054D01*
X142433822Y-84060617D01*
X142433820Y-84060614D01*
X142431014Y-84056277D01*
X142280670Y-83891051D01*
X142276619Y-83887852D01*
X142276615Y-83887848D01*
X142109414Y-83755800D01*
X142109410Y-83755798D01*
X142105359Y-83752598D01*
X142069028Y-83732542D01*
X141977970Y-83682276D01*
X141909789Y-83644638D01*
X141904920Y-83642914D01*
X141904916Y-83642912D01*
X141704087Y-83571795D01*
X141704083Y-83571794D01*
X141699212Y-83570069D01*
X141694119Y-83569162D01*
X141694116Y-83569161D01*
X141484373Y-83531800D01*
X141484367Y-83531799D01*
X141479284Y-83530894D01*
X141405452Y-83529992D01*
X141261081Y-83528228D01*
X141261079Y-83528228D01*
X141255911Y-83528165D01*
X141035091Y-83561955D01*
X140822756Y-83631357D01*
X140749071Y-83669715D01*
X140671343Y-83710178D01*
X140624607Y-83734507D01*
X140620474Y-83737610D01*
X140620471Y-83737612D01*
X140537450Y-83799946D01*
X140445965Y-83868635D01*
X140442393Y-83872373D01*
X140307920Y-84013091D01*
X140291629Y-84030138D01*
X140184201Y-84187621D01*
X140129293Y-84232621D01*
X140058768Y-84240792D01*
X139995021Y-84209538D01*
X139974324Y-84185054D01*
X139893822Y-84060617D01*
X139893820Y-84060614D01*
X139891014Y-84056277D01*
X139740670Y-83891051D01*
X139736619Y-83887852D01*
X139736615Y-83887848D01*
X139569414Y-83755800D01*
X139569410Y-83755798D01*
X139565359Y-83752598D01*
X139529028Y-83732542D01*
X139437970Y-83682276D01*
X139369789Y-83644638D01*
X139364920Y-83642914D01*
X139364916Y-83642912D01*
X139164087Y-83571795D01*
X139164083Y-83571794D01*
X139159212Y-83570069D01*
X139154119Y-83569162D01*
X139154116Y-83569161D01*
X138944373Y-83531800D01*
X138944367Y-83531799D01*
X138939284Y-83530894D01*
X138865452Y-83529992D01*
X138721081Y-83528228D01*
X138721079Y-83528228D01*
X138715911Y-83528165D01*
X138495091Y-83561955D01*
X138282756Y-83631357D01*
X138209071Y-83669715D01*
X138131343Y-83710178D01*
X138084607Y-83734507D01*
X138080474Y-83737610D01*
X138080471Y-83737612D01*
X137997450Y-83799946D01*
X137905965Y-83868635D01*
X137902393Y-83872373D01*
X137767920Y-84013091D01*
X137751629Y-84030138D01*
X137644201Y-84187621D01*
X137589293Y-84232621D01*
X137518768Y-84240792D01*
X137455021Y-84209538D01*
X137434324Y-84185054D01*
X137353822Y-84060617D01*
X137353820Y-84060614D01*
X137351014Y-84056277D01*
X137200670Y-83891051D01*
X137196619Y-83887852D01*
X137196615Y-83887848D01*
X137029414Y-83755800D01*
X137029410Y-83755798D01*
X137025359Y-83752598D01*
X136989028Y-83732542D01*
X136897970Y-83682276D01*
X136829789Y-83644638D01*
X136824920Y-83642914D01*
X136824916Y-83642912D01*
X136624087Y-83571795D01*
X136624083Y-83571794D01*
X136619212Y-83570069D01*
X136614119Y-83569162D01*
X136614116Y-83569161D01*
X136404373Y-83531800D01*
X136404367Y-83531799D01*
X136399284Y-83530894D01*
X136325452Y-83529992D01*
X136181081Y-83528228D01*
X136181079Y-83528228D01*
X136175911Y-83528165D01*
X135955091Y-83561955D01*
X135742756Y-83631357D01*
X135669071Y-83669715D01*
X135591343Y-83710178D01*
X135544607Y-83734507D01*
X135540474Y-83737610D01*
X135540471Y-83737612D01*
X135457450Y-83799946D01*
X135365965Y-83868635D01*
X135362393Y-83872373D01*
X135227920Y-84013091D01*
X135211629Y-84030138D01*
X135104201Y-84187621D01*
X135049293Y-84232621D01*
X134978768Y-84240792D01*
X134915021Y-84209538D01*
X134894324Y-84185054D01*
X134813822Y-84060617D01*
X134813820Y-84060614D01*
X134811014Y-84056277D01*
X134660670Y-83891051D01*
X134656619Y-83887852D01*
X134656615Y-83887848D01*
X134489414Y-83755800D01*
X134489410Y-83755798D01*
X134485359Y-83752598D01*
X134449028Y-83732542D01*
X134357970Y-83682276D01*
X134289789Y-83644638D01*
X134284920Y-83642914D01*
X134284916Y-83642912D01*
X134084087Y-83571795D01*
X134084083Y-83571794D01*
X134079212Y-83570069D01*
X134074119Y-83569162D01*
X134074116Y-83569161D01*
X133864373Y-83531800D01*
X133864367Y-83531799D01*
X133859284Y-83530894D01*
X133785452Y-83529992D01*
X133641081Y-83528228D01*
X133641079Y-83528228D01*
X133635911Y-83528165D01*
X133415091Y-83561955D01*
X133202756Y-83631357D01*
X133129071Y-83669715D01*
X133051343Y-83710178D01*
X133004607Y-83734507D01*
X133000474Y-83737610D01*
X133000471Y-83737612D01*
X132917450Y-83799946D01*
X132825965Y-83868635D01*
X132822393Y-83872373D01*
X132687920Y-84013091D01*
X132671629Y-84030138D01*
X132564201Y-84187621D01*
X132509293Y-84232621D01*
X132438768Y-84240792D01*
X132375021Y-84209538D01*
X132354324Y-84185054D01*
X132273822Y-84060617D01*
X132273820Y-84060614D01*
X132271014Y-84056277D01*
X132120670Y-83891051D01*
X132116619Y-83887852D01*
X132116615Y-83887848D01*
X131949414Y-83755800D01*
X131949410Y-83755798D01*
X131945359Y-83752598D01*
X131909028Y-83732542D01*
X131817970Y-83682276D01*
X131749789Y-83644638D01*
X131744920Y-83642914D01*
X131744916Y-83642912D01*
X131544087Y-83571795D01*
X131544083Y-83571794D01*
X131539212Y-83570069D01*
X131534119Y-83569162D01*
X131534116Y-83569161D01*
X131324373Y-83531800D01*
X131324367Y-83531799D01*
X131319284Y-83530894D01*
X131245452Y-83529992D01*
X131101081Y-83528228D01*
X131101079Y-83528228D01*
X131095911Y-83528165D01*
X130875091Y-83561955D01*
X130662756Y-83631357D01*
X130589071Y-83669715D01*
X130511343Y-83710178D01*
X130464607Y-83734507D01*
X130460474Y-83737610D01*
X130460471Y-83737612D01*
X130377450Y-83799946D01*
X130285965Y-83868635D01*
X130282393Y-83872373D01*
X130147920Y-84013091D01*
X130131629Y-84030138D01*
X130024201Y-84187621D01*
X129969293Y-84232621D01*
X129898768Y-84240792D01*
X129835021Y-84209538D01*
X129814324Y-84185054D01*
X129733822Y-84060617D01*
X129733820Y-84060614D01*
X129731014Y-84056277D01*
X129580670Y-83891051D01*
X129576619Y-83887852D01*
X129576615Y-83887848D01*
X129409414Y-83755800D01*
X129409410Y-83755798D01*
X129405359Y-83752598D01*
X129369028Y-83732542D01*
X129277970Y-83682276D01*
X129209789Y-83644638D01*
X129204920Y-83642914D01*
X129204916Y-83642912D01*
X129004087Y-83571795D01*
X129004083Y-83571794D01*
X128999212Y-83570069D01*
X128994119Y-83569162D01*
X128994116Y-83569161D01*
X128784373Y-83531800D01*
X128784367Y-83531799D01*
X128779284Y-83530894D01*
X128705452Y-83529992D01*
X128561081Y-83528228D01*
X128561079Y-83528228D01*
X128555911Y-83528165D01*
X128335091Y-83561955D01*
X128122756Y-83631357D01*
X128049071Y-83669715D01*
X127971343Y-83710178D01*
X127924607Y-83734507D01*
X127920474Y-83737610D01*
X127920471Y-83737612D01*
X127837450Y-83799946D01*
X127745965Y-83868635D01*
X127742393Y-83872373D01*
X127607920Y-84013091D01*
X127591629Y-84030138D01*
X127484201Y-84187621D01*
X127429293Y-84232621D01*
X127358768Y-84240792D01*
X127295021Y-84209538D01*
X127274324Y-84185054D01*
X127193822Y-84060617D01*
X127193820Y-84060614D01*
X127191014Y-84056277D01*
X127040670Y-83891051D01*
X127036619Y-83887852D01*
X127036615Y-83887848D01*
X126869414Y-83755800D01*
X126869410Y-83755798D01*
X126865359Y-83752598D01*
X126829028Y-83732542D01*
X126737970Y-83682276D01*
X126669789Y-83644638D01*
X126664920Y-83642914D01*
X126664916Y-83642912D01*
X126464087Y-83571795D01*
X126464083Y-83571794D01*
X126459212Y-83570069D01*
X126454119Y-83569162D01*
X126454116Y-83569161D01*
X126244373Y-83531800D01*
X126244367Y-83531799D01*
X126239284Y-83530894D01*
X126165452Y-83529992D01*
X126021081Y-83528228D01*
X126021079Y-83528228D01*
X126015911Y-83528165D01*
X125795091Y-83561955D01*
X125582756Y-83631357D01*
X125509071Y-83669715D01*
X125431343Y-83710178D01*
X125384607Y-83734507D01*
X125380474Y-83737610D01*
X125380471Y-83737612D01*
X125297450Y-83799946D01*
X125205965Y-83868635D01*
X125202393Y-83872373D01*
X125067920Y-84013091D01*
X125051629Y-84030138D01*
X124944201Y-84187621D01*
X124889293Y-84232621D01*
X124818768Y-84240792D01*
X124755021Y-84209538D01*
X124734324Y-84185054D01*
X124653822Y-84060617D01*
X124653820Y-84060614D01*
X124651014Y-84056277D01*
X124500670Y-83891051D01*
X124496619Y-83887852D01*
X124496615Y-83887848D01*
X124329414Y-83755800D01*
X124329410Y-83755798D01*
X124325359Y-83752598D01*
X124289028Y-83732542D01*
X124197970Y-83682276D01*
X124129789Y-83644638D01*
X124124920Y-83642914D01*
X124124916Y-83642912D01*
X123924087Y-83571795D01*
X123924083Y-83571794D01*
X123919212Y-83570069D01*
X123914119Y-83569162D01*
X123914116Y-83569161D01*
X123704373Y-83531800D01*
X123704367Y-83531799D01*
X123699284Y-83530894D01*
X123625452Y-83529992D01*
X123481081Y-83528228D01*
X123481079Y-83528228D01*
X123475911Y-83528165D01*
X123255091Y-83561955D01*
X123042756Y-83631357D01*
X122969071Y-83669715D01*
X122891343Y-83710178D01*
X122844607Y-83734507D01*
X122840474Y-83737610D01*
X122840471Y-83737612D01*
X122757450Y-83799946D01*
X122665965Y-83868635D01*
X122662393Y-83872373D01*
X122527920Y-84013091D01*
X122511629Y-84030138D01*
X122508720Y-84034403D01*
X122508714Y-84034411D01*
X122471616Y-84088795D01*
X122404204Y-84187618D01*
X122403898Y-84188066D01*
X122348987Y-84233069D01*
X122278462Y-84241240D01*
X122214715Y-84209986D01*
X122194018Y-84185502D01*
X122113426Y-84060926D01*
X122107136Y-84052757D01*
X121963806Y-83895240D01*
X121956273Y-83888215D01*
X121789139Y-83756222D01*
X121780552Y-83750517D01*
X121594117Y-83647599D01*
X121584705Y-83643369D01*
X121383959Y-83572280D01*
X121373988Y-83569646D01*
X121302837Y-83556972D01*
X121289540Y-83558432D01*
X121285000Y-83572989D01*
X121285000Y-86206517D01*
X120777000Y-86206517D01*
X120777000Y-83571102D01*
X120773082Y-83557758D01*
X120758806Y-83555771D01*
X120720324Y-83561660D01*
X120710288Y-83564051D01*
X120507868Y-83630212D01*
X120498359Y-83634209D01*
X120309463Y-83732542D01*
X120300738Y-83738036D01*
X120130433Y-83865905D01*
X120122726Y-83872748D01*
X119975590Y-84026717D01*
X119969109Y-84034722D01*
X119864498Y-84188074D01*
X119809587Y-84233076D01*
X119739062Y-84241247D01*
X119675315Y-84209993D01*
X119654618Y-84185509D01*
X119573822Y-84060617D01*
X119573820Y-84060614D01*
X119571014Y-84056277D01*
X119420670Y-83891051D01*
X119416619Y-83887852D01*
X119416615Y-83887848D01*
X119249414Y-83755800D01*
X119249410Y-83755798D01*
X119245359Y-83752598D01*
X119209028Y-83732542D01*
X119117970Y-83682276D01*
X119049789Y-83644638D01*
X119044920Y-83642914D01*
X119044916Y-83642912D01*
X118844087Y-83571795D01*
X118844083Y-83571794D01*
X118839212Y-83570069D01*
X118834119Y-83569162D01*
X118834116Y-83569161D01*
X118624373Y-83531800D01*
X118624367Y-83531799D01*
X118619284Y-83530894D01*
X118545452Y-83529992D01*
X118401081Y-83528228D01*
X118401079Y-83528228D01*
X118395911Y-83528165D01*
X118175091Y-83561955D01*
X117962756Y-83631357D01*
X117889071Y-83669715D01*
X117811343Y-83710178D01*
X117764607Y-83734507D01*
X117760474Y-83737610D01*
X117760471Y-83737612D01*
X117677450Y-83799946D01*
X117585965Y-83868635D01*
X117582393Y-83872373D01*
X117447920Y-84013091D01*
X117431629Y-84030138D01*
X117324201Y-84187621D01*
X117269293Y-84232621D01*
X117198768Y-84240792D01*
X117135021Y-84209538D01*
X117114324Y-84185054D01*
X117033822Y-84060617D01*
X117033820Y-84060614D01*
X117031014Y-84056277D01*
X116880670Y-83891051D01*
X116876619Y-83887852D01*
X116876615Y-83887848D01*
X116709414Y-83755800D01*
X116709410Y-83755798D01*
X116705359Y-83752598D01*
X116669028Y-83732542D01*
X116577970Y-83682276D01*
X116509789Y-83644638D01*
X116504920Y-83642914D01*
X116504916Y-83642912D01*
X116304087Y-83571795D01*
X116304083Y-83571794D01*
X116299212Y-83570069D01*
X116294119Y-83569162D01*
X116294116Y-83569161D01*
X116084373Y-83531800D01*
X116084367Y-83531799D01*
X116079284Y-83530894D01*
X116005452Y-83529992D01*
X115861081Y-83528228D01*
X115861079Y-83528228D01*
X115855911Y-83528165D01*
X115635091Y-83561955D01*
X115422756Y-83631357D01*
X115349071Y-83669715D01*
X115271343Y-83710178D01*
X115224607Y-83734507D01*
X115220474Y-83737610D01*
X115220471Y-83737612D01*
X115137450Y-83799946D01*
X115045965Y-83868635D01*
X115042393Y-83872373D01*
X114907920Y-84013091D01*
X114891629Y-84030138D01*
X114784201Y-84187621D01*
X114729293Y-84232621D01*
X114658768Y-84240792D01*
X114595021Y-84209538D01*
X114574324Y-84185054D01*
X114493822Y-84060617D01*
X114493820Y-84060614D01*
X114491014Y-84056277D01*
X114340670Y-83891051D01*
X114336619Y-83887852D01*
X114336615Y-83887848D01*
X114169414Y-83755800D01*
X114169410Y-83755798D01*
X114165359Y-83752598D01*
X114129028Y-83732542D01*
X114037970Y-83682276D01*
X113969789Y-83644638D01*
X113964920Y-83642914D01*
X113964916Y-83642912D01*
X113764087Y-83571795D01*
X113764083Y-83571794D01*
X113759212Y-83570069D01*
X113754119Y-83569162D01*
X113754116Y-83569161D01*
X113544373Y-83531800D01*
X113544367Y-83531799D01*
X113539284Y-83530894D01*
X113465452Y-83529992D01*
X113321081Y-83528228D01*
X113321079Y-83528228D01*
X113315911Y-83528165D01*
X113095091Y-83561955D01*
X112882756Y-83631357D01*
X112809071Y-83669715D01*
X112731343Y-83710178D01*
X112684607Y-83734507D01*
X112680474Y-83737610D01*
X112680471Y-83737612D01*
X112597450Y-83799946D01*
X112505965Y-83868635D01*
X112502393Y-83872373D01*
X112424898Y-83953466D01*
X112363374Y-83988895D01*
X112292462Y-83985438D01*
X112234676Y-83944192D01*
X112215823Y-83910644D01*
X112174324Y-83799946D01*
X112165786Y-83784351D01*
X112089285Y-83682276D01*
X112076724Y-83669715D01*
X111974649Y-83593214D01*
X111959054Y-83584676D01*
X111838606Y-83539522D01*
X111823351Y-83535895D01*
X111772486Y-83530369D01*
X111765672Y-83530000D01*
X111143115Y-83530000D01*
X111127876Y-83534475D01*
X111126671Y-83535865D01*
X111125000Y-83543548D01*
X111125000Y-86227884D01*
X110617000Y-86227884D01*
X110617000Y-85160115D01*
X110612525Y-85144876D01*
X110611135Y-85143671D01*
X110603452Y-85142000D01*
X109531116Y-85142000D01*
X109515877Y-85146475D01*
X109514672Y-85147865D01*
X109513001Y-85155548D01*
X109513001Y-85782669D01*
X104693314Y-85782669D01*
X104687732Y-85740266D01*
X104675814Y-85696699D01*
X104646878Y-85590930D01*
X104611871Y-85462964D01*
X104574641Y-85375680D01*
X104500763Y-85202476D01*
X104500761Y-85202472D01*
X104499077Y-85198524D01*
X104424527Y-85073960D01*
X104353643Y-84955521D01*
X104353640Y-84955517D01*
X104351439Y-84951839D01*
X104171687Y-84727472D01*
X104054099Y-84615885D01*
X109513000Y-84615885D01*
X109517475Y-84631124D01*
X109518865Y-84632329D01*
X109526548Y-84634000D01*
X110598885Y-84634000D01*
X110614124Y-84629525D01*
X110615329Y-84628135D01*
X110617000Y-84620452D01*
X110617000Y-83548116D01*
X110612525Y-83532877D01*
X110611135Y-83531672D01*
X110603452Y-83530001D01*
X109976331Y-83530001D01*
X109969510Y-83530371D01*
X109918648Y-83535895D01*
X109903396Y-83539521D01*
X109782946Y-83584676D01*
X109767351Y-83593214D01*
X109665276Y-83669715D01*
X109652715Y-83682276D01*
X109576214Y-83784351D01*
X109567676Y-83799946D01*
X109522522Y-83920394D01*
X109518895Y-83935649D01*
X109513369Y-83986514D01*
X109513000Y-83993328D01*
X109513000Y-84615885D01*
X104054099Y-84615885D01*
X103963149Y-84529577D01*
X103729683Y-84361814D01*
X103707843Y-84350250D01*
X103684654Y-84337972D01*
X103475608Y-84227288D01*
X103205627Y-84128489D01*
X102924736Y-84067245D01*
X102893685Y-84064801D01*
X102701718Y-84049693D01*
X102701709Y-84049693D01*
X102699261Y-84049500D01*
X102543729Y-84049500D01*
X102541593Y-84049646D01*
X102541582Y-84049646D01*
X102333452Y-84063835D01*
X102333446Y-84063836D01*
X102329175Y-84064127D01*
X102324980Y-84064996D01*
X102324978Y-84064996D01*
X102210057Y-84088795D01*
X102047658Y-84122426D01*
X101776657Y-84218393D01*
X101521188Y-84350250D01*
X101517687Y-84352711D01*
X101517683Y-84352713D01*
X101507594Y-84359804D01*
X101285977Y-84515559D01*
X101270892Y-84529577D01*
X101158520Y-84634000D01*
X101075378Y-84711260D01*
X100893287Y-84933732D01*
X100743073Y-85178858D01*
X100627517Y-85442102D01*
X100548756Y-85718594D01*
X100508249Y-86003216D01*
X100508227Y-86007505D01*
X100508226Y-86007512D01*
X100506832Y-86273624D01*
X100506743Y-86290703D01*
X96774500Y-86290703D01*
X96774500Y-84941250D01*
X96776246Y-84920345D01*
X96778770Y-84905344D01*
X96778770Y-84905341D01*
X96779576Y-84900552D01*
X96779729Y-84888000D01*
X96779039Y-84883184D01*
X96779039Y-84883178D01*
X96777387Y-84871644D01*
X96776234Y-84848284D01*
X96781638Y-84724525D01*
X96791656Y-84495063D01*
X96792614Y-84484114D01*
X96801410Y-84417305D01*
X96843233Y-84099621D01*
X96845142Y-84088795D01*
X96929080Y-83710178D01*
X96931925Y-83699561D01*
X97048539Y-83329706D01*
X97052298Y-83319377D01*
X97200711Y-82961077D01*
X97205357Y-82951115D01*
X97384423Y-82607133D01*
X97389919Y-82597613D01*
X97598292Y-82270532D01*
X97604597Y-82261528D01*
X97840678Y-81953862D01*
X97847743Y-81945442D01*
X98109744Y-81659517D01*
X98117517Y-81651744D01*
X98403442Y-81389743D01*
X98411862Y-81382678D01*
X98719528Y-81146597D01*
X98728532Y-81140292D01*
X99055613Y-80931919D01*
X99065133Y-80926423D01*
X99409124Y-80747353D01*
X99419068Y-80742715D01*
X99777385Y-80594295D01*
X99787698Y-80590542D01*
X99987298Y-80527608D01*
X100157561Y-80473925D01*
X100168178Y-80471080D01*
X100546795Y-80387142D01*
X100557621Y-80385233D01*
X100942114Y-80334614D01*
X100953063Y-80333656D01*
X101302554Y-80318397D01*
X101327429Y-80319777D01*
X101339724Y-80321691D01*
X101348626Y-80320527D01*
X101348628Y-80320527D01*
X101367399Y-80318072D01*
X101371286Y-80317564D01*
X101387621Y-80316500D01*
X177496633Y-80316500D01*
X177516018Y-80318000D01*
G37*
%TD.AperFunction*%
%TD*%
M02*
