%TF.GenerationSoftware,KiCad,Pcbnew,(6.0.7)*%
%TF.CreationDate,2022-09-26T21:03:58+02:00*%
%TF.ProjectId,LcdResolver,4c636452-6573-46f6-9c76-65722e6b6963,0*%
%TF.SameCoordinates,Original*%
%TF.FileFunction,Drillmap*%
%TF.FilePolarity,Positive*%
%FSLAX45Y45*%
G04 Gerber Fmt 4.5, Leading zero omitted, Abs format (unit mm)*
G04 Created by KiCad (PCBNEW (6.0.7)) date 2022-09-26 21:03:58*
%MOMM*%
%LPD*%
G01*
G04 APERTURE LIST*
%ADD10C,0.100000*%
%ADD11C,0.200000*%
%ADD12C,0.040000*%
%ADD13C,0.090000*%
G04 APERTURE END LIST*
D10*
X18262600Y-8488800D02*
G75*
G03*
X17754600Y-7980800I-508000J0D01*
G01*
X10134600Y-11155800D02*
X17754600Y-11155800D01*
X9626600Y-10647800D02*
G75*
G03*
X10134600Y-11155800I508000J0D01*
G01*
X18262600Y-8488800D02*
X18262600Y-10647800D01*
X10134600Y-7980800D02*
G75*
G03*
X9626600Y-8488800I0J-508000D01*
G01*
X10134600Y-7980800D02*
X17754600Y-7980800D01*
X17754600Y-11155800D02*
G75*
G03*
X18262600Y-10647800I0J508000D01*
G01*
X9626600Y-8488800D02*
X9626600Y-10647800D01*
D11*
D12*
X9924100Y-9517700D02*
X9964100Y-9557700D01*
X9964100Y-9517700D02*
X9924100Y-9557700D01*
X10660700Y-9670100D02*
X10700700Y-9710100D01*
X10700700Y-9670100D02*
X10660700Y-9710100D01*
X10889300Y-9835200D02*
X10929300Y-9875200D01*
X10929300Y-9835200D02*
X10889300Y-9875200D01*
X10889300Y-10052350D02*
X10929300Y-10092350D01*
X10929300Y-10052350D02*
X10889300Y-10092350D01*
X12337100Y-8837100D02*
X12377100Y-8877100D01*
X12377100Y-8837100D02*
X12337100Y-8877100D01*
X12337100Y-9014900D02*
X12377100Y-9054900D01*
X12377100Y-9014900D02*
X12337100Y-9054900D01*
X12476800Y-10101900D02*
X12516800Y-10141900D01*
X12516800Y-10101900D02*
X12476800Y-10141900D01*
X13048300Y-9212900D02*
X13088300Y-9252900D01*
X13088300Y-9212900D02*
X13048300Y-9252900D01*
X13124500Y-8926000D02*
X13164500Y-8966000D01*
X13164500Y-8926000D02*
X13124500Y-8966000D01*
X13276900Y-9268900D02*
X13316900Y-9308900D01*
X13316900Y-9268900D02*
X13276900Y-9308900D01*
X13416600Y-9497500D02*
X13456600Y-9537500D01*
X13456600Y-9497500D02*
X13416600Y-9537500D01*
X13543600Y-9497500D02*
X13583600Y-9537500D01*
X13583600Y-9497500D02*
X13543600Y-9537500D01*
X13670600Y-9497500D02*
X13710600Y-9537500D01*
X13710600Y-9497500D02*
X13670600Y-9537500D01*
X13797600Y-9497500D02*
X13837600Y-9537500D01*
X13837600Y-9497500D02*
X13797600Y-9537500D01*
X13924600Y-9497500D02*
X13964600Y-9537500D01*
X13964600Y-9497500D02*
X13924600Y-9537500D01*
X14178600Y-9522900D02*
X14218600Y-9562900D01*
X14218600Y-9522900D02*
X14178600Y-9562900D01*
X14686600Y-9992800D02*
X14726600Y-10032800D01*
X14726600Y-9992800D02*
X14686600Y-10032800D01*
X14885648Y-10191848D02*
X14925648Y-10231848D01*
X14925648Y-10191848D02*
X14885648Y-10231848D01*
X15093000Y-9192700D02*
X15133000Y-9232700D01*
X15133000Y-9192700D02*
X15093000Y-9232700D01*
X16515400Y-9281600D02*
X16555400Y-9321600D01*
X16555400Y-9281600D02*
X16515400Y-9321600D01*
X16578900Y-9014900D02*
X16618900Y-9054900D01*
X16618900Y-9014900D02*
X16578900Y-9054900D01*
D13*
X11072600Y-9153200D02*
G75*
G03*
X11072600Y-9153200I-45000J0D01*
G01*
X11322600Y-9653200D02*
G75*
G03*
X11322600Y-9653200I-45000J0D01*
G01*
X11572600Y-9153200D02*
G75*
G03*
X11572600Y-9153200I-45000J0D01*
G01*
D10*
X11087100Y-8438800D02*
X11087100Y-8538800D01*
X11037100Y-8488800D02*
X11137100Y-8488800D01*
X11087100Y-10597800D02*
X11087100Y-10697800D01*
X11037100Y-10647800D02*
X11137100Y-10647800D01*
X11341100Y-8438800D02*
X11341100Y-8538800D01*
X11291100Y-8488800D02*
X11391100Y-8488800D01*
X11341100Y-10597800D02*
X11341100Y-10697800D01*
X11291100Y-10647800D02*
X11391100Y-10647800D01*
X11595100Y-8438800D02*
X11595100Y-8538800D01*
X11545100Y-8488800D02*
X11645100Y-8488800D01*
X11595100Y-10597800D02*
X11595100Y-10697800D01*
X11545100Y-10647800D02*
X11645100Y-10647800D01*
X11849100Y-8438800D02*
X11849100Y-8538800D01*
X11799100Y-8488800D02*
X11899100Y-8488800D01*
X11849100Y-10597800D02*
X11849100Y-10697800D01*
X11799100Y-10647800D02*
X11899100Y-10647800D01*
X12103100Y-8438800D02*
X12103100Y-8538800D01*
X12053100Y-8488800D02*
X12153100Y-8488800D01*
X12103100Y-10597800D02*
X12103100Y-10697800D01*
X12053100Y-10647800D02*
X12153100Y-10647800D01*
X12357100Y-8438800D02*
X12357100Y-8538800D01*
X12307100Y-8488800D02*
X12407100Y-8488800D01*
X12357100Y-10597800D02*
X12357100Y-10697800D01*
X12307100Y-10647800D02*
X12407100Y-10647800D01*
X12611100Y-8438800D02*
X12611100Y-8538800D01*
X12561100Y-8488800D02*
X12661100Y-8488800D01*
X12611100Y-10597800D02*
X12611100Y-10697800D01*
X12561100Y-10647800D02*
X12661100Y-10647800D01*
X12865100Y-8438800D02*
X12865100Y-8538800D01*
X12815100Y-8488800D02*
X12915100Y-8488800D01*
X12865100Y-10597800D02*
X12865100Y-10697800D01*
X12815100Y-10647800D02*
X12915100Y-10647800D01*
X13119100Y-8438800D02*
X13119100Y-8538800D01*
X13069100Y-8488800D02*
X13169100Y-8488800D01*
X13119100Y-10597800D02*
X13119100Y-10697800D01*
X13069100Y-10647800D02*
X13169100Y-10647800D01*
X13373100Y-8438800D02*
X13373100Y-8538800D01*
X13323100Y-8488800D02*
X13423100Y-8488800D01*
X13373100Y-10597800D02*
X13373100Y-10697800D01*
X13323100Y-10647800D02*
X13423100Y-10647800D01*
X13627100Y-8438800D02*
X13627100Y-8538800D01*
X13577100Y-8488800D02*
X13677100Y-8488800D01*
X13627100Y-10597800D02*
X13627100Y-10697800D01*
X13577100Y-10647800D02*
X13677100Y-10647800D01*
X13881100Y-8438800D02*
X13881100Y-8538800D01*
X13831100Y-8488800D02*
X13931100Y-8488800D01*
X14135100Y-8438800D02*
X14135100Y-8538800D01*
X14085100Y-8488800D02*
X14185100Y-8488800D01*
X14389100Y-8438800D02*
X14389100Y-8538800D01*
X14339100Y-8488800D02*
X14439100Y-8488800D01*
X14643100Y-8438800D02*
X14643100Y-8538800D01*
X14593100Y-8488800D02*
X14693100Y-8488800D01*
X14897100Y-8438800D02*
X14897100Y-8538800D01*
X14847100Y-8488800D02*
X14947100Y-8488800D01*
X15722600Y-8438800D02*
X15722600Y-8538800D01*
X15672600Y-8488800D02*
X15772600Y-8488800D01*
X15976600Y-8438800D02*
X15976600Y-8538800D01*
X15926600Y-8488800D02*
X16026600Y-8488800D01*
X16230600Y-8438800D02*
X16230600Y-8538800D01*
X16180600Y-8488800D02*
X16280600Y-8488800D01*
X16484600Y-8438800D02*
X16484600Y-8538800D01*
X16434600Y-8488800D02*
X16534600Y-8488800D01*
X16738600Y-8438800D02*
X16738600Y-8538800D01*
X16688600Y-8488800D02*
X16788600Y-8488800D01*
D11*
X9879219Y-11471276D02*
X9879219Y-11271276D01*
X9926838Y-11271276D01*
X9955410Y-11280800D01*
X9974457Y-11299848D01*
X9983981Y-11318895D01*
X9993505Y-11356990D01*
X9993505Y-11385562D01*
X9983981Y-11423657D01*
X9974457Y-11442705D01*
X9955410Y-11461752D01*
X9926838Y-11471276D01*
X9879219Y-11471276D01*
X10079219Y-11471276D02*
X10079219Y-11337943D01*
X10079219Y-11376038D02*
X10088743Y-11356990D01*
X10098267Y-11347467D01*
X10117314Y-11337943D01*
X10136362Y-11337943D01*
X10203029Y-11471276D02*
X10203029Y-11337943D01*
X10203029Y-11271276D02*
X10193505Y-11280800D01*
X10203029Y-11290324D01*
X10212552Y-11280800D01*
X10203029Y-11271276D01*
X10203029Y-11290324D01*
X10326838Y-11471276D02*
X10307790Y-11461752D01*
X10298267Y-11442705D01*
X10298267Y-11271276D01*
X10431600Y-11471276D02*
X10412552Y-11461752D01*
X10403029Y-11442705D01*
X10403029Y-11271276D01*
X10660171Y-11471276D02*
X10660171Y-11271276D01*
X10726838Y-11414133D01*
X10793505Y-11271276D01*
X10793505Y-11471276D01*
X10974457Y-11471276D02*
X10974457Y-11366514D01*
X10964933Y-11347467D01*
X10945886Y-11337943D01*
X10907790Y-11337943D01*
X10888743Y-11347467D01*
X10974457Y-11461752D02*
X10955410Y-11471276D01*
X10907790Y-11471276D01*
X10888743Y-11461752D01*
X10879219Y-11442705D01*
X10879219Y-11423657D01*
X10888743Y-11404609D01*
X10907790Y-11395086D01*
X10955410Y-11395086D01*
X10974457Y-11385562D01*
X11069695Y-11337943D02*
X11069695Y-11537943D01*
X11069695Y-11347467D02*
X11088743Y-11337943D01*
X11126838Y-11337943D01*
X11145886Y-11347467D01*
X11155410Y-11356990D01*
X11164933Y-11376038D01*
X11164933Y-11433181D01*
X11155410Y-11452228D01*
X11145886Y-11461752D01*
X11126838Y-11471276D01*
X11088743Y-11471276D01*
X11069695Y-11461752D01*
X11250648Y-11452228D02*
X11260171Y-11461752D01*
X11250648Y-11471276D01*
X11241124Y-11461752D01*
X11250648Y-11452228D01*
X11250648Y-11471276D01*
X11250648Y-11347467D02*
X11260171Y-11356990D01*
X11250648Y-11366514D01*
X11241124Y-11356990D01*
X11250648Y-11347467D01*
X11250648Y-11366514D01*
D12*
X9581600Y-11780800D02*
X9621600Y-11820800D01*
X9621600Y-11780800D02*
X9581600Y-11820800D01*
D11*
X9917314Y-11691276D02*
X9936362Y-11691276D01*
X9955410Y-11700800D01*
X9964933Y-11710324D01*
X9974457Y-11729371D01*
X9983981Y-11767467D01*
X9983981Y-11815086D01*
X9974457Y-11853181D01*
X9964933Y-11872228D01*
X9955410Y-11881752D01*
X9936362Y-11891276D01*
X9917314Y-11891276D01*
X9898267Y-11881752D01*
X9888743Y-11872228D01*
X9879219Y-11853181D01*
X9869695Y-11815086D01*
X9869695Y-11767467D01*
X9879219Y-11729371D01*
X9888743Y-11710324D01*
X9898267Y-11700800D01*
X9917314Y-11691276D01*
X10069695Y-11872228D02*
X10079219Y-11881752D01*
X10069695Y-11891276D01*
X10060171Y-11881752D01*
X10069695Y-11872228D01*
X10069695Y-11891276D01*
X10250648Y-11757943D02*
X10250648Y-11891276D01*
X10203029Y-11681752D02*
X10155410Y-11824609D01*
X10279219Y-11824609D01*
X10393505Y-11691276D02*
X10412552Y-11691276D01*
X10431600Y-11700800D01*
X10441124Y-11710324D01*
X10450648Y-11729371D01*
X10460171Y-11767467D01*
X10460171Y-11815086D01*
X10450648Y-11853181D01*
X10441124Y-11872228D01*
X10431600Y-11881752D01*
X10412552Y-11891276D01*
X10393505Y-11891276D01*
X10374457Y-11881752D01*
X10364933Y-11872228D01*
X10355410Y-11853181D01*
X10345886Y-11815086D01*
X10345886Y-11767467D01*
X10355410Y-11729371D01*
X10364933Y-11710324D01*
X10374457Y-11700800D01*
X10393505Y-11691276D01*
X10583981Y-11691276D02*
X10603029Y-11691276D01*
X10622076Y-11700800D01*
X10631600Y-11710324D01*
X10641124Y-11729371D01*
X10650648Y-11767467D01*
X10650648Y-11815086D01*
X10641124Y-11853181D01*
X10631600Y-11872228D01*
X10622076Y-11881752D01*
X10603029Y-11891276D01*
X10583981Y-11891276D01*
X10564933Y-11881752D01*
X10555410Y-11872228D01*
X10545886Y-11853181D01*
X10536362Y-11815086D01*
X10536362Y-11767467D01*
X10545886Y-11729371D01*
X10555410Y-11710324D01*
X10564933Y-11700800D01*
X10583981Y-11691276D01*
X10736362Y-11891276D02*
X10736362Y-11757943D01*
X10736362Y-11776990D02*
X10745886Y-11767467D01*
X10764933Y-11757943D01*
X10793505Y-11757943D01*
X10812552Y-11767467D01*
X10822076Y-11786514D01*
X10822076Y-11891276D01*
X10822076Y-11786514D02*
X10831600Y-11767467D01*
X10850648Y-11757943D01*
X10879219Y-11757943D01*
X10898267Y-11767467D01*
X10907790Y-11786514D01*
X10907790Y-11891276D01*
X11003029Y-11891276D02*
X11003029Y-11757943D01*
X11003029Y-11776990D02*
X11012552Y-11767467D01*
X11031600Y-11757943D01*
X11060171Y-11757943D01*
X11079219Y-11767467D01*
X11088743Y-11786514D01*
X11088743Y-11891276D01*
X11088743Y-11786514D02*
X11098267Y-11767467D01*
X11117314Y-11757943D01*
X11145886Y-11757943D01*
X11164933Y-11767467D01*
X11174457Y-11786514D01*
X11174457Y-11891276D01*
X11564933Y-11681752D02*
X11393505Y-11938895D01*
X11822076Y-11691276D02*
X11841124Y-11691276D01*
X11860171Y-11700800D01*
X11869695Y-11710324D01*
X11879219Y-11729371D01*
X11888743Y-11767467D01*
X11888743Y-11815086D01*
X11879219Y-11853181D01*
X11869695Y-11872228D01*
X11860171Y-11881752D01*
X11841124Y-11891276D01*
X11822076Y-11891276D01*
X11803028Y-11881752D01*
X11793505Y-11872228D01*
X11783981Y-11853181D01*
X11774457Y-11815086D01*
X11774457Y-11767467D01*
X11783981Y-11729371D01*
X11793505Y-11710324D01*
X11803028Y-11700800D01*
X11822076Y-11691276D01*
X11974457Y-11872228D02*
X11983981Y-11881752D01*
X11974457Y-11891276D01*
X11964933Y-11881752D01*
X11974457Y-11872228D01*
X11974457Y-11891276D01*
X12107790Y-11691276D02*
X12126838Y-11691276D01*
X12145886Y-11700800D01*
X12155409Y-11710324D01*
X12164933Y-11729371D01*
X12174457Y-11767467D01*
X12174457Y-11815086D01*
X12164933Y-11853181D01*
X12155409Y-11872228D01*
X12145886Y-11881752D01*
X12126838Y-11891276D01*
X12107790Y-11891276D01*
X12088743Y-11881752D01*
X12079219Y-11872228D01*
X12069695Y-11853181D01*
X12060171Y-11815086D01*
X12060171Y-11767467D01*
X12069695Y-11729371D01*
X12079219Y-11710324D01*
X12088743Y-11700800D01*
X12107790Y-11691276D01*
X12364933Y-11891276D02*
X12250648Y-11891276D01*
X12307790Y-11891276D02*
X12307790Y-11691276D01*
X12288743Y-11719848D01*
X12269695Y-11738895D01*
X12250648Y-11748419D01*
X12545886Y-11691276D02*
X12450648Y-11691276D01*
X12441124Y-11786514D01*
X12450648Y-11776990D01*
X12469695Y-11767467D01*
X12517314Y-11767467D01*
X12536362Y-11776990D01*
X12545886Y-11786514D01*
X12555409Y-11805562D01*
X12555409Y-11853181D01*
X12545886Y-11872228D01*
X12536362Y-11881752D01*
X12517314Y-11891276D01*
X12469695Y-11891276D01*
X12450648Y-11881752D01*
X12441124Y-11872228D01*
X12622076Y-11691276D02*
X12755409Y-11691276D01*
X12669695Y-11891276D01*
X12822076Y-11691276D02*
X12822076Y-11729371D01*
X12898267Y-11691276D02*
X12898267Y-11729371D01*
X13193505Y-11967467D02*
X13183981Y-11957943D01*
X13164933Y-11929371D01*
X13155409Y-11910324D01*
X13145886Y-11881752D01*
X13136362Y-11834133D01*
X13136362Y-11796038D01*
X13145886Y-11748419D01*
X13155409Y-11719848D01*
X13164933Y-11700800D01*
X13183981Y-11672228D01*
X13193505Y-11662705D01*
X13260171Y-11710324D02*
X13269695Y-11700800D01*
X13288743Y-11691276D01*
X13336362Y-11691276D01*
X13355409Y-11700800D01*
X13364933Y-11710324D01*
X13374457Y-11729371D01*
X13374457Y-11748419D01*
X13364933Y-11776990D01*
X13250648Y-11891276D01*
X13374457Y-11891276D01*
X13564933Y-11891276D02*
X13450648Y-11891276D01*
X13507790Y-11891276D02*
X13507790Y-11691276D01*
X13488743Y-11719848D01*
X13469695Y-11738895D01*
X13450648Y-11748419D01*
X13803028Y-11891276D02*
X13803028Y-11691276D01*
X13888743Y-11891276D02*
X13888743Y-11786514D01*
X13879219Y-11767467D01*
X13860171Y-11757943D01*
X13831600Y-11757943D01*
X13812552Y-11767467D01*
X13803028Y-11776990D01*
X14012552Y-11891276D02*
X13993505Y-11881752D01*
X13983981Y-11872228D01*
X13974457Y-11853181D01*
X13974457Y-11796038D01*
X13983981Y-11776990D01*
X13993505Y-11767467D01*
X14012552Y-11757943D01*
X14041124Y-11757943D01*
X14060171Y-11767467D01*
X14069695Y-11776990D01*
X14079219Y-11796038D01*
X14079219Y-11853181D01*
X14069695Y-11872228D01*
X14060171Y-11881752D01*
X14041124Y-11891276D01*
X14012552Y-11891276D01*
X14193505Y-11891276D02*
X14174457Y-11881752D01*
X14164933Y-11862705D01*
X14164933Y-11691276D01*
X14345886Y-11881752D02*
X14326838Y-11891276D01*
X14288743Y-11891276D01*
X14269695Y-11881752D01*
X14260171Y-11862705D01*
X14260171Y-11786514D01*
X14269695Y-11767467D01*
X14288743Y-11757943D01*
X14326838Y-11757943D01*
X14345886Y-11767467D01*
X14355409Y-11786514D01*
X14355409Y-11805562D01*
X14260171Y-11824609D01*
X14431600Y-11881752D02*
X14450648Y-11891276D01*
X14488743Y-11891276D01*
X14507790Y-11881752D01*
X14517314Y-11862705D01*
X14517314Y-11853181D01*
X14507790Y-11834133D01*
X14488743Y-11824609D01*
X14460171Y-11824609D01*
X14441124Y-11815086D01*
X14431600Y-11796038D01*
X14431600Y-11786514D01*
X14441124Y-11767467D01*
X14460171Y-11757943D01*
X14488743Y-11757943D01*
X14507790Y-11767467D01*
X14583981Y-11967467D02*
X14593505Y-11957943D01*
X14612552Y-11929371D01*
X14622076Y-11910324D01*
X14631600Y-11881752D01*
X14641124Y-11834133D01*
X14641124Y-11796038D01*
X14631600Y-11748419D01*
X14622076Y-11719848D01*
X14612552Y-11700800D01*
X14593505Y-11672228D01*
X14583981Y-11662705D01*
D13*
X9621600Y-12064800D02*
G75*
G03*
X9621600Y-12064800I-45000J0D01*
G01*
D11*
X9917314Y-11955276D02*
X9936362Y-11955276D01*
X9955410Y-11964800D01*
X9964933Y-11974324D01*
X9974457Y-11993371D01*
X9983981Y-12031467D01*
X9983981Y-12079086D01*
X9974457Y-12117181D01*
X9964933Y-12136228D01*
X9955410Y-12145752D01*
X9936362Y-12155276D01*
X9917314Y-12155276D01*
X9898267Y-12145752D01*
X9888743Y-12136228D01*
X9879219Y-12117181D01*
X9869695Y-12079086D01*
X9869695Y-12031467D01*
X9879219Y-11993371D01*
X9888743Y-11974324D01*
X9898267Y-11964800D01*
X9917314Y-11955276D01*
X10069695Y-12136228D02*
X10079219Y-12145752D01*
X10069695Y-12155276D01*
X10060171Y-12145752D01*
X10069695Y-12136228D01*
X10069695Y-12155276D01*
X10174457Y-12155276D02*
X10212552Y-12155276D01*
X10231600Y-12145752D01*
X10241124Y-12136228D01*
X10260171Y-12107657D01*
X10269695Y-12069562D01*
X10269695Y-11993371D01*
X10260171Y-11974324D01*
X10250648Y-11964800D01*
X10231600Y-11955276D01*
X10193505Y-11955276D01*
X10174457Y-11964800D01*
X10164933Y-11974324D01*
X10155410Y-11993371D01*
X10155410Y-12040990D01*
X10164933Y-12060038D01*
X10174457Y-12069562D01*
X10193505Y-12079086D01*
X10231600Y-12079086D01*
X10250648Y-12069562D01*
X10260171Y-12060038D01*
X10269695Y-12040990D01*
X10393505Y-11955276D02*
X10412552Y-11955276D01*
X10431600Y-11964800D01*
X10441124Y-11974324D01*
X10450648Y-11993371D01*
X10460171Y-12031467D01*
X10460171Y-12079086D01*
X10450648Y-12117181D01*
X10441124Y-12136228D01*
X10431600Y-12145752D01*
X10412552Y-12155276D01*
X10393505Y-12155276D01*
X10374457Y-12145752D01*
X10364933Y-12136228D01*
X10355410Y-12117181D01*
X10345886Y-12079086D01*
X10345886Y-12031467D01*
X10355410Y-11993371D01*
X10364933Y-11974324D01*
X10374457Y-11964800D01*
X10393505Y-11955276D01*
X10583981Y-11955276D02*
X10603029Y-11955276D01*
X10622076Y-11964800D01*
X10631600Y-11974324D01*
X10641124Y-11993371D01*
X10650648Y-12031467D01*
X10650648Y-12079086D01*
X10641124Y-12117181D01*
X10631600Y-12136228D01*
X10622076Y-12145752D01*
X10603029Y-12155276D01*
X10583981Y-12155276D01*
X10564933Y-12145752D01*
X10555410Y-12136228D01*
X10545886Y-12117181D01*
X10536362Y-12079086D01*
X10536362Y-12031467D01*
X10545886Y-11993371D01*
X10555410Y-11974324D01*
X10564933Y-11964800D01*
X10583981Y-11955276D01*
X10736362Y-12155276D02*
X10736362Y-12021943D01*
X10736362Y-12040990D02*
X10745886Y-12031467D01*
X10764933Y-12021943D01*
X10793505Y-12021943D01*
X10812552Y-12031467D01*
X10822076Y-12050514D01*
X10822076Y-12155276D01*
X10822076Y-12050514D02*
X10831600Y-12031467D01*
X10850648Y-12021943D01*
X10879219Y-12021943D01*
X10898267Y-12031467D01*
X10907790Y-12050514D01*
X10907790Y-12155276D01*
X11003029Y-12155276D02*
X11003029Y-12021943D01*
X11003029Y-12040990D02*
X11012552Y-12031467D01*
X11031600Y-12021943D01*
X11060171Y-12021943D01*
X11079219Y-12031467D01*
X11088743Y-12050514D01*
X11088743Y-12155276D01*
X11088743Y-12050514D02*
X11098267Y-12031467D01*
X11117314Y-12021943D01*
X11145886Y-12021943D01*
X11164933Y-12031467D01*
X11174457Y-12050514D01*
X11174457Y-12155276D01*
X11564933Y-11945752D02*
X11393505Y-12202895D01*
X11822076Y-11955276D02*
X11841124Y-11955276D01*
X11860171Y-11964800D01*
X11869695Y-11974324D01*
X11879219Y-11993371D01*
X11888743Y-12031467D01*
X11888743Y-12079086D01*
X11879219Y-12117181D01*
X11869695Y-12136228D01*
X11860171Y-12145752D01*
X11841124Y-12155276D01*
X11822076Y-12155276D01*
X11803028Y-12145752D01*
X11793505Y-12136228D01*
X11783981Y-12117181D01*
X11774457Y-12079086D01*
X11774457Y-12031467D01*
X11783981Y-11993371D01*
X11793505Y-11974324D01*
X11803028Y-11964800D01*
X11822076Y-11955276D01*
X11974457Y-12136228D02*
X11983981Y-12145752D01*
X11974457Y-12155276D01*
X11964933Y-12145752D01*
X11974457Y-12136228D01*
X11974457Y-12155276D01*
X12107790Y-11955276D02*
X12126838Y-11955276D01*
X12145886Y-11964800D01*
X12155409Y-11974324D01*
X12164933Y-11993371D01*
X12174457Y-12031467D01*
X12174457Y-12079086D01*
X12164933Y-12117181D01*
X12155409Y-12136228D01*
X12145886Y-12145752D01*
X12126838Y-12155276D01*
X12107790Y-12155276D01*
X12088743Y-12145752D01*
X12079219Y-12136228D01*
X12069695Y-12117181D01*
X12060171Y-12079086D01*
X12060171Y-12031467D01*
X12069695Y-11993371D01*
X12079219Y-11974324D01*
X12088743Y-11964800D01*
X12107790Y-11955276D01*
X12241124Y-11955276D02*
X12364933Y-11955276D01*
X12298267Y-12031467D01*
X12326838Y-12031467D01*
X12345886Y-12040990D01*
X12355409Y-12050514D01*
X12364933Y-12069562D01*
X12364933Y-12117181D01*
X12355409Y-12136228D01*
X12345886Y-12145752D01*
X12326838Y-12155276D01*
X12269695Y-12155276D01*
X12250648Y-12145752D01*
X12241124Y-12136228D01*
X12545886Y-11955276D02*
X12450648Y-11955276D01*
X12441124Y-12050514D01*
X12450648Y-12040990D01*
X12469695Y-12031467D01*
X12517314Y-12031467D01*
X12536362Y-12040990D01*
X12545886Y-12050514D01*
X12555409Y-12069562D01*
X12555409Y-12117181D01*
X12545886Y-12136228D01*
X12536362Y-12145752D01*
X12517314Y-12155276D01*
X12469695Y-12155276D01*
X12450648Y-12145752D01*
X12441124Y-12136228D01*
X12726838Y-12021943D02*
X12726838Y-12155276D01*
X12679219Y-11945752D02*
X12631600Y-12088609D01*
X12755409Y-12088609D01*
X12822076Y-11955276D02*
X12822076Y-11993371D01*
X12898267Y-11955276D02*
X12898267Y-11993371D01*
X13193505Y-12231467D02*
X13183981Y-12221943D01*
X13164933Y-12193371D01*
X13155409Y-12174324D01*
X13145886Y-12145752D01*
X13136362Y-12098133D01*
X13136362Y-12060038D01*
X13145886Y-12012419D01*
X13155409Y-11983848D01*
X13164933Y-11964800D01*
X13183981Y-11936228D01*
X13193505Y-11926705D01*
X13250648Y-11955276D02*
X13374457Y-11955276D01*
X13307790Y-12031467D01*
X13336362Y-12031467D01*
X13355409Y-12040990D01*
X13364933Y-12050514D01*
X13374457Y-12069562D01*
X13374457Y-12117181D01*
X13364933Y-12136228D01*
X13355409Y-12145752D01*
X13336362Y-12155276D01*
X13279219Y-12155276D01*
X13260171Y-12145752D01*
X13250648Y-12136228D01*
X13612552Y-12155276D02*
X13612552Y-11955276D01*
X13698267Y-12155276D02*
X13698267Y-12050514D01*
X13688743Y-12031467D01*
X13669695Y-12021943D01*
X13641124Y-12021943D01*
X13622076Y-12031467D01*
X13612552Y-12040990D01*
X13822076Y-12155276D02*
X13803028Y-12145752D01*
X13793505Y-12136228D01*
X13783981Y-12117181D01*
X13783981Y-12060038D01*
X13793505Y-12040990D01*
X13803028Y-12031467D01*
X13822076Y-12021943D01*
X13850648Y-12021943D01*
X13869695Y-12031467D01*
X13879219Y-12040990D01*
X13888743Y-12060038D01*
X13888743Y-12117181D01*
X13879219Y-12136228D01*
X13869695Y-12145752D01*
X13850648Y-12155276D01*
X13822076Y-12155276D01*
X14003028Y-12155276D02*
X13983981Y-12145752D01*
X13974457Y-12126705D01*
X13974457Y-11955276D01*
X14155409Y-12145752D02*
X14136362Y-12155276D01*
X14098267Y-12155276D01*
X14079219Y-12145752D01*
X14069695Y-12126705D01*
X14069695Y-12050514D01*
X14079219Y-12031467D01*
X14098267Y-12021943D01*
X14136362Y-12021943D01*
X14155409Y-12031467D01*
X14164933Y-12050514D01*
X14164933Y-12069562D01*
X14069695Y-12088609D01*
X14241124Y-12145752D02*
X14260171Y-12155276D01*
X14298267Y-12155276D01*
X14317314Y-12145752D01*
X14326838Y-12126705D01*
X14326838Y-12117181D01*
X14317314Y-12098133D01*
X14298267Y-12088609D01*
X14269695Y-12088609D01*
X14250648Y-12079086D01*
X14241124Y-12060038D01*
X14241124Y-12050514D01*
X14250648Y-12031467D01*
X14269695Y-12021943D01*
X14298267Y-12021943D01*
X14317314Y-12031467D01*
X14393505Y-12231467D02*
X14403028Y-12221943D01*
X14422076Y-12193371D01*
X14431600Y-12174324D01*
X14441124Y-12145752D01*
X14450648Y-12098133D01*
X14450648Y-12060038D01*
X14441124Y-12012419D01*
X14431600Y-11983848D01*
X14422076Y-11964800D01*
X14403028Y-11936228D01*
X14393505Y-11926705D01*
D10*
X9571600Y-12278800D02*
X9571600Y-12378800D01*
X9521600Y-12328800D02*
X9621600Y-12328800D01*
D11*
X9983981Y-12419276D02*
X9869695Y-12419276D01*
X9926838Y-12419276D02*
X9926838Y-12219276D01*
X9907790Y-12247848D01*
X9888743Y-12266895D01*
X9869695Y-12276419D01*
X10069695Y-12400228D02*
X10079219Y-12409752D01*
X10069695Y-12419276D01*
X10060171Y-12409752D01*
X10069695Y-12400228D01*
X10069695Y-12419276D01*
X10203029Y-12219276D02*
X10222076Y-12219276D01*
X10241124Y-12228800D01*
X10250648Y-12238324D01*
X10260171Y-12257371D01*
X10269695Y-12295467D01*
X10269695Y-12343086D01*
X10260171Y-12381181D01*
X10250648Y-12400228D01*
X10241124Y-12409752D01*
X10222076Y-12419276D01*
X10203029Y-12419276D01*
X10183981Y-12409752D01*
X10174457Y-12400228D01*
X10164933Y-12381181D01*
X10155410Y-12343086D01*
X10155410Y-12295467D01*
X10164933Y-12257371D01*
X10174457Y-12238324D01*
X10183981Y-12228800D01*
X10203029Y-12219276D01*
X10393505Y-12219276D02*
X10412552Y-12219276D01*
X10431600Y-12228800D01*
X10441124Y-12238324D01*
X10450648Y-12257371D01*
X10460171Y-12295467D01*
X10460171Y-12343086D01*
X10450648Y-12381181D01*
X10441124Y-12400228D01*
X10431600Y-12409752D01*
X10412552Y-12419276D01*
X10393505Y-12419276D01*
X10374457Y-12409752D01*
X10364933Y-12400228D01*
X10355410Y-12381181D01*
X10345886Y-12343086D01*
X10345886Y-12295467D01*
X10355410Y-12257371D01*
X10364933Y-12238324D01*
X10374457Y-12228800D01*
X10393505Y-12219276D01*
X10583981Y-12219276D02*
X10603029Y-12219276D01*
X10622076Y-12228800D01*
X10631600Y-12238324D01*
X10641124Y-12257371D01*
X10650648Y-12295467D01*
X10650648Y-12343086D01*
X10641124Y-12381181D01*
X10631600Y-12400228D01*
X10622076Y-12409752D01*
X10603029Y-12419276D01*
X10583981Y-12419276D01*
X10564933Y-12409752D01*
X10555410Y-12400228D01*
X10545886Y-12381181D01*
X10536362Y-12343086D01*
X10536362Y-12295467D01*
X10545886Y-12257371D01*
X10555410Y-12238324D01*
X10564933Y-12228800D01*
X10583981Y-12219276D01*
X10736362Y-12419276D02*
X10736362Y-12285943D01*
X10736362Y-12304990D02*
X10745886Y-12295467D01*
X10764933Y-12285943D01*
X10793505Y-12285943D01*
X10812552Y-12295467D01*
X10822076Y-12314514D01*
X10822076Y-12419276D01*
X10822076Y-12314514D02*
X10831600Y-12295467D01*
X10850648Y-12285943D01*
X10879219Y-12285943D01*
X10898267Y-12295467D01*
X10907790Y-12314514D01*
X10907790Y-12419276D01*
X11003029Y-12419276D02*
X11003029Y-12285943D01*
X11003029Y-12304990D02*
X11012552Y-12295467D01*
X11031600Y-12285943D01*
X11060171Y-12285943D01*
X11079219Y-12295467D01*
X11088743Y-12314514D01*
X11088743Y-12419276D01*
X11088743Y-12314514D02*
X11098267Y-12295467D01*
X11117314Y-12285943D01*
X11145886Y-12285943D01*
X11164933Y-12295467D01*
X11174457Y-12314514D01*
X11174457Y-12419276D01*
X11564933Y-12209752D02*
X11393505Y-12466895D01*
X11822076Y-12219276D02*
X11841124Y-12219276D01*
X11860171Y-12228800D01*
X11869695Y-12238324D01*
X11879219Y-12257371D01*
X11888743Y-12295467D01*
X11888743Y-12343086D01*
X11879219Y-12381181D01*
X11869695Y-12400228D01*
X11860171Y-12409752D01*
X11841124Y-12419276D01*
X11822076Y-12419276D01*
X11803028Y-12409752D01*
X11793505Y-12400228D01*
X11783981Y-12381181D01*
X11774457Y-12343086D01*
X11774457Y-12295467D01*
X11783981Y-12257371D01*
X11793505Y-12238324D01*
X11803028Y-12228800D01*
X11822076Y-12219276D01*
X11974457Y-12400228D02*
X11983981Y-12409752D01*
X11974457Y-12419276D01*
X11964933Y-12409752D01*
X11974457Y-12400228D01*
X11974457Y-12419276D01*
X12107790Y-12219276D02*
X12126838Y-12219276D01*
X12145886Y-12228800D01*
X12155409Y-12238324D01*
X12164933Y-12257371D01*
X12174457Y-12295467D01*
X12174457Y-12343086D01*
X12164933Y-12381181D01*
X12155409Y-12400228D01*
X12145886Y-12409752D01*
X12126838Y-12419276D01*
X12107790Y-12419276D01*
X12088743Y-12409752D01*
X12079219Y-12400228D01*
X12069695Y-12381181D01*
X12060171Y-12343086D01*
X12060171Y-12295467D01*
X12069695Y-12257371D01*
X12079219Y-12238324D01*
X12088743Y-12228800D01*
X12107790Y-12219276D01*
X12241124Y-12219276D02*
X12364933Y-12219276D01*
X12298267Y-12295467D01*
X12326838Y-12295467D01*
X12345886Y-12304990D01*
X12355409Y-12314514D01*
X12364933Y-12333562D01*
X12364933Y-12381181D01*
X12355409Y-12400228D01*
X12345886Y-12409752D01*
X12326838Y-12419276D01*
X12269695Y-12419276D01*
X12250648Y-12409752D01*
X12241124Y-12400228D01*
X12460171Y-12419276D02*
X12498267Y-12419276D01*
X12517314Y-12409752D01*
X12526838Y-12400228D01*
X12545886Y-12371657D01*
X12555409Y-12333562D01*
X12555409Y-12257371D01*
X12545886Y-12238324D01*
X12536362Y-12228800D01*
X12517314Y-12219276D01*
X12479219Y-12219276D01*
X12460171Y-12228800D01*
X12450648Y-12238324D01*
X12441124Y-12257371D01*
X12441124Y-12304990D01*
X12450648Y-12324038D01*
X12460171Y-12333562D01*
X12479219Y-12343086D01*
X12517314Y-12343086D01*
X12536362Y-12333562D01*
X12545886Y-12324038D01*
X12555409Y-12304990D01*
X12726838Y-12285943D02*
X12726838Y-12419276D01*
X12679219Y-12209752D02*
X12631600Y-12352609D01*
X12755409Y-12352609D01*
X12822076Y-12219276D02*
X12822076Y-12257371D01*
X12898267Y-12219276D02*
X12898267Y-12257371D01*
X13193505Y-12495467D02*
X13183981Y-12485943D01*
X13164933Y-12457371D01*
X13155409Y-12438324D01*
X13145886Y-12409752D01*
X13136362Y-12362133D01*
X13136362Y-12324038D01*
X13145886Y-12276419D01*
X13155409Y-12247848D01*
X13164933Y-12228800D01*
X13183981Y-12200228D01*
X13193505Y-12190705D01*
X13250648Y-12219276D02*
X13374457Y-12219276D01*
X13307790Y-12295467D01*
X13336362Y-12295467D01*
X13355409Y-12304990D01*
X13364933Y-12314514D01*
X13374457Y-12333562D01*
X13374457Y-12381181D01*
X13364933Y-12400228D01*
X13355409Y-12409752D01*
X13336362Y-12419276D01*
X13279219Y-12419276D01*
X13260171Y-12409752D01*
X13250648Y-12400228D01*
X13450648Y-12238324D02*
X13460171Y-12228800D01*
X13479219Y-12219276D01*
X13526838Y-12219276D01*
X13545886Y-12228800D01*
X13555409Y-12238324D01*
X13564933Y-12257371D01*
X13564933Y-12276419D01*
X13555409Y-12304990D01*
X13441124Y-12419276D01*
X13564933Y-12419276D01*
X13803028Y-12419276D02*
X13803028Y-12219276D01*
X13888743Y-12419276D02*
X13888743Y-12314514D01*
X13879219Y-12295467D01*
X13860171Y-12285943D01*
X13831600Y-12285943D01*
X13812552Y-12295467D01*
X13803028Y-12304990D01*
X14012552Y-12419276D02*
X13993505Y-12409752D01*
X13983981Y-12400228D01*
X13974457Y-12381181D01*
X13974457Y-12324038D01*
X13983981Y-12304990D01*
X13993505Y-12295467D01*
X14012552Y-12285943D01*
X14041124Y-12285943D01*
X14060171Y-12295467D01*
X14069695Y-12304990D01*
X14079219Y-12324038D01*
X14079219Y-12381181D01*
X14069695Y-12400228D01*
X14060171Y-12409752D01*
X14041124Y-12419276D01*
X14012552Y-12419276D01*
X14193505Y-12419276D02*
X14174457Y-12409752D01*
X14164933Y-12390705D01*
X14164933Y-12219276D01*
X14345886Y-12409752D02*
X14326838Y-12419276D01*
X14288743Y-12419276D01*
X14269695Y-12409752D01*
X14260171Y-12390705D01*
X14260171Y-12314514D01*
X14269695Y-12295467D01*
X14288743Y-12285943D01*
X14326838Y-12285943D01*
X14345886Y-12295467D01*
X14355409Y-12314514D01*
X14355409Y-12333562D01*
X14260171Y-12352609D01*
X14431600Y-12409752D02*
X14450648Y-12419276D01*
X14488743Y-12419276D01*
X14507790Y-12409752D01*
X14517314Y-12390705D01*
X14517314Y-12381181D01*
X14507790Y-12362133D01*
X14488743Y-12352609D01*
X14460171Y-12352609D01*
X14441124Y-12343086D01*
X14431600Y-12324038D01*
X14431600Y-12314514D01*
X14441124Y-12295467D01*
X14460171Y-12285943D01*
X14488743Y-12285943D01*
X14507790Y-12295467D01*
X14583981Y-12495467D02*
X14593505Y-12485943D01*
X14612552Y-12457371D01*
X14622076Y-12438324D01*
X14631600Y-12409752D01*
X14641124Y-12362133D01*
X14641124Y-12324038D01*
X14631600Y-12276419D01*
X14622076Y-12247848D01*
X14612552Y-12228800D01*
X14593505Y-12200228D01*
X14583981Y-12190705D01*
M02*
