M48
; DRILL file {KiCad (6.0.7)} date Mon Sep 26 21:03:12 2022
; FORMAT={-:-/ absolute / metric / decimal}
; #@! TF.CreationDate,2022-09-26T21:03:12+02:00
; #@! TF.GenerationSoftware,Kicad,Pcbnew,(6.0.7)
; #@! TF.FileFunction,Plated,1,2,PTH
FMAT,2
METRIC
; #@! TA.AperFunction,Plated,PTH,ViaDrill
T1C0.400
; #@! TA.AperFunction,Plated,PTH,ComponentDrill
T2C0.900
; #@! TA.AperFunction,Plated,PTH,ComponentDrill
T3C1.000
%
G90
G05
T1
X99.441Y-95.377
X106.807Y-96.901
X109.093Y-98.552
X109.093Y-100.724
X123.571Y-88.571
X123.571Y-90.349
X124.968Y-101.219
X130.683Y-92.329
X131.445Y-89.46
X132.969Y-92.889
X134.366Y-95.175
X135.636Y-95.175
X136.906Y-95.175
X138.176Y-95.175
X139.446Y-95.175
X141.986Y-95.429
X147.066Y-100.128
X149.056Y-102.118
X151.13Y-92.127
X165.354Y-93.016
X165.989Y-90.349
T2
X110.276Y-91.532
X112.776Y-96.532
X115.276Y-91.532
T3
X110.871Y-84.888
X110.871Y-106.478
X113.411Y-84.888
X113.411Y-106.478
X115.951Y-84.888
X115.951Y-106.478
X118.491Y-84.888
X118.491Y-106.478
X121.031Y-84.888
X121.031Y-106.478
X123.571Y-84.888
X123.571Y-106.478
X126.111Y-84.888
X126.111Y-106.478
X128.651Y-84.888
X128.651Y-106.478
X131.191Y-84.888
X131.191Y-106.478
X133.731Y-84.888
X133.731Y-106.478
X136.271Y-84.888
X136.271Y-106.478
X138.811Y-84.888
X141.351Y-84.888
X143.891Y-84.888
X146.431Y-84.888
X148.971Y-84.888
X157.226Y-84.888
X159.766Y-84.888
X162.306Y-84.888
X164.846Y-84.888
X167.386Y-84.888
T0
M30
