%TF.GenerationSoftware,KiCad,Pcbnew,(6.0.7)*%
%TF.CreationDate,2022-09-26T21:00:32+02:00*%
%TF.ProjectId,LcdResolver,4c636452-6573-46f6-9c76-65722e6b6963,0*%
%TF.SameCoordinates,Original*%
%TF.FileFunction,Copper,L1,Top*%
%TF.FilePolarity,Positive*%
%FSLAX46Y46*%
G04 Gerber Fmt 4.6, Leading zero omitted, Abs format (unit mm)*
G04 Created by KiCad (PCBNEW (6.0.7)) date 2022-09-26 21:00:32*
%MOMM*%
%LPD*%
G01*
G04 APERTURE LIST*
G04 Aperture macros list*
%AMRoundRect*
0 Rectangle with rounded corners*
0 $1 Rounding radius*
0 $2 $3 $4 $5 $6 $7 $8 $9 X,Y pos of 4 corners*
0 Add a 4 corners polygon primitive as box body*
4,1,4,$2,$3,$4,$5,$6,$7,$8,$9,$2,$3,0*
0 Add four circle primitives for the rounded corners*
1,1,$1+$1,$2,$3*
1,1,$1+$1,$4,$5*
1,1,$1+$1,$6,$7*
1,1,$1+$1,$8,$9*
0 Add four rect primitives between the rounded corners*
20,1,$1+$1,$2,$3,$4,$5,0*
20,1,$1+$1,$4,$5,$6,$7,0*
20,1,$1+$1,$6,$7,$8,$9,0*
20,1,$1+$1,$8,$9,$2,$3,0*%
%AMFreePoly0*
4,1,22,0.500000,-0.750000,0.000000,-0.750000,0.000000,-0.745033,-0.079941,-0.743568,-0.215256,-0.701293,-0.333266,-0.622738,-0.424486,-0.514219,-0.481581,-0.384460,-0.499164,-0.250000,-0.500000,-0.250000,-0.500000,0.250000,-0.499164,0.250000,-0.499963,0.256109,-0.478152,0.396186,-0.417904,0.524511,-0.324060,0.630769,-0.204165,0.706417,-0.067858,0.745374,0.000000,0.744959,0.000000,0.750000,
0.500000,0.750000,0.500000,-0.750000,0.500000,-0.750000,$1*%
%AMFreePoly1*
4,1,20,0.000000,0.744959,0.073905,0.744508,0.209726,0.703889,0.328688,0.626782,0.421226,0.519385,0.479903,0.390333,0.500000,0.250000,0.500000,-0.250000,0.499851,-0.262216,0.476331,-0.402017,0.414519,-0.529596,0.319384,-0.634700,0.198574,-0.708877,0.061801,-0.746166,0.000000,-0.745033,0.000000,-0.750000,-0.500000,-0.750000,-0.500000,0.750000,0.000000,0.750000,0.000000,0.744959,
0.000000,0.744959,$1*%
G04 Aperture macros list end*
%TA.AperFunction,SMDPad,CuDef*%
%ADD10RoundRect,0.250000X-0.450000X0.262500X-0.450000X-0.262500X0.450000X-0.262500X0.450000X0.262500X0*%
%TD*%
%TA.AperFunction,ComponentPad*%
%ADD11R,1.700000X1.700000*%
%TD*%
%TA.AperFunction,ComponentPad*%
%ADD12O,1.700000X1.700000*%
%TD*%
%TA.AperFunction,ComponentPad*%
%ADD13C,1.620000*%
%TD*%
%TA.AperFunction,SMDPad,CuDef*%
%ADD14RoundRect,0.150000X0.150000X-0.650000X0.150000X0.650000X-0.150000X0.650000X-0.150000X-0.650000X0*%
%TD*%
%TA.AperFunction,SMDPad,CuDef*%
%ADD15RoundRect,0.250000X0.450000X-0.262500X0.450000X0.262500X-0.450000X0.262500X-0.450000X-0.262500X0*%
%TD*%
%TA.AperFunction,SMDPad,CuDef*%
%ADD16FreePoly0,90.000000*%
%TD*%
%TA.AperFunction,SMDPad,CuDef*%
%ADD17FreePoly1,90.000000*%
%TD*%
%TA.AperFunction,SMDPad,CuDef*%
%ADD18RoundRect,0.150000X0.150000X-0.587500X0.150000X0.587500X-0.150000X0.587500X-0.150000X-0.587500X0*%
%TD*%
%TA.AperFunction,SMDPad,CuDef*%
%ADD19RoundRect,0.250000X0.475000X-0.250000X0.475000X0.250000X-0.475000X0.250000X-0.475000X-0.250000X0*%
%TD*%
%TA.AperFunction,ViaPad*%
%ADD20C,0.800000*%
%TD*%
%TA.AperFunction,Conductor*%
%ADD21C,0.500000*%
%TD*%
%TA.AperFunction,Conductor*%
%ADD22C,0.300000*%
%TD*%
G04 APERTURE END LIST*
D10*
%TO.P,R2,1*%
%TO.N,Resolver_A*%
X167386000Y-90325500D03*
%TO.P,R2,2*%
%TO.N,+3.3V*%
X167386000Y-92150500D03*
%TD*%
D11*
%TO.P,J2,1,Pin_1*%
%TO.N,GND*%
X110871000Y-84888000D03*
D12*
%TO.P,J2,2,Pin_2*%
%TO.N,+5V*%
X113411000Y-84888000D03*
%TO.P,J2,3,Pin_3*%
%TO.N,VO*%
X115951000Y-84888000D03*
%TO.P,J2,4,Pin_4*%
%TO.N,RS*%
X118491000Y-84888000D03*
%TO.P,J2,5,Pin_5*%
%TO.N,GND*%
X121031000Y-84888000D03*
%TO.P,J2,6,Pin_6*%
%TO.N,Enable*%
X123571000Y-84888000D03*
%TO.P,J2,7,Pin_7*%
%TO.N,unconnected-(J2-Pad7)*%
X126111000Y-84888000D03*
%TO.P,J2,8,Pin_8*%
%TO.N,unconnected-(J2-Pad8)*%
X128651000Y-84888000D03*
%TO.P,J2,9,Pin_9*%
%TO.N,unconnected-(J2-Pad9)*%
X131191000Y-84888000D03*
%TO.P,J2,10,Pin_10*%
%TO.N,unconnected-(J2-Pad10)*%
X133731000Y-84888000D03*
%TO.P,J2,11,Pin_11*%
%TO.N,D4*%
X136271000Y-84888000D03*
%TO.P,J2,12,Pin_12*%
%TO.N,D5*%
X138811000Y-84888000D03*
%TO.P,J2,13,Pin_13*%
%TO.N,D6*%
X141351000Y-84888000D03*
%TO.P,J2,14,Pin_14*%
%TO.N,D7*%
X143891000Y-84888000D03*
%TO.P,J2,15,Pin_15*%
%TO.N,+5V*%
X146431000Y-84888000D03*
%TO.P,J2,16,Pin_16*%
%TO.N,Backlight cathode (-)*%
X148971000Y-84888000D03*
%TD*%
D13*
%TO.P,RV1,1,1*%
%TO.N,+5V*%
X110276000Y-91532000D03*
%TO.P,RV1,2,2*%
%TO.N,VO*%
X112776000Y-96532000D03*
%TO.P,RV1,3,3*%
%TO.N,GND*%
X115276000Y-91532000D03*
%TD*%
D14*
%TO.P,U1,1,QB*%
%TO.N,unconnected-(U1-Pad1)*%
X133096000Y-97028000D03*
%TO.P,U1,2,QC*%
%TO.N,RS*%
X134366000Y-97028000D03*
%TO.P,U1,3,QD*%
%TO.N,D4*%
X135636000Y-97028000D03*
%TO.P,U1,4,QE*%
%TO.N,D5*%
X136906000Y-97028000D03*
%TO.P,U1,5,QF*%
%TO.N,D6*%
X138176000Y-97028000D03*
%TO.P,U1,6,QG*%
%TO.N,D7*%
X139446000Y-97028000D03*
%TO.P,U1,7,QH*%
%TO.N,unconnected-(U1-Pad7)*%
X140716000Y-97028000D03*
%TO.P,U1,8,GND*%
%TO.N,GND*%
X141986000Y-97028000D03*
%TO.P,U1,9,QH'*%
%TO.N,unconnected-(U1-Pad9)*%
X141986000Y-90528000D03*
%TO.P,U1,10,~{SRCLR}*%
%TO.N,+5V*%
X140716000Y-90528000D03*
%TO.P,U1,11,SRCLK*%
%TO.N,SPI_CLK*%
X139446000Y-90528000D03*
%TO.P,U1,12,RCLK*%
X138176000Y-90528000D03*
%TO.P,U1,13,~{OE}*%
%TO.N,GND*%
X136906000Y-90528000D03*
%TO.P,U1,14,SER*%
%TO.N,SPI_DATA*%
X135636000Y-90528000D03*
%TO.P,U1,15,QA*%
%TO.N,unconnected-(U1-Pad15)*%
X134366000Y-90528000D03*
%TO.P,U1,16,VCC*%
%TO.N,+5V*%
X133096000Y-90528000D03*
%TD*%
D10*
%TO.P,R6,1*%
%TO.N,Net-(R6-Pad1)*%
X103378000Y-93500500D03*
%TO.P,R6,2*%
%TO.N,VO*%
X103378000Y-95325500D03*
%TD*%
%TO.P,R4,1*%
%TO.N,Resolver_SW*%
X159766000Y-90325500D03*
%TO.P,R4,2*%
%TO.N,+3.3V*%
X159766000Y-92150500D03*
%TD*%
D11*
%TO.P,J1,1,Pin_1*%
%TO.N,GND*%
X136271000Y-106478000D03*
D12*
%TO.P,J1,2,Pin_2*%
X133731000Y-106478000D03*
%TO.P,J1,3,Pin_3*%
%TO.N,+5V*%
X131191000Y-106478000D03*
%TO.P,J1,4,Pin_4*%
%TO.N,+3.3V*%
X128651000Y-106478000D03*
%TO.P,J1,5,Pin_5*%
%TO.N,Enable*%
X126111000Y-106478000D03*
%TO.P,J1,6,Pin_6*%
%TO.N,SPI_CLK*%
X123571000Y-106478000D03*
%TO.P,J1,7,Pin_7*%
%TO.N,SPI_DATA*%
X121031000Y-106478000D03*
%TO.P,J1,8,Pin_8*%
%TO.N,Backlight_On*%
X118491000Y-106478000D03*
%TO.P,J1,9,Pin_9*%
%TO.N,Resolver_A*%
X115951000Y-106478000D03*
%TO.P,J1,10,Pin_10*%
%TO.N,Resolver_B*%
X113411000Y-106478000D03*
%TO.P,J1,11,Pin_11*%
%TO.N,Resolver_SW*%
X110871000Y-106478000D03*
%TD*%
D15*
%TO.P,R7,1*%
%TO.N,GND*%
X100965000Y-95349000D03*
%TO.P,R7,2*%
%TO.N,Net-(R6-Pad1)*%
X100965000Y-93524000D03*
%TD*%
D16*
%TO.P,JP1,1,A*%
%TO.N,GND*%
X153162000Y-91836000D03*
D17*
%TO.P,JP1,2,B*%
%TO.N,Backlight cathode (-)*%
X153162000Y-90536000D03*
%TD*%
D10*
%TO.P,R1,1*%
%TO.N,Net-(Q1-Pad1)*%
X147066000Y-94770500D03*
%TO.P,R1,2*%
%TO.N,Backlight_On*%
X147066000Y-96595500D03*
%TD*%
D11*
%TO.P,J3,1,Pin_1*%
%TO.N,GND*%
X157226000Y-84888000D03*
D12*
%TO.P,J3,2,Pin_2*%
%TO.N,Resolver_SW*%
X159766000Y-84888000D03*
%TO.P,J3,3,Pin_3*%
%TO.N,Resolver_B*%
X162306000Y-84888000D03*
%TO.P,J3,4,Pin_4*%
%TO.N,GND*%
X164846000Y-84888000D03*
%TO.P,J3,5,Pin_5*%
%TO.N,Resolver_A*%
X167386000Y-84888000D03*
%TD*%
D18*
%TO.P,Q1,1,B*%
%TO.N,Net-(Q1-Pad1)*%
X148021000Y-92175500D03*
%TO.P,Q1,2,E*%
%TO.N,GND*%
X149921000Y-92175500D03*
%TO.P,Q1,3,C*%
%TO.N,Backlight cathode (-)*%
X148971000Y-90300500D03*
%TD*%
D10*
%TO.P,R3,1*%
%TO.N,Resolver_B*%
X162306000Y-90325500D03*
%TO.P,R3,2*%
%TO.N,+3.3V*%
X162306000Y-92150500D03*
%TD*%
D15*
%TO.P,R5,1*%
%TO.N,VO*%
X105791000Y-95325500D03*
%TO.P,R5,2*%
%TO.N,+5V*%
X105791000Y-93500500D03*
%TD*%
D19*
%TO.P,C1,1*%
%TO.N,+5V*%
X129286000Y-95363000D03*
%TO.P,C1,2*%
%TO.N,GND*%
X129286000Y-93463000D03*
%TD*%
D20*
%TO.N,Enable*%
X123571000Y-88571000D03*
X123571000Y-90349000D03*
X109093000Y-98552000D03*
X109093000Y-100723500D03*
%TO.N,SPI_CLK*%
X124968000Y-101219000D03*
%TO.N,Backlight_On*%
X147066000Y-100128000D03*
X149056477Y-102118477D03*
%TO.N,Resolver_A*%
X165354000Y-93016000D03*
X165989000Y-90349000D03*
%TO.N,VO*%
X106807000Y-96901000D03*
%TO.N,RS*%
X131445000Y-89460000D03*
X134366000Y-95175000D03*
%TO.N,D4*%
X135636000Y-95175000D03*
%TO.N,D5*%
X136906000Y-95175000D03*
%TO.N,D6*%
X138176000Y-95175000D03*
%TO.N,D7*%
X139446000Y-95175000D03*
%TO.N,GND*%
X99441000Y-95377000D03*
X141986000Y-95429000D03*
X151130000Y-92127000D03*
X132969000Y-92889000D03*
X130683000Y-92329000D03*
%TD*%
D21*
%TO.N,+5V*%
X107858000Y-99585000D02*
X124241000Y-99585000D01*
X146431000Y-83745000D02*
X146431000Y-84888000D01*
X114173000Y-82602000D02*
X145288000Y-82602000D01*
X113411000Y-87047000D02*
X113411000Y-84888000D01*
X107569000Y-93397000D02*
X105894500Y-93397000D01*
X113411000Y-83364000D02*
X114173000Y-82602000D01*
X113411000Y-84888000D02*
X113411000Y-83364000D01*
X126948000Y-90528000D02*
X133096000Y-90528000D01*
X131191000Y-106478000D02*
X131191000Y-107748000D01*
X105894500Y-93397000D02*
X105791000Y-93500500D01*
X126238000Y-95556000D02*
X126365000Y-95429000D01*
X131191000Y-107748000D02*
X129159000Y-109780000D01*
X145288000Y-82602000D02*
X146431000Y-83745000D01*
X126365000Y-95429000D02*
X129220000Y-95429000D01*
D22*
X140716000Y-88698000D02*
X139827000Y-87809000D01*
D21*
X107823000Y-93651000D02*
X107569000Y-93397000D01*
X126238000Y-97588000D02*
X126238000Y-91238000D01*
X129159000Y-109780000D02*
X109693472Y-109780000D01*
D22*
X133096000Y-88698000D02*
X133096000Y-90528000D01*
X133985000Y-87809000D02*
X133096000Y-88698000D01*
D21*
X107823000Y-107909528D02*
X107823000Y-93651000D01*
X126238000Y-91238000D02*
X126948000Y-90528000D01*
X110251000Y-91557000D02*
X110276000Y-91532000D01*
X109434000Y-91532000D02*
X110276000Y-91532000D01*
X129220000Y-95429000D02*
X129286000Y-95363000D01*
X110276000Y-90182000D02*
X113411000Y-87047000D01*
X110276000Y-91532000D02*
X110276000Y-90182000D01*
X124241000Y-99585000D02*
X126238000Y-97588000D01*
D22*
X140716000Y-90528000D02*
X140716000Y-88698000D01*
X139827000Y-87809000D02*
X133985000Y-87809000D01*
D21*
X107569000Y-93397000D02*
X109434000Y-91532000D01*
X109693472Y-109780000D02*
X107823000Y-107909528D01*
D22*
%TO.N,+3.3V*%
X153050000Y-104386000D02*
X153110000Y-104446000D01*
X167386000Y-100128000D02*
X163068000Y-104446000D01*
X128651000Y-105081000D02*
X128651000Y-106478000D01*
X163068000Y-104446000D02*
X153110000Y-104446000D01*
X129286000Y-104446000D02*
X128651000Y-105081000D01*
X167386000Y-92150500D02*
X167386000Y-100128000D01*
X153110000Y-104446000D02*
X129286000Y-104446000D01*
X159766000Y-92150500D02*
X162306000Y-92150500D01*
X162306000Y-92150500D02*
X167386000Y-92150500D01*
%TO.N,Enable*%
X108458000Y-107696000D02*
X109907000Y-109145000D01*
X108458000Y-101358500D02*
X108458000Y-107696000D01*
X122174000Y-98858000D02*
X123571000Y-97461000D01*
X109093000Y-100723500D02*
X108458000Y-101358500D01*
X109399000Y-98858000D02*
X122174000Y-98858000D01*
X123571000Y-88571000D02*
X123571000Y-84888000D01*
X109093000Y-98552000D02*
X109399000Y-98858000D01*
X124587000Y-109145000D02*
X126111000Y-107621000D01*
X109907000Y-109145000D02*
X124587000Y-109145000D01*
X123571000Y-97461000D02*
X123571000Y-90349000D01*
X126111000Y-107621000D02*
X126111000Y-106478000D01*
%TO.N,SPI_CLK*%
X138176000Y-90528000D02*
X138176000Y-91492000D01*
X138176000Y-91492000D02*
X135890000Y-93778000D01*
X138176000Y-89079000D02*
X138303000Y-88952000D01*
X131826000Y-93778000D02*
X131064000Y-94540000D01*
X139446000Y-90528000D02*
X139446000Y-89206000D01*
X135890000Y-93778000D02*
X131826000Y-93778000D01*
X131064000Y-94540000D02*
X131064000Y-96318000D01*
X131064000Y-96318000D02*
X126163000Y-101219000D01*
X139192000Y-88952000D02*
X138303000Y-88952000D01*
X139446000Y-89206000D02*
X139192000Y-88952000D01*
X138176000Y-90528000D02*
X138176000Y-89079000D01*
X126163000Y-101219000D02*
X125095000Y-101219000D01*
%TO.N,SPI_DATA*%
X130556000Y-95810000D02*
X130556000Y-94032000D01*
X125984000Y-100382000D02*
X130556000Y-95810000D01*
X109982000Y-108383000D02*
X109093000Y-107494000D01*
X130556000Y-94032000D02*
X132588000Y-92000000D01*
X110998000Y-100382000D02*
X125984000Y-100382000D01*
X120523000Y-108383000D02*
X109982000Y-108383000D01*
X121031000Y-106478000D02*
X121031000Y-107875000D01*
X135128000Y-92000000D02*
X135636000Y-91492000D01*
X109093000Y-107494000D02*
X109093000Y-102287000D01*
X109093000Y-102287000D02*
X110998000Y-100382000D01*
X135636000Y-91492000D02*
X135636000Y-90528000D01*
X132588000Y-92000000D02*
X135128000Y-92000000D01*
X121031000Y-107875000D02*
X120523000Y-108383000D01*
%TO.N,Backlight_On*%
X149056477Y-102118477D02*
X149012523Y-102118477D01*
X118491000Y-104827000D02*
X118491000Y-106478000D01*
X147066000Y-96595500D02*
X147066000Y-100128000D01*
X149012523Y-102118477D02*
X147320000Y-103811000D01*
X147320000Y-103811000D02*
X119507000Y-103811000D01*
X149066954Y-102108000D02*
X149056477Y-102118477D01*
X119507000Y-103811000D02*
X118491000Y-104827000D01*
%TO.N,Resolver_A*%
X164719000Y-93651000D02*
X156464000Y-93651000D01*
X167386000Y-90325500D02*
X166012500Y-90325500D01*
X156464000Y-93651000D02*
X146812000Y-103303000D01*
X117856000Y-103303000D02*
X115951000Y-105208000D01*
X167386000Y-84888000D02*
X167386000Y-90325500D01*
X166012500Y-90325500D02*
X165989000Y-90349000D01*
X115951000Y-105208000D02*
X115951000Y-106478000D01*
X146812000Y-103303000D02*
X117856000Y-103303000D01*
X165354000Y-93016000D02*
X164719000Y-93651000D01*
%TO.N,Resolver_B*%
X113411000Y-104954000D02*
X115621000Y-102744000D01*
X115621000Y-102744000D02*
X146482000Y-102744000D01*
X161694500Y-90325500D02*
X162306000Y-90325500D01*
X157988000Y-91238000D02*
X160782000Y-91238000D01*
X113411000Y-106478000D02*
X113411000Y-104954000D01*
X162306000Y-84888000D02*
X162306000Y-90325500D01*
X160782000Y-91238000D02*
X161694500Y-90325500D01*
X146482000Y-102744000D02*
X157988000Y-91238000D01*
%TO.N,Resolver_SW*%
X110871000Y-106478000D02*
X110871000Y-104827000D01*
X157988000Y-90349000D02*
X159742500Y-90349000D01*
X159766000Y-84888000D02*
X159766000Y-90325500D01*
X146093000Y-102244000D02*
X157988000Y-90349000D01*
X159742500Y-90349000D02*
X159766000Y-90325500D01*
X113454000Y-102244000D02*
X146093000Y-102244000D01*
X110871000Y-104827000D02*
X113454000Y-102244000D01*
D21*
%TO.N,VO*%
X106807000Y-96901000D02*
X105791000Y-95885000D01*
D22*
X115951000Y-86793000D02*
X115951000Y-84888000D01*
X112776000Y-96532000D02*
X112776000Y-89968000D01*
X112776000Y-89968000D02*
X115951000Y-86793000D01*
D21*
X105791000Y-95885000D02*
X105791000Y-95325500D01*
X103378000Y-95325500D02*
X105791000Y-95325500D01*
D22*
%TO.N,RS*%
X120904000Y-89460000D02*
X118491000Y-87047000D01*
X134366000Y-97028000D02*
X134366000Y-95175000D01*
X118491000Y-87047000D02*
X118491000Y-84888000D01*
X131445000Y-89460000D02*
X120904000Y-89460000D01*
%TO.N,D4*%
X135636000Y-97028000D02*
X135636000Y-95175000D01*
%TO.N,D5*%
X136906000Y-97028000D02*
X136906000Y-95175000D01*
%TO.N,D6*%
X138176000Y-97028000D02*
X138176000Y-95175000D01*
%TO.N,D7*%
X139446000Y-97028000D02*
X139446000Y-95175000D01*
%TO.N,Backlight cathode (-)*%
X152926500Y-90300500D02*
X153162000Y-90536000D01*
X148971000Y-90300500D02*
X152926500Y-90300500D01*
X148971000Y-84888000D02*
X148971000Y-90300500D01*
D21*
%TO.N,Net-(Q1-Pad1)*%
X147066000Y-94159000D02*
X147066000Y-94770500D01*
X148021000Y-92175500D02*
X148021000Y-93204000D01*
X148021000Y-93204000D02*
X147066000Y-94159000D01*
%TO.N,GND*%
X151081500Y-92175500D02*
X151130000Y-92127000D01*
X100965000Y-95349000D02*
X99469000Y-95349000D01*
D22*
X135890000Y-92889000D02*
X132969000Y-92889000D01*
D21*
X129286000Y-93463000D02*
X129549000Y-93463000D01*
X151130000Y-92127000D02*
X151421000Y-91836000D01*
X141986000Y-95429000D02*
X141986000Y-97028000D01*
X149921000Y-92175500D02*
X151081500Y-92175500D01*
X99469000Y-95349000D02*
X99441000Y-95377000D01*
X129549000Y-93463000D02*
X130683000Y-92329000D01*
X151421000Y-91836000D02*
X153162000Y-91836000D01*
D22*
X136906000Y-91873000D02*
X135890000Y-92889000D01*
X136906000Y-90528000D02*
X136906000Y-91873000D01*
D21*
%TO.N,Net-(R6-Pad1)*%
X103378000Y-93500500D02*
X100988500Y-93500500D01*
X100988500Y-93500500D02*
X100965000Y-93524000D01*
%TD*%
M02*
