%TF.GenerationSoftware,KiCad,Pcbnew,(6.0.7)*%
%TF.CreationDate,2022-09-26T21:00:32+02:00*%
%TF.ProjectId,LcdResolver,4c636452-6573-46f6-9c76-65722e6b6963,0*%
%TF.SameCoordinates,Original*%
%TF.FileFunction,Legend,Top*%
%TF.FilePolarity,Positive*%
%FSLAX46Y46*%
G04 Gerber Fmt 4.6, Leading zero omitted, Abs format (unit mm)*
G04 Created by KiCad (PCBNEW (6.0.7)) date 2022-09-26 21:00:32*
%MOMM*%
%LPD*%
G01*
G04 APERTURE LIST*
G04 Aperture macros list*
%AMRoundRect*
0 Rectangle with rounded corners*
0 $1 Rounding radius*
0 $2 $3 $4 $5 $6 $7 $8 $9 X,Y pos of 4 corners*
0 Add a 4 corners polygon primitive as box body*
4,1,4,$2,$3,$4,$5,$6,$7,$8,$9,$2,$3,0*
0 Add four circle primitives for the rounded corners*
1,1,$1+$1,$2,$3*
1,1,$1+$1,$4,$5*
1,1,$1+$1,$6,$7*
1,1,$1+$1,$8,$9*
0 Add four rect primitives between the rounded corners*
20,1,$1+$1,$2,$3,$4,$5,0*
20,1,$1+$1,$4,$5,$6,$7,0*
20,1,$1+$1,$6,$7,$8,$9,0*
20,1,$1+$1,$8,$9,$2,$3,0*%
%AMFreePoly0*
4,1,22,0.500000,-0.750000,0.000000,-0.750000,0.000000,-0.745033,-0.079941,-0.743568,-0.215256,-0.701293,-0.333266,-0.622738,-0.424486,-0.514219,-0.481581,-0.384460,-0.499164,-0.250000,-0.500000,-0.250000,-0.500000,0.250000,-0.499164,0.250000,-0.499963,0.256109,-0.478152,0.396186,-0.417904,0.524511,-0.324060,0.630769,-0.204165,0.706417,-0.067858,0.745374,0.000000,0.744959,0.000000,0.750000,
0.500000,0.750000,0.500000,-0.750000,0.500000,-0.750000,$1*%
%AMFreePoly1*
4,1,20,0.000000,0.744959,0.073905,0.744508,0.209726,0.703889,0.328688,0.626782,0.421226,0.519385,0.479903,0.390333,0.500000,0.250000,0.500000,-0.250000,0.499851,-0.262216,0.476331,-0.402017,0.414519,-0.529596,0.319384,-0.634700,0.198574,-0.708877,0.061801,-0.746166,0.000000,-0.745033,0.000000,-0.750000,-0.500000,-0.750000,-0.500000,0.750000,0.000000,0.750000,0.000000,0.744959,
0.000000,0.744959,$1*%
G04 Aperture macros list end*
%ADD10C,0.150000*%
%ADD11C,0.250000*%
%ADD12C,0.120000*%
%ADD13RoundRect,0.250000X-0.450000X0.262500X-0.450000X-0.262500X0.450000X-0.262500X0.450000X0.262500X0*%
%ADD14R,1.700000X1.700000*%
%ADD15O,1.700000X1.700000*%
%ADD16C,1.620000*%
%ADD17RoundRect,0.150000X0.150000X-0.650000X0.150000X0.650000X-0.150000X0.650000X-0.150000X-0.650000X0*%
%ADD18RoundRect,0.250000X0.450000X-0.262500X0.450000X0.262500X-0.450000X0.262500X-0.450000X-0.262500X0*%
%ADD19FreePoly0,90.000000*%
%ADD20FreePoly1,90.000000*%
%ADD21C,3.200000*%
%ADD22RoundRect,0.150000X0.150000X-0.587500X0.150000X0.587500X-0.150000X0.587500X-0.150000X-0.587500X0*%
%ADD23RoundRect,0.250000X0.475000X-0.250000X0.475000X0.250000X-0.475000X0.250000X-0.475000X-0.250000X0*%
G04 APERTURE END LIST*
D10*
X133350000Y-98604000D02*
G75*
G03*
X133350000Y-98604000I-254000J0D01*
G01*
X116713000Y-90043000D02*
X116713000Y-97917000D01*
X106934000Y-97917000D02*
X106934000Y-99314000D01*
X153162000Y-93091000D02*
X153543000Y-93472000D01*
X115951000Y-86868000D02*
X115951000Y-87630000D01*
X153162000Y-93472000D02*
X153162000Y-94234000D01*
X98806000Y-90043000D02*
X116713000Y-90043000D01*
X106934000Y-99314000D02*
X98806000Y-99314000D01*
X115951000Y-86487000D02*
X116332000Y-86868000D01*
X152781000Y-93472000D02*
X153543000Y-93472000D01*
X115951000Y-86487000D02*
X115570000Y-86868000D01*
X115570000Y-86868000D02*
X116332000Y-86868000D01*
X116713000Y-97917000D02*
X106934000Y-97917000D01*
X153162000Y-93091000D02*
X152781000Y-93472000D01*
X98806000Y-99314000D02*
X98806000Y-90043000D01*
X124102761Y-104412023D02*
X124150380Y-104269166D01*
X124150380Y-104031071D01*
X124102761Y-103935833D01*
X124055142Y-103888214D01*
X123959904Y-103840595D01*
X123864666Y-103840595D01*
X123769428Y-103888214D01*
X123721809Y-103935833D01*
X123674190Y-104031071D01*
X123626571Y-104221547D01*
X123578952Y-104316785D01*
X123531333Y-104364404D01*
X123436095Y-104412023D01*
X123340857Y-104412023D01*
X123245619Y-104364404D01*
X123198000Y-104316785D01*
X123150380Y-104221547D01*
X123150380Y-103983452D01*
X123198000Y-103840595D01*
X124150380Y-103412023D02*
X123150380Y-103412023D01*
X123150380Y-103031071D01*
X123198000Y-102935833D01*
X123245619Y-102888214D01*
X123340857Y-102840595D01*
X123483714Y-102840595D01*
X123578952Y-102888214D01*
X123626571Y-102935833D01*
X123674190Y-103031071D01*
X123674190Y-103412023D01*
X124150380Y-102412023D02*
X123150380Y-102412023D01*
X124055142Y-100602500D02*
X124102761Y-100650119D01*
X124150380Y-100792976D01*
X124150380Y-100888214D01*
X124102761Y-101031071D01*
X124007523Y-101126309D01*
X123912285Y-101173928D01*
X123721809Y-101221547D01*
X123578952Y-101221547D01*
X123388476Y-101173928D01*
X123293238Y-101126309D01*
X123198000Y-101031071D01*
X123150380Y-100888214D01*
X123150380Y-100792976D01*
X123198000Y-100650119D01*
X123245619Y-100602500D01*
X124150380Y-99697738D02*
X124150380Y-100173928D01*
X123150380Y-100173928D01*
X124150380Y-99364404D02*
X123150380Y-99364404D01*
X124150380Y-98792976D02*
X123578952Y-99221547D01*
X123150380Y-98792976D02*
X123721809Y-99364404D01*
X138057619Y-110486380D02*
X137581428Y-110486380D01*
X137581428Y-109486380D01*
X138390952Y-110486380D02*
X138390952Y-109486380D01*
X139057619Y-110010190D02*
X139057619Y-110486380D01*
X138724285Y-109486380D02*
X139057619Y-110010190D01*
X139390952Y-109486380D01*
X140295714Y-110391142D02*
X140248095Y-110438761D01*
X140105238Y-110486380D01*
X140010000Y-110486380D01*
X139867142Y-110438761D01*
X139771904Y-110343523D01*
X139724285Y-110248285D01*
X139676666Y-110057809D01*
X139676666Y-109914952D01*
X139724285Y-109724476D01*
X139771904Y-109629238D01*
X139867142Y-109534000D01*
X140010000Y-109486380D01*
X140105238Y-109486380D01*
X140248095Y-109534000D01*
X140295714Y-109581619D01*
X140914761Y-110010190D02*
X140914761Y-110486380D01*
X140581428Y-109486380D02*
X140914761Y-110010190D01*
X141248095Y-109486380D01*
X142867142Y-110486380D02*
X142295714Y-110486380D01*
X142581428Y-110486380D02*
X142581428Y-109486380D01*
X142486190Y-109629238D01*
X142390952Y-109724476D01*
X142295714Y-109772095D01*
X143486190Y-109486380D02*
X143581428Y-109486380D01*
X143676666Y-109534000D01*
X143724285Y-109581619D01*
X143771904Y-109676857D01*
X143819523Y-109867333D01*
X143819523Y-110105428D01*
X143771904Y-110295904D01*
X143724285Y-110391142D01*
X143676666Y-110438761D01*
X143581428Y-110486380D01*
X143486190Y-110486380D01*
X143390952Y-110438761D01*
X143343333Y-110391142D01*
X143295714Y-110295904D01*
X143248095Y-110105428D01*
X143248095Y-109867333D01*
X143295714Y-109676857D01*
X143343333Y-109581619D01*
X143390952Y-109534000D01*
X143486190Y-109486380D01*
X144914761Y-110486380D02*
X145438571Y-109819714D01*
X144914761Y-109819714D02*
X145438571Y-110486380D01*
X146771904Y-109486380D02*
X146867142Y-109486380D01*
X146962380Y-109534000D01*
X147010000Y-109581619D01*
X147057619Y-109676857D01*
X147105238Y-109867333D01*
X147105238Y-110105428D01*
X147057619Y-110295904D01*
X147010000Y-110391142D01*
X146962380Y-110438761D01*
X146867142Y-110486380D01*
X146771904Y-110486380D01*
X146676666Y-110438761D01*
X146629047Y-110391142D01*
X146581428Y-110295904D01*
X146533809Y-110105428D01*
X146533809Y-109867333D01*
X146581428Y-109676857D01*
X146629047Y-109581619D01*
X146676666Y-109534000D01*
X146771904Y-109486380D01*
X147581428Y-110438761D02*
X147581428Y-110486380D01*
X147533809Y-110581619D01*
X147486190Y-110629238D01*
X148533809Y-110486380D02*
X147962380Y-110486380D01*
X148248095Y-110486380D02*
X148248095Y-109486380D01*
X148152857Y-109629238D01*
X148057619Y-109724476D01*
X147962380Y-109772095D01*
X149390952Y-109819714D02*
X149390952Y-110486380D01*
X149152857Y-109438761D02*
X148914761Y-110153047D01*
X149533809Y-110153047D01*
X121356380Y-109999976D02*
X120689714Y-109999976D01*
X120880190Y-109999976D02*
X120784952Y-109952357D01*
X120737333Y-109904738D01*
X120689714Y-109809500D01*
X120689714Y-109714261D01*
X121308761Y-109428547D02*
X121356380Y-109333309D01*
X121356380Y-109142833D01*
X121308761Y-109047595D01*
X121213523Y-108999976D01*
X121165904Y-108999976D01*
X121070666Y-109047595D01*
X121023047Y-109142833D01*
X121023047Y-109285690D01*
X120975428Y-109380928D01*
X120880190Y-109428547D01*
X120832571Y-109428547D01*
X120737333Y-109380928D01*
X120689714Y-109285690D01*
X120689714Y-109142833D01*
X120737333Y-109047595D01*
X116403380Y-109761880D02*
X115736714Y-109761880D01*
X115927190Y-109761880D02*
X115831952Y-109714261D01*
X115784333Y-109666642D01*
X115736714Y-109571404D01*
X115736714Y-109476166D01*
X115736714Y-109285690D02*
X115736714Y-108904738D01*
X115403380Y-109142833D02*
X116260523Y-109142833D01*
X116355761Y-109095214D01*
X116403380Y-108999976D01*
X116403380Y-108904738D01*
X131389428Y-104364404D02*
X131389428Y-103602500D01*
X131770380Y-103983452D02*
X131008476Y-103983452D01*
X130770380Y-102650119D02*
X130770380Y-103126309D01*
X131246571Y-103173928D01*
X131198952Y-103126309D01*
X131151333Y-103031071D01*
X131151333Y-102792976D01*
X131198952Y-102697738D01*
X131246571Y-102650119D01*
X131341809Y-102602500D01*
X131579904Y-102602500D01*
X131675142Y-102650119D01*
X131722761Y-102697738D01*
X131770380Y-102792976D01*
X131770380Y-103031071D01*
X131722761Y-103126309D01*
X131675142Y-103173928D01*
X130770380Y-102316785D02*
X131770380Y-101983452D01*
X130770380Y-101650119D01*
X111275761Y-82822023D02*
X111323380Y-82679166D01*
X111323380Y-82441071D01*
X111275761Y-82345833D01*
X111228142Y-82298214D01*
X111132904Y-82250595D01*
X111037666Y-82250595D01*
X110942428Y-82298214D01*
X110894809Y-82345833D01*
X110847190Y-82441071D01*
X110799571Y-82631547D01*
X110751952Y-82726785D01*
X110704333Y-82774404D01*
X110609095Y-82822023D01*
X110513857Y-82822023D01*
X110418619Y-82774404D01*
X110371000Y-82726785D01*
X110323380Y-82631547D01*
X110323380Y-82393452D01*
X110371000Y-82250595D01*
X111323380Y-81679166D02*
X111275761Y-81774404D01*
X111180523Y-81822023D01*
X110323380Y-81822023D01*
X111323380Y-80869642D02*
X110323380Y-80869642D01*
X111275761Y-80869642D02*
X111323380Y-80964880D01*
X111323380Y-81155357D01*
X111275761Y-81250595D01*
X111228142Y-81298214D01*
X111132904Y-81345833D01*
X110847190Y-81345833D01*
X110751952Y-81298214D01*
X110704333Y-81250595D01*
X110656714Y-81155357D01*
X110656714Y-80964880D01*
X110704333Y-80869642D01*
D11*
X171859380Y-104683047D02*
X170859380Y-104683047D01*
X170859380Y-104444952D01*
X170907000Y-104302095D01*
X171002238Y-104206857D01*
X171097476Y-104159238D01*
X171287952Y-104111619D01*
X171430809Y-104111619D01*
X171621285Y-104159238D01*
X171716523Y-104206857D01*
X171811761Y-104302095D01*
X171859380Y-104444952D01*
X171859380Y-104683047D01*
X171859380Y-103683047D02*
X170859380Y-103683047D01*
X171383190Y-103016380D02*
X171859380Y-103016380D01*
X170859380Y-103349714D02*
X171383190Y-103016380D01*
X170859380Y-102683047D01*
X171859380Y-101587809D02*
X170859380Y-101587809D01*
X171573666Y-101254476D01*
X170859380Y-100921142D01*
X171859380Y-100921142D01*
X171859380Y-100016380D02*
X171335571Y-100016380D01*
X171240333Y-100064000D01*
X171192714Y-100159238D01*
X171192714Y-100349714D01*
X171240333Y-100444952D01*
X171811761Y-100016380D02*
X171859380Y-100111619D01*
X171859380Y-100349714D01*
X171811761Y-100444952D01*
X171716523Y-100492571D01*
X171621285Y-100492571D01*
X171526047Y-100444952D01*
X171478428Y-100349714D01*
X171478428Y-100111619D01*
X171430809Y-100016380D01*
X171859380Y-99540190D02*
X171192714Y-99540190D01*
X171383190Y-99540190D02*
X171287952Y-99492571D01*
X171240333Y-99444952D01*
X171192714Y-99349714D01*
X171192714Y-99254476D01*
X171859380Y-98921142D02*
X171192714Y-98921142D01*
X170859380Y-98921142D02*
X170907000Y-98968761D01*
X170954619Y-98921142D01*
X170907000Y-98873523D01*
X170859380Y-98921142D01*
X170954619Y-98921142D01*
X171192714Y-98444952D02*
X171859380Y-98444952D01*
X171287952Y-98444952D02*
X171240333Y-98397333D01*
X171192714Y-98302095D01*
X171192714Y-98159238D01*
X171240333Y-98064000D01*
X171335571Y-98016380D01*
X171859380Y-98016380D01*
X171811761Y-97159238D02*
X171859380Y-97254476D01*
X171859380Y-97444952D01*
X171811761Y-97540190D01*
X171716523Y-97587809D01*
X171335571Y-97587809D01*
X171240333Y-97540190D01*
X171192714Y-97444952D01*
X171192714Y-97254476D01*
X171240333Y-97159238D01*
X171335571Y-97111619D01*
X171430809Y-97111619D01*
X171526047Y-97587809D01*
X171859380Y-95921142D02*
X170859380Y-95921142D01*
X171573666Y-95587809D01*
X170859380Y-95254476D01*
X171859380Y-95254476D01*
X171811761Y-94397333D02*
X171859380Y-94492571D01*
X171859380Y-94683047D01*
X171811761Y-94778285D01*
X171716523Y-94825904D01*
X171335571Y-94825904D01*
X171240333Y-94778285D01*
X171192714Y-94683047D01*
X171192714Y-94492571D01*
X171240333Y-94397333D01*
X171335571Y-94349714D01*
X171430809Y-94349714D01*
X171526047Y-94825904D01*
X171811761Y-93492571D02*
X171859380Y-93587809D01*
X171859380Y-93778285D01*
X171811761Y-93873523D01*
X171764142Y-93921142D01*
X171668904Y-93968761D01*
X171383190Y-93968761D01*
X171287952Y-93921142D01*
X171240333Y-93873523D01*
X171192714Y-93778285D01*
X171192714Y-93587809D01*
X171240333Y-93492571D01*
X171859380Y-93064000D02*
X170859380Y-93064000D01*
X171859380Y-92635428D02*
X171335571Y-92635428D01*
X171240333Y-92683047D01*
X171192714Y-92778285D01*
X171192714Y-92921142D01*
X171240333Y-93016380D01*
X171287952Y-93064000D01*
X171859380Y-91730666D02*
X171335571Y-91730666D01*
X171240333Y-91778285D01*
X171192714Y-91873523D01*
X171192714Y-92064000D01*
X171240333Y-92159238D01*
X171811761Y-91730666D02*
X171859380Y-91825904D01*
X171859380Y-92064000D01*
X171811761Y-92159238D01*
X171716523Y-92206857D01*
X171621285Y-92206857D01*
X171526047Y-92159238D01*
X171478428Y-92064000D01*
X171478428Y-91825904D01*
X171430809Y-91730666D01*
X171192714Y-91397333D02*
X171192714Y-91016380D01*
X170859380Y-91254476D02*
X171716523Y-91254476D01*
X171811761Y-91206857D01*
X171859380Y-91111619D01*
X171859380Y-91016380D01*
X171859380Y-90683047D02*
X171192714Y-90683047D01*
X171383190Y-90683047D02*
X171287952Y-90635428D01*
X171240333Y-90587809D01*
X171192714Y-90492571D01*
X171192714Y-90397333D01*
X171859380Y-89921142D02*
X171811761Y-90016380D01*
X171764142Y-90064000D01*
X171668904Y-90111619D01*
X171383190Y-90111619D01*
X171287952Y-90064000D01*
X171240333Y-90016380D01*
X171192714Y-89921142D01*
X171192714Y-89778285D01*
X171240333Y-89683047D01*
X171287952Y-89635428D01*
X171383190Y-89587809D01*
X171668904Y-89587809D01*
X171764142Y-89635428D01*
X171811761Y-89683047D01*
X171859380Y-89778285D01*
X171859380Y-89921142D01*
X171192714Y-89159238D02*
X171859380Y-89159238D01*
X171287952Y-89159238D02*
X171240333Y-89111619D01*
X171192714Y-89016380D01*
X171192714Y-88873523D01*
X171240333Y-88778285D01*
X171335571Y-88730666D01*
X171859380Y-88730666D01*
X171859380Y-88254476D02*
X171192714Y-88254476D01*
X170859380Y-88254476D02*
X170907000Y-88302095D01*
X170954619Y-88254476D01*
X170907000Y-88206857D01*
X170859380Y-88254476D01*
X170954619Y-88254476D01*
X171859380Y-87778285D02*
X170859380Y-87778285D01*
X171478428Y-87683047D02*
X171859380Y-87397333D01*
X171192714Y-87397333D02*
X171573666Y-87778285D01*
X172802714Y-101254476D02*
X173469380Y-101064000D01*
X172993190Y-100873523D01*
X173469380Y-100683047D01*
X172802714Y-100492571D01*
X172802714Y-100206857D02*
X173469380Y-100016380D01*
X172993190Y-99825904D01*
X173469380Y-99635428D01*
X172802714Y-99444952D01*
X172802714Y-99159238D02*
X173469380Y-98968761D01*
X172993190Y-98778285D01*
X173469380Y-98587809D01*
X172802714Y-98397333D01*
X173374142Y-98016380D02*
X173421761Y-97968761D01*
X173469380Y-98016380D01*
X173421761Y-98064000D01*
X173374142Y-98016380D01*
X173469380Y-98016380D01*
X173469380Y-97111619D02*
X172469380Y-97111619D01*
X173421761Y-97111619D02*
X173469380Y-97206857D01*
X173469380Y-97397333D01*
X173421761Y-97492571D01*
X173374142Y-97540190D01*
X173278904Y-97587809D01*
X172993190Y-97587809D01*
X172897952Y-97540190D01*
X172850333Y-97492571D01*
X172802714Y-97397333D01*
X172802714Y-97206857D01*
X172850333Y-97111619D01*
X173469380Y-96635428D02*
X172802714Y-96635428D01*
X172469380Y-96635428D02*
X172517000Y-96683047D01*
X172564619Y-96635428D01*
X172517000Y-96587809D01*
X172469380Y-96635428D01*
X172564619Y-96635428D01*
X172802714Y-96254476D02*
X173469380Y-96016380D01*
X172802714Y-95778285D02*
X173469380Y-96016380D01*
X173707476Y-96111619D01*
X173755095Y-96159238D01*
X173802714Y-96254476D01*
X173469380Y-95397333D02*
X172802714Y-95397333D01*
X172897952Y-95397333D02*
X172850333Y-95349714D01*
X172802714Y-95254476D01*
X172802714Y-95111619D01*
X172850333Y-95016380D01*
X172945571Y-94968761D01*
X173469380Y-94968761D01*
X172945571Y-94968761D02*
X172850333Y-94921142D01*
X172802714Y-94825904D01*
X172802714Y-94683047D01*
X172850333Y-94587809D01*
X172945571Y-94540190D01*
X173469380Y-94540190D01*
X173469380Y-94064000D02*
X172802714Y-94064000D01*
X172897952Y-94064000D02*
X172850333Y-94016380D01*
X172802714Y-93921142D01*
X172802714Y-93778285D01*
X172850333Y-93683047D01*
X172945571Y-93635428D01*
X173469380Y-93635428D01*
X172945571Y-93635428D02*
X172850333Y-93587809D01*
X172802714Y-93492571D01*
X172802714Y-93349714D01*
X172850333Y-93254476D01*
X172945571Y-93206857D01*
X173469380Y-93206857D01*
X173374142Y-92730666D02*
X173421761Y-92683047D01*
X173469380Y-92730666D01*
X173421761Y-92778285D01*
X173374142Y-92730666D01*
X173469380Y-92730666D01*
X173469380Y-91825904D02*
X172469380Y-91825904D01*
X173421761Y-91825904D02*
X173469380Y-91921142D01*
X173469380Y-92111619D01*
X173421761Y-92206857D01*
X173374142Y-92254476D01*
X173278904Y-92302095D01*
X172993190Y-92302095D01*
X172897952Y-92254476D01*
X172850333Y-92206857D01*
X172802714Y-92111619D01*
X172802714Y-91921142D01*
X172850333Y-91825904D01*
X173421761Y-90968761D02*
X173469380Y-91064000D01*
X173469380Y-91254476D01*
X173421761Y-91349714D01*
X173326523Y-91397333D01*
X172945571Y-91397333D01*
X172850333Y-91349714D01*
X172802714Y-91254476D01*
X172802714Y-91064000D01*
X172850333Y-90968761D01*
X172945571Y-90921142D01*
X173040809Y-90921142D01*
X173136047Y-91397333D01*
D10*
X126690380Y-103888214D02*
X126690380Y-104364404D01*
X125690380Y-104364404D01*
X126595142Y-102983452D02*
X126642761Y-103031071D01*
X126690380Y-103173928D01*
X126690380Y-103269166D01*
X126642761Y-103412023D01*
X126547523Y-103507261D01*
X126452285Y-103554880D01*
X126261809Y-103602500D01*
X126118952Y-103602500D01*
X125928476Y-103554880D01*
X125833238Y-103507261D01*
X125738000Y-103412023D01*
X125690380Y-103269166D01*
X125690380Y-103173928D01*
X125738000Y-103031071D01*
X125785619Y-102983452D01*
X126690380Y-102554880D02*
X125690380Y-102554880D01*
X125690380Y-102316785D01*
X125738000Y-102173928D01*
X125833238Y-102078690D01*
X125928476Y-102031071D01*
X126118952Y-101983452D01*
X126261809Y-101983452D01*
X126452285Y-102031071D01*
X126547523Y-102078690D01*
X126642761Y-102173928D01*
X126690380Y-102316785D01*
X126690380Y-102554880D01*
X126166571Y-100792976D02*
X126166571Y-100459642D01*
X126690380Y-100316785D02*
X126690380Y-100792976D01*
X125690380Y-100792976D01*
X125690380Y-100316785D01*
X126023714Y-99888214D02*
X126690380Y-99888214D01*
X126118952Y-99888214D02*
X126071333Y-99840595D01*
X126023714Y-99745357D01*
X126023714Y-99602500D01*
X126071333Y-99507261D01*
X126166571Y-99459642D01*
X126690380Y-99459642D01*
X126690380Y-98554880D02*
X126166571Y-98554880D01*
X126071333Y-98602500D01*
X126023714Y-98697738D01*
X126023714Y-98888214D01*
X126071333Y-98983452D01*
X126642761Y-98554880D02*
X126690380Y-98650119D01*
X126690380Y-98888214D01*
X126642761Y-98983452D01*
X126547523Y-99031071D01*
X126452285Y-99031071D01*
X126357047Y-98983452D01*
X126309428Y-98888214D01*
X126309428Y-98650119D01*
X126261809Y-98554880D01*
X126690380Y-98078690D02*
X125690380Y-98078690D01*
X126071333Y-98078690D02*
X126023714Y-97983452D01*
X126023714Y-97792976D01*
X126071333Y-97697738D01*
X126118952Y-97650119D01*
X126214190Y-97602500D01*
X126499904Y-97602500D01*
X126595142Y-97650119D01*
X126642761Y-97697738D01*
X126690380Y-97792976D01*
X126690380Y-97983452D01*
X126642761Y-98078690D01*
X126690380Y-97031071D02*
X126642761Y-97126309D01*
X126547523Y-97173928D01*
X125690380Y-97173928D01*
X126642761Y-96269166D02*
X126690380Y-96364404D01*
X126690380Y-96554880D01*
X126642761Y-96650119D01*
X126547523Y-96697738D01*
X126166571Y-96697738D01*
X126071333Y-96650119D01*
X126023714Y-96554880D01*
X126023714Y-96364404D01*
X126071333Y-96269166D01*
X126166571Y-96221547D01*
X126261809Y-96221547D01*
X126357047Y-96697738D01*
X131555761Y-86975619D02*
X132031952Y-86975619D01*
X132031952Y-87975619D01*
X130651000Y-87070857D02*
X130698619Y-87023238D01*
X130841476Y-86975619D01*
X130936714Y-86975619D01*
X131079571Y-87023238D01*
X131174809Y-87118476D01*
X131222428Y-87213714D01*
X131270047Y-87404190D01*
X131270047Y-87547047D01*
X131222428Y-87737523D01*
X131174809Y-87832761D01*
X131079571Y-87928000D01*
X130936714Y-87975619D01*
X130841476Y-87975619D01*
X130698619Y-87928000D01*
X130651000Y-87880380D01*
X130222428Y-86975619D02*
X130222428Y-87975619D01*
X129984333Y-87975619D01*
X129841476Y-87928000D01*
X129746238Y-87832761D01*
X129698619Y-87737523D01*
X129651000Y-87547047D01*
X129651000Y-87404190D01*
X129698619Y-87213714D01*
X129746238Y-87118476D01*
X129841476Y-87023238D01*
X129984333Y-86975619D01*
X130222428Y-86975619D01*
X128031952Y-87642285D02*
X128031952Y-86975619D01*
X128270047Y-88023238D02*
X128508142Y-87308952D01*
X127889095Y-87308952D01*
X127603380Y-86975619D02*
X127079571Y-87642285D01*
X127603380Y-87642285D02*
X127079571Y-86975619D01*
X126746238Y-87880380D02*
X126698619Y-87928000D01*
X126603380Y-87975619D01*
X126365285Y-87975619D01*
X126270047Y-87928000D01*
X126222428Y-87880380D01*
X126174809Y-87785142D01*
X126174809Y-87689904D01*
X126222428Y-87547047D01*
X126793857Y-86975619D01*
X126174809Y-86975619D01*
X125555761Y-87975619D02*
X125460523Y-87975619D01*
X125365285Y-87928000D01*
X125317666Y-87880380D01*
X125270047Y-87785142D01*
X125222428Y-87594666D01*
X125222428Y-87356571D01*
X125270047Y-87166095D01*
X125317666Y-87070857D01*
X125365285Y-87023238D01*
X125460523Y-86975619D01*
X125555761Y-86975619D01*
X125651000Y-87023238D01*
X125698619Y-87070857D01*
X125746238Y-87166095D01*
X125793857Y-87356571D01*
X125793857Y-87594666D01*
X125746238Y-87785142D01*
X125698619Y-87880380D01*
X125651000Y-87928000D01*
X125555761Y-87975619D01*
X110529714Y-109777738D02*
X111196380Y-109539642D01*
X110529714Y-109301547D01*
X111196380Y-108920595D02*
X110529714Y-108920595D01*
X110196380Y-108920595D02*
X110244000Y-108968214D01*
X110291619Y-108920595D01*
X110244000Y-108872976D01*
X110196380Y-108920595D01*
X110291619Y-108920595D01*
X128849428Y-104364404D02*
X128849428Y-103602500D01*
X129230380Y-103983452D02*
X128468476Y-103983452D01*
X128230380Y-103221547D02*
X128230380Y-102602500D01*
X128611333Y-102935833D01*
X128611333Y-102792976D01*
X128658952Y-102697738D01*
X128706571Y-102650119D01*
X128801809Y-102602500D01*
X129039904Y-102602500D01*
X129135142Y-102650119D01*
X129182761Y-102697738D01*
X129230380Y-102792976D01*
X129230380Y-103078690D01*
X129182761Y-103173928D01*
X129135142Y-103221547D01*
X129182761Y-102126309D02*
X129230380Y-102126309D01*
X129325619Y-102173928D01*
X129373238Y-102221547D01*
X128230380Y-101792976D02*
X128230380Y-101173928D01*
X128611333Y-101507261D01*
X128611333Y-101364404D01*
X128658952Y-101269166D01*
X128706571Y-101221547D01*
X128801809Y-101173928D01*
X129039904Y-101173928D01*
X129135142Y-101221547D01*
X129182761Y-101269166D01*
X129230380Y-101364404D01*
X129230380Y-101650119D01*
X129182761Y-101745357D01*
X129135142Y-101792976D01*
X128230380Y-100888214D02*
X129230380Y-100554880D01*
X128230380Y-100221547D01*
X156726000Y-82326785D02*
X156678380Y-82412500D01*
X156678380Y-82541071D01*
X156726000Y-82669642D01*
X156821238Y-82755357D01*
X156916476Y-82798214D01*
X157106952Y-82841071D01*
X157249809Y-82841071D01*
X157440285Y-82798214D01*
X157535523Y-82755357D01*
X157630761Y-82669642D01*
X157678380Y-82541071D01*
X157678380Y-82455357D01*
X157630761Y-82326785D01*
X157583142Y-82283928D01*
X157249809Y-82283928D01*
X157249809Y-82455357D01*
X157678380Y-81898214D02*
X156678380Y-81898214D01*
X157678380Y-81383928D01*
X156678380Y-81383928D01*
X157678380Y-80955357D02*
X156678380Y-80955357D01*
X156678380Y-80741071D01*
X156726000Y-80612500D01*
X156821238Y-80526785D01*
X156916476Y-80483928D01*
X157106952Y-80441071D01*
X157249809Y-80441071D01*
X157440285Y-80483928D01*
X157535523Y-80526785D01*
X157630761Y-80612500D01*
X157678380Y-80741071D01*
X157678380Y-80955357D01*
X98274714Y-100782380D02*
X97798523Y-100782380D01*
X97798523Y-99782380D01*
X99179476Y-100687142D02*
X99131857Y-100734761D01*
X98989000Y-100782380D01*
X98893761Y-100782380D01*
X98750904Y-100734761D01*
X98655666Y-100639523D01*
X98608047Y-100544285D01*
X98560428Y-100353809D01*
X98560428Y-100210952D01*
X98608047Y-100020476D01*
X98655666Y-99925238D01*
X98750904Y-99830000D01*
X98893761Y-99782380D01*
X98989000Y-99782380D01*
X99131857Y-99830000D01*
X99179476Y-99877619D01*
X99608047Y-100782380D02*
X99608047Y-99782380D01*
X99846142Y-99782380D01*
X99989000Y-99830000D01*
X100084238Y-99925238D01*
X100131857Y-100020476D01*
X100179476Y-100210952D01*
X100179476Y-100353809D01*
X100131857Y-100544285D01*
X100084238Y-100639523D01*
X99989000Y-100734761D01*
X99846142Y-100782380D01*
X99608047Y-100782380D01*
X101369952Y-100782380D02*
X101369952Y-99782380D01*
X101941380Y-100782380D02*
X101512809Y-100210952D01*
X101941380Y-99782380D02*
X101369952Y-100353809D01*
X102512809Y-100782380D02*
X102417571Y-100734761D01*
X102369952Y-100687142D01*
X102322333Y-100591904D01*
X102322333Y-100306190D01*
X102369952Y-100210952D01*
X102417571Y-100163333D01*
X102512809Y-100115714D01*
X102655666Y-100115714D01*
X102750904Y-100163333D01*
X102798523Y-100210952D01*
X102846142Y-100306190D01*
X102846142Y-100591904D01*
X102798523Y-100687142D01*
X102750904Y-100734761D01*
X102655666Y-100782380D01*
X102512809Y-100782380D01*
X103274714Y-100115714D02*
X103274714Y-100782380D01*
X103274714Y-100210952D02*
X103322333Y-100163333D01*
X103417571Y-100115714D01*
X103560428Y-100115714D01*
X103655666Y-100163333D01*
X103703285Y-100258571D01*
X103703285Y-100782380D01*
X104036619Y-100115714D02*
X104417571Y-100115714D01*
X104179476Y-99782380D02*
X104179476Y-100639523D01*
X104227095Y-100734761D01*
X104322333Y-100782380D01*
X104417571Y-100782380D01*
X104750904Y-100782380D02*
X104750904Y-100115714D01*
X104750904Y-100306190D02*
X104798523Y-100210952D01*
X104846142Y-100163333D01*
X104941380Y-100115714D01*
X105036619Y-100115714D01*
X105798523Y-100782380D02*
X105798523Y-100258571D01*
X105750904Y-100163333D01*
X105655666Y-100115714D01*
X105465190Y-100115714D01*
X105369952Y-100163333D01*
X105798523Y-100734761D02*
X105703285Y-100782380D01*
X105465190Y-100782380D01*
X105369952Y-100734761D01*
X105322333Y-100639523D01*
X105322333Y-100544285D01*
X105369952Y-100449047D01*
X105465190Y-100401428D01*
X105703285Y-100401428D01*
X105798523Y-100353809D01*
X106227095Y-100734761D02*
X106322333Y-100782380D01*
X106512809Y-100782380D01*
X106608047Y-100734761D01*
X106655666Y-100639523D01*
X106655666Y-100591904D01*
X106608047Y-100496666D01*
X106512809Y-100449047D01*
X106369952Y-100449047D01*
X106274714Y-100401428D01*
X106227095Y-100306190D01*
X106227095Y-100258571D01*
X106274714Y-100163333D01*
X106369952Y-100115714D01*
X106512809Y-100115714D01*
X106608047Y-100163333D01*
X106941380Y-100115714D02*
X107322333Y-100115714D01*
X107084238Y-99782380D02*
X107084238Y-100639523D01*
X107131857Y-100734761D01*
X107227095Y-100782380D01*
X107322333Y-100782380D01*
X133389714Y-110523785D02*
X134056380Y-110333309D01*
X133580190Y-110142833D01*
X134056380Y-109952357D01*
X133389714Y-109761880D01*
X134008761Y-109428547D02*
X134056380Y-109333309D01*
X134056380Y-109142833D01*
X134008761Y-109047595D01*
X133913523Y-108999976D01*
X133865904Y-108999976D01*
X133770666Y-109047595D01*
X133723047Y-109142833D01*
X133723047Y-109285690D01*
X133675428Y-109380928D01*
X133580190Y-109428547D01*
X133532571Y-109428547D01*
X133437333Y-109380928D01*
X133389714Y-109285690D01*
X133389714Y-109142833D01*
X133437333Y-109047595D01*
X133358000Y-103840595D02*
X133310380Y-103935833D01*
X133310380Y-104078690D01*
X133358000Y-104221547D01*
X133453238Y-104316785D01*
X133548476Y-104364404D01*
X133738952Y-104412023D01*
X133881809Y-104412023D01*
X134072285Y-104364404D01*
X134167523Y-104316785D01*
X134262761Y-104221547D01*
X134310380Y-104078690D01*
X134310380Y-103983452D01*
X134262761Y-103840595D01*
X134215142Y-103792976D01*
X133881809Y-103792976D01*
X133881809Y-103983452D01*
X134310380Y-103364404D02*
X133310380Y-103364404D01*
X134310380Y-102792976D01*
X133310380Y-102792976D01*
X134310380Y-102316785D02*
X133310380Y-102316785D01*
X133310380Y-102078690D01*
X133358000Y-101935833D01*
X133453238Y-101840595D01*
X133548476Y-101792976D01*
X133738952Y-101745357D01*
X133881809Y-101745357D01*
X134072285Y-101792976D01*
X134167523Y-101840595D01*
X134262761Y-101935833D01*
X134310380Y-102078690D01*
X134310380Y-102316785D01*
X115530380Y-82917261D02*
X116530380Y-82583928D01*
X115530380Y-82250595D01*
X115530380Y-81726785D02*
X115530380Y-81536309D01*
X115578000Y-81441071D01*
X115673238Y-81345833D01*
X115863714Y-81298214D01*
X116197047Y-81298214D01*
X116387523Y-81345833D01*
X116482761Y-81441071D01*
X116530380Y-81536309D01*
X116530380Y-81726785D01*
X116482761Y-81822023D01*
X116387523Y-81917261D01*
X116197047Y-81964880D01*
X115863714Y-81964880D01*
X115673238Y-81917261D01*
X115578000Y-81822023D01*
X115530380Y-81726785D01*
X131770380Y-82901404D02*
X130770380Y-82901404D01*
X131770380Y-82329976D01*
X130770380Y-82329976D01*
X131675142Y-81282357D02*
X131722761Y-81329976D01*
X131770380Y-81472833D01*
X131770380Y-81568071D01*
X131722761Y-81710928D01*
X131627523Y-81806166D01*
X131532285Y-81853785D01*
X131341809Y-81901404D01*
X131198952Y-81901404D01*
X131008476Y-81853785D01*
X130913238Y-81806166D01*
X130818000Y-81710928D01*
X130770380Y-81568071D01*
X130770380Y-81472833D01*
X130818000Y-81329976D01*
X130865619Y-81282357D01*
X164409142Y-86975619D02*
X164742476Y-87451809D01*
X164980571Y-86975619D02*
X164980571Y-87975619D01*
X164599619Y-87975619D01*
X164504380Y-87928000D01*
X164456761Y-87880380D01*
X164409142Y-87785142D01*
X164409142Y-87642285D01*
X164456761Y-87547047D01*
X164504380Y-87499428D01*
X164599619Y-87451809D01*
X164980571Y-87451809D01*
X163599619Y-87023238D02*
X163694857Y-86975619D01*
X163885333Y-86975619D01*
X163980571Y-87023238D01*
X164028190Y-87118476D01*
X164028190Y-87499428D01*
X163980571Y-87594666D01*
X163885333Y-87642285D01*
X163694857Y-87642285D01*
X163599619Y-87594666D01*
X163552000Y-87499428D01*
X163552000Y-87404190D01*
X164028190Y-87308952D01*
X163171047Y-87023238D02*
X163075809Y-86975619D01*
X162885333Y-86975619D01*
X162790095Y-87023238D01*
X162742476Y-87118476D01*
X162742476Y-87166095D01*
X162790095Y-87261333D01*
X162885333Y-87308952D01*
X163028190Y-87308952D01*
X163123428Y-87356571D01*
X163171047Y-87451809D01*
X163171047Y-87499428D01*
X163123428Y-87594666D01*
X163028190Y-87642285D01*
X162885333Y-87642285D01*
X162790095Y-87594666D01*
X162171047Y-86975619D02*
X162266285Y-87023238D01*
X162313904Y-87070857D01*
X162361523Y-87166095D01*
X162361523Y-87451809D01*
X162313904Y-87547047D01*
X162266285Y-87594666D01*
X162171047Y-87642285D01*
X162028190Y-87642285D01*
X161932952Y-87594666D01*
X161885333Y-87547047D01*
X161837714Y-87451809D01*
X161837714Y-87166095D01*
X161885333Y-87070857D01*
X161932952Y-87023238D01*
X162028190Y-86975619D01*
X162171047Y-86975619D01*
X161266285Y-86975619D02*
X161361523Y-87023238D01*
X161409142Y-87118476D01*
X161409142Y-87975619D01*
X160980571Y-87642285D02*
X160742476Y-86975619D01*
X160504380Y-87642285D01*
X159742476Y-87023238D02*
X159837714Y-86975619D01*
X160028190Y-86975619D01*
X160123428Y-87023238D01*
X160171047Y-87118476D01*
X160171047Y-87499428D01*
X160123428Y-87594666D01*
X160028190Y-87642285D01*
X159837714Y-87642285D01*
X159742476Y-87594666D01*
X159694857Y-87499428D01*
X159694857Y-87404190D01*
X160171047Y-87308952D01*
X159266285Y-86975619D02*
X159266285Y-87642285D01*
X159266285Y-87451809D02*
X159218666Y-87547047D01*
X159171047Y-87594666D01*
X159075809Y-87642285D01*
X158980571Y-87642285D01*
X121470992Y-82329976D02*
X120994802Y-82663309D01*
X121470992Y-82901404D02*
X120470992Y-82901404D01*
X120470992Y-82520452D01*
X120518612Y-82425214D01*
X120566231Y-82377595D01*
X120661469Y-82329976D01*
X120804326Y-82329976D01*
X120899564Y-82377595D01*
X120947183Y-82425214D01*
X120994802Y-82520452D01*
X120994802Y-82901404D01*
X120470992Y-81996642D02*
X121470992Y-81758547D01*
X120756707Y-81568071D01*
X121470992Y-81377595D01*
X120470992Y-81139500D01*
X164346000Y-82326785D02*
X164298380Y-82412500D01*
X164298380Y-82541071D01*
X164346000Y-82669642D01*
X164441238Y-82755357D01*
X164536476Y-82798214D01*
X164726952Y-82841071D01*
X164869809Y-82841071D01*
X165060285Y-82798214D01*
X165155523Y-82755357D01*
X165250761Y-82669642D01*
X165298380Y-82541071D01*
X165298380Y-82455357D01*
X165250761Y-82326785D01*
X165203142Y-82283928D01*
X164869809Y-82283928D01*
X164869809Y-82455357D01*
X165298380Y-81898214D02*
X164298380Y-81898214D01*
X165298380Y-81383928D01*
X164298380Y-81383928D01*
X165298380Y-80955357D02*
X164298380Y-80955357D01*
X164298380Y-80741071D01*
X164346000Y-80612500D01*
X164441238Y-80526785D01*
X164536476Y-80483928D01*
X164726952Y-80441071D01*
X164869809Y-80441071D01*
X165060285Y-80483928D01*
X165155523Y-80526785D01*
X165250761Y-80612500D01*
X165298380Y-80741071D01*
X165298380Y-80955357D01*
X157067904Y-108395571D02*
X157210761Y-108443190D01*
X157258380Y-108490809D01*
X157306000Y-108586047D01*
X157306000Y-108728904D01*
X157258380Y-108824142D01*
X157210761Y-108871761D01*
X157115523Y-108919380D01*
X156734571Y-108919380D01*
X156734571Y-107919380D01*
X157067904Y-107919380D01*
X157163142Y-107967000D01*
X157210761Y-108014619D01*
X157258380Y-108109857D01*
X157258380Y-108205095D01*
X157210761Y-108300333D01*
X157163142Y-108347952D01*
X157067904Y-108395571D01*
X156734571Y-108395571D01*
X157734571Y-108919380D02*
X157734571Y-108252714D01*
X157734571Y-108443190D02*
X157782190Y-108347952D01*
X157829809Y-108300333D01*
X157925047Y-108252714D01*
X158020285Y-108252714D01*
X158734571Y-108871761D02*
X158639333Y-108919380D01*
X158448857Y-108919380D01*
X158353619Y-108871761D01*
X158306000Y-108776523D01*
X158306000Y-108395571D01*
X158353619Y-108300333D01*
X158448857Y-108252714D01*
X158639333Y-108252714D01*
X158734571Y-108300333D01*
X158782190Y-108395571D01*
X158782190Y-108490809D01*
X158306000Y-108586047D01*
X159639333Y-108919380D02*
X159639333Y-108395571D01*
X159591714Y-108300333D01*
X159496476Y-108252714D01*
X159306000Y-108252714D01*
X159210761Y-108300333D01*
X159639333Y-108871761D02*
X159544095Y-108919380D01*
X159306000Y-108919380D01*
X159210761Y-108871761D01*
X159163142Y-108776523D01*
X159163142Y-108681285D01*
X159210761Y-108586047D01*
X159306000Y-108538428D01*
X159544095Y-108538428D01*
X159639333Y-108490809D01*
X160115523Y-108919380D02*
X160115523Y-107919380D01*
X160210761Y-108538428D02*
X160496476Y-108919380D01*
X160496476Y-108252714D02*
X160115523Y-108633666D01*
X161067904Y-108919380D02*
X160972666Y-108871761D01*
X160925047Y-108824142D01*
X160877428Y-108728904D01*
X160877428Y-108443190D01*
X160925047Y-108347952D01*
X160972666Y-108300333D01*
X161067904Y-108252714D01*
X161210761Y-108252714D01*
X161306000Y-108300333D01*
X161353619Y-108347952D01*
X161401238Y-108443190D01*
X161401238Y-108728904D01*
X161353619Y-108824142D01*
X161306000Y-108871761D01*
X161210761Y-108919380D01*
X161067904Y-108919380D01*
X162258380Y-108252714D02*
X162258380Y-108919380D01*
X161829809Y-108252714D02*
X161829809Y-108776523D01*
X161877428Y-108871761D01*
X161972666Y-108919380D01*
X162115523Y-108919380D01*
X162210761Y-108871761D01*
X162258380Y-108824142D01*
X162591714Y-108252714D02*
X162972666Y-108252714D01*
X162734571Y-107919380D02*
X162734571Y-108776523D01*
X162782190Y-108871761D01*
X162877428Y-108919380D01*
X162972666Y-108919380D01*
X164258380Y-107919380D02*
X164353619Y-107919380D01*
X164448857Y-107967000D01*
X164496476Y-108014619D01*
X164544095Y-108109857D01*
X164591714Y-108300333D01*
X164591714Y-108538428D01*
X164544095Y-108728904D01*
X164496476Y-108824142D01*
X164448857Y-108871761D01*
X164353619Y-108919380D01*
X164258380Y-108919380D01*
X164163142Y-108871761D01*
X164115523Y-108824142D01*
X164067904Y-108728904D01*
X164020285Y-108538428D01*
X164020285Y-108300333D01*
X164067904Y-108109857D01*
X164115523Y-108014619D01*
X164163142Y-107967000D01*
X164258380Y-107919380D01*
X165067904Y-108919380D02*
X165258380Y-108919380D01*
X165353619Y-108871761D01*
X165401238Y-108824142D01*
X165496476Y-108681285D01*
X165544095Y-108490809D01*
X165544095Y-108109857D01*
X165496476Y-108014619D01*
X165448857Y-107967000D01*
X165353619Y-107919380D01*
X165163142Y-107919380D01*
X165067904Y-107967000D01*
X165020285Y-108014619D01*
X164972666Y-108109857D01*
X164972666Y-108347952D01*
X165020285Y-108443190D01*
X165067904Y-108490809D01*
X165163142Y-108538428D01*
X165353619Y-108538428D01*
X165448857Y-108490809D01*
X165496476Y-108443190D01*
X165544095Y-108347952D01*
X165972666Y-108824142D02*
X166020285Y-108871761D01*
X165972666Y-108919380D01*
X165925047Y-108871761D01*
X165972666Y-108824142D01*
X165972666Y-108919380D01*
X166401238Y-108014619D02*
X166448857Y-107967000D01*
X166544095Y-107919380D01*
X166782190Y-107919380D01*
X166877428Y-107967000D01*
X166925047Y-108014619D01*
X166972666Y-108109857D01*
X166972666Y-108205095D01*
X166925047Y-108347952D01*
X166353619Y-108919380D01*
X166972666Y-108919380D01*
X167353619Y-108014619D02*
X167401238Y-107967000D01*
X167496476Y-107919380D01*
X167734571Y-107919380D01*
X167829809Y-107967000D01*
X167877428Y-108014619D01*
X167925047Y-108109857D01*
X167925047Y-108205095D01*
X167877428Y-108347952D01*
X167306000Y-108919380D01*
X167925047Y-108919380D01*
X159853619Y-110529380D02*
X159853619Y-109529380D01*
X160091714Y-109529380D01*
X160234571Y-109577000D01*
X160329809Y-109672238D01*
X160377428Y-109767476D01*
X160425047Y-109957952D01*
X160425047Y-110100809D01*
X160377428Y-110291285D01*
X160329809Y-110386523D01*
X160234571Y-110481761D01*
X160091714Y-110529380D01*
X159853619Y-110529380D01*
X160853619Y-110529380D02*
X160853619Y-109862714D01*
X160853619Y-109529380D02*
X160806000Y-109577000D01*
X160853619Y-109624619D01*
X160901238Y-109577000D01*
X160853619Y-109529380D01*
X160853619Y-109624619D01*
X161282190Y-110481761D02*
X161377428Y-110529380D01*
X161567904Y-110529380D01*
X161663142Y-110481761D01*
X161710761Y-110386523D01*
X161710761Y-110338904D01*
X161663142Y-110243666D01*
X161567904Y-110196047D01*
X161425047Y-110196047D01*
X161329809Y-110148428D01*
X161282190Y-110053190D01*
X161282190Y-110005571D01*
X161329809Y-109910333D01*
X161425047Y-109862714D01*
X161567904Y-109862714D01*
X161663142Y-109910333D01*
X162139333Y-109862714D02*
X162139333Y-110862714D01*
X162139333Y-109910333D02*
X162234571Y-109862714D01*
X162425047Y-109862714D01*
X162520285Y-109910333D01*
X162567904Y-109957952D01*
X162615523Y-110053190D01*
X162615523Y-110338904D01*
X162567904Y-110434142D01*
X162520285Y-110481761D01*
X162425047Y-110529380D01*
X162234571Y-110529380D01*
X162139333Y-110481761D01*
X163186952Y-110529380D02*
X163091714Y-110481761D01*
X163044095Y-110386523D01*
X163044095Y-109529380D01*
X163996476Y-110529380D02*
X163996476Y-110005571D01*
X163948857Y-109910333D01*
X163853619Y-109862714D01*
X163663142Y-109862714D01*
X163567904Y-109910333D01*
X163996476Y-110481761D02*
X163901238Y-110529380D01*
X163663142Y-110529380D01*
X163567904Y-110481761D01*
X163520285Y-110386523D01*
X163520285Y-110291285D01*
X163567904Y-110196047D01*
X163663142Y-110148428D01*
X163901238Y-110148428D01*
X163996476Y-110100809D01*
X164377428Y-109862714D02*
X164615523Y-110529380D01*
X164853619Y-109862714D02*
X164615523Y-110529380D01*
X164520285Y-110767476D01*
X164472666Y-110815095D01*
X164377428Y-110862714D01*
X175712380Y-100773904D02*
X175712380Y-101154857D01*
X174712380Y-101154857D01*
X175664761Y-100164380D02*
X175712380Y-100240571D01*
X175712380Y-100392952D01*
X175664761Y-100469142D01*
X175617142Y-100507238D01*
X175521904Y-100545333D01*
X175236190Y-100545333D01*
X175140952Y-100507238D01*
X175093333Y-100469142D01*
X175045714Y-100392952D01*
X175045714Y-100240571D01*
X175093333Y-100164380D01*
X175712380Y-99478666D02*
X174712380Y-99478666D01*
X175664761Y-99478666D02*
X175712380Y-99554857D01*
X175712380Y-99707238D01*
X175664761Y-99783428D01*
X175617142Y-99821523D01*
X175521904Y-99859619D01*
X175236190Y-99859619D01*
X175140952Y-99821523D01*
X175093333Y-99783428D01*
X175045714Y-99707238D01*
X175045714Y-99554857D01*
X175093333Y-99478666D01*
X175712380Y-98640571D02*
X175236190Y-98907238D01*
X175712380Y-99097714D02*
X174712380Y-99097714D01*
X174712380Y-98792952D01*
X174760000Y-98716761D01*
X174807619Y-98678666D01*
X174902857Y-98640571D01*
X175045714Y-98640571D01*
X175140952Y-98678666D01*
X175188571Y-98716761D01*
X175236190Y-98792952D01*
X175236190Y-99097714D01*
X175664761Y-97992952D02*
X175712380Y-98069142D01*
X175712380Y-98221523D01*
X175664761Y-98297714D01*
X175569523Y-98335809D01*
X175188571Y-98335809D01*
X175093333Y-98297714D01*
X175045714Y-98221523D01*
X175045714Y-98069142D01*
X175093333Y-97992952D01*
X175188571Y-97954857D01*
X175283809Y-97954857D01*
X175379047Y-98335809D01*
X175664761Y-97650095D02*
X175712380Y-97573904D01*
X175712380Y-97421523D01*
X175664761Y-97345333D01*
X175569523Y-97307238D01*
X175521904Y-97307238D01*
X175426666Y-97345333D01*
X175379047Y-97421523D01*
X175379047Y-97535809D01*
X175331428Y-97612000D01*
X175236190Y-97650095D01*
X175188571Y-97650095D01*
X175093333Y-97612000D01*
X175045714Y-97535809D01*
X175045714Y-97421523D01*
X175093333Y-97345333D01*
X175712380Y-96850095D02*
X175664761Y-96926285D01*
X175617142Y-96964380D01*
X175521904Y-97002476D01*
X175236190Y-97002476D01*
X175140952Y-96964380D01*
X175093333Y-96926285D01*
X175045714Y-96850095D01*
X175045714Y-96735809D01*
X175093333Y-96659619D01*
X175140952Y-96621523D01*
X175236190Y-96583428D01*
X175521904Y-96583428D01*
X175617142Y-96621523D01*
X175664761Y-96659619D01*
X175712380Y-96735809D01*
X175712380Y-96850095D01*
X175712380Y-96126285D02*
X175664761Y-96202476D01*
X175569523Y-96240571D01*
X174712380Y-96240571D01*
X175045714Y-95897714D02*
X175712380Y-95707238D01*
X175045714Y-95516761D01*
X175664761Y-94907238D02*
X175712380Y-94983428D01*
X175712380Y-95135809D01*
X175664761Y-95212000D01*
X175569523Y-95250095D01*
X175188571Y-95250095D01*
X175093333Y-95212000D01*
X175045714Y-95135809D01*
X175045714Y-94983428D01*
X175093333Y-94907238D01*
X175188571Y-94869142D01*
X175283809Y-94869142D01*
X175379047Y-95250095D01*
X175712380Y-94526285D02*
X175045714Y-94526285D01*
X175236190Y-94526285D02*
X175140952Y-94488190D01*
X175093333Y-94450095D01*
X175045714Y-94373904D01*
X175045714Y-94297714D01*
X175617142Y-94031047D02*
X175664761Y-93992952D01*
X175712380Y-94031047D01*
X175664761Y-94069142D01*
X175617142Y-94031047D01*
X175712380Y-94031047D01*
X175712380Y-93650095D02*
X174712380Y-93650095D01*
X175331428Y-93573904D02*
X175712380Y-93345333D01*
X175045714Y-93345333D02*
X175426666Y-93650095D01*
X175712380Y-93002476D02*
X175045714Y-93002476D01*
X174712380Y-93002476D02*
X174760000Y-93040571D01*
X174807619Y-93002476D01*
X174760000Y-92964380D01*
X174712380Y-93002476D01*
X174807619Y-93002476D01*
X175664761Y-92278666D02*
X175712380Y-92354857D01*
X175712380Y-92507238D01*
X175664761Y-92583428D01*
X175617142Y-92621523D01*
X175521904Y-92659619D01*
X175236190Y-92659619D01*
X175140952Y-92621523D01*
X175093333Y-92583428D01*
X175045714Y-92507238D01*
X175045714Y-92354857D01*
X175093333Y-92278666D01*
X175712380Y-91592952D02*
X175188571Y-91592952D01*
X175093333Y-91631047D01*
X175045714Y-91707238D01*
X175045714Y-91859619D01*
X175093333Y-91935809D01*
X175664761Y-91592952D02*
X175712380Y-91669142D01*
X175712380Y-91859619D01*
X175664761Y-91935809D01*
X175569523Y-91973904D01*
X175474285Y-91973904D01*
X175379047Y-91935809D01*
X175331428Y-91859619D01*
X175331428Y-91669142D01*
X175283809Y-91592952D01*
X175712380Y-90869142D02*
X174712380Y-90869142D01*
X175664761Y-90869142D02*
X175712380Y-90945333D01*
X175712380Y-91097714D01*
X175664761Y-91173904D01*
X175617142Y-91212000D01*
X175521904Y-91250095D01*
X175236190Y-91250095D01*
X175140952Y-91212000D01*
X175093333Y-91173904D01*
X175045714Y-91097714D01*
X175045714Y-90945333D01*
X175093333Y-90869142D01*
X125769714Y-109904738D02*
X126579238Y-109904738D01*
X126674476Y-109952357D01*
X126722095Y-109999976D01*
X126769714Y-110095214D01*
X126769714Y-110238071D01*
X126722095Y-110333309D01*
X126388761Y-109904738D02*
X126436380Y-109999976D01*
X126436380Y-110190452D01*
X126388761Y-110285690D01*
X126341142Y-110333309D01*
X126245904Y-110380928D01*
X125960190Y-110380928D01*
X125864952Y-110333309D01*
X125817333Y-110285690D01*
X125769714Y-110190452D01*
X125769714Y-109999976D01*
X125817333Y-109904738D01*
X126388761Y-109047595D02*
X126436380Y-109142833D01*
X126436380Y-109333309D01*
X126388761Y-109428547D01*
X126293523Y-109476166D01*
X125912571Y-109476166D01*
X125817333Y-109428547D01*
X125769714Y-109333309D01*
X125769714Y-109142833D01*
X125817333Y-109047595D01*
X125912571Y-108999976D01*
X126007809Y-108999976D01*
X126103047Y-109476166D01*
X162107571Y-82441071D02*
X162155190Y-82298214D01*
X162202809Y-82250595D01*
X162298047Y-82202976D01*
X162440904Y-82202976D01*
X162536142Y-82250595D01*
X162583761Y-82298214D01*
X162631380Y-82393452D01*
X162631380Y-82774404D01*
X161631380Y-82774404D01*
X161631380Y-82441071D01*
X161679000Y-82345833D01*
X161726619Y-82298214D01*
X161821857Y-82250595D01*
X161917095Y-82250595D01*
X162012333Y-82298214D01*
X162059952Y-82345833D01*
X162107571Y-82441071D01*
X162107571Y-82774404D01*
X121562761Y-104412023D02*
X121610380Y-104269166D01*
X121610380Y-104031071D01*
X121562761Y-103935833D01*
X121515142Y-103888214D01*
X121419904Y-103840595D01*
X121324666Y-103840595D01*
X121229428Y-103888214D01*
X121181809Y-103935833D01*
X121134190Y-104031071D01*
X121086571Y-104221547D01*
X121038952Y-104316785D01*
X120991333Y-104364404D01*
X120896095Y-104412023D01*
X120800857Y-104412023D01*
X120705619Y-104364404D01*
X120658000Y-104316785D01*
X120610380Y-104221547D01*
X120610380Y-103983452D01*
X120658000Y-103840595D01*
X121610380Y-103412023D02*
X120610380Y-103412023D01*
X120610380Y-103031071D01*
X120658000Y-102935833D01*
X120705619Y-102888214D01*
X120800857Y-102840595D01*
X120943714Y-102840595D01*
X121038952Y-102888214D01*
X121086571Y-102935833D01*
X121134190Y-103031071D01*
X121134190Y-103412023D01*
X121610380Y-102412023D02*
X120610380Y-102412023D01*
X121610380Y-101173928D02*
X120610380Y-101173928D01*
X120610380Y-100935833D01*
X120658000Y-100792976D01*
X120753238Y-100697738D01*
X120848476Y-100650119D01*
X121038952Y-100602500D01*
X121181809Y-100602500D01*
X121372285Y-100650119D01*
X121467523Y-100697738D01*
X121562761Y-100792976D01*
X121610380Y-100935833D01*
X121610380Y-101173928D01*
X121610380Y-99745357D02*
X121086571Y-99745357D01*
X120991333Y-99792976D01*
X120943714Y-99888214D01*
X120943714Y-100078690D01*
X120991333Y-100173928D01*
X121562761Y-99745357D02*
X121610380Y-99840595D01*
X121610380Y-100078690D01*
X121562761Y-100173928D01*
X121467523Y-100221547D01*
X121372285Y-100221547D01*
X121277047Y-100173928D01*
X121229428Y-100078690D01*
X121229428Y-99840595D01*
X121181809Y-99745357D01*
X120943714Y-99412023D02*
X120943714Y-99031071D01*
X120610380Y-99269166D02*
X121467523Y-99269166D01*
X121562761Y-99221547D01*
X121610380Y-99126309D01*
X121610380Y-99031071D01*
X121610380Y-98269166D02*
X121086571Y-98269166D01*
X120991333Y-98316785D01*
X120943714Y-98412023D01*
X120943714Y-98602500D01*
X120991333Y-98697738D01*
X121562761Y-98269166D02*
X121610380Y-98364404D01*
X121610380Y-98602500D01*
X121562761Y-98697738D01*
X121467523Y-98745357D01*
X121372285Y-98745357D01*
X121277047Y-98697738D01*
X121229428Y-98602500D01*
X121229428Y-98364404D01*
X121181809Y-98269166D01*
X118943380Y-82329976D02*
X118467190Y-82663309D01*
X118943380Y-82901404D02*
X117943380Y-82901404D01*
X117943380Y-82520452D01*
X117991000Y-82425214D01*
X118038619Y-82377595D01*
X118133857Y-82329976D01*
X118276714Y-82329976D01*
X118371952Y-82377595D01*
X118419571Y-82425214D01*
X118467190Y-82520452D01*
X118467190Y-82901404D01*
X118895761Y-81949023D02*
X118943380Y-81806166D01*
X118943380Y-81568071D01*
X118895761Y-81472833D01*
X118848142Y-81425214D01*
X118752904Y-81377595D01*
X118657666Y-81377595D01*
X118562428Y-81425214D01*
X118514809Y-81472833D01*
X118467190Y-81568071D01*
X118419571Y-81758547D01*
X118371952Y-81853785D01*
X118324333Y-81901404D01*
X118229095Y-81949023D01*
X118133857Y-81949023D01*
X118038619Y-81901404D01*
X117991000Y-81853785D01*
X117943380Y-81758547D01*
X117943380Y-81520452D01*
X117991000Y-81377595D01*
X131643380Y-110095214D02*
X130643380Y-110095214D01*
X131024333Y-110095214D02*
X130976714Y-109999976D01*
X130976714Y-109809500D01*
X131024333Y-109714261D01*
X131071952Y-109666642D01*
X131167190Y-109619023D01*
X131452904Y-109619023D01*
X131548142Y-109666642D01*
X131595761Y-109714261D01*
X131643380Y-109809500D01*
X131643380Y-109999976D01*
X131595761Y-110095214D01*
X131643380Y-109190452D02*
X130976714Y-109190452D01*
X131167190Y-109190452D02*
X131071952Y-109142833D01*
X131024333Y-109095214D01*
X130976714Y-108999976D01*
X130976714Y-108904738D01*
X123229714Y-109666642D02*
X124039238Y-109666642D01*
X124134476Y-109714261D01*
X124182095Y-109761880D01*
X124229714Y-109857119D01*
X124229714Y-109999976D01*
X124182095Y-110095214D01*
X123848761Y-109666642D02*
X123896380Y-109761880D01*
X123896380Y-109952357D01*
X123848761Y-110047595D01*
X123801142Y-110095214D01*
X123705904Y-110142833D01*
X123420190Y-110142833D01*
X123324952Y-110095214D01*
X123277333Y-110047595D01*
X123229714Y-109952357D01*
X123229714Y-109761880D01*
X123277333Y-109666642D01*
X123896380Y-109190452D02*
X123229714Y-109190452D01*
X123420190Y-109190452D02*
X123324952Y-109142833D01*
X123277333Y-109095214D01*
X123229714Y-108999976D01*
X123229714Y-108904738D01*
X116530380Y-103792976D02*
X116054190Y-104126309D01*
X116530380Y-104364404D02*
X115530380Y-104364404D01*
X115530380Y-103983452D01*
X115578000Y-103888214D01*
X115625619Y-103840595D01*
X115720857Y-103792976D01*
X115863714Y-103792976D01*
X115958952Y-103840595D01*
X116006571Y-103888214D01*
X116054190Y-103983452D01*
X116054190Y-104364404D01*
X116482761Y-102983452D02*
X116530380Y-103078690D01*
X116530380Y-103269166D01*
X116482761Y-103364404D01*
X116387523Y-103412023D01*
X116006571Y-103412023D01*
X115911333Y-103364404D01*
X115863714Y-103269166D01*
X115863714Y-103078690D01*
X115911333Y-102983452D01*
X116006571Y-102935833D01*
X116101809Y-102935833D01*
X116197047Y-103412023D01*
X116482761Y-102554880D02*
X116530380Y-102459642D01*
X116530380Y-102269166D01*
X116482761Y-102173928D01*
X116387523Y-102126309D01*
X116339904Y-102126309D01*
X116244666Y-102173928D01*
X116197047Y-102269166D01*
X116197047Y-102412023D01*
X116149428Y-102507261D01*
X116054190Y-102554880D01*
X116006571Y-102554880D01*
X115911333Y-102507261D01*
X115863714Y-102412023D01*
X115863714Y-102269166D01*
X115911333Y-102173928D01*
X116244666Y-100983452D02*
X116244666Y-100507261D01*
X116530380Y-101078690D02*
X115530380Y-100745357D01*
X116530380Y-100412023D01*
X116887476Y-89320619D02*
X116792238Y-89320619D01*
X116697000Y-89273000D01*
X116649380Y-89225380D01*
X116601761Y-89130142D01*
X116554142Y-88939666D01*
X116554142Y-88701571D01*
X116601761Y-88511095D01*
X116649380Y-88415857D01*
X116697000Y-88368238D01*
X116792238Y-88320619D01*
X116887476Y-88320619D01*
X116982714Y-88368238D01*
X117030333Y-88415857D01*
X117077952Y-88511095D01*
X117125571Y-88701571D01*
X117125571Y-88939666D01*
X117077952Y-89130142D01*
X117030333Y-89225380D01*
X116982714Y-89273000D01*
X116887476Y-89320619D01*
X116077952Y-88368238D02*
X116077952Y-88320619D01*
X116125571Y-88225380D01*
X116173190Y-88177761D01*
X115744619Y-89320619D02*
X115077952Y-89320619D01*
X115506523Y-88320619D01*
X114839857Y-89320619D02*
X114506523Y-88320619D01*
X114173190Y-89320619D01*
X111450380Y-103792976D02*
X110974190Y-104126309D01*
X111450380Y-104364404D02*
X110450380Y-104364404D01*
X110450380Y-103983452D01*
X110498000Y-103888214D01*
X110545619Y-103840595D01*
X110640857Y-103792976D01*
X110783714Y-103792976D01*
X110878952Y-103840595D01*
X110926571Y-103888214D01*
X110974190Y-103983452D01*
X110974190Y-104364404D01*
X111402761Y-102983452D02*
X111450380Y-103078690D01*
X111450380Y-103269166D01*
X111402761Y-103364404D01*
X111307523Y-103412023D01*
X110926571Y-103412023D01*
X110831333Y-103364404D01*
X110783714Y-103269166D01*
X110783714Y-103078690D01*
X110831333Y-102983452D01*
X110926571Y-102935833D01*
X111021809Y-102935833D01*
X111117047Y-103412023D01*
X111402761Y-102554880D02*
X111450380Y-102459642D01*
X111450380Y-102269166D01*
X111402761Y-102173928D01*
X111307523Y-102126309D01*
X111259904Y-102126309D01*
X111164666Y-102173928D01*
X111117047Y-102269166D01*
X111117047Y-102412023D01*
X111069428Y-102507261D01*
X110974190Y-102554880D01*
X110926571Y-102554880D01*
X110831333Y-102507261D01*
X110783714Y-102412023D01*
X110783714Y-102269166D01*
X110831333Y-102173928D01*
X111402761Y-100983452D02*
X111450380Y-100840595D01*
X111450380Y-100602500D01*
X111402761Y-100507261D01*
X111355142Y-100459642D01*
X111259904Y-100412023D01*
X111164666Y-100412023D01*
X111069428Y-100459642D01*
X111021809Y-100507261D01*
X110974190Y-100602500D01*
X110926571Y-100792976D01*
X110878952Y-100888214D01*
X110831333Y-100935833D01*
X110736095Y-100983452D01*
X110640857Y-100983452D01*
X110545619Y-100935833D01*
X110498000Y-100888214D01*
X110450380Y-100792976D01*
X110450380Y-100554880D01*
X110498000Y-100412023D01*
X110450380Y-100078690D02*
X111450380Y-99840595D01*
X110736095Y-99650119D01*
X111450380Y-99459642D01*
X110450380Y-99221547D01*
X128309714Y-109952357D02*
X129119238Y-109952357D01*
X129214476Y-109999976D01*
X129262095Y-110047595D01*
X129309714Y-110142833D01*
X129309714Y-110285690D01*
X129262095Y-110380928D01*
X128928761Y-109952357D02*
X128976380Y-110047595D01*
X128976380Y-110238071D01*
X128928761Y-110333309D01*
X128881142Y-110380928D01*
X128785904Y-110428547D01*
X128500190Y-110428547D01*
X128404952Y-110380928D01*
X128357333Y-110333309D01*
X128309714Y-110238071D01*
X128309714Y-110047595D01*
X128357333Y-109952357D01*
X128309714Y-109476166D02*
X128976380Y-109476166D01*
X128404952Y-109476166D02*
X128357333Y-109428547D01*
X128309714Y-109333309D01*
X128309714Y-109190452D01*
X128357333Y-109095214D01*
X128452571Y-109047595D01*
X128976380Y-109047595D01*
X118943380Y-109999976D02*
X117943380Y-109999976D01*
X118324333Y-109999976D02*
X118276714Y-109904738D01*
X118276714Y-109714261D01*
X118324333Y-109619023D01*
X118371952Y-109571404D01*
X118467190Y-109523785D01*
X118752904Y-109523785D01*
X118848142Y-109571404D01*
X118895761Y-109619023D01*
X118943380Y-109714261D01*
X118943380Y-109904738D01*
X118895761Y-109999976D01*
X118943380Y-108952357D02*
X118895761Y-109047595D01*
X118800523Y-109095214D01*
X117943380Y-109095214D01*
X129103380Y-82901404D02*
X128103380Y-82901404D01*
X129103380Y-82329976D01*
X128103380Y-82329976D01*
X129008142Y-81282357D02*
X129055761Y-81329976D01*
X129103380Y-81472833D01*
X129103380Y-81568071D01*
X129055761Y-81710928D01*
X128960523Y-81806166D01*
X128865285Y-81853785D01*
X128674809Y-81901404D01*
X128531952Y-81901404D01*
X128341476Y-81853785D01*
X128246238Y-81806166D01*
X128151000Y-81710928D01*
X128103380Y-81568071D01*
X128103380Y-81472833D01*
X128151000Y-81329976D01*
X128198619Y-81282357D01*
X167790761Y-82822023D02*
X167838380Y-82679166D01*
X167838380Y-82441071D01*
X167790761Y-82345833D01*
X167743142Y-82298214D01*
X167647904Y-82250595D01*
X167552666Y-82250595D01*
X167457428Y-82298214D01*
X167409809Y-82345833D01*
X167362190Y-82441071D01*
X167314571Y-82631547D01*
X167266952Y-82726785D01*
X167219333Y-82774404D01*
X167124095Y-82822023D01*
X167028857Y-82822023D01*
X166933619Y-82774404D01*
X166886000Y-82726785D01*
X166838380Y-82631547D01*
X166838380Y-82393452D01*
X166886000Y-82250595D01*
X166838380Y-81917261D02*
X167838380Y-81679166D01*
X167124095Y-81488690D01*
X167838380Y-81298214D01*
X166838380Y-81060119D01*
X113990380Y-103792976D02*
X113514190Y-104126309D01*
X113990380Y-104364404D02*
X112990380Y-104364404D01*
X112990380Y-103983452D01*
X113038000Y-103888214D01*
X113085619Y-103840595D01*
X113180857Y-103792976D01*
X113323714Y-103792976D01*
X113418952Y-103840595D01*
X113466571Y-103888214D01*
X113514190Y-103983452D01*
X113514190Y-104364404D01*
X113942761Y-102983452D02*
X113990380Y-103078690D01*
X113990380Y-103269166D01*
X113942761Y-103364404D01*
X113847523Y-103412023D01*
X113466571Y-103412023D01*
X113371333Y-103364404D01*
X113323714Y-103269166D01*
X113323714Y-103078690D01*
X113371333Y-102983452D01*
X113466571Y-102935833D01*
X113561809Y-102935833D01*
X113657047Y-103412023D01*
X113942761Y-102554880D02*
X113990380Y-102459642D01*
X113990380Y-102269166D01*
X113942761Y-102173928D01*
X113847523Y-102126309D01*
X113799904Y-102126309D01*
X113704666Y-102173928D01*
X113657047Y-102269166D01*
X113657047Y-102412023D01*
X113609428Y-102507261D01*
X113514190Y-102554880D01*
X113466571Y-102554880D01*
X113371333Y-102507261D01*
X113323714Y-102412023D01*
X113323714Y-102269166D01*
X113371333Y-102173928D01*
X113466571Y-100602500D02*
X113514190Y-100459642D01*
X113561809Y-100412023D01*
X113657047Y-100364404D01*
X113799904Y-100364404D01*
X113895142Y-100412023D01*
X113942761Y-100459642D01*
X113990380Y-100554880D01*
X113990380Y-100935833D01*
X112990380Y-100935833D01*
X112990380Y-100602500D01*
X113038000Y-100507261D01*
X113085619Y-100459642D01*
X113180857Y-100412023D01*
X113276095Y-100412023D01*
X113371333Y-100459642D01*
X113418952Y-100507261D01*
X113466571Y-100602500D01*
X113466571Y-100935833D01*
X123499571Y-82925214D02*
X123499571Y-82625214D01*
X124023380Y-82496642D02*
X124023380Y-82925214D01*
X123023380Y-82925214D01*
X123023380Y-82496642D01*
X123356714Y-82110928D02*
X124023380Y-82110928D01*
X123451952Y-82110928D02*
X123404333Y-82068071D01*
X123356714Y-81982357D01*
X123356714Y-81853785D01*
X123404333Y-81768071D01*
X123499571Y-81725214D01*
X124023380Y-81725214D01*
X124023380Y-80910928D02*
X123499571Y-80910928D01*
X123404333Y-80953785D01*
X123356714Y-81039500D01*
X123356714Y-81210928D01*
X123404333Y-81296642D01*
X123975761Y-80910928D02*
X124023380Y-80996642D01*
X124023380Y-81210928D01*
X123975761Y-81296642D01*
X123880523Y-81339500D01*
X123785285Y-81339500D01*
X123690047Y-81296642D01*
X123642428Y-81210928D01*
X123642428Y-80996642D01*
X123594809Y-80910928D01*
X123928142Y-80482357D02*
X123975761Y-80439500D01*
X124023380Y-80482357D01*
X123975761Y-80525214D01*
X123928142Y-80482357D01*
X124023380Y-80482357D01*
X139263380Y-82901404D02*
X138263380Y-82901404D01*
X138263380Y-82663309D01*
X138311000Y-82520452D01*
X138406238Y-82425214D01*
X138501476Y-82377595D01*
X138691952Y-82329976D01*
X138834809Y-82329976D01*
X139025285Y-82377595D01*
X139120523Y-82425214D01*
X139215761Y-82520452D01*
X139263380Y-82663309D01*
X139263380Y-82901404D01*
X138263380Y-81425214D02*
X138263380Y-81901404D01*
X138739571Y-81949023D01*
X138691952Y-81901404D01*
X138644333Y-81806166D01*
X138644333Y-81568071D01*
X138691952Y-81472833D01*
X138739571Y-81425214D01*
X138834809Y-81377595D01*
X139072904Y-81377595D01*
X139168142Y-81425214D01*
X139215761Y-81472833D01*
X139263380Y-81568071D01*
X139263380Y-81806166D01*
X139215761Y-81901404D01*
X139168142Y-81949023D01*
X133637857Y-93051380D02*
X133637857Y-93765666D01*
X133595000Y-93908523D01*
X133509285Y-94003761D01*
X133380714Y-94051380D01*
X133295000Y-94051380D01*
X134495000Y-94051380D02*
X134066428Y-94051380D01*
X134066428Y-93051380D01*
X135309285Y-93956142D02*
X135266428Y-94003761D01*
X135137857Y-94051380D01*
X135052142Y-94051380D01*
X134923571Y-94003761D01*
X134837857Y-93908523D01*
X134795000Y-93813285D01*
X134752142Y-93622809D01*
X134752142Y-93479952D01*
X134795000Y-93289476D01*
X134837857Y-93194238D01*
X134923571Y-93099000D01*
X135052142Y-93051380D01*
X135137857Y-93051380D01*
X135266428Y-93099000D01*
X135309285Y-93146619D01*
X135952142Y-93051380D02*
X135952142Y-93765666D01*
X135909285Y-93908523D01*
X135823571Y-94003761D01*
X135695000Y-94051380D01*
X135609285Y-94051380D01*
X136809285Y-94051380D02*
X136380714Y-94051380D01*
X136380714Y-93051380D01*
X137623571Y-93956142D02*
X137580714Y-94003761D01*
X137452142Y-94051380D01*
X137366428Y-94051380D01*
X137237857Y-94003761D01*
X137152142Y-93908523D01*
X137109285Y-93813285D01*
X137066428Y-93622809D01*
X137066428Y-93479952D01*
X137109285Y-93289476D01*
X137152142Y-93194238D01*
X137237857Y-93099000D01*
X137366428Y-93051380D01*
X137452142Y-93051380D01*
X137580714Y-93099000D01*
X137623571Y-93146619D01*
X138266428Y-93051380D02*
X138266428Y-93765666D01*
X138223571Y-93908523D01*
X138137857Y-94003761D01*
X138009285Y-94051380D01*
X137923571Y-94051380D01*
X139123571Y-94051380D02*
X138695000Y-94051380D01*
X138695000Y-93051380D01*
X139937857Y-93956142D02*
X139895000Y-94003761D01*
X139766428Y-94051380D01*
X139680714Y-94051380D01*
X139552142Y-94003761D01*
X139466428Y-93908523D01*
X139423571Y-93813285D01*
X139380714Y-93622809D01*
X139380714Y-93479952D01*
X139423571Y-93289476D01*
X139466428Y-93194238D01*
X139552142Y-93099000D01*
X139680714Y-93051380D01*
X139766428Y-93051380D01*
X139895000Y-93099000D01*
X139937857Y-93146619D01*
X140580714Y-93051380D02*
X140580714Y-93765666D01*
X140537857Y-93908523D01*
X140452142Y-94003761D01*
X140323571Y-94051380D01*
X140237857Y-94051380D01*
X141437857Y-94051380D02*
X141009285Y-94051380D01*
X141009285Y-93051380D01*
X142252142Y-93956142D02*
X142209285Y-94003761D01*
X142080714Y-94051380D01*
X141995000Y-94051380D01*
X141866428Y-94003761D01*
X141780714Y-93908523D01*
X141737857Y-93813285D01*
X141695000Y-93622809D01*
X141695000Y-93479952D01*
X141737857Y-93289476D01*
X141780714Y-93194238D01*
X141866428Y-93099000D01*
X141995000Y-93051380D01*
X142080714Y-93051380D01*
X142209285Y-93099000D01*
X142252142Y-93146619D01*
X141930380Y-82901404D02*
X140930380Y-82901404D01*
X140930380Y-82663309D01*
X140978000Y-82520452D01*
X141073238Y-82425214D01*
X141168476Y-82377595D01*
X141358952Y-82329976D01*
X141501809Y-82329976D01*
X141692285Y-82377595D01*
X141787523Y-82425214D01*
X141882761Y-82520452D01*
X141930380Y-82663309D01*
X141930380Y-82901404D01*
X140930380Y-81472833D02*
X140930380Y-81663309D01*
X140978000Y-81758547D01*
X141025619Y-81806166D01*
X141168476Y-81901404D01*
X141358952Y-81949023D01*
X141739904Y-81949023D01*
X141835142Y-81901404D01*
X141882761Y-81853785D01*
X141930380Y-81758547D01*
X141930380Y-81568071D01*
X141882761Y-81472833D01*
X141835142Y-81425214D01*
X141739904Y-81377595D01*
X141501809Y-81377595D01*
X141406571Y-81425214D01*
X141358952Y-81472833D01*
X141311333Y-81568071D01*
X141311333Y-81758547D01*
X141358952Y-81853785D01*
X141406571Y-81901404D01*
X141501809Y-81949023D01*
X159805666Y-82822023D02*
X159805666Y-82345833D01*
X160091380Y-82917261D02*
X159091380Y-82583928D01*
X160091380Y-82250595D01*
X136675761Y-104412023D02*
X136723380Y-104269166D01*
X136723380Y-104031071D01*
X136675761Y-103935833D01*
X136628142Y-103888214D01*
X136532904Y-103840595D01*
X136437666Y-103840595D01*
X136342428Y-103888214D01*
X136294809Y-103935833D01*
X136247190Y-104031071D01*
X136199571Y-104221547D01*
X136151952Y-104316785D01*
X136104333Y-104364404D01*
X136009095Y-104412023D01*
X135913857Y-104412023D01*
X135818619Y-104364404D01*
X135771000Y-104316785D01*
X135723380Y-104221547D01*
X135723380Y-103983452D01*
X135771000Y-103840595D01*
X136723380Y-103412023D02*
X135723380Y-103412023D01*
X136723380Y-102983452D02*
X136199571Y-102983452D01*
X136104333Y-103031071D01*
X136056714Y-103126309D01*
X136056714Y-103269166D01*
X136104333Y-103364404D01*
X136151952Y-103412023D01*
X136723380Y-102507261D02*
X136056714Y-102507261D01*
X135723380Y-102507261D02*
X135771000Y-102554880D01*
X135818619Y-102507261D01*
X135771000Y-102459642D01*
X135723380Y-102507261D01*
X135818619Y-102507261D01*
X136675761Y-101650119D02*
X136723380Y-101745357D01*
X136723380Y-101935833D01*
X136675761Y-102031071D01*
X136580523Y-102078690D01*
X136199571Y-102078690D01*
X136104333Y-102031071D01*
X136056714Y-101935833D01*
X136056714Y-101745357D01*
X136104333Y-101650119D01*
X136199571Y-101602500D01*
X136294809Y-101602500D01*
X136390047Y-102078690D01*
X136723380Y-101031071D02*
X136675761Y-101126309D01*
X136580523Y-101173928D01*
X135723380Y-101173928D01*
X136723380Y-100221547D02*
X135723380Y-100221547D01*
X136675761Y-100221547D02*
X136723380Y-100316785D01*
X136723380Y-100507261D01*
X136675761Y-100602500D01*
X136628142Y-100650119D01*
X136532904Y-100697738D01*
X136247190Y-100697738D01*
X136151952Y-100650119D01*
X136104333Y-100602500D01*
X136056714Y-100507261D01*
X136056714Y-100316785D01*
X136104333Y-100221547D01*
X113038000Y-82326785D02*
X112990380Y-82412500D01*
X112990380Y-82541071D01*
X113038000Y-82669642D01*
X113133238Y-82755357D01*
X113228476Y-82798214D01*
X113418952Y-82841071D01*
X113561809Y-82841071D01*
X113752285Y-82798214D01*
X113847523Y-82755357D01*
X113942761Y-82669642D01*
X113990380Y-82541071D01*
X113990380Y-82455357D01*
X113942761Y-82326785D01*
X113895142Y-82283928D01*
X113561809Y-82283928D01*
X113561809Y-82455357D01*
X113990380Y-81898214D02*
X112990380Y-81898214D01*
X113990380Y-81383928D01*
X112990380Y-81383928D01*
X113990380Y-80955357D02*
X112990380Y-80955357D01*
X112990380Y-80741071D01*
X113038000Y-80612500D01*
X113133238Y-80526785D01*
X113228476Y-80483928D01*
X113418952Y-80441071D01*
X113561809Y-80441071D01*
X113752285Y-80483928D01*
X113847523Y-80526785D01*
X113942761Y-80612500D01*
X113990380Y-80741071D01*
X113990380Y-80955357D01*
X113688761Y-110476166D02*
X113736380Y-110380928D01*
X113736380Y-110190452D01*
X113688761Y-110095214D01*
X113593523Y-110047595D01*
X113545904Y-110047595D01*
X113450666Y-110095214D01*
X113403047Y-110190452D01*
X113403047Y-110333309D01*
X113355428Y-110428547D01*
X113260190Y-110476166D01*
X113212571Y-110476166D01*
X113117333Y-110428547D01*
X113069714Y-110333309D01*
X113069714Y-110190452D01*
X113117333Y-110095214D01*
X113069714Y-109714261D02*
X113736380Y-109523785D01*
X113260190Y-109333309D01*
X113736380Y-109142833D01*
X113069714Y-108952357D01*
X146597666Y-82822023D02*
X146597666Y-82345833D01*
X146883380Y-82917261D02*
X145883380Y-82583928D01*
X146883380Y-82250595D01*
X146502428Y-81917261D02*
X146502428Y-81155357D01*
X146883380Y-81536309D02*
X146121476Y-81536309D01*
X126563380Y-82901404D02*
X125563380Y-82901404D01*
X126563380Y-82329976D01*
X125563380Y-82329976D01*
X126468142Y-81282357D02*
X126515761Y-81329976D01*
X126563380Y-81472833D01*
X126563380Y-81568071D01*
X126515761Y-81710928D01*
X126420523Y-81806166D01*
X126325285Y-81853785D01*
X126134809Y-81901404D01*
X125991952Y-81901404D01*
X125801476Y-81853785D01*
X125706238Y-81806166D01*
X125611000Y-81710928D01*
X125563380Y-81568071D01*
X125563380Y-81472833D01*
X125611000Y-81329976D01*
X125658619Y-81282357D01*
X118546571Y-104031071D02*
X118594190Y-103888214D01*
X118641809Y-103840595D01*
X118737047Y-103792976D01*
X118879904Y-103792976D01*
X118975142Y-103840595D01*
X119022761Y-103888214D01*
X119070380Y-103983452D01*
X119070380Y-104364404D01*
X118070380Y-104364404D01*
X118070380Y-104031071D01*
X118118000Y-103935833D01*
X118165619Y-103888214D01*
X118260857Y-103840595D01*
X118356095Y-103840595D01*
X118451333Y-103888214D01*
X118498952Y-103935833D01*
X118546571Y-104031071D01*
X118546571Y-104364404D01*
X119070380Y-102935833D02*
X118546571Y-102935833D01*
X118451333Y-102983452D01*
X118403714Y-103078690D01*
X118403714Y-103269166D01*
X118451333Y-103364404D01*
X119022761Y-102935833D02*
X119070380Y-103031071D01*
X119070380Y-103269166D01*
X119022761Y-103364404D01*
X118927523Y-103412023D01*
X118832285Y-103412023D01*
X118737047Y-103364404D01*
X118689428Y-103269166D01*
X118689428Y-103031071D01*
X118641809Y-102935833D01*
X119022761Y-102031071D02*
X119070380Y-102126309D01*
X119070380Y-102316785D01*
X119022761Y-102412023D01*
X118975142Y-102459642D01*
X118879904Y-102507261D01*
X118594190Y-102507261D01*
X118498952Y-102459642D01*
X118451333Y-102412023D01*
X118403714Y-102316785D01*
X118403714Y-102126309D01*
X118451333Y-102031071D01*
X119070380Y-101602500D02*
X118070380Y-101602500D01*
X118689428Y-101507261D02*
X119070380Y-101221547D01*
X118403714Y-101221547D02*
X118784666Y-101602500D01*
X119070380Y-100650119D02*
X119022761Y-100745357D01*
X118927523Y-100792976D01*
X118070380Y-100792976D01*
X119070380Y-100269166D02*
X118403714Y-100269166D01*
X118070380Y-100269166D02*
X118118000Y-100316785D01*
X118165619Y-100269166D01*
X118118000Y-100221547D01*
X118070380Y-100269166D01*
X118165619Y-100269166D01*
X118403714Y-99364404D02*
X119213238Y-99364404D01*
X119308476Y-99412023D01*
X119356095Y-99459642D01*
X119403714Y-99554880D01*
X119403714Y-99697738D01*
X119356095Y-99792976D01*
X119022761Y-99364404D02*
X119070380Y-99459642D01*
X119070380Y-99650119D01*
X119022761Y-99745357D01*
X118975142Y-99792976D01*
X118879904Y-99840595D01*
X118594190Y-99840595D01*
X118498952Y-99792976D01*
X118451333Y-99745357D01*
X118403714Y-99650119D01*
X118403714Y-99459642D01*
X118451333Y-99364404D01*
X119070380Y-98888214D02*
X118070380Y-98888214D01*
X119070380Y-98459642D02*
X118546571Y-98459642D01*
X118451333Y-98507261D01*
X118403714Y-98602500D01*
X118403714Y-98745357D01*
X118451333Y-98840595D01*
X118498952Y-98888214D01*
X118403714Y-98126309D02*
X118403714Y-97745357D01*
X118070380Y-97983452D02*
X118927523Y-97983452D01*
X119022761Y-97935833D01*
X119070380Y-97840595D01*
X119070380Y-97745357D01*
X118070380Y-96459642D02*
X118070380Y-96269166D01*
X118118000Y-96173928D01*
X118213238Y-96078690D01*
X118403714Y-96031071D01*
X118737047Y-96031071D01*
X118927523Y-96078690D01*
X119022761Y-96173928D01*
X119070380Y-96269166D01*
X119070380Y-96459642D01*
X119022761Y-96554880D01*
X118927523Y-96650119D01*
X118737047Y-96697738D01*
X118403714Y-96697738D01*
X118213238Y-96650119D01*
X118118000Y-96554880D01*
X118070380Y-96459642D01*
X118403714Y-95602500D02*
X119070380Y-95602500D01*
X118498952Y-95602500D02*
X118451333Y-95554880D01*
X118403714Y-95459642D01*
X118403714Y-95316785D01*
X118451333Y-95221547D01*
X118546571Y-95173928D01*
X119070380Y-95173928D01*
X136850380Y-82901404D02*
X135850380Y-82901404D01*
X135850380Y-82663309D01*
X135898000Y-82520452D01*
X135993238Y-82425214D01*
X136088476Y-82377595D01*
X136278952Y-82329976D01*
X136421809Y-82329976D01*
X136612285Y-82377595D01*
X136707523Y-82425214D01*
X136802761Y-82520452D01*
X136850380Y-82663309D01*
X136850380Y-82901404D01*
X136183714Y-81472833D02*
X136850380Y-81472833D01*
X135802761Y-81710928D02*
X136517047Y-81949023D01*
X136517047Y-81329976D01*
X134183380Y-82901404D02*
X133183380Y-82901404D01*
X134183380Y-82329976D01*
X133183380Y-82329976D01*
X134088142Y-81282357D02*
X134135761Y-81329976D01*
X134183380Y-81472833D01*
X134183380Y-81568071D01*
X134135761Y-81710928D01*
X134040523Y-81806166D01*
X133945285Y-81853785D01*
X133754809Y-81901404D01*
X133611952Y-81901404D01*
X133421476Y-81853785D01*
X133326238Y-81806166D01*
X133231000Y-81710928D01*
X133183380Y-81568071D01*
X133183380Y-81472833D01*
X133231000Y-81329976D01*
X133278619Y-81282357D01*
X138676666Y-107962380D02*
X139248095Y-107962380D01*
X138962380Y-108962380D02*
X138962380Y-107962380D01*
X139724285Y-108962380D02*
X139629047Y-108914761D01*
X139581428Y-108867142D01*
X139533809Y-108771904D01*
X139533809Y-108486190D01*
X139581428Y-108390952D01*
X139629047Y-108343333D01*
X139724285Y-108295714D01*
X139867142Y-108295714D01*
X139962380Y-108343333D01*
X140010000Y-108390952D01*
X140057619Y-108486190D01*
X140057619Y-108771904D01*
X140010000Y-108867142D01*
X139962380Y-108914761D01*
X139867142Y-108962380D01*
X139724285Y-108962380D01*
X141819523Y-108867142D02*
X141771904Y-108914761D01*
X141629047Y-108962380D01*
X141533809Y-108962380D01*
X141390952Y-108914761D01*
X141295714Y-108819523D01*
X141248095Y-108724285D01*
X141200476Y-108533809D01*
X141200476Y-108390952D01*
X141248095Y-108200476D01*
X141295714Y-108105238D01*
X141390952Y-108010000D01*
X141533809Y-107962380D01*
X141629047Y-107962380D01*
X141771904Y-108010000D01*
X141819523Y-108057619D01*
X142390952Y-108962380D02*
X142295714Y-108914761D01*
X142248095Y-108867142D01*
X142200476Y-108771904D01*
X142200476Y-108486190D01*
X142248095Y-108390952D01*
X142295714Y-108343333D01*
X142390952Y-108295714D01*
X142533809Y-108295714D01*
X142629047Y-108343333D01*
X142676666Y-108390952D01*
X142724285Y-108486190D01*
X142724285Y-108771904D01*
X142676666Y-108867142D01*
X142629047Y-108914761D01*
X142533809Y-108962380D01*
X142390952Y-108962380D01*
X143152857Y-108295714D02*
X143152857Y-108962380D01*
X143152857Y-108390952D02*
X143200476Y-108343333D01*
X143295714Y-108295714D01*
X143438571Y-108295714D01*
X143533809Y-108343333D01*
X143581428Y-108438571D01*
X143581428Y-108962380D01*
X143914761Y-108295714D02*
X144295714Y-108295714D01*
X144057619Y-107962380D02*
X144057619Y-108819523D01*
X144105238Y-108914761D01*
X144200476Y-108962380D01*
X144295714Y-108962380D01*
X144629047Y-108962380D02*
X144629047Y-108295714D01*
X144629047Y-108486190D02*
X144676666Y-108390952D01*
X144724285Y-108343333D01*
X144819523Y-108295714D01*
X144914761Y-108295714D01*
X145390952Y-108962380D02*
X145295714Y-108914761D01*
X145248095Y-108867142D01*
X145200476Y-108771904D01*
X145200476Y-108486190D01*
X145248095Y-108390952D01*
X145295714Y-108343333D01*
X145390952Y-108295714D01*
X145533809Y-108295714D01*
X145629047Y-108343333D01*
X145676666Y-108390952D01*
X145724285Y-108486190D01*
X145724285Y-108771904D01*
X145676666Y-108867142D01*
X145629047Y-108914761D01*
X145533809Y-108962380D01*
X145390952Y-108962380D01*
X146295714Y-108962380D02*
X146200476Y-108914761D01*
X146152857Y-108819523D01*
X146152857Y-107962380D01*
X146819523Y-108962380D02*
X146724285Y-108914761D01*
X146676666Y-108819523D01*
X146676666Y-107962380D01*
X147581428Y-108914761D02*
X147486190Y-108962380D01*
X147295714Y-108962380D01*
X147200476Y-108914761D01*
X147152857Y-108819523D01*
X147152857Y-108438571D01*
X147200476Y-108343333D01*
X147295714Y-108295714D01*
X147486190Y-108295714D01*
X147581428Y-108343333D01*
X147629047Y-108438571D01*
X147629047Y-108533809D01*
X147152857Y-108629047D01*
X148057619Y-108962380D02*
X148057619Y-108295714D01*
X148057619Y-108486190D02*
X148105238Y-108390952D01*
X148152857Y-108343333D01*
X148248095Y-108295714D01*
X148343333Y-108295714D01*
X149328142Y-82329976D02*
X149375761Y-82377595D01*
X149423380Y-82520452D01*
X149423380Y-82615690D01*
X149375761Y-82758547D01*
X149280523Y-82853785D01*
X149185285Y-82901404D01*
X148994809Y-82949023D01*
X148851952Y-82949023D01*
X148661476Y-82901404D01*
X148566238Y-82853785D01*
X148471000Y-82758547D01*
X148423380Y-82615690D01*
X148423380Y-82520452D01*
X148471000Y-82377595D01*
X148518619Y-82329976D01*
X149042428Y-81901404D02*
X149042428Y-81139500D01*
X151466952Y-95643571D02*
X151581238Y-95691190D01*
X151619333Y-95738809D01*
X151657428Y-95834047D01*
X151657428Y-95976904D01*
X151619333Y-96072142D01*
X151581238Y-96119761D01*
X151505047Y-96167380D01*
X151200285Y-96167380D01*
X151200285Y-95167380D01*
X151466952Y-95167380D01*
X151543142Y-95215000D01*
X151581238Y-95262619D01*
X151619333Y-95357857D01*
X151619333Y-95453095D01*
X151581238Y-95548333D01*
X151543142Y-95595952D01*
X151466952Y-95643571D01*
X151200285Y-95643571D01*
X152305047Y-96119761D02*
X152228857Y-96167380D01*
X152076476Y-96167380D01*
X152000285Y-96119761D01*
X151962190Y-96024523D01*
X151962190Y-95643571D01*
X152000285Y-95548333D01*
X152076476Y-95500714D01*
X152228857Y-95500714D01*
X152305047Y-95548333D01*
X152343142Y-95643571D01*
X152343142Y-95738809D01*
X151962190Y-95834047D01*
X152800285Y-96167380D02*
X152724095Y-96119761D01*
X152686000Y-96024523D01*
X152686000Y-95167380D01*
X153409809Y-96119761D02*
X153333619Y-96167380D01*
X153181238Y-96167380D01*
X153105047Y-96119761D01*
X153066952Y-96024523D01*
X153066952Y-95643571D01*
X153105047Y-95548333D01*
X153181238Y-95500714D01*
X153333619Y-95500714D01*
X153409809Y-95548333D01*
X153447904Y-95643571D01*
X153447904Y-95738809D01*
X153066952Y-95834047D01*
X154133619Y-95500714D02*
X154133619Y-96167380D01*
X153790761Y-95500714D02*
X153790761Y-96024523D01*
X153828857Y-96119761D01*
X153905047Y-96167380D01*
X154019333Y-96167380D01*
X154095523Y-96119761D01*
X154133619Y-96072142D01*
X154857428Y-96119761D02*
X154781238Y-96167380D01*
X154628857Y-96167380D01*
X154552666Y-96119761D01*
X154514571Y-96072142D01*
X154476476Y-95976904D01*
X154476476Y-95691190D01*
X154514571Y-95595952D01*
X154552666Y-95548333D01*
X154628857Y-95500714D01*
X154781238Y-95500714D01*
X154857428Y-95548333D01*
X155200285Y-96167380D02*
X155200285Y-95167380D01*
X155543142Y-96167380D02*
X155543142Y-95643571D01*
X155505047Y-95548333D01*
X155428857Y-95500714D01*
X155314571Y-95500714D01*
X155238380Y-95548333D01*
X155200285Y-95595952D01*
X155809809Y-95500714D02*
X156114571Y-95500714D01*
X155924095Y-95167380D02*
X155924095Y-96024523D01*
X155962190Y-96119761D01*
X156038380Y-96167380D01*
X156114571Y-96167380D01*
X156724095Y-95500714D02*
X156724095Y-96167380D01*
X156381238Y-95500714D02*
X156381238Y-96024523D01*
X156419333Y-96119761D01*
X156495523Y-96167380D01*
X156609809Y-96167380D01*
X156686000Y-96119761D01*
X156724095Y-96072142D01*
X157105047Y-95500714D02*
X157105047Y-96167380D01*
X157105047Y-95595952D02*
X157143142Y-95548333D01*
X157219333Y-95500714D01*
X157333619Y-95500714D01*
X157409809Y-95548333D01*
X157447904Y-95643571D01*
X157447904Y-96167380D01*
X158171714Y-95500714D02*
X158171714Y-96310238D01*
X158133619Y-96405476D01*
X158095523Y-96453095D01*
X158019333Y-96500714D01*
X157905047Y-96500714D01*
X157828857Y-96453095D01*
X158171714Y-96119761D02*
X158095523Y-96167380D01*
X157943142Y-96167380D01*
X157866952Y-96119761D01*
X157828857Y-96072142D01*
X157790761Y-95976904D01*
X157790761Y-95691190D01*
X157828857Y-95595952D01*
X157866952Y-95548333D01*
X157943142Y-95500714D01*
X158095523Y-95500714D01*
X158171714Y-95548333D01*
X150533619Y-97110714D02*
X150533619Y-98110714D01*
X150533619Y-97158333D02*
X150609809Y-97110714D01*
X150762190Y-97110714D01*
X150838380Y-97158333D01*
X150876476Y-97205952D01*
X150914571Y-97301190D01*
X150914571Y-97586904D01*
X150876476Y-97682142D01*
X150838380Y-97729761D01*
X150762190Y-97777380D01*
X150609809Y-97777380D01*
X150533619Y-97729761D01*
X151562190Y-97729761D02*
X151486000Y-97777380D01*
X151333619Y-97777380D01*
X151257428Y-97729761D01*
X151219333Y-97634523D01*
X151219333Y-97253571D01*
X151257428Y-97158333D01*
X151333619Y-97110714D01*
X151486000Y-97110714D01*
X151562190Y-97158333D01*
X151600285Y-97253571D01*
X151600285Y-97348809D01*
X151219333Y-97444047D01*
X151943142Y-97777380D02*
X151943142Y-97110714D01*
X151943142Y-97301190D02*
X151981238Y-97205952D01*
X152019333Y-97158333D01*
X152095523Y-97110714D01*
X152171714Y-97110714D01*
X152438380Y-97777380D02*
X152438380Y-97110714D01*
X152438380Y-97205952D02*
X152476476Y-97158333D01*
X152552666Y-97110714D01*
X152666952Y-97110714D01*
X152743142Y-97158333D01*
X152781238Y-97253571D01*
X152781238Y-97777380D01*
X152781238Y-97253571D02*
X152819333Y-97158333D01*
X152895523Y-97110714D01*
X153009809Y-97110714D01*
X153086000Y-97158333D01*
X153124095Y-97253571D01*
X153124095Y-97777380D01*
X153847904Y-97777380D02*
X153847904Y-97253571D01*
X153809809Y-97158333D01*
X153733619Y-97110714D01*
X153581238Y-97110714D01*
X153505047Y-97158333D01*
X153847904Y-97729761D02*
X153771714Y-97777380D01*
X153581238Y-97777380D01*
X153505047Y-97729761D01*
X153466952Y-97634523D01*
X153466952Y-97539285D01*
X153505047Y-97444047D01*
X153581238Y-97396428D01*
X153771714Y-97396428D01*
X153847904Y-97348809D01*
X154228857Y-97110714D02*
X154228857Y-97777380D01*
X154228857Y-97205952D02*
X154266952Y-97158333D01*
X154343142Y-97110714D01*
X154457428Y-97110714D01*
X154533619Y-97158333D01*
X154571714Y-97253571D01*
X154571714Y-97777380D01*
X155257428Y-97729761D02*
X155181238Y-97777380D01*
X155028857Y-97777380D01*
X154952666Y-97729761D01*
X154914571Y-97634523D01*
X154914571Y-97253571D01*
X154952666Y-97158333D01*
X155028857Y-97110714D01*
X155181238Y-97110714D01*
X155257428Y-97158333D01*
X155295523Y-97253571D01*
X155295523Y-97348809D01*
X154914571Y-97444047D01*
X155638380Y-97110714D02*
X155638380Y-97777380D01*
X155638380Y-97205952D02*
X155676476Y-97158333D01*
X155752666Y-97110714D01*
X155866952Y-97110714D01*
X155943142Y-97158333D01*
X155981238Y-97253571D01*
X155981238Y-97777380D01*
X156247904Y-97110714D02*
X156552666Y-97110714D01*
X156362190Y-96777380D02*
X156362190Y-97634523D01*
X156400285Y-97729761D01*
X156476476Y-97777380D01*
X156552666Y-97777380D01*
X157733619Y-97729761D02*
X157657428Y-97777380D01*
X157505047Y-97777380D01*
X157428857Y-97729761D01*
X157390761Y-97634523D01*
X157390761Y-97253571D01*
X157428857Y-97158333D01*
X157505047Y-97110714D01*
X157657428Y-97110714D01*
X157733619Y-97158333D01*
X157771714Y-97253571D01*
X157771714Y-97348809D01*
X157390761Y-97444047D01*
X158114571Y-97777380D02*
X158114571Y-97110714D01*
X158114571Y-96777380D02*
X158076476Y-96825000D01*
X158114571Y-96872619D01*
X158152666Y-96825000D01*
X158114571Y-96777380D01*
X158114571Y-96872619D01*
X158495523Y-97110714D02*
X158495523Y-97777380D01*
X158495523Y-97205952D02*
X158533619Y-97158333D01*
X158609809Y-97110714D01*
X158724095Y-97110714D01*
X158800285Y-97158333D01*
X158838380Y-97253571D01*
X158838380Y-97777380D01*
X144343380Y-82901404D02*
X143343380Y-82901404D01*
X143343380Y-82663309D01*
X143391000Y-82520452D01*
X143486238Y-82425214D01*
X143581476Y-82377595D01*
X143771952Y-82329976D01*
X143914809Y-82329976D01*
X144105285Y-82377595D01*
X144200523Y-82425214D01*
X144295761Y-82520452D01*
X144343380Y-82663309D01*
X144343380Y-82901404D01*
X143343380Y-81996642D02*
X143343380Y-81329976D01*
X144343380Y-81758547D01*
%TO.C,J2*%
X107402380Y-85221333D02*
X108116666Y-85221333D01*
X108259523Y-85268952D01*
X108354761Y-85364190D01*
X108402380Y-85507047D01*
X108402380Y-85602285D01*
X107497619Y-84792761D02*
X107450000Y-84745142D01*
X107402380Y-84649904D01*
X107402380Y-84411809D01*
X107450000Y-84316571D01*
X107497619Y-84268952D01*
X107592857Y-84221333D01*
X107688095Y-84221333D01*
X107830952Y-84268952D01*
X108402380Y-84840380D01*
X108402380Y-84221333D01*
%TO.C,RV1*%
X108656380Y-92410238D02*
X108180190Y-92743571D01*
X108656380Y-92981666D02*
X107656380Y-92981666D01*
X107656380Y-92600714D01*
X107704000Y-92505476D01*
X107751619Y-92457857D01*
X107846857Y-92410238D01*
X107989714Y-92410238D01*
X108084952Y-92457857D01*
X108132571Y-92505476D01*
X108180190Y-92600714D01*
X108180190Y-92981666D01*
X107656380Y-92124523D02*
X108656380Y-91791190D01*
X107656380Y-91457857D01*
X108656380Y-90600714D02*
X108656380Y-91172142D01*
X108656380Y-90886428D02*
X107656380Y-90886428D01*
X107799238Y-90981666D01*
X107894476Y-91076904D01*
X107942095Y-91172142D01*
%TO.C,U1*%
X130897380Y-98678904D02*
X131706904Y-98678904D01*
X131802142Y-98631285D01*
X131849761Y-98583666D01*
X131897380Y-98488428D01*
X131897380Y-98297952D01*
X131849761Y-98202714D01*
X131802142Y-98155095D01*
X131706904Y-98107476D01*
X130897380Y-98107476D01*
X131897380Y-97107476D02*
X131897380Y-97678904D01*
X131897380Y-97393190D02*
X130897380Y-97393190D01*
X131040238Y-97488428D01*
X131135476Y-97583666D01*
X131183095Y-97678904D01*
%TO.C,R6*%
X103830380Y-91658666D02*
X103354190Y-91992000D01*
X103830380Y-92230095D02*
X102830380Y-92230095D01*
X102830380Y-91849142D01*
X102878000Y-91753904D01*
X102925619Y-91706285D01*
X103020857Y-91658666D01*
X103163714Y-91658666D01*
X103258952Y-91706285D01*
X103306571Y-91753904D01*
X103354190Y-91849142D01*
X103354190Y-92230095D01*
X102830380Y-90801523D02*
X102830380Y-90992000D01*
X102878000Y-91087238D01*
X102925619Y-91134857D01*
X103068476Y-91230095D01*
X103258952Y-91277714D01*
X103639904Y-91277714D01*
X103735142Y-91230095D01*
X103782761Y-91182476D01*
X103830380Y-91087238D01*
X103830380Y-90896761D01*
X103782761Y-90801523D01*
X103735142Y-90753904D01*
X103639904Y-90706285D01*
X103401809Y-90706285D01*
X103306571Y-90753904D01*
X103258952Y-90801523D01*
X103211333Y-90896761D01*
X103211333Y-91087238D01*
X103258952Y-91182476D01*
X103306571Y-91230095D01*
X103401809Y-91277714D01*
%TO.C,J1*%
X138053380Y-106811333D02*
X138767666Y-106811333D01*
X138910523Y-106858952D01*
X139005761Y-106954190D01*
X139053380Y-107097047D01*
X139053380Y-107192285D01*
X139053380Y-105811333D02*
X139053380Y-106382761D01*
X139053380Y-106097047D02*
X138053380Y-106097047D01*
X138196238Y-106192285D01*
X138291476Y-106287523D01*
X138339095Y-106382761D01*
%TO.C,R7*%
X101544380Y-91658666D02*
X101068190Y-91992000D01*
X101544380Y-92230095D02*
X100544380Y-92230095D01*
X100544380Y-91849142D01*
X100592000Y-91753904D01*
X100639619Y-91706285D01*
X100734857Y-91658666D01*
X100877714Y-91658666D01*
X100972952Y-91706285D01*
X101020571Y-91753904D01*
X101068190Y-91849142D01*
X101068190Y-92230095D01*
X100544380Y-91325333D02*
X100544380Y-90658666D01*
X101544380Y-91087238D01*
%TO.C,JP1*%
X152614380Y-88971333D02*
X153328666Y-88971333D01*
X153471523Y-89018952D01*
X153566761Y-89114190D01*
X153614380Y-89257047D01*
X153614380Y-89352285D01*
X153614380Y-88495142D02*
X152614380Y-88495142D01*
X152614380Y-88114190D01*
X152662000Y-88018952D01*
X152709619Y-87971333D01*
X152804857Y-87923714D01*
X152947714Y-87923714D01*
X153042952Y-87971333D01*
X153090571Y-88018952D01*
X153138190Y-88114190D01*
X153138190Y-88495142D01*
X153614380Y-86971333D02*
X153614380Y-87542761D01*
X153614380Y-87257047D02*
X152614380Y-87257047D01*
X152757238Y-87352285D01*
X152852476Y-87447523D01*
X152900095Y-87542761D01*
%TO.C,J3*%
X154348380Y-85221333D02*
X155062666Y-85221333D01*
X155205523Y-85268952D01*
X155300761Y-85364190D01*
X155348380Y-85507047D01*
X155348380Y-85602285D01*
X154348380Y-84840380D02*
X154348380Y-84221333D01*
X154729333Y-84554666D01*
X154729333Y-84411809D01*
X154776952Y-84316571D01*
X154824571Y-84268952D01*
X154919809Y-84221333D01*
X155157904Y-84221333D01*
X155253142Y-84268952D01*
X155300761Y-84316571D01*
X155348380Y-84411809D01*
X155348380Y-84697523D01*
X155300761Y-84792761D01*
X155253142Y-84840380D01*
%TO.C,Q1*%
X150788619Y-88233238D02*
X150741000Y-88328476D01*
X150645761Y-88423714D01*
X150502904Y-88566571D01*
X150455285Y-88661809D01*
X150455285Y-88757047D01*
X150693380Y-88709428D02*
X150645761Y-88804666D01*
X150550523Y-88899904D01*
X150360047Y-88947523D01*
X150026714Y-88947523D01*
X149836238Y-88899904D01*
X149741000Y-88804666D01*
X149693380Y-88709428D01*
X149693380Y-88518952D01*
X149741000Y-88423714D01*
X149836238Y-88328476D01*
X150026714Y-88280857D01*
X150360047Y-88280857D01*
X150550523Y-88328476D01*
X150645761Y-88423714D01*
X150693380Y-88518952D01*
X150693380Y-88709428D01*
X150693380Y-87328476D02*
X150693380Y-87899904D01*
X150693380Y-87614190D02*
X149693380Y-87614190D01*
X149836238Y-87709428D01*
X149931476Y-87804666D01*
X149979095Y-87899904D01*
%TO.C,R5*%
X106370380Y-91658666D02*
X105894190Y-91992000D01*
X106370380Y-92230095D02*
X105370380Y-92230095D01*
X105370380Y-91849142D01*
X105418000Y-91753904D01*
X105465619Y-91706285D01*
X105560857Y-91658666D01*
X105703714Y-91658666D01*
X105798952Y-91706285D01*
X105846571Y-91753904D01*
X105894190Y-91849142D01*
X105894190Y-92230095D01*
X105370380Y-90753904D02*
X105370380Y-91230095D01*
X105846571Y-91277714D01*
X105798952Y-91230095D01*
X105751333Y-91134857D01*
X105751333Y-90896761D01*
X105798952Y-90801523D01*
X105846571Y-90753904D01*
X105941809Y-90706285D01*
X106179904Y-90706285D01*
X106275142Y-90753904D01*
X106322761Y-90801523D01*
X106370380Y-90896761D01*
X106370380Y-91134857D01*
X106322761Y-91230095D01*
X106275142Y-91277714D01*
%TO.C,C1*%
X129770142Y-91733666D02*
X129817761Y-91781285D01*
X129865380Y-91924142D01*
X129865380Y-92019380D01*
X129817761Y-92162238D01*
X129722523Y-92257476D01*
X129627285Y-92305095D01*
X129436809Y-92352714D01*
X129293952Y-92352714D01*
X129103476Y-92305095D01*
X129008238Y-92257476D01*
X128913000Y-92162238D01*
X128865380Y-92019380D01*
X128865380Y-91924142D01*
X128913000Y-91781285D01*
X128960619Y-91733666D01*
X129865380Y-90781285D02*
X129865380Y-91352714D01*
X129865380Y-91067000D02*
X128865380Y-91067000D01*
X129008238Y-91162238D01*
X129103476Y-91257476D01*
X129151095Y-91352714D01*
D12*
%TO.C,R2*%
X168121000Y-91010936D02*
X168121000Y-91465064D01*
X166651000Y-91010936D02*
X166651000Y-91465064D01*
%TO.C,J2*%
X150301000Y-86218000D02*
X150301000Y-83558000D01*
X110871000Y-86218000D02*
X109541000Y-86218000D01*
X112141000Y-83558000D02*
X150301000Y-83558000D01*
X112141000Y-86218000D02*
X112141000Y-83558000D01*
X112141000Y-86218000D02*
X150301000Y-86218000D01*
X109541000Y-86218000D02*
X109541000Y-84888000D01*
%TO.C,RV1*%
X113840000Y-97124000D02*
G75*
G03*
X115689829Y-92548032I-1064000J3092000D01*
G01*
X109506000Y-94032000D02*
G75*
G03*
X111711392Y-97123846I3270000J0D01*
G01*
X109862000Y-92547000D02*
G75*
G03*
X109505925Y-94088863I2914000J-1485000D01*
G01*
X114260000Y-91118001D02*
G75*
G03*
X111290798Y-91118613I-1484000J-2913999D01*
G01*
%TO.C,G\u002A\u002A\u002A*%
G36*
X157069692Y-97421923D02*
G01*
X157059923Y-97431692D01*
X157050154Y-97421923D01*
X157059923Y-97412154D01*
X157069692Y-97421923D01*
G37*
G36*
X167053846Y-97421923D02*
G01*
X167044077Y-97431692D01*
X167034307Y-97421923D01*
X167044077Y-97412154D01*
X167053846Y-97421923D01*
G37*
G36*
X160058418Y-104225846D02*
G01*
X160078233Y-104155428D01*
X160101598Y-104108651D01*
X160114470Y-104096946D01*
X160144712Y-104088125D01*
X160205774Y-104075068D01*
X160289825Y-104059295D01*
X160389033Y-104042325D01*
X160430307Y-104035684D01*
X160532028Y-104018805D01*
X160620399Y-104002625D01*
X160688008Y-103988617D01*
X160727438Y-103978255D01*
X160733763Y-103975384D01*
X160751366Y-103949269D01*
X160774670Y-103899148D01*
X160789498Y-103860884D01*
X160825086Y-103761919D01*
X160634960Y-103497189D01*
X160444835Y-103232460D01*
X160518863Y-103124974D01*
X160592508Y-103031376D01*
X160678045Y-102943561D01*
X160764888Y-102871478D01*
X160833679Y-102829104D01*
X160895128Y-102799487D01*
X161135256Y-102973090D01*
X161220796Y-103034757D01*
X161296247Y-103088824D01*
X161355412Y-103130875D01*
X161392095Y-103156494D01*
X161399861Y-103161637D01*
X161430198Y-103162393D01*
X161482999Y-103148342D01*
X161528876Y-103130350D01*
X161633413Y-103084119D01*
X161687440Y-102773482D01*
X161706677Y-102667408D01*
X161724951Y-102574856D01*
X161740786Y-102502711D01*
X161752704Y-102457858D01*
X161757575Y-102446673D01*
X161797682Y-102426352D01*
X161866674Y-102410651D01*
X161954562Y-102400185D01*
X162051360Y-102395570D01*
X162147080Y-102397424D01*
X162231734Y-102406361D01*
X162271577Y-102414964D01*
X162323457Y-102436379D01*
X162358137Y-102463300D01*
X162361544Y-102468585D01*
X162370640Y-102499264D01*
X162383988Y-102560598D01*
X162400008Y-102644606D01*
X162417121Y-102743302D01*
X162422820Y-102778240D01*
X162439527Y-102878514D01*
X162455139Y-102965278D01*
X162468222Y-103031059D01*
X162477346Y-103068385D01*
X162479391Y-103073427D01*
X162503046Y-103091392D01*
X162550582Y-103117171D01*
X162588463Y-103134837D01*
X162685310Y-103177376D01*
X162813155Y-103088305D01*
X162894000Y-103031693D01*
X162987574Y-102965746D01*
X163074840Y-102903884D01*
X163082188Y-102898653D01*
X163151832Y-102850392D01*
X163198809Y-102822586D01*
X163231356Y-102811772D01*
X163257709Y-102814487D01*
X163270421Y-102819507D01*
X163320840Y-102851724D01*
X163386133Y-102905992D01*
X163457333Y-102973400D01*
X163525472Y-103045041D01*
X163581583Y-103112003D01*
X163614762Y-103161611D01*
X163659586Y-103246104D01*
X163472024Y-103505359D01*
X163284463Y-103764613D01*
X163324167Y-103865960D01*
X163348328Y-103923945D01*
X163368471Y-103965861D01*
X163377128Y-103979143D01*
X163400256Y-103986317D01*
X163454699Y-103997914D01*
X163533130Y-104012521D01*
X163628225Y-104028724D01*
X163663923Y-104034484D01*
X163788986Y-104054293D01*
X163880990Y-104069524D01*
X163945373Y-104082302D01*
X163987573Y-104094755D01*
X164013026Y-104109009D01*
X164027172Y-104127191D01*
X164035449Y-104151429D01*
X164043016Y-104182753D01*
X164056784Y-104263905D01*
X164062847Y-104359343D01*
X164061787Y-104459279D01*
X164054186Y-104553924D01*
X164040627Y-104633489D01*
X164021691Y-104688184D01*
X164012175Y-104701486D01*
X163988257Y-104710034D01*
X163932598Y-104723210D01*
X163852063Y-104739588D01*
X163753517Y-104757745D01*
X163682561Y-104769906D01*
X163369195Y-104822080D01*
X163284329Y-105037696D01*
X163456254Y-105284040D01*
X163516832Y-105371095D01*
X163569914Y-105447860D01*
X163611247Y-105508148D01*
X163636580Y-105545771D01*
X163641965Y-105554234D01*
X163642052Y-105590545D01*
X163616533Y-105645001D01*
X163570448Y-105711498D01*
X163508834Y-105783931D01*
X163436729Y-105856198D01*
X163359172Y-105922193D01*
X163307714Y-105959173D01*
X163225043Y-106013783D01*
X162960067Y-105823480D01*
X162695091Y-105633178D01*
X162607651Y-105666572D01*
X162549834Y-105691880D01*
X162505475Y-105716973D01*
X162494408Y-105725767D01*
X162480887Y-105754825D01*
X162464325Y-105813434D01*
X162447036Y-105892438D01*
X162434368Y-105963361D01*
X162412627Y-106095767D01*
X162395154Y-106194831D01*
X162380417Y-106265856D01*
X162366885Y-106314143D01*
X162353025Y-106344996D01*
X162337306Y-106363716D01*
X162318196Y-106375607D01*
X162314823Y-106377183D01*
X162261351Y-106391882D01*
X162181668Y-106402631D01*
X162088502Y-106408787D01*
X161994580Y-106409709D01*
X161912626Y-106404752D01*
X161877218Y-106399278D01*
X161818712Y-106382851D01*
X161774882Y-106363242D01*
X161765577Y-106356251D01*
X161753688Y-106329069D01*
X161737430Y-106270691D01*
X161718575Y-106188516D01*
X161698889Y-106089939D01*
X161689562Y-106038384D01*
X161670471Y-105934690D01*
X161651950Y-105843936D01*
X161635637Y-105773467D01*
X161623171Y-105730629D01*
X161618969Y-105721955D01*
X161590073Y-105702535D01*
X161538121Y-105679174D01*
X161505161Y-105667233D01*
X161410715Y-105635863D01*
X160893409Y-106006901D01*
X160823050Y-105970439D01*
X160773304Y-105936536D01*
X160708454Y-105881415D01*
X160637949Y-105814260D01*
X160571235Y-105744254D01*
X160517763Y-105680581D01*
X160501516Y-105657921D01*
X160477905Y-105611884D01*
X160469384Y-105577035D01*
X160480265Y-105550468D01*
X160510269Y-105498673D01*
X160555438Y-105427953D01*
X160611814Y-105344613D01*
X160645230Y-105296992D01*
X160705649Y-105211158D01*
X160757108Y-105136513D01*
X160795719Y-105078822D01*
X160817590Y-105043852D01*
X160821077Y-105036332D01*
X160814141Y-105012306D01*
X160796286Y-104964436D01*
X160779748Y-104923427D01*
X160738419Y-104823714D01*
X160433836Y-104770708D01*
X160328048Y-104751342D01*
X160235090Y-104732527D01*
X160162159Y-104715858D01*
X160116453Y-104702935D01*
X160105280Y-104697806D01*
X160085239Y-104663859D01*
X160066203Y-104602420D01*
X160050697Y-104525047D01*
X160041248Y-104443294D01*
X160039538Y-104397153D01*
X160041763Y-104359348D01*
X161374858Y-104359348D01*
X161379892Y-104490049D01*
X161403250Y-104612127D01*
X161428744Y-104681353D01*
X161514654Y-104822645D01*
X161624399Y-104936232D01*
X161753295Y-105019946D01*
X161896657Y-105071620D01*
X162049800Y-105089086D01*
X162208039Y-105070178D01*
X162246835Y-105059814D01*
X162393735Y-104996827D01*
X162521685Y-104903122D01*
X162624963Y-104783968D01*
X162697850Y-104644633D01*
X162697992Y-104644258D01*
X162728435Y-104519447D01*
X162735121Y-104380580D01*
X162718793Y-104242305D01*
X162680197Y-104119268D01*
X162670255Y-104098525D01*
X162578843Y-103962313D01*
X162458413Y-103851137D01*
X162338618Y-103780133D01*
X162270474Y-103750620D01*
X162210606Y-103733332D01*
X162143413Y-103725186D01*
X162053294Y-103723093D01*
X162050236Y-103723092D01*
X161961105Y-103724825D01*
X161895904Y-103732114D01*
X161839561Y-103748069D01*
X161777005Y-103775797D01*
X161764385Y-103782047D01*
X161651029Y-103854505D01*
X161545704Y-103950662D01*
X161459929Y-104058888D01*
X161420601Y-104129140D01*
X161388358Y-104234290D01*
X161374858Y-104359348D01*
X160041763Y-104359348D01*
X160044679Y-104309792D01*
X160058418Y-104225846D01*
G37*
G36*
X157101184Y-102200911D02*
G01*
X157108746Y-102011668D01*
X157121138Y-101842791D01*
X157135805Y-101720384D01*
X157165134Y-101553179D01*
X157204458Y-101367689D01*
X157250778Y-101175774D01*
X157301096Y-100989290D01*
X157352416Y-100820097D01*
X157392945Y-100703111D01*
X157564784Y-100297843D01*
X157768773Y-99912960D01*
X158003170Y-99550027D01*
X158266238Y-99210612D01*
X158556235Y-98896282D01*
X158871423Y-98608603D01*
X159210063Y-98349142D01*
X159570414Y-98119466D01*
X159950738Y-97921141D01*
X160349294Y-97755735D01*
X160764343Y-97624813D01*
X160829573Y-97607826D01*
X161021299Y-97561447D01*
X161191985Y-97525637D01*
X161351895Y-97499174D01*
X161511292Y-97480835D01*
X161680442Y-97469399D01*
X161869609Y-97463644D01*
X162052000Y-97462306D01*
X162265988Y-97464225D01*
X162451314Y-97470795D01*
X162618243Y-97483239D01*
X162777039Y-97502778D01*
X162937967Y-97530635D01*
X163111291Y-97568032D01*
X163274427Y-97607826D01*
X163691181Y-97733076D01*
X164091384Y-97892754D01*
X164473327Y-98085140D01*
X164835300Y-98308514D01*
X165175593Y-98561155D01*
X165492498Y-98841343D01*
X165784304Y-99147357D01*
X166049301Y-99477477D01*
X166285782Y-99829982D01*
X166492034Y-100203153D01*
X166666350Y-100595268D01*
X166807020Y-101004607D01*
X166865923Y-101222154D01*
X166911710Y-101418567D01*
X166946660Y-101596145D01*
X166972017Y-101765679D01*
X166989024Y-101937964D01*
X166998923Y-102123793D01*
X167002959Y-102333959D01*
X167003217Y-102414000D01*
X167000914Y-102635057D01*
X166993176Y-102828055D01*
X166978759Y-103003790D01*
X166956421Y-103173053D01*
X166924918Y-103346639D01*
X166883007Y-103535341D01*
X166865923Y-103605846D01*
X166743588Y-104022410D01*
X166586950Y-104422346D01*
X166397784Y-104804035D01*
X166177867Y-105165860D01*
X165928974Y-105506202D01*
X165652880Y-105823442D01*
X165351363Y-106115962D01*
X165026198Y-106382143D01*
X164679160Y-106620367D01*
X164312027Y-106829015D01*
X163926573Y-107006469D01*
X163524574Y-107151111D01*
X163107806Y-107261321D01*
X162790721Y-107319791D01*
X162648494Y-107337158D01*
X162480248Y-107351084D01*
X162296360Y-107361262D01*
X162107209Y-107367382D01*
X161923173Y-107369137D01*
X161754629Y-107366219D01*
X161611956Y-107358318D01*
X161583077Y-107355682D01*
X161146817Y-107292711D01*
X160720854Y-107192743D01*
X160307331Y-107056793D01*
X159908391Y-106885875D01*
X159526177Y-106681006D01*
X159162832Y-106443198D01*
X158820499Y-106173468D01*
X158544658Y-105916868D01*
X158244306Y-105588380D01*
X157977068Y-105239344D01*
X157743405Y-104870679D01*
X157543775Y-104483301D01*
X157378640Y-104078129D01*
X157248459Y-103656079D01*
X157153692Y-103218070D01*
X157135805Y-103107615D01*
X157119223Y-102964400D01*
X157107469Y-102792265D01*
X157100545Y-102601067D01*
X157098589Y-102414000D01*
X157200594Y-102414000D01*
X157205607Y-102680511D01*
X157221722Y-102922571D01*
X157250555Y-103153638D01*
X157293721Y-103387168D01*
X157342490Y-103596077D01*
X157467202Y-104014819D01*
X157625314Y-104413500D01*
X157817221Y-104792816D01*
X158043319Y-105153460D01*
X158304003Y-105496129D01*
X158599668Y-105821516D01*
X158622010Y-105843989D01*
X158946568Y-106141684D01*
X159290953Y-106405923D01*
X159654007Y-106636218D01*
X160034573Y-106832077D01*
X160431492Y-106993010D01*
X160843607Y-107118527D01*
X161269759Y-107208136D01*
X161708792Y-107261349D01*
X162003154Y-107276248D01*
X162068269Y-107275779D01*
X162160365Y-107272507D01*
X162267487Y-107266966D01*
X162377683Y-107259691D01*
X162384154Y-107259209D01*
X162825326Y-107207729D01*
X163251288Y-107120395D01*
X163663144Y-106996862D01*
X164062001Y-106836784D01*
X164448964Y-106639814D01*
X164548518Y-106582067D01*
X164859913Y-106376983D01*
X165163471Y-106138519D01*
X165453518Y-105872312D01*
X165724379Y-105583998D01*
X165970382Y-105279216D01*
X166185853Y-104963601D01*
X166199098Y-104942141D01*
X166404499Y-104570182D01*
X166575214Y-104182575D01*
X166710956Y-103782211D01*
X166811440Y-103371980D01*
X166876380Y-102954770D01*
X166905490Y-102533472D01*
X166898484Y-102110975D01*
X166855077Y-101690169D01*
X166774982Y-101273943D01*
X166657914Y-100865188D01*
X166614595Y-100741867D01*
X166565225Y-100617298D01*
X166502125Y-100472978D01*
X166430287Y-100319160D01*
X166354706Y-100166097D01*
X166280375Y-100024043D01*
X166212287Y-99903251D01*
X166182418Y-99854461D01*
X165958355Y-99532053D01*
X165705981Y-99223300D01*
X165430545Y-98933367D01*
X165137294Y-98667422D01*
X164831476Y-98430631D01*
X164548518Y-98245932D01*
X164164366Y-98039593D01*
X163767284Y-97869415D01*
X163359530Y-97735730D01*
X162943359Y-97638872D01*
X162521030Y-97579172D01*
X162094801Y-97556963D01*
X161666927Y-97572576D01*
X161239667Y-97626344D01*
X160869923Y-97704490D01*
X160658558Y-97761489D01*
X160467213Y-97821920D01*
X160282768Y-97890653D01*
X160092101Y-97972558D01*
X159893000Y-98067130D01*
X159516806Y-98273756D01*
X159161967Y-98512213D01*
X158830480Y-98780505D01*
X158524344Y-99076633D01*
X158245558Y-99398599D01*
X157996121Y-99744404D01*
X157778030Y-100112051D01*
X157704805Y-100255000D01*
X157606044Y-100463765D01*
X157525041Y-100653708D01*
X157456956Y-100837882D01*
X157396946Y-101029343D01*
X157342490Y-101231923D01*
X157285972Y-101478001D01*
X157245150Y-101710260D01*
X157218409Y-101942157D01*
X157204134Y-102187148D01*
X157200594Y-102414000D01*
X157098589Y-102414000D01*
X157098450Y-102400663D01*
X157101184Y-102200911D01*
G37*
G36*
X160943866Y-98686556D02*
G01*
X161052481Y-98701163D01*
X161238133Y-98757303D01*
X161421879Y-98843980D01*
X161605636Y-98962646D01*
X161791322Y-99114753D01*
X161980853Y-99301754D01*
X162176149Y-99525098D01*
X162232110Y-99594326D01*
X162372219Y-99764931D01*
X162498193Y-99905702D01*
X162614849Y-100020983D01*
X162727005Y-100115112D01*
X162839477Y-100192430D01*
X162957084Y-100257279D01*
X162980360Y-100268527D01*
X163054987Y-100301645D01*
X163116173Y-100321109D01*
X163180362Y-100330426D01*
X163263997Y-100333105D01*
X163283334Y-100333154D01*
X163371438Y-100331463D01*
X163436474Y-100324069D01*
X163494388Y-100307491D01*
X163561125Y-100278245D01*
X163582549Y-100267812D01*
X163729741Y-100176361D01*
X163874163Y-100049485D01*
X164012041Y-99890823D01*
X164096324Y-99772433D01*
X164151105Y-99692978D01*
X164203497Y-99623359D01*
X164247138Y-99571669D01*
X164273238Y-99547445D01*
X164350048Y-99517898D01*
X164432960Y-99518876D01*
X164510230Y-99547513D01*
X164570112Y-99600946D01*
X164583897Y-99623223D01*
X164607677Y-99690227D01*
X164607821Y-99760532D01*
X164582953Y-99841923D01*
X164531695Y-99942185D01*
X164525646Y-99952562D01*
X164390617Y-100153704D01*
X164235783Y-100334041D01*
X164065725Y-100489778D01*
X163885022Y-100617123D01*
X163698254Y-100712282D01*
X163547472Y-100762706D01*
X163429046Y-100782602D01*
X163291731Y-100789869D01*
X163153003Y-100784545D01*
X163030341Y-100766664D01*
X163009384Y-100761613D01*
X162904877Y-100726606D01*
X162783432Y-100673978D01*
X162658661Y-100610478D01*
X162544172Y-100542856D01*
X162481846Y-100499987D01*
X162358132Y-100398245D01*
X162221646Y-100268729D01*
X162078614Y-100117814D01*
X161935261Y-99951876D01*
X161880058Y-99883769D01*
X161699436Y-99668977D01*
X161528189Y-99491119D01*
X161364974Y-99349550D01*
X161208449Y-99243625D01*
X161057268Y-99172700D01*
X160910091Y-99136131D01*
X160765573Y-99133273D01*
X160622371Y-99163481D01*
X160493537Y-99218391D01*
X160377368Y-99293528D01*
X160256506Y-99396492D01*
X160139735Y-99518429D01*
X160035842Y-99650487D01*
X159980968Y-99734875D01*
X159920849Y-99829295D01*
X159868731Y-99892838D01*
X159817990Y-99930868D01*
X159762003Y-99948745D01*
X159712565Y-99952154D01*
X159652227Y-99947236D01*
X159606383Y-99926999D01*
X159556453Y-99883284D01*
X159515032Y-99838025D01*
X159496448Y-99800271D01*
X159494051Y-99751883D01*
X159496640Y-99720152D01*
X159507497Y-99662291D01*
X159531633Y-99600161D01*
X159573381Y-99524169D01*
X159614791Y-99458526D01*
X159746651Y-99278848D01*
X159896731Y-99113640D01*
X160058707Y-98968403D01*
X160226258Y-98848635D01*
X160393060Y-98759836D01*
X160440077Y-98740779D01*
X160545602Y-98711910D01*
X160674542Y-98692616D01*
X160812196Y-98683848D01*
X160943866Y-98686556D01*
G37*
G36*
X157069692Y-107406077D02*
G01*
X157059923Y-107415846D01*
X157050154Y-107406077D01*
X157059923Y-107396307D01*
X157069692Y-107406077D01*
G37*
G36*
X167053846Y-107406077D02*
G01*
X167044077Y-107415846D01*
X167034307Y-107406077D01*
X167044077Y-107396307D01*
X167053846Y-107406077D01*
G37*
%TO.C,U1*%
X132281000Y-91393000D02*
X132536000Y-91393000D01*
X132536000Y-96163000D02*
X132536000Y-97828000D01*
X132281000Y-96163000D02*
X132536000Y-96163000D01*
X142801000Y-91393000D02*
X142546000Y-91393000D01*
X132281000Y-93778000D02*
X132281000Y-96163000D01*
X142801000Y-93778000D02*
X142801000Y-96163000D01*
X142801000Y-93778000D02*
X142801000Y-91393000D01*
X132281000Y-93778000D02*
X132281000Y-91393000D01*
X142801000Y-96163000D02*
X142546000Y-96163000D01*
%TO.C,R6*%
X104113000Y-94185936D02*
X104113000Y-94640064D01*
X102643000Y-94185936D02*
X102643000Y-94640064D01*
%TO.C,R4*%
X160501000Y-91010936D02*
X160501000Y-91465064D01*
X159031000Y-91010936D02*
X159031000Y-91465064D01*
%TO.C,J1*%
X109541000Y-105148000D02*
X109541000Y-107808000D01*
X135001000Y-107808000D02*
X109541000Y-107808000D01*
X136271000Y-105148000D02*
X137601000Y-105148000D01*
X135001000Y-105148000D02*
X135001000Y-107808000D01*
X137601000Y-105148000D02*
X137601000Y-106478000D01*
X135001000Y-105148000D02*
X109541000Y-105148000D01*
%TO.C,R7*%
X101700000Y-94663564D02*
X101700000Y-94209436D01*
X100230000Y-94663564D02*
X100230000Y-94209436D01*
%TO.C,JP1*%
X154162000Y-90486000D02*
X154162000Y-91886000D01*
X152162000Y-91886000D02*
X152162000Y-90486000D01*
X152862000Y-89786000D02*
X153462000Y-89786000D01*
X153462000Y-92586000D02*
X152862000Y-92586000D01*
X152162000Y-91886000D02*
G75*
G03*
X152862000Y-92586000I699999J-1D01*
G01*
X154162000Y-90486000D02*
G75*
G03*
X153462000Y-89786000I-700000J0D01*
G01*
X153462000Y-92586000D02*
G75*
G03*
X154162000Y-91886000I1J699999D01*
G01*
X152862000Y-89786000D02*
G75*
G03*
X152162000Y-90486000I0J-700000D01*
G01*
%TO.C,R1*%
X147801000Y-95455936D02*
X147801000Y-95910064D01*
X146331000Y-95455936D02*
X146331000Y-95910064D01*
%TO.C,J3*%
X157226000Y-86218000D02*
X155896000Y-86218000D01*
X155896000Y-86218000D02*
X155896000Y-84888000D01*
X168716000Y-86218000D02*
X168716000Y-83558000D01*
X158496000Y-86218000D02*
X168716000Y-86218000D01*
X158496000Y-86218000D02*
X158496000Y-83558000D01*
X158496000Y-83558000D02*
X168716000Y-83558000D01*
%TO.C,Q1*%
X150531000Y-91238000D02*
X150531000Y-91888000D01*
X147411000Y-91238000D02*
X147411000Y-92913000D01*
X147411000Y-91238000D02*
X147411000Y-90588000D01*
X150531000Y-91238000D02*
X150531000Y-90588000D01*
%TO.C,R3*%
X163041000Y-91010936D02*
X163041000Y-91465064D01*
X161571000Y-91010936D02*
X161571000Y-91465064D01*
%TO.C,R5*%
X106526000Y-94640064D02*
X106526000Y-94185936D01*
X105056000Y-94640064D02*
X105056000Y-94185936D01*
%TO.C,C1*%
X128551000Y-94674252D02*
X128551000Y-94151748D01*
X130021000Y-94674252D02*
X130021000Y-94151748D01*
%TD*%
%LPC*%
D13*
%TO.C,R2*%
X167386000Y-90325500D03*
X167386000Y-92150500D03*
%TD*%
D14*
%TO.C,J2*%
X110871000Y-84888000D03*
D15*
X113411000Y-84888000D03*
X115951000Y-84888000D03*
X118491000Y-84888000D03*
X121031000Y-84888000D03*
X123571000Y-84888000D03*
X126111000Y-84888000D03*
X128651000Y-84888000D03*
X131191000Y-84888000D03*
X133731000Y-84888000D03*
X136271000Y-84888000D03*
X138811000Y-84888000D03*
X141351000Y-84888000D03*
X143891000Y-84888000D03*
X146431000Y-84888000D03*
X148971000Y-84888000D03*
%TD*%
D16*
%TO.C,RV1*%
X110276000Y-91532000D03*
X112776000Y-96532000D03*
X115276000Y-91532000D03*
%TD*%
D17*
%TO.C,U1*%
X133096000Y-97028000D03*
X134366000Y-97028000D03*
X135636000Y-97028000D03*
X136906000Y-97028000D03*
X138176000Y-97028000D03*
X139446000Y-97028000D03*
X140716000Y-97028000D03*
X141986000Y-97028000D03*
X141986000Y-90528000D03*
X140716000Y-90528000D03*
X139446000Y-90528000D03*
X138176000Y-90528000D03*
X136906000Y-90528000D03*
X135636000Y-90528000D03*
X134366000Y-90528000D03*
X133096000Y-90528000D03*
%TD*%
D13*
%TO.C,R6*%
X103378000Y-93500500D03*
X103378000Y-95325500D03*
%TD*%
%TO.C,R4*%
X159766000Y-90325500D03*
X159766000Y-92150500D03*
%TD*%
D14*
%TO.C,J1*%
X136271000Y-106478000D03*
D15*
X133731000Y-106478000D03*
X131191000Y-106478000D03*
X128651000Y-106478000D03*
X126111000Y-106478000D03*
X123571000Y-106478000D03*
X121031000Y-106478000D03*
X118491000Y-106478000D03*
X115951000Y-106478000D03*
X113411000Y-106478000D03*
X110871000Y-106478000D03*
%TD*%
D18*
%TO.C,R7*%
X100965000Y-95349000D03*
X100965000Y-93524000D03*
%TD*%
D19*
%TO.C,JP1*%
X153162000Y-91836000D03*
D20*
X153162000Y-90536000D03*
%TD*%
D21*
%TO.C,H2*%
X176276000Y-86158000D03*
%TD*%
D13*
%TO.C,R1*%
X147066000Y-94770500D03*
X147066000Y-96595500D03*
%TD*%
D14*
%TO.C,J3*%
X157226000Y-84888000D03*
D15*
X159766000Y-84888000D03*
X162306000Y-84888000D03*
X164846000Y-84888000D03*
X167386000Y-84888000D03*
%TD*%
D22*
%TO.C,Q1*%
X148021000Y-92175500D03*
X149921000Y-92175500D03*
X148971000Y-90300500D03*
%TD*%
D13*
%TO.C,R3*%
X162306000Y-90325500D03*
X162306000Y-92150500D03*
%TD*%
D21*
%TO.C,H4*%
X102616000Y-86158000D03*
%TD*%
D18*
%TO.C,R5*%
X105791000Y-95325500D03*
X105791000Y-93500500D03*
%TD*%
D23*
%TO.C,C1*%
X129286000Y-95363000D03*
X129286000Y-93463000D03*
%TD*%
D21*
%TO.C,H1*%
X176276000Y-105843000D03*
%TD*%
%TO.C,H3*%
X101981000Y-105843000D03*
%TD*%
M02*
